<svg version="1" xmlns="http://www.w3.org/2000/svg" width="346.667" height="346.667" viewBox="0 0 260.000000 260.000000"><path d="M121.1 29.1c-2.4.4-6.3 1.8-8.7 2.9-3.7 1.9-4.8 2-8.6.9C93.1 30 81 34.1 72.1 43.6 63.3 53 61.6 58 61.7 75c0 15.6 1.6 24 6.9 37.2 3.8 9.4 3.8 9.3 3.5 29.8-.4 19.9 2.3 29.9 14.6 54.3 4.9 9.6 7.2 13.1 9.3 14.2 3.8 2 4.6 1.9 6.9-.6 2-2.1 3.4-8.8 4.6-20.9.6-5.8 0-9-5-28.9-3.1-12.3-7.3-26.8-9.4-32.2-2.2-5.5-3.7-9.9-3.5-9.9.6 0 4.4 7.8 7.9 16.6 3.8 9.3 9.5 28.8 17.6 59.9 5.3 20.4 9.9 32.5 13.8 35.9 1.7 1.6 2.5 1.7 4.6.8 5.3-2.4 8.6-11.3 18-47.7 5.7-22.4 12.5-45.8 13.2-45.2.2.2-1.2 6.9-3.1 14.8-7.2 30.2-8 35.6-6.9 43.4 1.2 8.2 3.1 12.8 5.5 13.3.9.2 3.5-1.4 5.8-3.4 4.9-4.5 11.2-16.8 16.6-32.9l3.7-11-.2-17.1c-.2-19.2.5-23.3 5.5-34.8 5.2-11.8 6.7-19.8 6.7-36.6.1-12.4-.2-15.3-2-20.2-2.8-7.5-5.4-11.1-10.9-14.9-10.8-7.4-23.5-9-39.8-5-4.9 1.2-9.1 2-9.3 1.8-.2-.2 1.7-1.2 4.2-2.1 2.5-1 4.5-2.1 4.5-2.6 0-2.4-15.3-3.6-23.9-1.9zM155 42.7c4.7 1.7 9.3 3.4 10.2 3.8 1.3.5 1.9 0 2.4-2.1.6-2.2 1.2-.5 2.9 8.2 3.9 19.1 5.3 21 17.2 23.8l5.8 1.3-5.8 1.8c-7.5 2.2-12.1 6.2-14.2 12.4-1 3.1-1.9 11.2-2.5 21.6-.5 9.2-1.1 16.9-1.3 17.2-.3.2-.8-3.1-1.2-7.4-1-11.8-3.4-27.2-5-32.8-2.1-7.5-6.1-10.6-16-12.4l-4-.8 4.5-1.1c2.5-.7 6.5-2.2 9-3.4 4.1-2.1 4.7-2.9 6.6-8.8 1.2-3.6 2.5-8.4 2.9-10.7l.7-4.2-4.4-1.2c-21.9-5.9-43.2-5-59 2.5L97 53.6l2.6-2.7c3.4-3.5 12.6-8.5 19.5-10.4 9-2.5 25.4-1.5 35.9 2.2z"/></svg>