<svg width="141" height="22" viewBox="0 0 141 22" fill="none" xmlns="http://www.w3.org/2000/svg">
<path fill-rule="evenodd" clip-rule="evenodd" d="M0 0H21.8661V22H0V0ZM119.103 11.4213V4.66752C119.095 4.18039 119.368 3.52948 119.941 3.20614C118.274 3.20614 118.979 3.20614 117.312 3.20614C117.885 3.52948 118.158 4.18039 118.15 4.66752V11.4213V14.5866L109.529 3.20662L104.629 3.20274C105.198 3.20355 105.863 3.63905 106.625 4.44612V11.4347V18.1884C106.633 18.6756 106.36 19.327 105.787 19.6498C107.454 19.6498 106.749 19.6498 108.417 19.6498C107.844 19.327 107.57 18.6756 107.578 18.1884V11.4347C107.578 9.49056 107.585 7.53914 107.589 5.59144L107.603 5.60973L118.353 19.6498H119.116C119.116 16.9117 119.103 14.1597 119.103 11.4213V11.4213ZM124.115 19.6367C124.904 19.6367 125.76 19.6367 126.616 19.6367C126.044 19.3135 125.771 18.6625 125.778 18.1753V11.4213V4.66752C125.771 4.18039 126.044 3.52948 126.616 3.20614C125.76 3.20614 124.904 3.20614 124.115 3.20614C123.327 3.20614 122.471 3.20614 121.614 3.20614C122.187 3.52948 122.46 4.18039 122.452 4.66752V11.4213V18.1753C122.46 18.6625 122.187 19.3135 121.614 19.6367C122.471 19.6367 123.327 19.6367 124.115 19.6367ZM137.167 4.5709L137.375 8.24377L140.791 4.91189C140.088 3.28544 128.144 0.451685 127.701 11.0507C127.257 21.6498 139.578 20.8367 141 17.1904C135.802 19.8405 130.917 15.4846 131.12 11.2054C131.267 8.08938 132.394 4.41003 137.167 4.5709V4.5709ZM39.3207 3.20614C39.5204 4.16615 39.7204 5.126 39.9201 6.08552C39.3073 5.18879 37.9647 4.09591 36.9473 4.06549H31.672C31.5922 4.27183 31.5534 4.48157 31.557 4.66752V10.8943H34.8818C35.3656 10.9021 36.0129 10.1809 36.3338 9.60497C36.3338 11.2826 36.3338 11.4515 36.3338 13.1291C36.0129 12.5531 35.3656 11.8456 34.8818 11.8529H31.557V18.1753C31.5492 18.6625 31.8222 19.3135 32.3952 19.6367C31.5385 19.6367 30.6821 19.6367 29.8939 19.6367C29.1061 19.6367 28.2492 19.6367 27.393 19.6367C27.9658 19.3135 28.2389 18.6625 28.2317 18.1753V4.66752C28.2389 4.18039 27.9658 3.52948 27.393 3.20614C31.4863 3.20614 35.2273 3.20614 39.3207 3.20614V3.20614ZM68.9043 15.8062C69.1042 14.8467 69.304 13.8867 69.5039 12.9271C68.8909 13.8234 67.548 14.9164 66.5309 14.9472H64.9192C64.8389 14.7408 64.8011 14.5308 64.8042 14.3452V4.66752C64.7968 4.18039 65.0694 3.52948 65.6424 3.20614C64.786 3.20614 63.9293 3.20614 63.1414 3.20614C62.3532 3.20614 61.4969 3.20614 60.6402 3.20614C61.213 3.52948 61.4861 4.18039 61.4787 4.66752V14.3452C61.4861 14.832 61.213 15.4833 60.6402 15.8062C64.7334 15.8062 64.8109 15.8062 68.9043 15.8062ZM68.8522 19.6367C69.0516 18.6772 69.2519 17.7173 69.4518 16.7573C68.8388 17.6541 67.4959 18.7471 66.4788 18.7774H58.9215C58.8418 18.5715 58.8034 18.3613 58.8065 18.1753V4.66752C58.7991 4.18039 59.0722 3.52948 59.6451 3.20614C58.7884 3.20614 57.9316 3.20614 57.1437 3.20614C56.3555 3.20614 55.4992 3.20614 54.643 3.20614C55.2154 3.52948 55.4884 4.18039 55.4812 4.66752V18.1753C55.4884 18.6625 55.2154 19.3135 54.643 19.6367C58.7358 19.6367 64.7588 19.6367 68.8522 19.6367V19.6367ZM96.8581 19.6367C97.0579 18.6772 97.2582 17.7173 97.4576 16.7573C96.8451 17.6541 95.5022 18.7471 94.4851 18.7774H88.8575C88.7774 18.5715 88.7395 18.3613 88.742 18.1753V4.66752C88.7348 4.18039 89.0079 3.52948 89.5807 3.20614C88.7245 3.20614 87.8676 3.20614 87.0795 3.20614C86.2916 3.20614 85.4349 3.20614 84.578 3.20614C85.151 3.52948 85.4241 4.18039 85.4167 4.66752V18.1753C85.4241 18.6625 85.151 19.3135 84.578 19.6367C88.6714 19.6367 92.7648 19.6367 96.8581 19.6367V19.6367ZM100.848 19.6367C101.636 19.6367 102.493 19.6367 103.349 19.6367C102.776 19.3135 102.503 18.6625 102.51 18.1753V11.4213V4.66752C102.503 4.18039 102.776 3.52948 103.349 3.20614C102.493 3.20614 101.636 3.20614 100.848 3.20614C100.06 3.20614 99.203 3.20614 98.3467 3.20614C98.9196 3.52948 99.1928 4.18039 99.1854 4.66752V11.4213V18.1753C99.1928 18.6625 98.9196 19.3135 98.3467 19.6367C99.203 19.6367 100.06 19.6367 100.848 19.6367ZM79.7843 4.5709L79.9928 8.24377L83.4086 4.91189C82.7048 3.28544 70.7621 0.452008 70.3185 11.0507C69.8747 21.6493 82.1961 20.8367 83.6171 17.1904C78.4198 19.8405 73.5344 15.485 73.7372 11.2054C73.8846 8.08986 75.0114 4.41003 79.7843 4.5709V4.5709ZM52.397 4.66752C52.3897 4.18039 52.6629 3.52948 53.2357 3.20614C51.5683 3.20614 52.2734 3.20614 50.6064 3.20614C51.1788 3.52948 51.4525 4.18039 51.4447 4.66752L51.4368 14.9532C51.434 16.3435 50.0392 17.9878 47.1493 17.512C46.4623 17.3988 45.1387 16.5181 45.1421 14.652V4.66752C45.1343 4.18039 45.4078 3.52948 45.9803 3.20614C45.124 3.20614 44.2677 3.20614 43.4793 3.20614C42.6916 3.20614 41.8348 3.20614 40.9781 3.20614C41.551 3.52948 41.824 4.18039 41.8168 4.66752V14.0089C41.8042 14.0977 41.7973 14.1914 41.7973 14.2911C41.7973 17.2362 44.1703 19.6233 47.0972 19.6233C49.7945 19.6233 52.4496 17.512 52.4272 14.8679L52.397 4.66752V4.66752ZM4.31213 3.18445C-1.32542 4.0972 0.329104 19.319 9.32589 19.4373C6.9604 18.1481 5.33852 16.2655 4.46848 14.3505C3.25726 11.6865 3.49982 8.95973 5.21017 7.6843C6.39388 6.8023 8.27971 6.61343 10.8744 7.61924C13.7897 6.59612 15.6853 6.7777 16.7925 7.63656C18.3138 8.81796 18.3457 11.2787 17.4906 13.6527C16.4927 16.4254 14.2829 19.079 11.8234 19.4321C20.1591 19.6501 21.2705 8.49381 19.9756 5.64954C19.3045 4.17392 17.9606 3.00206 15.7402 3.19788C15.5161 3.21795 15.29 3.24999 15.0622 3.29061C13.9232 3.64002 8.60061 4.91448 6.5343 4.76591C5.17108 4.6693 6.78073 4.42185 8.62779 3.8818C7.17916 3.51346 5.60441 2.97568 4.31213 3.18445V3.18445ZM14.4225 15.1396C14.5164 14.6897 14.6104 14.239 14.7038 13.7892C14.4161 14.2095 13.7858 14.7222 13.3091 14.737H12.5526C12.5151 14.6399 12.4976 14.5411 12.4989 14.4544V9.91392C12.4953 9.68557 12.6234 9.38051 12.8921 9.22838C12.4907 9.22838 12.0887 9.22838 11.7187 9.22838C11.3491 9.22838 10.9473 9.22838 10.5455 9.22838C10.8143 9.38051 10.9426 9.68557 10.9391 9.91392V14.4544C10.9426 14.6829 10.8143 14.988 10.5455 15.1396C12.4656 15.1396 12.5022 15.1396 14.4225 15.1396V15.1396ZM14.3984 16.9368C14.4913 16.4869 14.5853 16.0362 14.6792 15.586C14.3919 16.0064 13.7612 16.5194 13.2845 16.5338H9.73944C9.70196 16.4372 9.68395 16.3383 9.68524 16.2513V9.91392C9.6817 9.68557 9.81006 9.38051 10.0785 9.22838C9.67655 9.22838 9.27474 9.22838 8.9051 9.22838C8.53562 9.22838 8.13365 9.22838 7.73185 9.22838C8.00015 9.38051 8.12851 9.68557 8.12513 9.91392V16.2513C8.12851 16.4801 8.00015 16.7852 7.73185 16.9368C9.6521 16.9368 12.4776 16.9368 14.3984 16.9368V16.9368Z" fill="url(#paint0_linear)"/>
<defs>
<linearGradient id="paint0_linear" x1="52.2725" y1="-19.4454" x2="87.6806" y2="41.347" gradientUnits="userSpaceOnUse">
<stop stop-color="#C8AB6B"/>
<stop offset="0.231373" stop-color="#B08B30"/>
<stop offset="0.580392" stop-color="#CEB378"/>
<stop offset="1" stop-color="#C8AB6A"/>
</linearGradient>
</defs>
</svg>
