<svg width="51" height="74" viewBox="0 0 51 74" fill="none" xmlns="http://www.w3.org/2000/svg">
<g clip-path="url(#clip0)">
<path d="M47.5204 5.12134C43.5023 1.41323 38.6538 1.01924 35.6907 1.22782C35.0398 1.32053 34.3888 1.4364 33.7378 1.55228C32.9297 1.69134 32.1441 1.85357 31.336 2.03897C30.5503 2.24755 29.7422 2.45613 28.9341 2.61836C28.126 2.80377 27.3404 2.98918 26.5323 3.15141C27.2955 2.8733 28.0811 2.57201 28.8443 2.27073C29.6075 1.96944 30.3707 1.66816 31.1115 1.3437C31.336 1.251 31.538 1.1583 31.7625 1.06559C30.483 0.532551 28.1709 -0.139544 25.0732 0.022686C19.439 0.277619 17.4412 2.34026 17.4412 2.34026C17.4412 2.34026 15.4209 1.18147 12.5028 1.41323C9.58466 1.64498 7.33994 2.34026 4.87075 4.65783C2.40156 6.9754 -0.741048 9.75648 0.156839 19.9538C1.07717 30.3597 4.19733 31.3099 4.19733 35.4815C4.19733 39.6531 3.07497 42.8977 4.64628 49.3869C6.21758 55.8761 11.3804 65.1464 12.2783 65.8417C13.1762 66.5369 14.7475 67.464 15.8699 65.6099C16.7902 64.0803 17.2616 58.0546 17.3963 56.0615C17.1045 54.8332 16.7902 53.6049 16.4984 52.3534L15.2189 47.0925C14.7924 45.3312 14.3435 43.593 13.8496 41.8548C13.3558 40.1398 12.7497 38.4248 12.1436 36.733C11.8294 35.8987 11.4927 35.0412 11.156 34.23C10.7968 33.3957 10.4376 32.5845 10.0336 31.7734C10.9988 33.303 11.8069 34.9253 12.5477 36.5708C12.9293 37.4051 13.2884 38.2162 13.6251 39.0737C13.9619 39.9081 14.2986 40.7656 14.5904 41.6231C15.7352 45.0762 16.7229 48.5526 17.6881 52.0521C18.6533 55.5285 19.5512 59.0512 20.5164 62.5275C21.0103 64.2657 21.4592 66.0271 21.9755 67.6957C22.0428 67.9043 22.1102 68.1129 22.1775 68.2751L22.4244 68.9009C22.604 69.318 22.7612 69.712 22.9632 70.106C23.3223 70.894 23.7264 71.6819 24.1753 72.3772C24.3998 72.7249 24.6467 73.0493 24.8936 73.3274C25.1406 73.6055 25.4324 73.8141 25.6793 73.9068C25.814 73.9532 25.9262 73.9763 26.0384 73.9763C26.0609 73.9763 26.1058 73.9763 26.1282 73.9763H26.1731C26.1956 73.9763 26.218 73.9763 26.2405 73.9763C26.3303 73.9532 26.42 73.93 26.5098 73.9068C26.869 73.8141 27.1608 73.6751 27.4526 73.4665C28.0138 73.0493 28.4403 72.3772 28.7994 71.6124C29.1586 70.8476 29.4729 70.0133 29.7871 69.179C30.1238 68.3215 30.3932 67.5335 30.6626 66.676C30.9319 65.8185 31.1788 64.961 31.4033 64.0803L32.8175 58.8426L35.6234 48.3672C35.8703 47.5097 36.0948 46.6058 36.3641 45.7483C36.6335 44.8677 36.9029 44.0102 37.1947 43.1527C37.4865 42.2952 37.7783 41.4377 38.0926 40.5802L39.0129 38.0308L38.2946 40.6497L37.5987 43.2685C37.3743 44.1492 37.1498 45.0299 36.9253 45.8874C36.8131 46.3277 36.7233 46.7681 36.6335 47.2084L36.3641 48.5294L35.2193 53.8367C34.9275 55.204 34.6133 56.5482 34.299 57.9156V58.634C34.299 58.634 34.5235 64.8915 36.3193 65.8185C37.5987 66.4674 39.2374 64.6597 40.8087 62.3421C42.38 60.0246 46.196 50.2908 46.4205 47.2779C46.645 44.2651 45.9715 39.1664 46.4205 35.6901C46.8694 32.2137 48.2163 30.3597 49.1141 28.2739C50.012 26.1881 50.6854 22.0164 50.9099 19.2353C51.1344 16.4543 51.4486 8.73675 47.5204 5.12134ZM40.6965 28.5751C40.5169 35.412 40.0679 38.1235 40.0679 38.1235C40.0679 38.1235 39.4394 26.4893 37.5987 21.3907C36.409 18.0997 30.1687 17.8448 30.1687 17.8448C30.1687 17.8448 35.6458 17.1727 37.1722 15.2028C38.115 13.9976 38.8333 10.2663 39.2598 7.60114C38.4068 7.34621 37.5763 7.13763 36.7233 6.92904C35.5785 6.65094 34.4337 6.41918 33.2889 6.23377C30.9993 5.83979 28.6872 5.65438 26.3751 5.67756C25.2303 5.67756 24.0855 5.77026 22.9407 5.90931C21.8184 6.07154 20.696 6.3033 19.5737 6.60458C18.4737 6.92904 17.3738 7.32303 16.2964 7.78654C15.2189 8.27323 14.1863 8.80628 13.1762 9.47837C13.5578 9.01486 14.0068 8.57452 14.4557 8.18053C14.6802 7.97195 14.9271 7.78654 15.174 7.60114C15.4209 7.41573 15.6678 7.23033 15.9148 7.0681C16.9249 6.396 18.0248 5.83979 19.1472 5.37627L20.0001 5.05181C20.292 4.93593 20.5838 4.86641 20.8756 4.7737C21.4592 4.5883 22.0653 4.47242 22.6714 4.33337C22.9632 4.26384 23.2774 4.24066 23.5693 4.19431C23.8835 4.14796 24.1753 4.10161 24.4896 4.07843C25.0957 4.03208 25.7017 3.98573 26.3078 3.98573C28.7321 3.96256 31.1564 4.28701 33.4909 4.93593C34.6582 5.26039 35.803 5.63121 36.9029 6.11789L37.7334 6.48871C38.0028 6.62776 38.2722 6.74364 38.5415 6.88269C38.7884 6.99857 39.0129 7.13763 39.2598 7.27668C39.4843 5.74708 39.619 4.63465 39.619 4.63465C39.619 4.63465 40.9883 14.7393 42.9187 16.1761C44.6023 17.4276 48.8448 17.9607 48.8448 17.9607C45.545 19.4671 40.9658 18.1693 40.6965 28.5751Z" fill="#717171"/>
<path d="M40.1137 7.90267C39.8219 7.80997 39.5301 7.71726 39.2383 7.62456C39.2607 7.53186 39.2607 7.43916 39.2832 7.36963C39.5525 7.53186 39.8443 7.71726 40.1137 7.90267Z" fill="#717171"/>
</g>
<defs>
<clipPath id="clip0">
<rect width="51" height="74" fill="white"/>
</clipPath>
</defs>
</svg>
