<svg width="64" height="63" viewBox="0 0 64 63" fill="none" xmlns="http://www.w3.org/2000/svg">
<g clip-path="url(#clip0)">
<path d="M63.5339 19.9939C63.0939 21.5904 62.5805 23.1132 62.2383 24.0711C62.2138 24.0219 62.1649 23.9728 62.1649 23.9483C61.896 23.6044 61.5293 23.4325 61.1138 23.4325C60.9671 23.4325 60.8204 23.457 60.6982 23.4816C60.5515 23.3097 60.3804 23.1623 60.2092 23.064C60.0137 22.9658 59.7692 22.8921 59.5492 22.8921C59.3781 22.8921 59.2314 22.9167 59.0847 22.9658C58.8892 22.2781 58.6202 22.0079 58.2536 21.8114C58.058 21.7132 57.838 21.664 57.618 21.6395C57.4713 20.3377 57.0801 19.2816 56.0534 19.0114C55.8823 18.9623 55.7356 18.9623 55.6134 18.9623C55.0756 18.9623 54.2199 19.1588 51.9953 20.657C51.3597 21.0746 50.773 21.5167 50.3819 21.7869C49.7707 20.4114 48.8418 19.1097 47.4728 18.7658C47.2283 18.7167 46.9839 18.6676 46.7394 18.6676C45.0282 18.6676 43.3414 20.0676 42.3391 21.05C41.3368 19.1588 39.0878 18.4711 37.4743 18.4711C37.3521 18.4711 37.2054 18.4711 37.0587 18.4956C34.0763 18.7167 32.7318 19.7728 32.194 20.436C31.6561 19.7728 30.3116 18.7167 27.3292 18.4956C27.1825 18.4956 27.0358 18.4711 26.9136 18.4711C25.2757 18.4711 23.0511 19.1588 22.0488 21.05C21.071 20.0676 19.3597 18.6676 17.6485 18.6676C17.404 18.6676 17.1596 18.6921 16.9151 18.7658C15.5461 19.1097 14.6172 20.4114 14.006 21.7869C13.6149 21.4921 13.0282 21.0746 12.3926 20.657C10.168 19.1833 9.31237 18.9623 8.77455 18.9623C8.67677 18.9623 8.53009 18.9623 8.33452 19.0114C7.30778 19.2816 6.91664 20.3623 6.76997 21.6395C6.54995 21.6395 6.32994 21.7132 6.13437 21.7869C5.76767 21.9833 5.49877 22.2535 5.3032 22.9412C5.15652 22.8921 4.9854 22.8676 4.83872 22.8676C4.59426 22.8676 4.37424 22.9167 4.17868 23.0395C3.98311 23.1377 3.83643 23.2605 3.68975 23.457C3.56752 23.4325 3.42084 23.4079 3.27417 23.4079C2.85858 23.4079 2.49189 23.6044 2.22298 23.9237C2.14965 24.0219 2.02741 24.1693 1.92963 24.5132C1.58738 23.629 0.951784 21.8605 0.462861 19.9693C-0.270523 17.2676 -0.0260618 13.3377 0.462861 13.0921C0.951784 12.8465 0.951784 10.636 3.15194 8.67106C5.35209 6.70615 13.4193 4.25001 17.5752 3.26755C21.731 2.2851 20.5087 2.03948 23.1978 0.811414C25.8869 -0.416656 31.9984 0.0745718 31.9984 0.0745718C31.9984 0.0745718 38.1099 -0.416656 40.799 0.811414C43.4881 2.03948 42.2658 2.2851 46.4216 3.26755C50.5775 4.25001 58.6447 6.70615 60.8448 8.67106C63.045 10.636 63.045 12.8465 63.5339 13.0921C64.0228 13.3377 64.2673 17.2921 63.5339 19.9939Z" fill="#717171"/>
<path d="M61.09 24.6597C60.9189 24.6597 60.7478 24.807 60.5522 25.0281C60.6255 25.2737 60.6744 25.593 60.7478 25.9614C60.9189 27.1158 60.9678 28.4667 60.8455 29.6211C60.6744 31.2667 60.1122 32.3474 59.4766 32.9614C59.5255 32.986 59.5743 33.0105 59.6232 33.0105C60.1122 33.0105 60.6011 33.0105 61.09 31.0456C61.5789 29.0807 61.5789 24.6597 61.09 24.6597Z" fill="#717171"/>
<path d="M37.4789 19.7227C37.3567 19.7227 37.2589 19.7227 37.1366 19.7227C33.7142 19.9683 32.9808 21.442 32.9808 21.442C32.8586 21.9823 32.443 24.5613 32.1985 27.042C31.9541 24.5613 31.5385 21.9577 31.4162 21.442C31.4162 21.442 30.6829 19.9683 27.2604 19.7227C27.1626 19.7227 27.0404 19.7227 26.9182 19.7227C25.5003 19.7227 23.7646 20.3367 23.1046 21.6876C22.3712 23.1613 21.8822 29.7928 22.8601 31.2665C23.4224 32.1016 26.1114 32.5437 28.4583 32.5437C30.2428 32.5437 31.8318 32.2981 32.1496 31.7577C32.1741 31.7332 32.1985 31.6841 32.1985 31.6349C32.223 31.6841 32.223 31.7086 32.2474 31.7577C32.5652 32.2981 34.1542 32.5437 35.9388 32.5437C38.2856 32.5437 40.9747 32.1016 41.5369 31.2665C42.5148 29.7928 42.0259 23.1613 41.2925 21.6876C40.608 20.3367 38.8723 19.7227 37.4789 19.7227Z" fill="#717171"/>
<path d="M50.2133 25.7649C49.871 23.4561 48.7465 20.4105 47.1575 19.993C47.0108 19.9684 46.8641 19.9438 46.7175 19.9438C44.8107 19.9438 42.5127 22.6947 42.5127 22.6947C42.5127 22.6947 42.5127 23.014 42.4883 23.5053C42.8061 25.5193 42.9528 28.3684 42.635 30.2351C42.6838 30.407 42.7083 30.5053 42.7572 30.5544C43.0505 30.8491 44.9573 31.0702 46.5219 31.0702C47.4997 31.0702 48.3309 30.9965 48.6243 30.8C49.0398 30.5298 49.5532 30.0631 49.8955 29.3263C50.1644 28.7614 50.3355 28.0491 50.3355 27.1158C50.3355 26.7228 50.2866 26.2561 50.2133 25.7649Z" fill="#717171"/>
<path d="M60.187 25.5681C60.0404 24.8067 59.8448 24.2664 59.6248 24.1681C59.6003 24.1436 59.5515 24.1436 59.527 24.1436C59.2825 24.1436 58.9159 24.4629 58.5981 24.8067C58.6225 25.0769 58.6469 25.3962 58.6714 25.74C58.7447 27.0418 58.7692 28.6874 58.6225 29.4243C58.4758 30.1365 58.0602 31.4629 57.5469 32.2734C57.8402 32.6909 58.1825 33.0102 58.4025 33.0102C58.5981 33.0102 58.9159 32.8383 59.2337 32.4944C59.7226 31.9786 60.2115 31.0207 60.3582 29.5716C60.5048 28.1471 60.3826 26.6243 60.187 25.5681Z" fill="#717171"/>
<path d="M58.1572 25.3225C58.0594 24.0945 57.8883 23.0383 57.6683 22.9401C57.6194 22.9155 57.5705 22.9155 57.5216 22.9155C57.3505 22.9155 57.1305 23.0138 56.9104 23.1611C56.9104 24.3401 56.8127 25.6418 56.6904 26.4524C56.5682 27.3611 56.0793 28.9085 55.4681 30.3331C55.3703 30.5541 55.297 30.7261 55.1992 30.9225C55.6392 31.6594 56.2504 32.5682 56.6171 32.5682C56.6415 32.5682 56.666 32.5682 56.6904 32.5436C56.8616 32.4454 57.0571 32.1997 57.2527 31.8313C57.6194 31.1436 57.9861 30.1611 58.1572 29.3506C58.2794 28.6383 58.2794 26.8454 58.1572 25.3225Z" fill="#717171"/>
<path d="M56.4233 23.5049C56.4477 21.9085 56.301 20.3856 55.7143 20.2383C55.6654 20.2383 55.641 20.2383 55.5921 20.2383C54.4431 20.2383 50.5807 23.1856 50.5807 23.1856C50.5807 23.1856 50.5562 23.3821 50.5073 23.7014C50.8985 25.0278 51.0696 26.3295 51.0696 27.1155C51.0696 28.4172 50.7518 29.5225 50.1406 30.3576C50.434 30.726 52.1941 32.7646 53.1475 32.7646C53.1964 32.7646 53.2453 32.7646 53.2697 32.74C53.7342 32.6172 54.3454 31.5856 54.9076 30.3576C55.5432 28.9576 56.081 27.2874 56.2033 26.3541C56.301 25.6909 56.3988 24.5856 56.4233 23.5049Z" fill="#717171"/>
<path d="M3.61909 25.9614C3.66799 25.593 3.74133 25.2737 3.81466 25.0281C3.64354 24.807 3.44797 24.6597 3.27685 24.6597C2.78793 24.6597 2.78793 29.0807 3.27685 31.0456C3.76577 33.0105 4.25469 33.0105 4.74362 33.0105C4.79251 33.0105 4.8414 32.986 4.89029 32.9614C4.27914 32.3719 3.69243 31.2667 3.52131 29.6211C3.42353 28.4667 3.44797 27.1404 3.61909 25.9614Z" fill="#717171"/>
<path d="M21.8579 22.6947C21.8579 22.6947 19.5355 19.9438 17.6532 19.9438C17.5065 19.9438 17.3598 19.9684 17.2132 19.993C15.5997 20.386 14.4996 23.4561 14.1574 25.7649C14.084 26.2561 14.0352 26.7228 14.0352 27.1158C14.0352 28.0491 14.2063 28.786 14.4752 29.3263C14.8174 30.0631 15.3308 30.5053 15.7464 30.8C16.0397 30.9965 16.8709 31.0702 17.8488 31.0702C19.4133 31.0702 21.3201 30.8737 21.6135 30.5544C21.6624 30.5053 21.7112 30.3824 21.7357 30.2351C21.4179 28.3684 21.5401 25.5438 21.8824 23.5053C21.8824 23.014 21.8579 22.6947 21.8579 22.6947Z" fill="#717171"/>
<path d="M5.69793 25.74C5.72238 25.3962 5.74683 25.0769 5.77127 24.8067C5.45347 24.4629 5.11123 24.1436 4.84232 24.1436C4.79343 24.1436 4.76898 24.1436 4.74453 24.1681C4.54897 24.2664 4.32895 24.8067 4.18227 25.5681C3.96226 26.6243 3.86447 28.1471 4.01115 29.5716C4.15783 31.0453 4.64675 31.9786 5.13567 32.4944C5.45347 32.8383 5.77127 33.0102 5.96684 33.0102C6.18686 33.0102 6.5291 32.6909 6.82246 32.2734C6.30909 31.4383 5.86906 30.1365 5.74683 29.4243C5.60015 28.6874 5.6246 27.0418 5.69793 25.74Z" fill="#717171"/>
<path d="M7.70063 26.4524C7.5784 25.6418 7.48061 24.3401 7.48061 23.1611C7.2606 23.0138 7.04058 22.9155 6.86946 22.9155C6.82057 22.9155 6.77168 22.9155 6.72278 22.9401C6.50277 23.0629 6.33164 24.0945 6.23386 25.3225C6.11163 26.8453 6.08718 28.6383 6.23386 29.3261C6.40498 30.1366 6.77168 31.119 7.13837 31.8068C7.33394 32.1752 7.52951 32.4208 7.70063 32.519C7.72507 32.519 7.74952 32.5436 7.77397 32.5436C8.14066 32.5436 8.75181 31.6348 9.19184 30.898C9.1185 30.726 9.02072 30.5296 8.92294 30.3085C8.31178 28.9085 7.82286 27.3611 7.70063 26.4524Z" fill="#717171"/>
<path d="M13.8638 23.7014C13.8149 23.3821 13.7905 23.1856 13.7905 23.1856C13.7905 23.1856 9.92798 20.2383 8.77901 20.2383C8.73012 20.2383 8.70567 20.2383 8.65678 20.2383C8.07007 20.3856 7.9234 21.933 7.94784 23.5049C7.97229 24.5856 8.07007 25.6664 8.16786 26.3786C8.29009 27.2874 8.85235 28.9576 9.4635 30.3821C10.0258 31.6348 10.6369 32.6663 11.1014 32.7646C11.1503 32.7646 11.1992 32.7892 11.2236 32.7892C12.177 32.7892 13.9127 30.726 14.2305 30.3821C13.6193 29.5225 13.3015 28.4418 13.3015 27.14C13.3015 26.3295 13.4971 25.0278 13.8638 23.7014Z" fill="#717171"/>
<path d="M56.9367 36.6948C56.9367 36.6948 56.8634 36.7194 56.7656 36.7931C56.839 36.9404 56.9123 37.0878 56.9612 37.2106C57.0834 37.5299 57.4257 38.4633 57.2545 39.1019C57.719 39.1264 58.2568 39.0527 58.4035 38.9299C58.648 38.6597 57.9146 36.6948 56.9367 36.6948Z" fill="#717171"/>
<path d="M55.2232 35.958C55.2232 35.958 55.0276 35.958 54.832 36.1791C54.9787 36.4984 55.1254 36.8177 55.2721 37.137C55.761 38.365 55.8588 39.0282 55.8099 39.4457C56.1032 39.4457 56.4699 39.372 56.7144 39.1264C56.7388 39.1019 56.7633 39.0527 56.7877 39.0036C56.9588 38.6352 56.7388 37.751 56.3721 37.0141C56.0543 36.4492 55.6387 35.958 55.2232 35.958Z" fill="#717171"/>
<path d="M53.5617 34.8774C53.415 34.6809 53.195 34.5581 52.975 34.5581C52.8772 34.5581 52.7794 34.5827 52.6816 34.6318C52.1194 34.902 51.5082 35.516 51.2148 36.2528C51.5082 37.309 51.6793 39.2739 51.6793 40.6493C51.826 40.6739 51.9971 40.6985 52.1927 40.6985C53.195 40.6985 54.8084 40.3055 55.2485 39.6423C55.2974 39.5686 55.3218 39.4949 55.3218 39.4213C55.4196 38.8564 55.0284 37.7511 54.564 36.7441C54.1973 35.9581 53.8061 35.2458 53.5617 34.8774Z" fill="#717171"/>
<path d="M50.9479 37.5791C50.8502 36.8669 50.7279 36.2774 50.5812 35.9581C50.0923 34.9756 49.1145 33.502 48.87 33.502C48.6256 33.502 48.6256 33.502 48.6256 33.502C48.0144 33.502 46.5965 34.509 45.9609 35.3932C46.3521 36.4984 46.5721 38.8809 46.181 40.3791C46.8165 40.7967 49.579 42.0248 50.6546 42.0248C50.8746 42.0248 51.0213 41.9756 51.0702 41.8528C51.1435 41.6072 51.1924 40.9441 51.168 40.1335C51.1435 39.323 51.0702 38.3897 50.9479 37.5791Z" fill="#717171"/>
<path d="M45.5682 36.9407C45.4949 36.3266 45.3482 35.7863 45.2015 35.467C44.8837 34.8038 42.928 34.7056 41.5101 34.7056C40.8012 34.7056 40.2389 34.7301 40.0678 34.7301C39.7256 34.7301 39.5056 34.8529 39.4078 34.9266C39.4567 35.295 39.4322 35.8354 39.3344 36.7196C39.2855 37.0389 39.1878 37.8494 38.9922 38.7582C39.0411 39.7407 39.1389 40.5757 39.3344 40.895C39.6033 41.288 41.0457 41.5336 42.4635 41.5336C43.6858 41.5336 44.8593 41.3371 45.2015 40.895C45.4704 40.5266 45.5926 39.8635 45.6415 39.1021C45.6904 38.3898 45.6415 37.6038 45.5682 36.9407Z" fill="#717171"/>
<path d="M35.7893 34.3125C34.5669 34.3125 33.2713 34.3862 32.6357 34.4353C32.3668 34.4599 32.1468 34.6564 32.0979 34.9265C31.9023 36.523 32.489 41.1406 32.709 41.5827C32.8557 41.902 34.0047 42.1967 35.1048 42.1967C35.7648 42.1967 36.4004 42.0985 36.8649 41.8283C38.0872 41.0915 38.9673 35.0985 38.5761 34.7055C38.2828 34.4107 37.0605 34.3125 35.7893 34.3125Z" fill="#717171"/>
<path d="M7.11496 36.7931C7.01718 36.7439 6.94384 36.6948 6.94384 36.6948C5.96599 36.6948 5.23261 38.6597 5.47707 38.9054C5.62374 39.0527 6.13711 39.1018 6.62604 39.0773C6.45491 38.4387 6.79716 37.5054 6.91939 37.1861C6.96828 37.0878 7.01718 36.9404 7.11496 36.7931Z" fill="#717171"/>
<path d="M8.60761 37.137C8.72984 36.8177 8.87652 36.4984 9.04764 36.1791C8.85207 35.958 8.6565 35.958 8.6565 35.958C8.24092 35.958 7.82533 36.4492 7.50754 37.0387C7.14084 37.751 6.94527 38.6352 7.09195 39.0282C7.1164 39.0773 7.14084 39.1264 7.16529 39.151C7.40975 39.3966 7.752 39.4457 8.0698 39.4703C8.04535 39.0527 8.11869 38.365 8.60761 37.137Z" fill="#717171"/>
<path d="M11.2217 34.6562C11.1239 34.6071 11.0261 34.5825 10.9283 34.5825C10.7083 34.5825 10.4883 34.7053 10.3416 34.9018C10.0972 35.2702 9.70604 35.9825 9.33935 36.7439C8.87487 37.7509 8.48373 38.8562 8.58152 39.4211C8.58152 39.5194 8.63041 39.593 8.65486 39.6422C9.09489 40.3053 10.7083 40.6983 11.7106 40.6983C11.9062 40.6983 12.0773 40.6738 12.224 40.6492C12.224 39.2737 12.3951 37.3334 12.6885 36.2527C12.3951 35.5159 11.784 34.9264 11.2217 34.6562Z" fill="#717171"/>
<path d="M15.2572 33.502C15.2572 33.502 15.2572 33.502 15.0128 33.502C14.7683 33.502 13.7905 34.9756 13.3015 35.9581C13.1549 36.2528 13.0326 36.8669 12.9349 37.5791C12.8371 38.3897 12.7637 39.323 12.7393 40.1335C12.7148 40.9441 12.7393 41.6072 12.8371 41.8528C12.886 41.9756 13.0326 42.0248 13.2527 42.0248C14.3283 42.0248 17.0907 40.7967 17.7263 40.3791C17.3352 38.8809 17.5552 36.4984 17.9463 35.3932C17.2863 34.509 15.8684 33.502 15.2572 33.502Z" fill="#717171"/>
<path d="M24.4731 34.9266C24.3753 34.8529 24.1553 34.7301 23.813 34.7301C23.6419 34.7301 23.0796 34.7056 22.3707 34.7056C20.9528 34.7056 18.9971 34.8038 18.6793 35.467C18.5326 35.7617 18.4104 36.3021 18.3126 36.9407C18.2148 37.6038 18.1904 38.3898 18.2393 39.0775C18.2882 39.8389 18.4104 40.5021 18.6793 40.8705C19.0216 41.3371 20.2194 41.5091 21.4173 41.5091C22.8352 41.5091 24.2775 41.2635 24.5464 40.8705C24.742 40.5757 24.8642 39.7161 24.8886 38.7336C24.6931 37.8003 24.5708 37.0143 24.5464 36.695C24.4486 35.8354 24.4486 35.2705 24.4731 34.9266Z" fill="#717171"/>
<path d="M31.2424 34.4597C30.6068 34.4106 29.3112 34.3369 28.0889 34.3369C26.8177 34.3369 25.5954 34.4352 25.2776 34.7545C24.8864 35.1474 25.7665 41.1404 26.9888 41.8773C27.4288 42.1474 28.0889 42.2457 28.7489 42.2457C29.8734 42.2457 30.998 41.9264 31.1446 41.6317C31.3646 41.1895 31.9514 36.5966 31.7558 34.9755C31.7313 34.6808 31.5113 34.4597 31.2424 34.4597Z" fill="#717171"/>
<path d="M58.1573 51.1858C57.1794 53.3963 48.1343 60.5191 43.9785 62.2384C39.8226 63.9577 31.7554 62.2384 31.7554 62.2384C31.7554 62.2384 23.6882 63.9577 19.5324 62.2384C15.3765 60.5191 6.33143 53.3963 5.35359 51.1858C4.37574 48.9752 2.90897 43.3261 3.3979 41.6068C3.7157 40.477 3.93571 39.7647 4.32685 39.3472C4.40019 39.5191 4.49797 39.6419 4.6202 39.7647C4.86466 40.0103 5.3047 40.3051 6.47811 40.3051C6.55145 40.3051 6.62479 40.3051 6.67368 40.3051H6.69813C7.04037 40.5261 7.4804 40.6489 7.94488 40.6735C8.89828 41.6314 10.7317 41.9016 11.5874 41.9261C11.6118 42.098 11.6362 42.1717 11.6607 42.2454C11.734 42.491 12.0763 43.277 13.2252 43.277C14.4476 43.277 16.6722 42.3191 17.7967 41.7296C18.4078 42.4173 19.6301 42.7612 21.4147 42.7612C22.5637 42.7612 24.5438 42.6138 25.375 41.7787C25.6439 42.2945 25.9617 42.6875 26.3528 42.9331C27.1107 43.3998 28.0641 43.4735 28.7241 43.4735C29.1397 43.4735 31.0465 43.4244 31.9265 42.5893C32.8066 43.4244 34.7134 43.4735 35.129 43.4735C35.789 43.4735 36.7424 43.3752 37.5003 42.9331C37.867 42.7121 38.2092 42.2945 38.4781 41.7787C39.3093 42.6384 41.2894 42.7612 42.4384 42.7612C44.2474 42.7612 45.4697 42.4173 46.0564 41.7296C47.1809 42.2945 49.4055 43.277 50.6278 43.277C51.7768 43.277 52.1191 42.491 52.2168 42.2454C52.2413 42.1963 52.2657 42.098 52.2902 41.9261C53.1213 41.9016 54.9548 41.6314 55.9327 40.6735C56.3971 40.6489 56.8372 40.5261 57.1794 40.3051H57.2039C57.2772 40.3051 57.3261 40.3051 57.3994 40.3051C58.5728 40.3051 59.0129 39.9858 59.2573 39.7647C59.3062 39.7156 59.3551 39.6665 59.3796 39.6173C59.6485 40.0594 59.844 40.6735 60.0885 41.6068C60.6019 43.3261 59.1351 48.9752 58.1573 51.1858Z" fill="#717171"/>
</g>
<defs>
<clipPath id="clip0">
<rect width="64" height="63" fill="white"/>
</clipPath>
</defs>
</svg>
