<svg width="55" height="78" viewBox="0 0 55 78" fill="none" xmlns="http://www.w3.org/2000/svg">
<g clip-path="url(#clip0)">
<path d="M31.0098 64.6575C30.4046 65.0973 29.7994 65.5127 29.1942 65.8304C28.8795 65.977 28.6132 66.0503 28.2985 66.0503C27.9838 66.0503 27.6449 65.977 27.3302 65.8793C26.6524 65.6594 25.9988 65.3173 25.321 64.9507C25.7567 65.586 26.3619 66.1236 27.0639 66.4902C27.4271 66.6857 27.8144 66.8079 28.2743 66.8567C28.3954 66.8567 28.4922 66.8812 28.6132 66.8567C28.7343 66.8567 28.8311 66.8323 28.9522 66.8079C29.17 66.759 29.3637 66.6857 29.5573 66.5879C30.2836 66.2214 30.8888 65.7082 31.4213 65.1706C31.9539 64.6086 32.4381 64.0221 32.8254 63.3379C32.2202 63.7533 31.615 64.2176 31.0098 64.6575ZM31.736 58.4996C30.9856 59.0127 30.211 59.5015 29.4605 59.868C29.0732 60.0391 28.7343 60.1368 28.347 60.1368C27.9596 60.1368 27.5481 60.0635 27.1366 59.9413C26.2893 59.697 25.4662 59.2815 24.6432 58.8661C25.2242 59.6236 25.9746 60.259 26.8703 60.6988C27.306 60.9188 27.8144 61.0654 28.347 61.1142C28.4922 61.1142 28.6132 61.1387 28.7585 61.1142C28.9037 61.1142 29.0248 61.1142 29.17 61.0654C29.2911 61.0409 29.4363 61.0165 29.5573 60.9676L29.9205 60.821C30.8404 60.4056 31.5908 59.7947 32.2928 59.1349C32.9706 58.4751 33.6 57.7665 34.1084 56.9357C33.2611 57.4488 32.5107 57.9864 31.736 58.4996ZM32.2202 52.6594C31.7118 52.9282 31.2277 53.2214 30.7193 53.4658C30.2352 53.7345 29.7268 53.9545 29.2184 54.1255C28.7101 54.321 28.2501 54.3943 27.7418 54.3943C27.2334 54.3943 26.7008 54.2966 26.1683 54.1744C25.1031 53.9056 24.0138 53.4902 22.9244 53.0259C23.3117 53.4902 23.7717 53.8567 24.2801 54.2233C24.7642 54.5654 25.2968 54.883 25.8778 55.103C26.4345 55.3473 27.0639 55.5184 27.7176 55.5673C28.0323 55.5917 28.3712 55.5917 28.7101 55.5428L29.1942 55.4451C29.3395 55.3962 29.5089 55.3473 29.6542 55.2985C30.2594 55.0785 30.7919 54.8097 31.3245 54.4921C31.8329 54.1744 32.3412 53.8323 32.8012 53.4658C33.7211 52.7082 34.5926 51.8774 35.3188 50.9244C34.2294 51.4864 33.2127 52.0729 32.2202 52.6594ZM33.1885 46.2571C32.5591 46.5503 31.9539 46.8436 31.3245 47.0879C30.6951 47.3567 30.0899 47.6011 29.4605 47.7721C28.8311 47.9676 28.2501 48.0409 27.6207 48.0409C26.9913 48.0409 26.3377 47.9432 25.6841 47.821C24.3769 47.5522 23.0697 47.1368 21.714 46.6725C22.2224 47.1612 22.8276 47.5767 23.4328 47.9432C24.038 48.3097 24.6916 48.6274 25.3936 48.8718C26.0714 49.1161 26.7977 49.2872 27.5723 49.3605C27.766 49.3605 27.9596 49.3849 28.1533 49.3849L28.7343 49.3605C29.1216 49.3116 29.5089 49.2383 29.8478 49.1161C30.0415 49.0673 30.211 49.0184 30.3804 48.9451C30.5499 48.8718 30.7193 48.8229 30.8888 48.7496C31.2277 48.603 31.5666 48.4564 31.8813 48.2853C32.5349 47.9676 33.1401 47.6011 33.7211 47.1857C34.9073 46.3793 35.9966 45.4996 36.9649 44.4488C35.6577 45.0597 34.4231 45.6706 33.1885 46.2571ZM34.0358 40.0748C33.2611 40.4169 32.5107 40.7834 31.7603 41.1011C31.0098 41.4188 30.2352 41.712 29.4847 41.9319L29.1942 42.0052C29.0974 42.0297 29.0006 42.0541 28.9279 42.0785L28.3712 42.1763L27.8144 42.2252C27.6207 42.2252 27.4271 42.2252 27.2334 42.2252C26.4588 42.2252 25.6599 42.103 24.861 41.9564C24.0622 41.8097 23.2633 41.5898 22.4645 41.3455C21.6656 41.1011 20.8426 40.8323 20.0437 40.5391C20.3584 40.8567 20.6973 41.1255 21.0604 41.3699C21.3993 41.6387 21.7867 41.8586 22.1498 42.103C22.9002 42.5428 23.6991 42.9338 24.5463 43.2515C25.3936 43.5447 26.2651 43.7646 27.185 43.8379C27.4271 43.8379 27.6449 43.8624 27.887 43.8624L28.589 43.8379C29.049 43.7646 29.5331 43.6913 29.9689 43.5447L30.3078 43.447C30.4288 43.3981 30.5257 43.3736 30.6225 43.3248C30.8404 43.2515 31.0582 43.1782 31.2519 43.0804C31.6634 42.8849 32.075 42.7383 32.4623 42.5184C33.2611 42.1274 33.9874 41.6631 34.7136 41.1988C36.1419 40.2214 37.4975 39.1218 38.6837 37.8511C37.0617 38.6086 35.5609 39.3661 34.0358 40.0748ZM34.0358 40.0748C33.2611 40.4169 32.5107 40.7834 31.7603 41.1011C31.0098 41.4188 30.2352 41.712 29.4847 41.9319L29.1942 42.0052C29.0974 42.0297 29.0006 42.0541 28.9279 42.0785L28.3712 42.1763L27.8144 42.2252C27.6207 42.2252 27.4271 42.2252 27.2334 42.2252C26.4588 42.2252 25.6599 42.103 24.861 41.9564C24.0622 41.8097 23.2633 41.5898 22.4645 41.3455C21.6656 41.1011 20.8426 40.8323 20.0437 40.5391C20.3584 40.8567 20.6973 41.1255 21.0604 41.3699C21.3993 41.6387 21.7867 41.8586 22.1498 42.103C22.9002 42.5428 23.6991 42.9338 24.5463 43.2515C25.3936 43.5447 26.2651 43.7646 27.185 43.8379C27.4271 43.8379 27.6449 43.8624 27.887 43.8624L28.589 43.8379C29.049 43.7646 29.5331 43.6913 29.9689 43.5447L30.3078 43.447C30.4288 43.3981 30.5257 43.3736 30.6225 43.3248C30.8404 43.2515 31.0582 43.1782 31.2519 43.0804C31.6634 42.8849 32.075 42.7383 32.4623 42.5184C33.2611 42.1274 33.9874 41.6631 34.7136 41.1988C36.1419 40.2214 37.4975 39.1218 38.6837 37.8511C37.0617 38.6086 35.5609 39.3661 34.0358 40.0748ZM31.3245 47.1124C30.6951 47.3812 30.0899 47.6255 29.4605 47.7966C28.8311 47.9921 28.2501 48.0654 27.6207 48.0654C26.9913 48.0654 26.3377 47.9676 25.6841 47.8455C24.3769 47.5767 23.0697 47.1612 21.714 46.697C22.2224 47.1857 22.8276 47.6011 23.4328 47.9676C24.038 48.3342 24.6916 48.6518 25.3936 48.8962C26.0714 49.1406 26.7977 49.3116 27.5723 49.3849C27.766 49.3849 27.9596 49.4094 28.1533 49.4094L28.7343 49.3849C29.1216 49.3361 29.5089 49.2627 29.8478 49.1406C30.0415 49.0917 30.211 49.0428 30.3804 48.9695C30.5499 48.8962 30.7193 48.8473 30.8888 48.774C31.2277 48.6274 31.5666 48.4808 31.8813 48.3097C32.5349 47.9921 33.1401 47.6255 33.7211 47.2101C34.9073 46.4037 35.9966 45.524 36.9649 44.4733C35.6577 45.0597 34.4231 45.6706 33.1885 46.2571C32.5591 46.5503 31.9297 46.8436 31.3245 47.1124ZM30.7193 53.4658C30.2352 53.7345 29.7268 53.9545 29.2184 54.1255C28.7101 54.321 28.2501 54.3943 27.7418 54.3943C27.2334 54.3943 26.7008 54.2966 26.1683 54.1744C25.1031 53.9056 24.0138 53.4902 22.9244 53.0259C23.3117 53.4902 23.7717 53.8567 24.2801 54.2233C24.7642 54.5654 25.2968 54.883 25.8778 55.103C26.4345 55.3473 27.0639 55.5184 27.7176 55.5673C28.0323 55.5917 28.3712 55.5917 28.7101 55.5428L29.1942 55.4451C29.3395 55.3962 29.5089 55.3473 29.6542 55.2985C30.2594 55.0785 30.7919 54.8097 31.3245 54.4921C31.8329 54.1744 32.3412 53.8323 32.8012 53.4658C33.7211 52.7082 34.5926 51.8774 35.3188 50.9244C34.2779 51.4864 33.2611 52.0729 32.2686 52.6594C31.7118 52.9282 31.2277 53.2214 30.7193 53.4658ZM29.4605 59.868C29.0732 60.0391 28.7343 60.1368 28.347 60.1368C27.9596 60.1368 27.5481 60.0635 27.1366 59.9413C26.2893 59.697 25.4662 59.2815 24.6432 58.8661C25.2242 59.6236 25.9746 60.259 26.8703 60.6988C27.306 60.9188 27.8144 61.0654 28.347 61.1142C28.4922 61.1142 28.6132 61.1387 28.7585 61.1142C28.9037 61.1142 29.0248 61.1142 29.17 61.0654C29.2911 61.0409 29.4363 61.0165 29.5573 60.9676L29.9205 60.821C30.8404 60.4056 31.5908 59.7947 32.2928 59.1349C32.9706 58.4751 33.6 57.7665 34.1084 56.9357C33.3095 57.4488 32.5591 57.9864 31.7845 58.4996C30.9856 59.0127 30.2352 59.5015 29.4605 59.868ZM29.2184 65.806C28.9037 65.9526 28.6375 66.0259 28.3228 66.0259C28.0081 66.0259 27.6691 65.9526 27.3544 65.8548C26.6766 65.6349 26.023 65.2928 25.3452 64.9263C25.7809 65.5616 26.3861 66.0992 27.0882 66.4657C27.4513 66.6612 27.8386 66.7834 28.2985 66.8323C28.4196 66.8323 28.5164 66.8567 28.6375 66.8323C28.7585 66.8323 28.8553 66.8079 28.9764 66.7834C29.1942 66.7345 29.3879 66.6612 29.5816 66.5635C30.3078 66.197 30.913 65.6838 31.4455 65.1462C31.9781 64.5842 32.4623 63.9977 32.8496 63.3135C32.2202 63.7533 31.615 64.1932 31.0098 64.633C30.4288 65.0973 29.8236 65.5127 29.2184 65.806ZM51.2475 5.39997C46.9143 1.49019 41.6854 1.07478 38.49 1.2947C37.788 1.39245 37.086 1.51463 36.3839 1.63681C35.5125 1.78342 34.6652 1.95448 33.7937 2.14997C32.9464 2.36989 32.075 2.58982 31.2035 2.76087C30.332 2.95636 29.4847 3.15185 28.6132 3.3229C29.4363 3.02966 30.2836 2.712 31.1066 2.39433C31.9297 2.07666 32.7528 1.75899 33.5516 1.41688C33.7937 1.31914 34.0116 1.22139 34.2537 1.12365C32.8738 0.56162 30.3804 -0.147027 27.0397 0.0240259C20.9878 0.292823 18.8091 2.46763 18.8091 2.46763C18.8091 2.46763 16.6304 1.24583 13.4834 1.49019C10.3364 1.73455 7.91562 2.46764 5.25277 4.91124C2.58992 7.35485 -0.79917 10.2872 0.16914 21.0391C1.16166 32.0109 4.52654 33.0127 4.52654 37.4112C4.52654 41.8097 3.31615 45.2308 5.01069 52.0729C6.70523 58.915 12.273 68.6894 13.2413 69.4225C14.2096 70.1556 15.9042 71.133 17.1146 69.1782C18.1313 67.5654 18.6154 61.212 18.7607 59.1105C18.446 57.8154 18.1071 56.5203 17.7924 55.2007L16.4125 49.6537C15.9526 47.7966 15.4684 45.9639 14.9359 44.1312C14.4033 42.3229 13.7497 40.5146 13.0961 38.7308C12.7572 37.8511 12.3941 36.947 12.0309 36.0917C11.6436 35.212 11.2563 34.3567 10.8205 33.5015C11.8615 35.1143 12.733 36.8248 13.5318 38.5597C13.9433 39.4394 14.3307 40.3191 14.6938 41.1988C15.0569 42.0785 15.42 42.9827 15.7347 43.8868C16.9693 47.5278 18.0345 51.1932 19.0754 54.883C20.1163 58.5485 21.0846 62.2627 22.1256 65.9282C22.6339 67.7609 23.1423 69.618 23.6991 71.3774C23.7717 71.5973 23.8443 71.8173 23.9169 71.9883L24.1832 72.6481C24.3769 73.0879 24.5463 73.5033 24.7642 73.9188C25.1515 74.7496 25.5873 75.5804 26.0714 76.3135C26.3135 76.68 26.5798 77.0221 26.8461 77.3154C27.1124 77.6086 27.4271 77.8285 27.6934 77.9263C27.8386 77.9751 27.9596 77.9996 28.0807 77.9996C28.1049 77.9996 28.1533 77.9996 28.1775 77.9996H28.2259C28.2501 77.9996 28.2743 77.9996 28.2985 77.9996C28.3954 77.9752 28.4922 77.9507 28.589 77.9263C28.9522 77.8285 29.2911 77.6819 29.6058 77.462C30.211 77.0221 30.6709 76.3135 31.0582 75.5071C31.4456 74.7007 31.7845 73.821 32.1234 72.9413C32.4865 72.0372 32.777 71.2064 33.0675 70.3022C33.358 69.3981 33.6242 68.4939 33.8663 67.5654L35.3914 62.0428L38.4174 50.9977C38.6837 50.0936 38.9257 49.1406 39.2162 48.2364C39.5067 47.3079 39.7972 46.4037 40.1119 45.4996C40.4266 44.5955 40.7413 43.6913 41.0802 42.7872L42.0728 40.0992L41.2981 42.8605L40.5477 45.6218C40.3056 46.5503 40.0635 47.4545 39.8214 48.383C39.7004 48.8473 39.6036 49.3116 39.5067 49.7759L39.2162 51.1688L37.9816 56.7646C37.6669 58.2064 37.328 59.6236 36.9891 61.0654V61.8473C36.9891 61.8473 37.2312 68.4451 39.1678 69.4225C40.5477 70.1067 42.3148 68.2007 44.0094 65.7571C45.7039 63.3135 49.8192 53.0503 50.0613 49.8736C50.3034 46.697 49.5772 41.321 50.0613 37.6556C50.5455 33.9902 51.9979 32.0353 52.9662 29.8361C53.9346 27.6368 54.6608 23.2383 54.9029 20.306C55.1449 17.3736 55.4838 9.212 51.2475 5.39997ZM36.2387 53.5391C33.5758 65.5127 30.1867 75.2872 28.4922 75.2872C26.7977 75.2872 22.9244 63.8022 21.2299 55.4939C19.5353 47.1857 15.1779 33.5015 15.1779 33.5015C15.1779 33.5015 20.9878 36.6782 29.2184 36.1894C37.328 35.7007 41.6612 33.5748 41.8065 33.5015C41.7581 33.6236 38.8773 41.6631 36.2387 53.5391ZM39.5551 7.33042C38.3206 7.03718 37.086 6.79282 35.8514 6.59733C33.3822 6.18192 30.8888 5.98643 28.3954 6.01087C27.1608 6.01087 25.9262 6.10861 24.6916 6.25523C23.4812 6.42628 22.2708 6.67064 21.0604 6.98831C19.8742 7.33042 18.6881 7.74583 17.5261 8.23455C16.3641 8.74771 15.2506 9.30974 14.1612 10.0184C14.5728 9.52966 15.0569 9.06538 15.5411 8.64997C15.7831 8.43004 16.0494 8.23455 16.3157 8.03906C16.582 7.84357 16.8483 7.64809 17.1146 7.47703C18.2039 6.76839 19.3901 6.18192 20.6247 5.6932L21.5446 5.35109C21.8593 5.22891 22.174 5.1556 22.4887 5.05786C23.1181 4.86237 23.7717 4.74019 24.4253 4.61801C24.74 4.5447 25.0789 4.52027 25.3936 4.47139C25.7325 4.42252 26.0472 4.37365 26.3619 4.34921C27.0155 4.30034 27.6691 4.25147 28.3228 4.25147C30.9372 4.22703 33.5516 4.56914 36.0692 5.25335C37.328 5.59545 38.5626 5.98643 39.7488 6.49959L40.6445 6.89057C40.935 7.03718 41.2255 7.15936 41.516 7.30598C42.097 7.59921 42.6537 7.91688 43.1863 8.28342C42.0243 7.94132 40.7897 7.62365 39.5551 7.33042ZM28.9279 42.0785L28.3712 42.1763L27.8144 42.2252C27.6207 42.2252 27.4271 42.2252 27.2334 42.2252C26.4588 42.2252 25.6599 42.103 24.861 41.9564C24.0622 41.8097 23.2633 41.5898 22.4645 41.3455C21.6656 41.1011 20.8426 40.8323 20.0437 40.5391C20.3584 40.8567 20.6973 41.1255 21.0604 41.3699C21.3993 41.6387 21.7867 41.8586 22.1498 42.103C22.9002 42.5428 23.6991 42.9338 24.5463 43.2515C25.3936 43.5447 26.2651 43.7646 27.185 43.8379C27.4271 43.8379 27.6449 43.8624 27.887 43.8624L28.589 43.8379C29.049 43.7646 29.5331 43.6913 29.9689 43.5447L30.3078 43.447C30.4288 43.3981 30.5257 43.3736 30.6225 43.3248C30.8404 43.2515 31.0582 43.1782 31.2519 43.0804C31.6634 42.8849 32.075 42.7383 32.4623 42.5184C33.2611 42.1274 33.9874 41.6631 34.7136 41.1988C36.1419 40.2214 37.4975 39.1218 38.6837 37.8511C37.1102 38.5597 35.5851 39.3173 34.06 40.0259C33.2853 40.368 32.5349 40.7345 31.7845 41.0522C31.034 41.3699 30.2594 41.6631 29.5089 41.883L29.2184 41.9564C29.0974 42.0541 29.0006 42.0785 28.9279 42.0785ZM31.3245 47.1124C30.6951 47.3812 30.0899 47.6255 29.4605 47.7966C28.8311 47.9921 28.2501 48.0654 27.6207 48.0654C26.9913 48.0654 26.3377 47.9676 25.6841 47.8455C24.3769 47.5767 23.0697 47.1612 21.714 46.697C22.2224 47.1857 22.8276 47.6011 23.4328 47.9676C24.038 48.3342 24.6916 48.6518 25.3936 48.8962C26.0714 49.1406 26.7977 49.3116 27.5723 49.3849C27.766 49.3849 27.9596 49.4094 28.1533 49.4094L28.7343 49.3849C29.1216 49.3361 29.5089 49.2627 29.8478 49.1406C30.0415 49.0917 30.211 49.0428 30.3804 48.9695C30.5499 48.8962 30.7193 48.8473 30.8888 48.774C31.2277 48.6274 31.5666 48.4808 31.8813 48.3097C32.5349 47.9921 33.1401 47.6255 33.7211 47.2101C34.9073 46.4037 35.9966 45.524 36.9649 44.4733C35.6577 45.0597 34.4231 45.6706 33.1885 46.2571C32.5591 46.5503 31.9297 46.8436 31.3245 47.1124ZM30.7193 53.4658C30.2352 53.7345 29.7268 53.9545 29.2184 54.1255C28.7101 54.321 28.2501 54.3943 27.7418 54.3943C27.2334 54.3943 26.7008 54.2966 26.1683 54.1744C25.1031 53.9056 24.0138 53.4902 22.9244 53.0259C23.3117 53.4902 23.7717 53.8567 24.2801 54.2233C24.7642 54.5654 25.2968 54.883 25.8778 55.103C26.4345 55.3473 27.0639 55.5184 27.7176 55.5673C28.0323 55.5917 28.3712 55.5917 28.7101 55.5428L29.1942 55.4451C29.3395 55.3962 29.5089 55.3473 29.6542 55.2985C30.2594 55.0785 30.7919 54.8097 31.3245 54.4921C31.8329 54.1744 32.3412 53.8323 32.8012 53.4658C33.7211 52.7082 34.5926 51.8774 35.3188 50.9244C34.2779 51.4864 33.2611 52.0729 32.2686 52.6594C31.7118 52.9282 31.2277 53.2214 30.7193 53.4658ZM29.4605 59.868C29.0732 60.0391 28.7343 60.1368 28.347 60.1368C27.9596 60.1368 27.5481 60.0635 27.1366 59.9413C26.2893 59.697 25.4662 59.2815 24.6432 58.8661C25.2242 59.6236 25.9746 60.259 26.8703 60.6988C27.306 60.9188 27.8144 61.0654 28.347 61.1142C28.4922 61.1142 28.6132 61.1387 28.7585 61.1142C28.9037 61.1142 29.0248 61.1142 29.17 61.0654C29.2911 61.0409 29.4363 61.0165 29.5573 60.9676L29.9205 60.821C30.8404 60.4056 31.5908 59.7947 32.2928 59.1349C32.9706 58.4751 33.6 57.7665 34.1084 56.9357C33.3095 57.4488 32.5591 57.9864 31.7845 58.4996C30.9856 59.0127 30.2352 59.5015 29.4605 59.868ZM29.2184 65.806C28.9037 65.9526 28.6375 66.0259 28.3228 66.0259C28.0081 66.0259 27.6691 65.9526 27.3544 65.8548C26.6766 65.6349 26.023 65.2928 25.3452 64.9263C25.7809 65.5616 26.3861 66.0992 27.0882 66.4657C27.4513 66.6612 27.8386 66.7834 28.2985 66.8323C28.4196 66.8323 28.5164 66.8567 28.6375 66.8323C28.7585 66.8323 28.8553 66.8079 28.9764 66.7834C29.1942 66.7345 29.3879 66.6612 29.5816 66.5635C30.3078 66.197 30.913 65.6838 31.4455 65.1462C31.9781 64.5842 32.4623 63.9977 32.8496 63.3135C32.2202 63.7533 31.615 64.1932 31.0098 64.633C30.4288 65.0973 29.8236 65.5127 29.2184 65.806ZM31.0098 64.6575C30.4046 65.0973 29.7994 65.5127 29.1942 65.8304C28.8795 65.977 28.6132 66.0503 28.2985 66.0503C27.9838 66.0503 27.6449 65.977 27.3302 65.8793C26.6524 65.6594 25.9988 65.3173 25.321 64.9507C25.7567 65.586 26.3619 66.1236 27.0639 66.4902C27.4271 66.6857 27.8144 66.8079 28.2743 66.8567C28.3954 66.8567 28.4922 66.8812 28.6132 66.8567C28.7343 66.8567 28.8311 66.8323 28.9522 66.8079C29.17 66.759 29.3637 66.6857 29.5573 66.5879C30.2836 66.2214 30.8888 65.7082 31.4213 65.1706C31.9539 64.6086 32.4381 64.0221 32.8254 63.3379C32.2202 63.7533 31.615 64.2176 31.0098 64.6575ZM31.736 58.4996C30.9856 59.0127 30.211 59.5015 29.4605 59.868C29.0732 60.0391 28.7343 60.1368 28.347 60.1368C27.9596 60.1368 27.5481 60.0635 27.1366 59.9413C26.2893 59.697 25.4662 59.2815 24.6432 58.8661C25.2242 59.6236 25.9746 60.259 26.8703 60.6988C27.306 60.9188 27.8144 61.0654 28.347 61.1142C28.4922 61.1142 28.6132 61.1387 28.7585 61.1142C28.9037 61.1142 29.0248 61.1142 29.17 61.0654C29.2911 61.0409 29.4363 61.0165 29.5573 60.9676L29.9205 60.821C30.8404 60.4056 31.5908 59.7947 32.2928 59.1349C32.9706 58.4751 33.6 57.7665 34.1084 56.9357C33.2611 57.4488 32.5107 57.9864 31.736 58.4996ZM32.2202 52.6594C31.7118 52.9282 31.2277 53.2214 30.7193 53.4658C30.2352 53.7345 29.7268 53.9545 29.2184 54.1255C28.7101 54.321 28.2501 54.3943 27.7418 54.3943C27.2334 54.3943 26.7008 54.2966 26.1683 54.1744C25.1031 53.9056 24.0138 53.4902 22.9244 53.0259C23.3117 53.4902 23.7717 53.8567 24.2801 54.2233C24.7642 54.5654 25.2968 54.883 25.8778 55.103C26.4345 55.3473 27.0639 55.5184 27.7176 55.5673C28.0323 55.5917 28.3712 55.5917 28.7101 55.5428L29.1942 55.4451C29.3395 55.3962 29.5089 55.3473 29.6542 55.2985C30.2594 55.0785 30.7919 54.8097 31.3245 54.4921C31.8329 54.1744 32.3412 53.8323 32.8012 53.4658C33.7211 52.7082 34.5926 51.8774 35.3188 50.9244C34.2294 51.4864 33.2127 52.0729 32.2202 52.6594ZM33.1885 46.2571C32.5591 46.5503 31.9539 46.8436 31.3245 47.0879C30.6951 47.3567 30.0899 47.6011 29.4605 47.7721C28.8311 47.9676 28.2501 48.0409 27.6207 48.0409C26.9913 48.0409 26.3377 47.9432 25.6841 47.821C24.3769 47.5522 23.0697 47.1368 21.714 46.6725C22.2224 47.1612 22.8276 47.5767 23.4328 47.9432C24.038 48.3097 24.6916 48.6274 25.3936 48.8718C26.0714 49.1161 26.7977 49.2872 27.5723 49.3605C27.766 49.3605 27.9596 49.3849 28.1533 49.3849L28.7343 49.3605C29.1216 49.3116 29.5089 49.2383 29.8478 49.1161C30.0415 49.0673 30.211 49.0184 30.3804 48.9451C30.5499 48.8718 30.7193 48.8229 30.8888 48.7496C31.2277 48.603 31.5666 48.4564 31.8813 48.2853C32.5349 47.9676 33.1401 47.6011 33.7211 47.1857C34.9073 46.3793 35.9966 45.4996 36.9649 44.4488C35.6577 45.0597 34.4231 45.6706 33.1885 46.2571ZM34.0358 40.0748C33.2611 40.4169 32.5107 40.7834 31.7603 41.1011C31.0098 41.4188 30.2352 41.712 29.4847 41.9319L29.1942 42.0052C29.0974 42.0297 29.0006 42.0541 28.9279 42.0785L28.3712 42.1763L27.8144 42.2252C27.6207 42.2252 27.4271 42.2252 27.2334 42.2252C26.4588 42.2252 25.6599 42.103 24.861 41.9564C24.0622 41.8097 23.2633 41.5898 22.4645 41.3455C21.6656 41.1011 20.8426 40.8323 20.0437 40.5391C20.3584 40.8567 20.6973 41.1255 21.0604 41.3699C21.3993 41.6387 21.7867 41.8586 22.1498 42.103C22.9002 42.5428 23.6991 42.9338 24.5463 43.2515C25.3936 43.5447 26.2651 43.7646 27.185 43.8379C27.4271 43.8379 27.6449 43.8624 27.887 43.8624L28.589 43.8379C29.049 43.7646 29.5331 43.6913 29.9689 43.5447L30.3078 43.447C30.4288 43.3981 30.5257 43.3736 30.6225 43.3248C30.8404 43.2515 31.0582 43.1782 31.2519 43.0804C31.6634 42.8849 32.075 42.7383 32.4623 42.5184C33.2611 42.1274 33.9874 41.6631 34.7136 41.1988C36.1419 40.2214 37.4975 39.1218 38.6837 37.8511C37.0617 38.6086 35.5609 39.3661 34.0358 40.0748ZM34.0358 40.0748C33.2611 40.4169 32.5107 40.7834 31.7603 41.1011C31.0098 41.4188 30.2352 41.712 29.4847 41.9319L29.1942 42.0052C29.0974 42.0297 29.0006 42.0541 28.9279 42.0785L28.3712 42.1763L27.8144 42.2252C27.6207 42.2252 27.4271 42.2252 27.2334 42.2252C26.4588 42.2252 25.6599 42.103 24.861 41.9564C24.0622 41.8097 23.2633 41.5898 22.4645 41.3455C21.6656 41.1011 20.8426 40.8323 20.0437 40.5391C20.3584 40.8567 20.6973 41.1255 21.0604 41.3699C21.3993 41.6387 21.7867 41.8586 22.1498 42.103C22.9002 42.5428 23.6991 42.9338 24.5463 43.2515C25.3936 43.5447 26.2651 43.7646 27.185 43.8379C27.4271 43.8379 27.6449 43.8624 27.887 43.8624L28.589 43.8379C29.049 43.7646 29.5331 43.6913 29.9689 43.5447L30.3078 43.447C30.4288 43.3981 30.5257 43.3736 30.6225 43.3248C30.8404 43.2515 31.0582 43.1782 31.2519 43.0804C31.6634 42.8849 32.075 42.7383 32.4623 42.5184C33.2611 42.1274 33.9874 41.6631 34.7136 41.1988C36.1419 40.2214 37.4975 39.1218 38.6837 37.8511C37.0617 38.6086 35.5609 39.3661 34.0358 40.0748ZM33.1885 46.2571C32.5591 46.5503 31.9539 46.8436 31.3245 47.0879C30.6951 47.3567 30.0899 47.6011 29.4605 47.7721C28.8311 47.9676 28.2501 48.0409 27.6207 48.0409C26.9913 48.0409 26.3377 47.9432 25.6841 47.821C24.3769 47.5522 23.0697 47.1368 21.714 46.6725C22.2224 47.1612 22.8276 47.5767 23.4328 47.9432C24.038 48.3097 24.6916 48.6274 25.3936 48.8718C26.0714 49.1161 26.7977 49.2872 27.5723 49.3605C27.766 49.3605 27.9596 49.3849 28.1533 49.3849L28.7343 49.3605C29.1216 49.3116 29.5089 49.2383 29.8478 49.1161C30.0415 49.0673 30.211 49.0184 30.3804 48.9451C30.5499 48.8718 30.7193 48.8229 30.8888 48.7496C31.2277 48.603 31.5666 48.4564 31.8813 48.2853C32.5349 47.9676 33.1401 47.6011 33.7211 47.1857C34.9073 46.3793 35.9966 45.4996 36.9649 44.4488C35.6577 45.0597 34.4231 45.6706 33.1885 46.2571ZM32.2202 52.6594C31.7118 52.9282 31.2277 53.2214 30.7193 53.4658C30.2352 53.7345 29.7268 53.9545 29.2184 54.1255C28.7101 54.321 28.2501 54.3943 27.7418 54.3943C27.2334 54.3943 26.7008 54.2966 26.1683 54.1744C25.1031 53.9056 24.0138 53.4902 22.9244 53.0259C23.3117 53.4902 23.7717 53.8567 24.2801 54.2233C24.7642 54.5654 25.2968 54.883 25.8778 55.103C26.4345 55.3473 27.0639 55.5184 27.7176 55.5673C28.0323 55.5917 28.3712 55.5917 28.7101 55.5428L29.1942 55.4451C29.3395 55.3962 29.5089 55.3473 29.6542 55.2985C30.2594 55.0785 30.7919 54.8097 31.3245 54.4921C31.8329 54.1744 32.3412 53.8323 32.8012 53.4658C33.7211 52.7082 34.5926 51.8774 35.3188 50.9244C34.2294 51.4864 33.2127 52.0729 32.2202 52.6594ZM31.736 58.4996C30.9856 59.0127 30.211 59.5015 29.4605 59.868C29.0732 60.0391 28.7343 60.1368 28.347 60.1368C27.9596 60.1368 27.5481 60.0635 27.1366 59.9413C26.2893 59.697 25.4662 59.2815 24.6432 58.8661C25.2242 59.6236 25.9746 60.259 26.8703 60.6988C27.306 60.9188 27.8144 61.0654 28.347 61.1142C28.4922 61.1142 28.6132 61.1387 28.7585 61.1142C28.9037 61.1142 29.0248 61.1142 29.17 61.0654C29.2911 61.0409 29.4363 61.0165 29.5573 60.9676L29.9205 60.821C30.8404 60.4056 31.5908 59.7947 32.2928 59.1349C32.9706 58.4751 33.6 57.7665 34.1084 56.9357C33.2611 57.4488 32.5107 57.9864 31.736 58.4996ZM31.0098 64.6575C30.4046 65.0973 29.7994 65.5127 29.1942 65.8304C28.8795 65.977 28.6132 66.0503 28.2985 66.0503C27.9838 66.0503 27.6449 65.977 27.3302 65.8793C26.6524 65.6594 25.9988 65.3173 25.321 64.9507C25.7567 65.586 26.3619 66.1236 27.0639 66.4902C27.4271 66.6857 27.8144 66.8079 28.2743 66.8567C28.3954 66.8567 28.4922 66.8812 28.6132 66.8567C28.7343 66.8567 28.8311 66.8323 28.9522 66.8079C29.17 66.759 29.3637 66.6857 29.5573 66.5879C30.2836 66.2214 30.8888 65.7082 31.4213 65.1706C31.9539 64.6086 32.4381 64.0221 32.8254 63.3379C32.2202 63.7533 31.615 64.2176 31.0098 64.6575Z" fill="#717171"/>
<path opacity="0.6" d="M31.0084 64.6579C31.6136 64.2181 32.1945 63.7782 32.8482 63.3384C32.4608 64.0226 31.9767 64.6091 31.4441 65.1711C30.9115 65.7087 30.3063 66.2218 29.5801 66.5884C29.3864 66.6617 29.1928 66.7594 28.9749 66.8083C28.8781 66.8327 28.757 66.8572 28.636 66.8572C28.515 66.8816 28.4181 66.8572 28.2971 66.8572C27.8614 66.8327 27.4498 66.6861 27.0867 66.4906C26.3847 66.1241 25.7795 65.5865 25.3438 64.9511C26.0216 65.3177 26.6752 65.6598 27.353 65.8797C27.6919 65.9775 28.0066 66.0508 28.3213 66.0508C28.636 66.0508 28.9023 65.953 29.217 65.8308C29.8222 65.5132 30.4274 65.0978 31.0084 64.6579Z" fill="white"/>
<path opacity="0.6" d="M31.735 58.4999C32.4855 57.9868 33.2359 57.4492 34.059 56.936C33.5506 57.7424 32.9212 58.4755 32.2434 59.1353C31.5656 59.7951 30.7909 60.3815 29.871 60.8214L29.5079 60.968C29.3869 61.0169 29.2416 61.0413 29.1206 61.0657C28.9996 61.1146 28.8543 61.1146 28.7091 61.1146C28.5638 61.139 28.4428 61.1146 28.2975 61.1146C27.765 61.0657 27.2808 60.9191 26.8209 60.6992C25.9252 60.2593 25.1747 59.624 24.5938 58.8665C25.441 59.3063 26.2641 59.6973 27.0871 59.9417C27.4987 60.0639 27.9102 60.1372 28.2975 60.1372C28.6849 60.1372 29.0238 60.0394 29.4111 59.8684C30.2342 59.5018 30.9846 59.0131 31.735 58.4999Z" fill="white"/>
<path opacity="0.6" d="M32.2192 52.6598C33.2117 52.0977 34.2042 51.4868 35.2694 50.9248C34.5431 51.8778 33.6959 52.7086 32.7518 53.4662C32.2918 53.8327 31.8077 54.1992 31.2751 54.4925C30.7667 54.8102 30.2099 55.0789 29.6048 55.2989C29.4595 55.3477 29.2901 55.3966 29.1448 55.4455L28.6607 55.5432C28.3217 55.5921 27.9828 55.5921 27.6681 55.5677C27.0145 55.5188 26.4093 55.3477 25.8283 55.1034C25.2716 54.859 24.739 54.5658 24.2306 54.2237C23.7465 53.8816 23.2865 53.4906 22.875 53.0263C23.9643 53.4906 25.0295 53.9304 26.1188 54.1748C26.6514 54.297 27.184 54.3947 27.6923 54.3947C28.2007 54.3947 28.6607 54.3214 29.169 54.1259C29.6774 53.9549 30.1615 53.7105 30.6699 53.4662C31.2267 53.2218 31.7108 52.9286 32.2192 52.6598Z" fill="white"/>
<path opacity="0.6" d="M33.1893 46.2575C34.4239 45.671 35.6827 45.0601 36.9657 44.4736C35.9974 45.5244 34.8839 46.4285 33.7219 47.2105C33.1409 47.6015 32.5115 47.968 31.8821 48.3101C31.5674 48.4812 31.2285 48.6278 30.8896 48.7744C30.7201 48.8477 30.5507 48.8966 30.3812 48.9699C30.2118 49.0432 30.0423 49.0921 29.8486 49.1409C29.4855 49.2387 29.0982 49.312 28.7351 49.3853L28.1541 49.4097C27.9604 49.4097 27.7668 49.4097 27.5731 49.3853C26.8227 49.312 26.0964 49.1409 25.3944 48.8966C24.7166 48.6522 24.063 48.3345 23.4336 47.968C22.8284 47.6015 22.2232 47.186 21.7148 46.6973C23.0463 47.1616 24.3535 47.6015 25.6849 47.8458C26.3385 47.968 26.9921 48.0657 27.6215 48.0657C28.2751 48.0902 28.8561 47.9924 29.4613 47.7969C30.0907 47.6259 30.6959 47.3815 31.3253 47.1127C31.9305 46.8439 32.5599 46.5507 33.1893 46.2575Z" fill="white"/>
<path opacity="0.6" d="M38.6595 37.9004C37.4733 39.1955 36.1177 40.2707 34.6894 41.2481C33.9632 41.7369 33.2128 42.1767 32.4381 42.5677C32.0508 42.7632 31.6392 42.9342 31.2277 43.1297C31.0098 43.203 30.8162 43.2763 30.5983 43.3741C30.5015 43.4229 30.3804 43.4474 30.2836 43.4963L29.9447 43.594C29.509 43.7162 29.049 43.8139 28.5649 43.8872L27.8628 43.9117C27.6208 43.9117 27.4029 43.8872 27.1608 43.8872C26.2409 43.8139 25.3452 43.594 24.5222 43.3008C23.6749 43.0075 22.876 42.6166 22.1256 42.1523C21.7625 41.9323 21.3752 41.688 21.0363 41.4192C20.6973 41.1504 20.3342 40.8816 20.0195 40.5884C20.8426 40.8816 21.6415 41.1504 22.4403 41.3947C23.2392 41.6391 24.038 41.859 24.8369 42.0056C25.6357 42.1523 26.4346 42.2744 27.2092 42.2744C27.4029 42.2744 27.5966 42.2744 27.7902 42.2744L28.347 42.2256L28.9038 42.1278C29.0006 42.1034 29.0974 42.079 29.1701 42.0545L29.4606 41.9812C30.211 41.7613 30.9856 41.4681 31.7361 41.1504C32.5107 40.8327 33.2612 40.4662 34.0116 40.1241C35.5609 39.3666 37.0618 38.609 38.6595 37.9004Z" fill="white"/>
<path d="M38.6595 37.9004C37.4733 39.1955 36.1177 40.2707 34.6894 41.2481C33.9632 41.7369 33.2128 42.1767 32.4381 42.5677C32.0508 42.7632 31.6392 42.9342 31.2277 43.1297C31.0098 43.203 30.8162 43.2763 30.5983 43.3741C30.5015 43.4229 30.3804 43.4474 30.2836 43.4963L29.9447 43.594C29.509 43.7162 29.049 43.8139 28.5649 43.8872L27.8628 43.9117C27.6208 43.9117 27.4029 43.8872 27.1608 43.8872C26.2409 43.8139 25.3452 43.594 24.5222 43.3008C23.6749 43.0075 22.876 42.6166 22.1256 42.1523C21.7625 41.9323 21.3752 41.688 21.0363 41.4192C20.6973 41.1504 20.3342 40.8816 20.0195 40.5884C20.8426 40.8816 21.6415 41.1504 22.4403 41.3947C23.2392 41.6391 24.038 41.859 24.8369 42.0056C25.6357 42.1523 26.4346 42.2744 27.2092 42.2744C27.4029 42.2744 27.5966 42.2744 27.7902 42.2744L28.347 42.2256L28.9038 42.1278C29.0006 42.1034 29.0974 42.079 29.1701 42.0545L29.4606 41.9812C30.211 41.7613 30.9856 41.4681 31.7361 41.1504C32.5107 40.8327 33.2612 40.4662 34.0116 40.1241C35.5609 39.3666 37.0618 38.609 38.6595 37.9004Z" fill="#717171"/>
<path d="M36.9657 44.4736C35.9974 45.5244 34.8839 46.4285 33.7219 47.2105C33.1409 47.6015 32.5115 47.968 31.8821 48.3101C31.5674 48.4812 31.2285 48.6278 30.8896 48.7744C30.7201 48.8477 30.5507 48.8966 30.3812 48.9699C30.2118 49.0432 30.0423 49.0921 29.8486 49.1409C29.4855 49.2387 29.0982 49.312 28.7351 49.3853L28.1541 49.4097C27.9604 49.4097 27.7668 49.4097 27.5731 49.3853C26.8227 49.312 26.0964 49.1409 25.3944 48.8966C24.7166 48.6522 24.063 48.3345 23.4336 47.968C22.8284 47.6015 22.2232 47.186 21.7148 46.6973C23.0463 47.1616 24.3535 47.6015 25.6849 47.8458C26.3385 47.968 26.9921 48.0657 27.6215 48.0657C28.2751 48.0902 28.8561 47.9924 29.4613 47.7969C30.0907 47.6259 30.6959 47.3815 31.3253 47.1127C31.9547 46.8684 32.5599 46.5507 33.1893 46.2819C34.4239 45.671 35.6585 45.0601 36.9657 44.4736Z" fill="#717171"/>
<path d="M35.2694 50.9248C34.5431 51.8778 33.6959 52.7086 32.7518 53.4662C32.2918 53.8327 31.8077 54.1992 31.2751 54.4925C30.7667 54.8102 30.2099 55.0789 29.6048 55.2989C29.4595 55.3477 29.2901 55.3966 29.1448 55.4455L28.6607 55.5432C28.3217 55.5921 27.9828 55.5921 27.6681 55.5677C27.0145 55.5188 26.4093 55.3477 25.8283 55.1034C25.2716 54.859 24.739 54.5658 24.2306 54.2237C23.7465 53.8816 23.2865 53.4906 22.875 53.0263C23.9643 53.4906 25.0295 53.9304 26.1188 54.1748C26.6514 54.297 27.184 54.3947 27.6923 54.3947C28.2007 54.3947 28.6607 54.3214 29.169 54.1259C29.6774 53.9549 30.1615 53.7105 30.6699 53.4662C31.1783 53.2218 31.6624 52.9286 32.1708 52.6598C33.2117 52.0733 34.2284 51.4868 35.2694 50.9248Z" fill="#717171"/>
<path d="M34.059 56.936C33.5506 57.7424 32.9212 58.4755 32.2434 59.1353C31.5656 59.7951 30.7909 60.3815 29.871 60.8214L29.5079 60.968C29.3869 61.0169 29.2416 61.0413 29.1206 61.0657C28.9996 61.1146 28.8543 61.1146 28.7091 61.1146C28.5638 61.139 28.4428 61.1146 28.2975 61.1146C27.765 61.0657 27.2808 60.9191 26.8209 60.6992C25.9252 60.2593 25.1747 59.624 24.5938 58.8665C25.441 59.3063 26.2641 59.6973 27.0871 59.9417C27.4987 60.0639 27.9102 60.1372 28.2975 60.1372C28.6849 60.1372 29.0238 60.0394 29.4111 59.8684C30.1857 59.5018 30.9362 59.0131 31.6866 58.4999C32.5097 57.9868 33.2601 57.4492 34.059 56.936Z" fill="#717171"/>
<path d="M32.8482 63.3384C32.4608 64.0226 31.9767 64.6091 31.4441 65.1711C30.9115 65.7087 30.3063 66.2218 29.5801 66.5884C29.3864 66.6617 29.1928 66.7594 28.9749 66.8083C28.8781 66.8327 28.757 66.8572 28.636 66.8572C28.515 66.8816 28.4181 66.8572 28.2971 66.8572C27.8614 66.8327 27.4498 66.6861 27.0867 66.4906C26.3847 66.1241 25.7795 65.5865 25.3438 64.9511C26.0216 65.3177 26.6752 65.6598 27.353 65.8797C27.6919 65.9775 28.0066 66.0508 28.3213 66.0508C28.636 66.0508 28.9023 65.953 29.217 65.8308C29.8222 65.5132 30.4274 65.0978 31.0326 64.6579C31.6136 64.2181 32.2187 63.7538 32.8482 63.3384Z" fill="#717171"/>
</g>
<defs>
<clipPath id="clip0">
<rect width="55" height="78" fill="white"/>
</clipPath>
</defs>
</svg>
