<svg width="78" height="41" viewBox="0 0 78 41" fill="none" xmlns="http://www.w3.org/2000/svg">
<g clip-path="url(#clip0)">
<path d="M9.5361 13.7228C8.32086 13.1916 7.19808 12.9842 6.33949 12.9065C4.9129 18.3878 5.9168 23.3508 8.61146 24.0506C10.7117 24.5948 13.2082 22.4049 14.9518 18.8284C13.6706 17.2345 11.359 14.5263 9.5361 13.7228ZM14.0536 3.88751C11.5835 3.23959 8.54542 6.41437 6.86786 11.1441C7.84533 11.2608 9.03416 11.5199 10.289 12.0642C11.6496 12.6732 13.2347 14.0079 15.0972 16.146C15.3217 16.4052 15.5331 16.6644 15.7444 16.9106C15.9425 16.3793 16.1143 15.8221 16.2596 15.2519C17.7786 9.69282 16.7879 4.60021 14.0536 3.88751ZM13.9347 11.805C13.4196 11.3904 12.8384 11.0923 12.2176 10.9239C11.9005 10.8331 11.5571 10.7684 11.2269 10.7036C10.8966 10.6388 10.5532 10.5869 10.2098 10.5351C9.52289 10.4444 8.83602 10.3926 8.10952 10.3666C8.78318 10.0945 9.50968 9.99086 10.2362 9.96494C10.4211 9.96494 10.606 9.96494 10.7778 9.9779L11.0552 9.99086L11.3325 10.0168C11.5175 10.0297 11.6892 10.0686 11.8741 10.0945C11.9666 10.1075 12.0458 10.1334 12.1383 10.1464C12.2308 10.1723 12.31 10.1852 12.4025 10.2111C13.1422 10.4185 13.8291 10.8331 14.331 11.3774C14.833 11.9216 15.2028 12.5825 15.3349 13.2823C14.9254 12.7121 14.4631 12.2067 13.9347 11.805ZM14.3046 9.61507C14.0933 9.43365 13.8687 9.25224 13.6441 9.12265L13.5517 9.07082L13.4592 9.03194C13.3932 9.00603 13.3403 8.96715 13.2743 8.94124C13.1422 8.90236 13.0233 8.83757 12.9044 8.81165L12.7063 8.75982L12.495 8.72095C12.3629 8.68207 12.2176 8.66911 12.0723 8.6432C11.7949 8.60432 11.5043 8.56545 11.2137 8.55249C10.6325 8.51361 10.0381 8.52657 9.43043 8.56545C9.9588 8.25445 10.5796 8.09895 11.2005 8.03416C11.5175 7.99528 11.8345 8.00824 12.1383 8.0212C12.2968 8.03416 12.4553 8.04712 12.6006 8.07303L12.8384 8.11191L13.0762 8.1767L13.195 8.21557C13.2347 8.22853 13.2743 8.24149 13.3139 8.25445L13.5517 8.35811C13.6177 8.39699 13.697 8.43586 13.763 8.47474L13.8687 8.53953C13.9083 8.56545 13.9347 8.59136 13.9744 8.60432L14.1725 8.74686L14.3574 8.91532C14.4235 8.96715 14.4763 9.03195 14.5292 9.08378C14.582 9.14857 14.6348 9.2004 14.6877 9.26519C15.0839 9.75761 15.3613 10.3278 15.4538 10.9239C15.0972 10.4314 14.7273 9.99086 14.3046 9.61507ZM14.6745 7.64541C14.4895 7.48991 14.2914 7.33441 14.08 7.21779L14.0008 7.16595L13.9215 7.12708C13.8687 7.10116 13.8159 7.07525 13.763 7.04933C13.6574 7.01045 13.5517 6.95862 13.4328 6.9327L13.2611 6.88087L13.0762 6.842C12.9573 6.81608 12.8252 6.80312 12.7063 6.7772C12.4553 6.73833 12.2043 6.71241 11.9402 6.69945C11.425 6.67354 10.9099 6.67354 10.3683 6.71241C10.8438 6.44029 11.3854 6.29775 11.927 6.24592C12.2043 6.22 12.4817 6.22 12.7591 6.23296C12.9044 6.24591 13.0365 6.25887 13.1686 6.28479L13.38 6.32366L13.5913 6.3755C13.7366 6.41437 13.8687 6.47916 14.0008 6.531C14.0668 6.56987 14.1329 6.60875 14.1989 6.63466C14.265 6.67354 14.331 6.69945 14.3839 6.75129L14.5556 6.88087L14.7141 7.02341C14.8198 7.11412 14.9122 7.21779 15.0047 7.33441C15.3481 7.77499 15.5991 8.26741 15.6784 8.7987C15.3745 8.37107 15.0443 7.96937 14.6745 7.64541Z" fill="#717171"/>
<path d="M31.9915 12.4272C30.8687 11.7922 28.9798 11.5978 27.1569 11.5978C25.77 11.5978 24.4094 11.7144 23.4451 11.8311C23.2206 17.9733 25.4661 23.0141 28.6099 23.1955C31.2385 23.351 33.669 20.0596 34.6993 15.3816C33.2728 13.6323 31.9915 12.4272 31.9915 12.4272ZM30.0497 0.000159892C27.0645 -0.181256 24.317 4.12089 23.6169 9.84845C24.6472 9.73183 25.9153 9.64112 27.1701 9.64112C29.7987 9.64112 31.7009 10.004 32.9954 10.7426L33.1935 10.8592L33.3652 11.0147C33.4048 11.0536 34.1313 11.7404 35.1088 12.8289C35.1352 12.5308 35.1617 12.2457 35.1749 11.9477C35.5711 5.5463 33.2728 0.194534 30.0497 0.000159892ZM28.1476 3.4989C28.425 3.40819 28.7156 3.33044 29.0062 3.2786C29.1515 3.25269 29.2968 3.23973 29.4421 3.22677L29.6667 3.21381C29.7459 3.21381 29.8252 3.21381 29.9044 3.21381C30.5385 3.22677 31.1329 3.46002 31.6348 3.80989C32.1236 4.15977 32.5198 4.60035 32.7708 5.11868C32.3217 4.75585 31.8594 4.45781 31.3838 4.2116C30.8951 3.97835 30.4064 3.82285 29.8912 3.82285C29.8252 3.82285 29.7723 3.82285 29.7063 3.82285L29.5081 3.83581C29.3761 3.83581 29.244 3.86173 29.0987 3.86173C28.8345 3.88764 28.5571 3.92652 28.2929 3.96539C27.7513 4.0561 27.2098 4.18568 26.655 4.35414C27.0512 3.96539 27.5928 3.69327 28.1476 3.4989ZM27.8438 5.4556C28.1608 5.35193 28.491 5.27418 28.8213 5.20939C28.993 5.18347 29.1515 5.15756 29.3232 5.1446L29.5742 5.13164C29.6667 5.13164 29.7459 5.13164 29.8384 5.13164C30.5517 5.1446 31.2385 5.41672 31.7933 5.80547C32.3481 6.19422 32.7972 6.69959 33.0878 7.29567C32.5727 6.89397 32.0575 6.54409 31.5159 6.27197C30.9744 6.0128 30.4064 5.83139 29.8252 5.83139C29.7459 5.83139 29.6799 5.81843 29.6138 5.81843L29.3761 5.83139C29.2175 5.83139 29.0722 5.8573 28.9137 5.8573C28.6099 5.88322 28.2929 5.92209 27.9891 5.97393C27.3683 6.07759 26.7606 6.22013 26.1398 6.42747C26.6153 5.97393 27.2098 5.67589 27.8438 5.4556ZM31.7009 8.52671C31.0404 8.24163 30.3535 8.11204 29.6534 8.09909C28.9269 8.08613 28.1872 8.13796 27.4475 8.21571C26.7078 8.29346 25.9681 8.41008 25.2152 8.55263C25.5322 8.33233 25.8756 8.15092 26.2323 8.00838C26.5889 7.85288 26.9588 7.73625 27.3286 7.63259C28.0816 7.43821 28.8609 7.33455 29.6534 7.34751C30.4724 7.36046 31.2914 7.59371 31.9783 8.00838C32.6651 8.42304 33.2331 8.99321 33.5766 9.68C32.9822 9.18758 32.3613 8.79883 31.7009 8.52671Z" fill="#717171"/>
<path d="M63.0873 18.8415C64.8176 22.405 67.3274 24.6079 69.4276 24.0637C72.1223 23.3639 73.113 18.4009 71.6996 12.9195C70.841 12.9843 69.705 13.1917 68.503 13.7359C66.6801 14.5264 64.3553 17.2347 63.0873 18.8415ZM61.7663 15.265C61.9248 15.8352 62.0966 16.3924 62.2815 16.9237C62.4796 16.6774 62.7042 16.4183 62.9287 16.1591C64.8044 14.008 66.3763 12.6733 67.7369 12.0773C68.9917 11.5201 70.1806 11.2609 71.158 11.1572C69.4805 6.41449 66.4424 3.25267 63.9723 3.88763C61.2512 4.60033 60.2605 9.69294 61.7663 15.265ZM62.691 13.2953C62.8231 12.5956 63.1929 11.9347 63.6949 11.3905C64.1968 10.8462 64.8837 10.4316 65.6234 10.2242C65.7159 10.1983 65.8083 10.1854 65.8876 10.1594C65.9801 10.1465 66.0593 10.1206 66.1518 10.1076C66.3367 10.0817 66.5084 10.0428 66.6933 10.0299L66.9707 10.0039L67.2481 9.99098C67.4331 9.97802 67.618 9.97802 67.7897 9.97802C68.5162 10.0039 69.2427 10.1076 69.9164 10.3797C69.1899 10.4056 68.503 10.4704 67.8161 10.5482C67.4727 10.6 67.1292 10.6389 66.799 10.7166C66.4688 10.7814 66.1254 10.8462 65.8083 10.9369C65.1875 11.1054 64.6063 11.4034 64.0911 11.8181C63.576 12.2068 63.1137 12.7122 62.691 13.2953ZM62.5721 10.924C62.6778 10.3279 62.9552 9.75773 63.3382 9.26531C63.3911 9.20052 63.4439 9.14869 63.4967 9.0839C63.5496 9.01911 63.6024 8.96727 63.6685 8.91544L63.8534 8.74698L64.0515 8.60444C64.0911 8.57852 64.1176 8.55261 64.1572 8.53965L64.2629 8.47486C64.3289 8.43598 64.4082 8.39711 64.4742 8.35823L64.712 8.25457C64.7516 8.24161 64.7912 8.21569 64.8309 8.21569L64.9497 8.17682L65.1875 8.11203L65.4253 8.07315C65.5838 8.04723 65.7423 8.03428 65.8876 8.02132C66.2046 8.00836 66.5216 7.9954 66.8254 8.03428C67.4463 8.09907 68.0671 8.25457 68.5955 8.56557C67.9878 8.51373 67.3934 8.51373 66.8122 8.55261C66.5216 8.56557 66.231 8.60444 65.9536 8.64332C65.8083 8.66923 65.663 8.68219 65.5309 8.72107L65.3196 8.75994L65.1215 8.81177C64.9894 8.83769 64.8705 8.90248 64.7516 8.94136C64.6856 8.96727 64.6327 9.00615 64.5667 9.03206L64.4742 9.07094L64.3817 9.12277C64.144 9.25235 63.9326 9.43377 63.7213 9.61519C63.3118 9.99098 62.942 10.4316 62.5721 10.924ZM62.3475 8.79882C62.44 8.26753 62.6778 7.76215 63.0212 7.33453C63.1137 7.23086 63.2061 7.1272 63.3118 7.02353L63.4703 6.88099L63.642 6.75141C63.6949 6.69957 63.7609 6.67366 63.827 6.63478C63.893 6.59591 63.9591 6.55703 64.0251 6.53112C64.1572 6.47928 64.2893 6.41449 64.4346 6.37562L64.6459 6.32378L64.8573 6.28491C64.9894 6.25899 65.1347 6.24603 65.2668 6.23308C65.5442 6.22012 65.8215 6.22012 66.0989 6.24603C66.6537 6.31083 67.1953 6.44041 67.6576 6.71253C67.116 6.67366 66.6009 6.6607 66.0857 6.69957C65.8347 6.71253 65.5838 6.75141 65.3196 6.77732C65.2007 6.80324 65.0686 6.8162 64.9497 6.84211L64.7648 6.88099L64.5931 6.93282C64.4742 6.95874 64.3685 7.01057 64.2629 7.04945C64.21 7.07536 64.1572 7.10128 64.1044 7.1272L64.0251 7.16607L63.9458 7.2179C63.7345 7.33453 63.5496 7.49003 63.3514 7.64553C62.9948 7.96948 62.6514 8.37119 62.3475 8.79882Z" fill="#717171"/>
<path d="M43.3392 15.3816C44.3695 20.0596 46.8132 23.351 49.4286 23.1955C52.5592 23.0141 54.8179 17.9733 54.5934 11.8311C53.6423 11.7144 52.2818 11.5978 50.8816 11.5978C49.0587 11.5978 47.1698 11.7922 46.047 12.4272C46.0338 12.4272 44.7658 13.6323 43.3392 15.3816ZM42.8636 11.9477C42.8769 12.2457 42.9033 12.5438 42.9297 12.8289C43.9072 11.7404 44.6337 11.0536 44.6733 11.0147L44.845 10.8592L45.0432 10.7426C46.3376 10.004 48.253 9.64112 50.8684 9.64112C52.1233 9.64112 53.3913 9.73183 54.4216 9.84845C53.7216 4.12089 50.9741 -0.181256 47.9888 0.000159892C44.7525 0.194534 42.4542 5.5463 42.8636 11.9477ZM51.41 4.35414C50.8552 4.18568 50.3136 4.0561 49.772 3.96539C49.5078 3.91356 49.2305 3.88764 48.9663 3.86173C48.8342 3.86173 48.6889 3.83581 48.5568 3.83581L48.3586 3.82285C48.2926 3.82285 48.2266 3.82285 48.1737 3.82285C47.6586 3.83581 47.1698 3.99131 46.6811 4.2116C46.2056 4.44485 45.7432 4.75585 45.2941 5.11868C45.5451 4.60035 45.9414 4.15977 46.4301 3.80989C46.9189 3.47298 47.5265 3.22677 48.1605 3.21381C48.2398 3.21381 48.319 3.21381 48.3983 3.21381L48.6228 3.22677C48.7681 3.23973 48.9134 3.26565 49.0587 3.2786C49.3493 3.33044 49.6399 3.39523 49.9173 3.4989C50.4457 3.69327 50.9741 3.96539 51.41 4.35414ZM51.9119 6.42747C51.2911 6.23309 50.6702 6.09055 50.0626 5.97393C49.7588 5.92209 49.4418 5.88322 49.138 5.8573C48.9795 5.8573 48.8342 5.83139 48.6757 5.83139L48.4379 5.81843C48.3586 5.81843 48.2926 5.81843 48.2266 5.83139C47.6586 5.84434 47.0774 6.0128 46.5358 6.27197C45.9942 6.54409 45.4658 6.89397 44.9639 7.29567C45.2413 6.71255 45.7036 6.20718 46.2584 5.80547C46.8132 5.41672 47.5001 5.1446 48.2133 5.13164C48.3058 5.13164 48.3983 5.13164 48.4775 5.13164L48.7285 5.1446C48.9002 5.15756 49.0587 5.18347 49.2305 5.20939C49.5607 5.27418 49.8909 5.35193 50.2079 5.4556C50.8156 5.67589 51.4232 5.97393 51.9119 6.42747ZM44.4487 9.66704C44.7922 8.98025 45.3734 8.41008 46.047 7.99542C46.7339 7.5678 47.5529 7.3475 48.3719 7.33455C49.1644 7.32159 49.9437 7.42525 50.6967 7.61963C51.0665 7.7233 51.4364 7.83992 51.793 7.99542C52.1497 8.15092 52.4931 8.31938 52.8101 8.53967C52.0572 8.39713 51.3175 8.2805 50.5778 8.20275C49.8381 8.125 49.0984 8.08613 48.3719 8.08613C47.6718 8.09909 46.9849 8.24163 46.3244 8.51375C45.6772 8.79883 45.0432 9.18758 44.4487 9.66704Z" fill="#717171"/>
<path d="M76.3753 34.0675C74.9222 35.8817 72.5446 36.9183 67.5251 37.3071C64.5927 37.5403 63.7341 36.5296 63.5228 35.6484C63.5228 35.6355 63.536 35.6095 63.536 35.5966C64.1304 32.6939 63.5492 26.5258 62.3207 21.4202L62.1094 20.0726C62.1094 20.0726 65.8079 14.8892 68.4498 13.723C71.0916 12.5568 73.3371 12.9455 73.3371 12.9455C73.3371 12.9455 76.6394 17.8696 77.5641 23.4417C78.4887 29.0138 77.8283 32.2533 76.3753 34.0675Z" fill="#717171"/>
<path d="M62.3723 35.3631C61.7118 38.6027 60.2588 39.2506 57.3528 39.8985C54.8959 40.4428 48.1989 41 44.5003 41C43.8267 41 43.2455 40.987 42.8228 40.9352C40.0488 40.676 39.7847 38.7323 39.5205 37.566C39.2563 36.3998 39.0185 26.085 39.5205 22.5344C40.1809 17.8695 45.993 12.427 45.993 12.427C47.1157 11.792 49.0046 11.5977 50.8275 11.5977C53.0863 11.5977 55.2526 11.8957 55.7677 12.0382C56.6924 12.2974 58.4096 13.0749 60.2588 18.5174C62.1081 23.9599 63.0328 32.1236 62.3723 35.3631Z" fill="#717171"/>
<path d="M15.6662 21.4199C14.4377 26.5254 13.8565 32.6806 14.4509 35.5962C14.4509 35.6092 14.4641 35.6351 14.4641 35.6481C14.2792 36.4385 13.5527 37.3456 11.2543 37.3456C11.0033 37.3456 10.7392 37.3326 10.4618 37.3067C5.44229 36.918 3.06465 35.8813 1.61164 34.0672C0.158636 32.253 -0.501821 29.0134 0.422819 23.4414C1.34746 17.8693 4.64974 12.9452 4.64974 12.9452C4.64974 12.9452 5.00639 12.8804 5.61401 12.8804C5.82536 12.8804 6.07633 12.8933 6.34052 12.9063C7.19911 12.9711 8.33509 13.1784 9.53713 13.7227C11.36 14.5261 13.6716 17.2344 14.9397 18.8412C15.5209 19.5668 15.8775 20.0722 15.8775 20.0722L15.6662 21.4199Z" fill="#717171"/>
<path d="M38.463 37.566C38.1989 38.7323 37.9347 40.676 35.1608 40.9352C34.7249 40.9741 34.1569 41 33.4832 41C29.7978 41 23.0876 40.4557 20.6307 39.8985C17.7247 39.2506 16.2717 38.6027 15.6112 35.3631C14.9508 32.1236 15.8754 23.9599 17.7247 18.5174C19.574 13.0749 21.2912 12.2974 22.2158 12.0382C22.4139 11.9864 22.8498 11.9087 23.4443 11.8309C24.3953 11.7143 25.7559 11.5977 27.156 11.5977C28.9789 11.5977 30.8678 11.792 31.9906 12.427C31.9906 12.427 33.2719 13.6321 34.6984 15.3815C36.31 17.3641 38.1196 20.0594 38.463 22.5344C38.965 26.085 38.7272 36.3998 38.463 37.566Z" fill="#717171"/>
</g>
<defs>
<clipPath id="clip0">
<rect width="78" height="41" fill="white"/>
</clipPath>
</defs>
</svg>
