<svg width="52" height="52" viewBox="0 0 52 52" fill="none" xmlns="http://www.w3.org/2000/svg">
<path d="M21.5837 23.2896C21.9412 23.4683 22.3409 23.5626 22.7398 23.5626C23.8538 23.5626 24.8385 22.8525 25.1912 21.797L25.2294 21.6816L26.7715 22.1927L26.7325 22.3097C26.1589 24.0314 24.5542 25.1876 22.7398 25.1876C22.089 25.1876 21.4382 25.034 20.8573 24.7431L19.9497 24.289L20.6769 22.8354L21.5837 23.2896Z" fill="#CC9A1B"/>
<path d="M4.08944 44.8557L7.63276 42.9228C8.93925 42.2102 9.75013 40.8436 9.75013 39.3559V36.1092L6.24338 32.9209C2.79269 29.7839 0.81263 25.3094 0.81263 20.6457C0.81263 11.4969 8.25513 4.05442 17.4031 4.05442L22.651 4.05686C22.6534 4.05686 22.6551 4.05686 22.6567 4.05686C24.2524 4.05686 25.6369 2.97623 26.0253 1.42761L26.2219 0.638672L27.6268 0.992109C31.4374 1.94842 34.1048 5.36011 34.1113 9.29017C34.1154 11.5822 33.2249 13.7378 31.6056 15.3595C30.9052 16.0615 30.1 16.6173 29.2323 17.0325C29.7718 17.9847 30.0626 19.0694 30.0626 20.1736V21.9871C30.0626 22.8703 30.3031 23.7381 30.7565 24.4953L32.7098 27.751L31.7851 28.6756C31.0969 29.3638 30.2024 29.8229 29.2493 29.991V30.875C29.2493 31.7712 28.5205 32.5 27.6243 32.5H25.2104C25.3184 33.1257 25.784 33.64 26.4178 33.7984L27.2051 33.9959C27.9314 34.1762 28.4376 34.8246 28.4376 35.5721C28.4376 37.9105 26.5356 39.8125 24.1972 39.8125C23.1613 39.8125 22.131 39.6679 21.1357 39.3835L21.1251 39.3803V41.0541C21.1251 41.9836 21.6419 42.8188 22.4723 43.234L28.2451 46.1208C29.8676 46.9317 30.8751 48.5624 30.8751 50.375V51.1875H0.81263V50.375C0.81263 48.0724 2.06794 45.9575 4.08944 44.8557ZM3.16238 49.5625H11.4629C10.5204 48.538 9.18544 47.9375 7.74163 47.9375H6.88282C5.43982 47.9375 4.10488 48.538 3.16238 49.5625ZM32.4855 9.29261C32.4798 6.1458 30.3698 3.40848 27.3399 2.59598C26.5478 4.44767 24.7221 5.68186 22.6559 5.68186H22.6486L17.4023 5.67942C9.15132 5.67942 2.43763 12.3931 2.43763 20.6457C2.43763 24.8528 4.22269 28.8893 7.33619 31.7192L10.3156 34.4273L11.9699 31.118L10.7341 30.1909C9.60957 29.3475 8.93763 28.0037 8.93763 26.5972C8.93763 26.1122 9.01563 25.6344 9.16757 25.177L9.30244 24.7732C9.70625 23.5634 10.8348 22.75 12.1104 22.75C12.5126 22.75 12.9026 22.8297 13.2626 22.9816L13.4129 22.2317C13.7168 20.7131 14.4553 19.3335 15.5896 18.1992C16.8343 16.9545 18.4098 16.1655 20.1436 15.9177L21.6167 15.7073C21.364 15.2515 21.195 14.7469 21.1438 14.209C21.0341 13.0659 21.4128 11.9251 22.1806 11.0801C22.9492 10.2351 24.0461 9.75005 25.1876 9.75005V11.375C24.5019 11.375 23.8446 11.6659 23.3831 12.1737C22.9159 12.688 22.6941 13.3559 22.7607 14.0547C22.8793 15.2856 24.0063 16.25 25.3274 16.25H25.5403C27.3976 16.25 29.1437 15.5261 30.4559 14.2115C31.7681 12.8969 32.4888 11.15 32.4855 9.29261ZM16.84 38.1559L17.2861 36.5934L21.5826 37.8211C22.4324 38.064 23.3116 38.1875 24.1972 38.1875C25.6386 38.1875 26.8126 37.0143 26.8118 35.5721L26.0245 35.3747C24.575 35.0131 23.5626 33.7164 23.5626 32.2222V30.875H27.6251V28.4375H28.4376C29.2566 28.4375 30.0578 28.1052 30.6371 27.5267L30.6647 27.4991L29.3631 25.3314C28.7569 24.3214 28.4368 23.1652 28.4368 21.9871V20.1736C28.4368 19.2571 28.1541 18.3666 27.6584 17.602C26.9735 17.7759 26.265 17.875 25.5403 17.875H25.3274C24.4596 17.875 23.6504 17.6037 22.9719 17.1552L20.3736 17.5265C18.9891 17.7239 17.7321 18.3544 16.6978 19.3887C15.8325 20.254 15.2475 21.3477 15.0062 22.5502L14.3123 26.0228L13.0554 24.7659C12.8027 24.514 12.4671 24.375 12.1104 24.375C11.5352 24.375 11.0258 24.7423 10.8438 25.2875L10.7089 25.6913C10.6122 25.983 10.5626 26.2877 10.5626 26.5972C10.5626 27.4951 10.9908 28.353 11.7091 28.8917L14.0296 30.6321L11.3751 35.9418V39.3559C11.3751 40.3951 11.0924 41.3921 10.5821 42.2541L12.3209 43.2478C13.9694 44.1895 15.8447 44.6875 17.7435 44.6875C18.7526 44.6875 19.6756 44.1285 20.1542 43.2624C19.7366 42.6181 19.5001 41.8584 19.5001 41.0541V38.9164L16.84 38.1559ZM27.5187 47.5744L21.7459 44.6875C21.5972 44.6128 21.4574 44.5267 21.3209 44.4365C20.5141 45.5854 19.1881 46.3125 17.7435 46.3125C15.5619 46.3125 13.4088 45.7406 11.5149 44.6583L9.5405 43.5297C9.20169 43.8426 8.82713 44.1221 8.41113 44.3487L4.86782 46.2817C4.48107 46.4929 4.13819 46.7578 3.8335 47.0584C4.75813 46.5847 5.79325 46.3125 6.88363 46.3125H7.74244C10.1174 46.3125 12.2559 47.5516 13.4624 49.5625H29.1445C28.9178 48.7086 28.3369 47.9831 27.5187 47.5744Z" fill="#CC9A1B"/>
<path d="M49.5625 26.8125C49.5625 24.5724 47.7401 22.75 45.5 22.75C44.1561 22.75 43.0625 23.8436 43.0625 25.1875C43.0625 26.5314 44.1561 27.625 45.5 27.625H46.3125V29.25H45.5C43.2599 29.25 41.4375 27.4276 41.4375 25.1875C41.4375 22.9474 43.2599 21.125 45.5 21.125C48.6354 21.125 51.1875 23.6763 51.1875 26.8125C51.1875 29.9488 48.6354 32.5 45.5 32.5H32.5V30.875H45.5C47.7401 30.875 49.5625 29.0526 49.5625 26.8125Z" fill="#CC9A1B"/>
<path d="M46.3125 38.1875C46.3125 40.4276 44.4901 42.25 42.25 42.25C40.9061 42.25 39.8125 41.1564 39.8125 39.8125C39.8125 38.4686 40.9061 37.375 42.25 37.375H43.0625V39H42.25C41.8015 39 41.4375 39.3648 41.4375 39.8125C41.4375 40.2602 41.8015 40.625 42.25 40.625C43.5939 40.625 44.6875 39.5314 44.6875 38.1875C44.6875 36.8436 43.5939 35.75 42.25 35.75H32.5V34.125H42.25C44.4901 34.125 46.3125 35.9474 46.3125 38.1875Z" fill="#CC9A1B"/>
</svg>
