<svg width="48" height="54" viewBox="0 0 48 54" fill="none" xmlns="http://www.w3.org/2000/svg">
<path d="M22.5065 12.9498C21.8406 13.6136 20.9388 13.9864 19.9985 13.9864C19.0583 13.9864 18.1564 13.6136 17.4906 12.9498C17.2845 12.7496 17.0079 12.6386 16.7206 12.6407C16.4333 12.6427 16.1583 12.7578 15.9552 12.9609C15.752 13.1641 15.6369 13.439 15.6348 13.7263C15.6327 14.0136 15.7437 14.2902 15.9439 14.4964C17.02 15.5702 18.4782 16.1734 19.9985 16.1734C21.5188 16.1734 22.977 15.5702 24.0531 14.4964C24.2523 14.2901 24.3626 14.0138 24.3601 13.727C24.3576 13.4402 24.2425 13.1659 24.0397 12.9631C23.837 12.7603 23.5626 12.6453 23.2759 12.6428C22.9891 12.6403 22.7128 12.7506 22.5065 12.9498Z" fill="#CC9A1B"/>
<path d="M30.4655 5.766C30.3586 5.64393 30.2278 5.54507 30.0812 5.47553C29.9346 5.406 29.7752 5.36726 29.6131 5.36172C29.533 5.35639 29.453 5.35215 29.3729 5.35215C27.9907 5.35155 26.6246 5.64904 25.3679 6.22433C24.1111 6.79963 22.9932 7.63919 22.0904 8.68577C21.0393 9.90256 18.9608 9.90174 17.9098 8.68577C16.6528 7.22969 14.9882 6.18382 13.131 5.68317C11.2737 5.18251 9.30896 5.25006 7.49045 5.87709C5.67194 6.50412 4.08312 7.66184 2.9291 9.2008C1.77509 10.7398 1.10886 12.5893 1.01643 14.5107L0.814492 18.7271C0.472675 25.7308 2.17418 32.683 5.71189 38.7372C7.24993 41.3729 8.36945 44.2315 9.03047 47.2106L9.5485 49.5407C9.80103 50.6798 10.4652 51.6856 11.4137 52.3651C12.3621 53.0446 13.528 53.3501 14.6878 53.2229C15.8476 53.0956 16.9196 52.5447 17.6982 51.6758C18.4768 50.8068 18.9072 49.681 18.9068 48.5143V41.2185C18.9068 40.9285 19.022 40.6503 19.2271 40.4451C19.4322 40.24 19.7104 40.1248 20.0005 40.1248C20.2906 40.1248 20.5688 40.24 20.7739 40.4451C20.979 40.6503 21.0943 40.9285 21.0943 41.2185V48.5148C21.0943 49.6812 21.5249 50.8065 22.3034 51.675C23.0819 52.5435 24.1535 53.0942 25.3129 53.2215C26.4723 53.3487 27.6379 53.0436 28.5862 52.3646C29.5346 51.6855 30.1989 50.6804 30.452 49.5418L30.97 47.2117C31.6313 44.2324 32.7509 41.3738 34.2887 38.7378C37.6984 32.886 39.3985 26.1952 39.1958 19.4256C39.1876 19.141 39.0688 18.8708 38.8646 18.6724C38.6603 18.4741 38.3868 18.3631 38.1021 18.3633H35.7368L36.3499 16.5219C36.4048 16.3575 36.4199 16.1824 36.3938 16.0111C36.3678 15.8397 36.3014 15.677 36.2002 15.5363C36.0989 15.3957 35.9657 15.2811 35.8114 15.202C35.6572 15.123 35.4863 15.0817 35.313 15.0816H32.3394L33.0924 12.0659C33.1328 11.9046 33.1358 11.7363 33.1014 11.5737C33.067 11.4111 32.9959 11.2585 32.8937 11.1275C32.7914 10.9965 32.6607 10.8905 32.5113 10.8175C32.362 10.7446 32.198 10.7067 32.0318 10.7066H30.0456L30.7368 6.64346C30.7559 6.48635 30.7416 6.32697 30.6949 6.17576C30.6481 6.02454 30.57 5.88491 30.4655 5.766ZM30.6296 12.8941L29.9499 15.6159L27.203 18.3629H24.3755C24.2319 18.3628 24.0897 18.3911 23.957 18.4461C23.8243 18.5011 23.7037 18.5817 23.6022 18.6833L21.4147 20.8708L22.9613 22.4175L24.8283 20.5504H27.0713L28.4365 22.5985L26.8835 24.1521C26.6783 24.3571 26.5631 24.6353 26.563 24.9254V27.1129H28.7505V25.3783L30.6175 23.5113C30.7963 23.3325 30.9077 23.0973 30.9326 22.8457C30.9575 22.5941 30.8945 22.3416 30.7543 22.1312L29.0641 19.5959L31.3908 17.2691H33.7954L33.1817 19.1111C33.127 19.2755 33.1121 19.4505 33.1383 19.6218C33.1644 19.7931 33.2309 19.9557 33.3322 20.0962C33.4335 20.2368 33.5668 20.3512 33.721 20.4302C33.8752 20.5091 34.046 20.5503 34.2193 20.5504H37.0231C37.0168 26.5535 35.4219 32.4481 32.4002 37.6354C30.7475 40.4664 29.5444 43.5368 28.8338 46.7369L28.3157 49.067C28.1796 49.6795 27.8222 50.2202 27.312 50.5855C26.8018 50.9507 26.1748 51.1148 25.5511 51.0463C24.9274 50.9779 24.3509 50.6816 23.9321 50.2143C23.5134 49.7471 23.2818 49.1417 23.2818 48.5143V41.2185C23.2818 40.3483 22.9361 39.5137 22.3207 38.8983C21.7053 38.283 20.8708 37.9373 20.0005 37.9373C19.1303 37.9373 18.2957 38.283 17.6803 38.8983C17.065 39.5137 16.7193 40.3483 16.7193 41.2185V48.5148C16.7194 49.1424 16.4879 49.7479 16.0691 50.2153C15.6503 50.6827 15.0738 50.979 14.4499 51.0475C13.8261 51.116 13.199 50.9518 12.6888 50.5864C12.1786 50.2211 11.8212 49.6802 11.6851 49.0676L11.1671 46.7375C10.4562 43.537 9.25288 40.4663 7.60012 37.635C4.2766 31.9458 2.67833 25.4133 2.9998 18.8323L3.2016 14.6165C3.27285 13.1318 3.78752 11.7026 4.67916 10.5134C5.5708 9.32423 6.79847 8.42962 8.20365 7.94513C9.60882 7.46063 11.127 7.4085 12.5621 7.79547C13.9972 8.18244 15.2833 8.99073 16.2544 10.116C16.7191 10.654 17.2942 11.0855 17.9407 11.3813C18.5871 11.6771 19.2896 11.8303 20.0005 11.8303C20.7114 11.8303 21.4139 11.6771 22.0604 11.3813C22.7068 11.0855 23.2819 10.654 23.7466 10.116C24.9262 8.75041 26.5642 7.86304 28.3524 7.62086L27.673 11.6172C27.6464 11.774 27.6543 11.9347 27.6961 12.0882C27.738 12.2416 27.8128 12.3841 27.9154 12.5057C28.018 12.6273 28.1458 12.725 28.2901 12.7921C28.4343 12.8592 28.5914 12.894 28.7505 12.8941H30.6296Z" fill="#CC9A1B"/>
<path d="M36.4062 0.863281H38.5938V6.33203H36.4062V0.863281Z" fill="#CC9A1B"/>
<path d="M40 6.65625L44.3744 2.2819L45.9207 3.82827L41.5464 8.20262L40 6.65625Z" fill="#CC9A1B"/>
<path d="M41.875 9.61328H47.3438V11.8008H41.875V9.61328Z" fill="#CC9A1B"/>
</svg>
