<svg width="42" height="42" viewBox="0 0 42 42" fill="none" xmlns="http://www.w3.org/2000/svg">
<g clip-path="url(#clip0)">
<path d="M40.7974 5.69604C40.1796 5.09185 39.177 5.09081 38.5592 5.69348L19.5695 24.1821L12.7181 16.9179C12.1261 16.2906 11.1251 16.2499 10.4814 16.8278C9.83824 17.4057 9.79706 18.3833 10.3891 19.0112L18.3565 27.4579C18.6482 27.7675 19.0566 27.9473 19.4872 27.956C19.4987 27.9565 19.5099 27.9565 19.521 27.9565C19.9394 27.9565 20.3419 27.7942 20.6385 27.5058L40.7943 7.88145C41.4137 7.27887 41.4148 6.30023 40.7974 5.69604Z" fill="white"/>
<path d="M40.417 19.0465C39.5428 19.0465 38.8342 19.7382 38.8342 20.5918C38.8342 30.1918 30.8342 38.0013 21 38.0013C11.1664 38.0013 3.16583 30.1918 3.16583 20.5918C3.16583 10.9924 11.1664 3.18225 21 3.18225C21.8743 3.18225 22.583 2.49054 22.583 1.63706C22.583 0.783512 21.8743 0.0917969 21 0.0917969C9.42047 0.0917969 0 9.28797 0 20.5918C0 31.8951 9.42047 41.0918 21 41.0918C32.579 41.0918 42 31.8951 42 20.5918C42 19.7383 41.2914 19.0465 40.417 19.0465Z" fill="white"/>
</g>
<defs>
<clipPath id="clip0">
<rect width="42" height="41" fill="white" transform="translate(0 0.0917969)"/>
</clipPath>
</defs>
</svg>
