<svg width="21" height="19" viewBox="0 0 21 19" fill="none" xmlns="http://www.w3.org/2000/svg">
<path d="M13.3494 1.9797C14.9115 0.417577 17.4441 0.417577 19.0063 1.97969C20.5163 3.48969 20.5666 5.90665 19.1572 7.47718L19.0063 7.63655L10.1674 16.4754C8.01953 18.6232 4.53711 18.6232 2.38924 16.4754C0.301013 14.3871 0.243006 11.0375 2.21521 8.87921L2.38923 8.69719L9.81384 1.27257C10.2044 0.882043 10.8375 0.882043 11.2281 1.27257C11.5885 1.63305 11.6163 2.20028 11.3112 2.59257L11.2281 2.68678L3.80345 10.1114C2.43661 11.4782 2.43661 13.6943 3.80345 15.0611C5.12146 16.3791 7.22915 16.4262 8.60357 15.2024L8.75319 15.0611L17.592 6.22235C18.3731 5.44127 18.3731 4.17493 17.592 3.39391C16.8521 2.65395 15.6766 2.615 14.8908 3.27707L14.7636 3.3939L5.92478 12.2327C5.72952 12.428 5.72952 12.7446 5.92475 12.9398C6.09833 13.1134 6.36776 13.1327 6.56264 12.9977L6.63189 12.9398L14.0565 5.51519C14.447 5.12466 15.0802 5.12466 15.4707 5.51518C15.8312 5.87567 15.8589 6.4429 15.5539 6.83519L15.4707 6.9294L8.0461 14.3541C7.06978 15.3304 5.48686 15.3304 4.51051 14.354C3.57672 13.4202 3.53612 11.9313 4.38874 10.9492L4.51054 10.8185L13.3494 1.9797Z" fill="#E8CC83"/>
</svg>
