<svg width="48" height="48" viewBox="0 0 48 48" fill="none" xmlns="http://www.w3.org/2000/svg">
<path d="M28.3078 6.44919C27.8223 6.33227 27.3353 6.63068 27.2185 7.11535C27.1017 7.60011 27.3999 8.08785 27.8847 8.20469C35.2028 9.96884 40.3138 16.4655 40.3138 24.0034C40.3138 32.9648 33.0232 40.2554 24.0617 40.2554C15.1003 40.2554 7.80969 32.9648 7.80969 24.0034C7.80969 16.4658 12.9204 9.96912 20.2382 8.20478C20.7229 8.08785 21.0211 7.60011 20.9043 7.11544C20.7874 6.63068 20.2995 6.33263 19.815 6.44929C15.9434 7.38278 12.4357 9.62078 9.93825 12.751C7.36438 15.9769 6.00391 19.868 6.00391 24.0034C6.00391 33.9605 14.1046 42.0612 24.0617 42.0612C34.0188 42.0612 42.1195 33.9606 42.1195 24.0034C42.1195 19.8679 40.7591 15.9768 38.185 12.7507C35.6874 9.6206 32.1796 7.3826 28.3078 6.44919Z" fill="#CC9A1B"/>
<path d="M46.6324 21.832L45.5761 19.8613L45.7523 17.4249C45.9216 15.8633 45.2987 14.3392 44.0838 13.3453L42.3304 11.9095L41.6407 9.83179C41.2544 8.24315 40.0479 6.96628 38.4824 6.49344L36.3181 5.83957L34.6606 3.92363C33.6799 2.77001 32.1954 2.16995 30.6895 2.31793L28.4431 2.54176L26.2349 1.434C24.8741 0.708529 23.2516 0.707897 21.8906 1.43391L19.9199 2.49011L17.4836 2.31387C15.9214 2.14449 14.3978 2.76748 13.404 3.98232L11.9682 5.73573L9.89052 6.42545C8.30179 6.81171 7.02492 8.01824 6.55208 9.58358L5.8983 11.7479L3.98236 13.4055C2.82883 14.3862 2.22841 15.8704 2.37657 17.3766L2.6004 19.623L1.49264 21.8312C0.767077 23.1921 0.766535 24.8145 1.49246 26.1756L2.54875 28.1463L2.37251 30.5827C2.20322 32.1443 2.82612 33.6683 4.04096 34.6623L5.79437 36.0981L6.48409 38.1758C6.87026 39.7644 8.07679 41.0413 9.64231 41.5141L11.8065 42.1679L13.4642 44.0839C14.445 45.2375 15.9288 45.8379 17.4353 45.6896L19.6816 45.4658L21.8896 46.5734C22.5703 46.9364 23.3164 47.1179 24.0626 47.1179C24.8082 47.1179 25.5538 46.9366 26.2341 46.5738L28.2048 45.5176L30.6411 45.6938C32.2027 45.8628 33.7267 45.2402 34.7208 44.0253L36.1566 42.2719L38.2344 41.5823C39.823 41.196 41.0998 39.9895 41.5726 38.4241L42.2265 36.2599L44.1425 34.6022C45.296 33.6215 45.8964 32.1373 45.7483 30.6311L45.5244 28.3848L46.632 26.1766C47.3576 24.8156 47.3583 23.1931 46.6324 21.832ZM45.0347 25.334C45.0308 25.3414 45.0269 25.3488 45.0232 25.3562L43.7929 27.8089C43.7162 27.9617 43.6845 28.1331 43.7014 28.3033L43.9513 30.8088C44.0414 31.725 43.6756 32.6288 42.9669 33.2314L40.8471 35.0653C40.7178 35.1772 40.623 35.3234 40.5736 35.487L39.844 37.9018C39.5532 38.8646 38.7631 39.6049 37.7821 39.8336C37.7553 39.8398 37.7287 39.8473 37.7026 39.856L35.3394 40.6403C35.1771 40.6942 35.0335 40.793 34.9252 40.9253L33.3235 42.8815C32.7151 43.6251 31.7806 44.0049 30.8242 43.8972C30.8123 43.8959 30.8003 43.8948 30.7885 43.8939L28.0742 43.6976C27.9033 43.6853 27.7332 43.7216 27.5826 43.8023L25.3828 44.9813C24.5532 45.4237 23.5624 45.4219 22.7322 44.9762C22.7248 44.9723 22.7173 44.9684 22.7099 44.9647L20.2573 43.7344C20.1313 43.6712 19.9926 43.6385 19.8525 43.6385C19.8227 43.6385 19.7928 43.64 19.7629 43.643L17.2574 43.8926C16.3413 43.9831 15.4374 43.617 14.8348 42.9084L13.0009 40.7886C12.8891 40.6593 12.7428 40.5644 12.5791 40.515L10.1644 39.7856C9.20143 39.4947 8.46124 38.7046 8.23254 37.7235C8.22631 37.6967 8.21882 37.6703 8.21015 37.6441L7.42581 35.2808C7.37199 35.1185 7.27322 34.9749 7.14094 34.8667L5.18483 33.2649C4.44121 32.6565 4.06145 31.7222 4.16908 30.7657C4.17043 30.7538 4.17152 30.7418 4.17242 30.7298L4.36871 28.0155C4.38108 27.845 4.34469 27.6745 4.26397 27.5238L3.08489 25.3242C2.64247 24.4946 2.64437 23.5038 3.08994 22.6736C3.09392 22.6663 3.09771 22.6589 3.10141 22.6515L4.33169 20.1988C4.40835 20.046 4.44004 19.8746 4.42306 19.7044L4.17341 17.1987C4.0833 16.2826 4.44907 15.3788 5.15774 14.7762L7.27755 12.9422C7.40685 12.8304 7.50165 12.6842 7.55113 12.5206L8.28066 10.1057C8.57148 9.14288 9.3616 8.40269 10.3427 8.1739C10.3695 8.16767 10.396 8.16018 10.4221 8.15151L12.7853 7.36708C12.9475 7.31326 13.0911 7.21449 13.1993 7.08221L14.8013 5.12601C15.4096 4.38248 16.3442 4.00291 17.3005 4.11035C17.3124 4.1117 17.3243 4.11279 17.3362 4.11369L20.0505 4.30998C20.2205 4.32208 20.3914 4.28596 20.5421 4.20524L22.7418 3.02625C23.5713 2.58383 24.5622 2.58564 25.3923 3.03131C25.3997 3.03519 25.4071 3.03907 25.4145 3.04277L27.8673 4.27305C28.02 4.34971 28.1915 4.38149 28.3616 4.36442L30.8672 4.11477C31.7833 4.02449 32.6872 4.39043 33.2897 5.09911L35.1237 7.21891C35.2355 7.34821 35.3817 7.44301 35.5454 7.49249L37.9602 8.22202C38.9231 8.51285 39.6632 9.30306 39.892 10.284C39.8983 10.3109 39.9058 10.3373 39.9144 10.3635L40.6989 12.7266C40.7528 12.8889 40.8515 13.0324 40.9837 13.1407L42.9399 14.7425C43.6836 15.3509 44.0632 16.2851 43.9556 17.2417C43.9542 17.2536 43.9532 17.2656 43.9523 17.2776L43.7561 19.9919C43.7437 20.1624 43.7801 20.3329 43.8607 20.4836L45.0398 22.6833C45.4823 23.513 45.4804 24.5039 45.0347 25.334Z" fill="#CC9A1B"/>
<path d="M20.143 19.0837C19.9982 18.7786 19.688 18.567 19.3278 18.567H14.5572C14.0585 18.567 13.6543 18.9712 13.6543 19.4699V33.1366C13.6543 33.6353 14.0585 34.0395 14.5572 34.0395H19.3278C19.702 34.0395 20.023 33.8119 20.1599 33.4875C20.8482 33.5841 21.5572 33.7798 22.2954 33.9842C23.4052 34.2915 24.5527 34.6092 25.745 34.6092H30.9573C32.5686 34.6092 33.8743 33.755 34.45 32.324C34.7305 31.6268 34.7796 30.9032 34.6157 30.2975C34.9155 30.0279 35.1688 29.6924 35.3604 29.3007C35.7488 28.5068 35.8263 27.6142 35.6062 26.8623C36.0165 26.4659 36.3225 25.9425 36.4825 25.3254C36.6321 24.7485 36.6295 24.1792 36.4964 23.6859C37.3109 23.2069 37.8594 22.3365 37.8594 21.3558C37.8594 20.5866 37.5599 19.8778 37.016 19.3601C36.4937 18.863 35.7981 18.5891 35.0574 18.5891L27.7105 18.5893C27.1523 17.8891 26.9786 16.9389 27.2964 16.1741C27.9487 14.6043 27.9082 13.2755 27.1656 11.8657C26.6143 10.8194 25.1319 9.77763 23.886 9.9555C23.1329 10.0631 22.588 10.5954 22.4282 11.3794C22.3812 11.6101 22.3683 11.8593 22.3534 12.1479C22.3165 12.8597 22.266 13.8347 21.6515 15.012C21.235 15.81 21.096 16.6308 20.9734 17.3551C20.7978 18.3925 20.7126 18.8922 20.143 19.0837ZM15.4601 20.3728H18.4249V32.2337H15.4601V20.3728ZM22.7539 17.6564C22.8591 17.0352 22.9678 16.3927 23.2524 15.8476C24.049 14.3213 24.1165 13.0193 24.1568 12.2413C24.1676 12.0341 24.1777 11.8384 24.1977 11.74C24.1978 11.7393 24.198 11.7386 24.1982 11.738C24.5114 11.7423 25.2822 12.1651 25.5679 12.7076C26.0625 13.6462 26.079 14.3981 25.629 15.4814C25.2231 16.4581 25.2536 17.5915 25.6551 18.5992C25.2158 18.6604 24.8774 19.0364 24.8774 19.4925C24.8774 19.991 25.2817 20.3954 25.7803 20.3954L35.0574 20.3951C35.3325 20.3951 35.586 20.4921 35.7709 20.6681C35.8999 20.7908 36.0536 21.0099 36.0536 21.3559C36.0536 21.8402 35.6096 22.2589 35.084 22.2704L32.7601 22.321C32.2616 22.3318 31.8662 22.7447 31.8771 23.2433C31.8878 23.7352 32.2898 24.1266 32.7794 24.1266C32.786 24.1266 32.7927 24.1266 32.7995 24.1264L34.7349 24.0843C34.798 24.2632 34.8309 24.6044 34.698 24.9952C34.5848 25.3277 34.2812 25.8853 33.5174 25.8853C33.0188 25.8853 32.6145 26.2895 32.6145 26.7882C32.6145 27.2869 33.0188 27.6911 33.5174 27.6911C33.6542 27.6911 33.7886 27.6826 33.92 27.6659C33.9312 27.9214 33.8787 28.2207 33.7385 28.5073C33.5727 28.8461 33.245 29.25 32.6255 29.25C32.1269 29.25 31.7226 29.6542 31.7226 30.1529C31.7226 30.6516 32.1269 31.0558 32.6255 31.0558C32.7189 31.0558 32.8114 31.0516 32.9027 31.0434C32.9003 31.2167 32.8651 31.4333 32.7666 31.6702C32.625 32.011 32.1652 32.8034 30.9575 32.8034H25.7452C24.7983 32.8034 23.8167 32.5317 22.7775 32.2439C21.9505 32.0149 21.1026 31.7804 20.2309 31.6756V20.9111C22.2636 20.5427 22.5439 18.8971 22.7539 17.6564Z" fill="#CC9A1B"/>
<path d="M24.0614 7.7511C24.56 7.7511 24.9643 7.34688 24.9643 6.84821C24.9643 6.34954 24.56 5.94531 24.0614 5.94531H24.0607C23.5621 5.94531 23.1582 6.34954 23.1582 6.84821C23.1582 7.34688 23.5627 7.7511 24.0614 7.7511Z" fill="#CC9A1B"/>
</svg>
