<svg width="38" height="39" viewBox="0 0 38 39" fill="none" xmlns="http://www.w3.org/2000/svg">
<path d="M15.4375 3.56055C14.3414 3.56055 13.3077 3.97202 12.4688 4.73261C11.6298 3.97202 10.5961 3.56055 9.5 3.56055C6.88097 3.56055 4.75 5.95752 4.75 8.9043C4.75 10.527 5.41084 12.063 6.53125 13.073C6.53244 15.4967 6.92194 17.8907 7.68788 20.1897L8.15516 21.5915C8.34931 22.1716 8.88963 22.5605 9.5 22.5605C10.1104 22.5605 10.6507 22.1716 10.8448 21.5915L12.3031 17.2168H12.635L14.0933 21.5921C14.2868 22.1716 14.8271 22.5605 15.4375 22.5605C16.0479 22.5605 16.5882 22.1716 16.7829 21.5915L17.249 20.1903C18.0156 17.8913 18.4051 15.4973 18.4062 13.0736C19.5267 12.0636 20.1875 10.5276 20.1875 8.90489C20.1875 5.95752 18.0565 3.56055 15.4375 3.56055ZM17.442 12.335C17.3013 12.4478 17.2188 12.6182 17.2188 12.7993V13.0611C17.2188 15.3607 16.85 17.633 16.1221 19.8145L15.656 21.2151C15.5925 21.4039 15.2825 21.4033 15.219 21.2157L13.6254 16.4348C13.5446 16.1926 13.3184 16.0293 13.0625 16.0293H11.875C11.6191 16.0293 11.3929 16.1926 11.3121 16.4354L9.7185 21.2157C9.65497 21.4045 9.34444 21.4039 9.28209 21.2163L8.81481 19.815C8.08747 17.633 7.71875 15.3607 7.71875 13.0605V12.7993C7.71875 12.6182 7.63622 12.4478 7.4955 12.3356C6.51937 11.5566 5.9375 10.2747 5.9375 8.9043C5.9375 6.61302 7.53528 4.74805 9.5 4.74805C10.4494 4.74805 11.343 5.18148 12.0175 5.96939C12.2437 6.23242 12.6938 6.23242 12.92 5.96939C13.5945 5.18148 14.4881 4.74805 15.4375 4.74805C17.4022 4.74805 19 6.61302 19 8.9043C19 10.2747 18.4181 11.5566 17.442 12.335Z" fill="white"/>
<path d="M11.8388 8.51897L10.7267 8.10156L10.336 9.143L9.237 8.41031L8.57853 9.39831L9.90793 10.2848L9.43115 11.5566L8.14034 10.2658L7.30078 11.1053L8.97337 12.7779L8.94547 12.8516C8.91994 12.9181 8.90747 12.9887 8.90747 13.06V18.4037H10.095V15.2687L11.4701 14.8103L11.0942 13.6846L10.095 14.0177V13.168L10.5807 11.8725H11.8762V10.685H11.026L11.8388 8.51897Z" fill="white"/>
<path d="M15.5082 11.5566L15.0314 10.2848L16.3608 9.39831L15.7023 8.41031L14.6033 9.143L14.2126 8.10156L13.1005 8.51897L13.9127 10.6856H13.0625V11.8731H14.3581L14.8437 13.1686V14.0183L13.8439 13.6852L13.468 14.8109L14.8437 15.2693V18.4043H16.0312V13.0606C16.0312 12.9893 16.0188 12.9187 15.9938 12.8516L15.9659 12.7779L17.6385 11.1053L16.799 10.2658L15.5082 11.5566Z" fill="white"/>
<path d="M37.2323 32.8283L24.7635 20.3595C24.5314 20.1274 24.1561 20.1274 23.924 20.3595L23.1562 21.1272L22.0614 20.0324C23.4899 18.0718 24.3438 15.6665 24.3438 13.0605C24.3438 6.51267 19.0166 1.18555 12.4688 1.18555C5.92088 1.18555 0.59375 6.51267 0.59375 13.0605C0.59375 19.6084 5.92088 24.9355 12.4688 24.9355C15.0747 24.9355 17.48 24.0817 19.44 22.6532L20.5354 23.748L19.7677 24.5158C19.5356 24.7479 19.5356 25.1232 19.7677 25.3553L32.2365 37.8241C32.3522 37.9399 32.5042 37.998 32.6562 37.998C32.8083 37.998 32.9603 37.9399 33.076 37.8241L37.2323 33.6678C37.4644 33.4357 37.4644 33.0604 37.2323 32.8283ZM1.78125 13.0605C1.78125 7.16758 6.57578 2.37305 12.4688 2.37305C18.3617 2.37305 23.1562 7.16758 23.1562 13.0605C23.1562 18.9535 18.3617 23.748 12.4688 23.748C6.57578 23.748 1.78125 18.9535 1.78125 13.0605ZM20.3686 21.9021C20.6999 21.6058 21.014 21.2917 21.3103 20.9604L22.3167 21.9668L21.375 22.9085L20.3686 21.9021ZM32.6562 36.5647L21.0271 24.9355L24.3438 21.6189L35.9729 33.248L32.6562 36.5647Z" fill="white"/>
<path d="M5.9375 32.0605H1.1875C0.859156 32.0605 0.59375 32.326 0.59375 32.6543V37.4043C0.59375 37.7326 0.859156 37.998 1.1875 37.998H5.9375C6.26584 37.998 6.53125 37.7326 6.53125 37.4043V32.6543C6.53125 32.326 6.26584 32.0605 5.9375 32.0605ZM5.34375 36.8105H1.78125V33.248H5.34375V36.8105Z" fill="white"/>
<path d="M5.9375 24.9355H1.1875C0.859156 24.9355 0.59375 25.201 0.59375 25.5293V30.2793C0.59375 30.6076 0.859156 30.873 1.1875 30.873H5.9375C6.26584 30.873 6.53125 30.6076 6.53125 30.2793V25.5293C6.53125 25.201 6.26584 24.9355 5.9375 24.9355ZM5.34375 29.6855H1.78125V26.123H5.34375V29.6855Z" fill="white"/>
<path d="M7.71875 29.6855H19V30.873H7.71875V29.6855Z" fill="white"/>
<path d="M7.71875 27.3105H19V28.498H7.71875V27.3105Z" fill="white"/>
<path d="M7.71875 36.8105H19V37.998H7.71875V36.8105Z" fill="white"/>
<path d="M7.71875 34.4355H19V35.623H7.71875V34.4355Z" fill="white"/>
</svg>
