<svg width="54" height="40" viewBox="0 0 54 40" fill="none" xmlns="http://www.w3.org/2000/svg">
<path d="M53.1477 17.9589C52.605 16.9396 51.3777 15.968 50.1466 16.2565C50.8489 12.0569 51.6116 6.09706 51.555 3.52877C51.486 0.404681 48.4292 0.288342 46.9601 0.232436C46.1581 0.201904 43.471 0.201904 42.669 0.232436C41.6064 0.272865 39.7137 0.345722 38.7213 1.5647C37.684 0.626619 36.0222 0.562712 35.0522 0.525863C34.2301 0.494593 31.5833 0.494593 30.7612 0.525863C29.7465 0.564502 27.9747 0.63241 26.9529 1.69999C25.931 0.632515 24.1591 0.564502 23.1445 0.525863C22.3224 0.494488 19.6754 0.494593 18.8535 0.525863C17.8835 0.562817 16.2217 0.626724 15.1844 1.5647C14.192 0.345722 12.2994 0.272865 11.2368 0.232436C10.4146 0.201167 7.76781 0.201167 6.94565 0.232436C5.47662 0.288342 2.41981 0.404575 2.35074 3.52877C2.29273 6.15602 3.04888 12.2123 3.71775 16.2378C2.51741 16.0515 1.38508 16.9585 0.85245 17.9589C0.2816 19.0313 -0.00519303 22.7137 7.11693e-05 28.9038C0.001861 31.0163 1.10292 32.9012 3.27261 34.5059C6.94112 37.2192 13.8196 39.0808 22.1445 39.6133C29.4652 40.0818 37.174 39.6973 44.2283 37.5436C45.2048 37.2455 44.7437 35.735 43.7672 36.0331C38.034 37.7834 29.9884 38.5327 22.2454 38.0372C14.2154 37.5236 7.64252 35.7736 4.21174 33.2362C2.46635 31.9453 1.5807 30.4872 1.57933 28.9024C1.57491 23.7059 1.78969 20.7422 2.04068 19.4211C2.30295 20.157 2.72019 20.8473 3.23555 21.4331C3.90968 22.1998 5.09571 21.1568 4.42147 20.3902C4.18437 20.1208 2.85495 17.987 3.47423 17.8239C3.58625 17.7944 3.8741 17.9436 3.99412 18.1717C5.4622 20.0138 8.26454 20.4186 10.4152 19.7831C12.6953 19.1093 13.7244 17.4789 14.1887 15.2719C14.3745 14.3875 15.6967 14.4087 15.8618 15.3046C16.0498 16.324 16.2302 17.1981 16.3836 17.8325C17.41 22.0782 24.9029 21.9508 25.8463 17.711C25.9937 17.0484 26.1694 16.1595 26.3544 15.1404C26.482 14.4368 27.605 14.3926 27.7407 15.1404C27.9249 16.156 28.1006 17.0449 28.2487 17.711C29.1918 21.9496 36.684 22.0818 37.7114 17.8326C37.8648 17.1982 38.0452 16.324 38.2332 15.3047C38.3921 14.4427 39.7089 14.3325 39.9064 15.2721C40.3974 17.606 41.5559 19.2991 44.0082 19.8795C45.9081 20.329 47.8726 19.9584 49.234 18.9568C49.5036 18.8927 50.349 17.6425 50.6207 17.824C50.7163 17.8886 50.8657 18.459 50.2664 19.545C49.6475 20.6662 48.6219 21.4705 47.3781 21.8095C45.769 22.2482 43.8858 21.9 42.0755 20.829C39.4227 19.2597 37.9316 20.3966 36.6157 21.3997C35.6486 22.1369 34.6486 22.8992 32.9817 22.8993C30.9728 22.8994 30.0514 22.2291 29.2384 21.6376C27.7059 20.5226 26.3892 20.5226 24.8568 21.6376C24.0438 22.2291 23.1226 22.8993 21.1139 22.8993C21.1138 22.8993 21.1135 22.8993 21.1133 22.8993C19.4465 22.8992 18.4465 22.137 17.4794 21.3997C16.1635 20.3965 14.6719 19.2598 12.0197 20.829C10.6549 21.6362 9.24252 22.0376 7.935 21.9917C6.91512 21.9545 6.85816 23.5335 7.87868 23.5699C9.48994 23.6273 11.1985 23.1495 12.8238 22.1881C14.5608 21.1606 15.2573 21.6915 16.5221 22.6555C17.5874 23.4676 18.9133 24.4783 21.1132 24.4784H21.114C23.6361 24.4784 24.8787 23.5745 25.7858 22.9145C26.7726 22.1965 27.3053 22.1841 28.3093 22.9145C29.2166 23.5746 30.4591 24.4786 32.9818 24.4784C35.1819 24.4783 36.5078 23.4675 37.5731 22.6555C38.8377 21.6915 39.5341 21.1603 41.2715 22.1881C43.4527 23.4785 45.769 23.8852 47.7935 23.3331C49.6892 22.8162 51.2646 21.4207 51.9901 19.591C52.2277 20.9879 52.4252 23.918 52.4209 28.9023C52.419 31.0001 50.8946 32.8504 47.89 34.402C47.0011 34.861 47.7285 36.2625 48.6147 35.8052C52.1355 33.9871 53.9979 31.6005 54.0002 28.9037C54.0054 22.7137 53.7187 19.0313 53.1477 17.9589ZM12.6432 14.9471C12.5695 15.2978 12.4999 15.6198 12.4362 15.9059C12.0558 17.6159 10.412 18.1797 9.72304 18.3427C8.14378 18.7162 6.47977 18.3474 5.51379 17.4466C5.51558 17.391 5.512 17.3344 5.50158 17.2775C4.72795 13.0521 3.87283 6.14118 3.92969 3.56362C3.95422 2.45424 4.42073 1.90898 7.00577 1.81064C7.7855 1.78095 10.3971 1.78095 11.1768 1.81064C13.7618 1.90898 14.2282 2.45424 14.2528 3.56372C14.2999 5.69393 13.7262 10.3711 13.2055 13.8382C12.931 14.1458 12.7321 14.5244 12.6432 14.9471ZM24.8004 14.8585C24.6191 15.8574 24.4477 16.7252 24.3046 17.368C24.0925 18.3215 23.1698 19.3466 21.2164 19.3644C21.2028 19.3645 21.1891 19.3646 21.1754 19.3646C19.7786 19.3646 18.2217 18.7154 17.9185 17.4614C17.7718 16.8545 17.5976 16.0098 17.4149 15.0182C17.317 14.4877 17.0521 14.026 16.6819 13.6797C16.1317 9.36644 15.8008 5.52285 15.8375 3.85694C15.862 2.74756 16.3286 2.2023 18.9136 2.10396C19.6933 2.07427 22.305 2.07427 23.0845 2.10396C25.6695 2.2023 26.136 2.74756 26.1606 3.85694C26.1969 5.50316 25.8447 9.40856 25.2612 13.8506C25.0326 14.1357 24.8695 14.4781 24.8004 14.8585ZM36.68 15.0184C36.4973 16.0099 36.323 16.8548 36.1764 17.4616C35.8731 18.7157 34.3163 19.3647 32.9195 19.3647C32.9059 19.3647 32.8921 19.3647 32.8785 19.3645C30.9251 19.3467 30.0024 18.3216 29.7903 17.3681C29.6465 16.7219 29.4751 15.8541 29.2946 14.8586C29.2019 14.348 28.941 13.9054 28.577 13.5799C28.0339 9.30559 27.7087 5.51284 27.7452 3.85694C27.7698 2.74756 28.2363 2.2023 30.8213 2.10396C31.601 2.07427 34.2127 2.07427 34.9922 2.10396C37.5773 2.2023 38.0437 2.74756 38.0683 3.85694C38.1051 5.52137 37.747 9.47236 37.1538 13.9647C36.9205 14.2654 36.7531 14.6225 36.68 15.0184ZM44.3719 18.3427C43.6829 18.1797 42.0394 17.6159 41.6588 15.9058C41.5951 15.6196 41.5255 15.2977 41.4518 14.9473C41.3366 14.3993 41.0364 13.9254 40.6261 13.5844C40.1019 9.99141 39.6082 5.58665 39.653 3.56372C39.6775 2.45435 40.1441 1.90908 42.7291 1.81075C43.5086 1.78106 46.1203 1.78106 46.9 1.81075C49.4851 1.90908 49.9515 2.45435 49.9761 3.56372C50.0379 6.36522 49.0264 13.7388 48.2914 17.6876C47.3033 18.4108 45.8028 18.6812 44.3719 18.3427Z" fill="#CC9A1B"/>
<path d="M48.5347 4.21364C48.5785 3.19334 47.0009 3.12659 46.9569 4.14574C46.8882 5.74184 46.8511 6.24004 46.5392 8.91709C46.4244 9.90287 47.9877 10.1318 48.1078 9.09976C48.4237 6.38765 48.465 5.83396 48.5347 4.21364Z" fill="#CC9A1B"/>
<path d="M12.2054 3.39031C11.7704 3.37272 11.4012 3.70953 11.3826 4.1453C11.3141 5.73993 11.277 6.23792 10.965 8.91655C10.8501 9.90222 12.4135 10.1312 12.5335 9.09922C12.8496 6.38542 12.8908 5.83184 12.9604 4.213C12.979 3.77744 12.6409 3.40905 12.2054 3.39031Z" fill="#CC9A1B"/>
<path d="M35.9539 3.38811C35.5135 3.37411 35.1538 3.71744 35.1405 4.15331C35.0918 5.74952 35.0608 6.24804 34.7822 8.92941C34.6797 9.91645 36.2454 10.1264 36.353 9.09271C36.6354 6.37607 36.6696 5.82196 36.7191 4.20153C36.7323 3.76555 36.3897 3.40137 35.9539 3.38811Z" fill="#CC9A1B"/>
<path d="M24.1082 3.38811C23.669 3.37411 23.3081 3.71744 23.2948 4.15331C23.2461 5.74952 23.2151 6.24804 22.9365 8.92941C22.834 9.91645 24.3997 10.1264 24.5073 9.09271C24.7897 6.37607 24.8239 5.82196 24.8734 4.20153C24.8867 3.76555 24.5441 3.40137 24.1082 3.38811Z" fill="#CC9A1B"/>
</svg>
