<svg width="75" height="76" viewBox="0 0 75 76" fill="none" xmlns="http://www.w3.org/2000/svg">
<g clip-path="url(#clip0)">
<path d="M34.6077 51.2567C35.1804 50.6839 35.1804 49.7569 34.6077 49.1842C34.0344 48.6131 33.1056 48.6131 32.5317 49.1842C31.9595 49.7569 31.9595 50.6839 32.5317 51.2567C33.1056 51.8277 34.0344 51.8277 34.6077 51.2567Z" fill="#CC9A1B"/>
<path d="M27.6592 16.4954C27.6592 25.3778 34.8997 32.6047 43.7994 32.6047C52.6991 32.6047 59.9396 25.3778 59.9396 16.4954C59.9396 7.61309 52.6991 0.386719 43.7994 0.386719C34.8997 0.386719 27.6592 7.61309 27.6592 16.4954ZM57.0054 16.4954C57.0054 23.763 51.0812 29.6756 43.7994 29.6756C36.5176 29.6756 30.5935 23.763 30.5935 16.4954C30.5935 9.22843 36.5176 3.31584 43.7994 3.31584C51.0812 3.31584 57.0054 9.22843 57.0054 16.4954Z" fill="#CC9A1B"/>
<path d="M16.9751 74.9537C17.5438 75.5259 18.4698 75.5322 19.0459 74.9657L26.1598 67.9711C27.3683 66.7649 27.7358 64.979 27.2044 63.4266L28.7346 61.9538C29.5584 61.1595 30.6432 60.7218 31.7898 60.7218H51.296C54.7566 60.7218 58.0274 59.3954 60.507 56.987C60.6091 56.888 59.7325 57.9186 73.8145 41.1209C75.9031 38.6547 75.5906 34.9514 73.1173 32.8646C70.6595 30.7972 66.9776 31.0942 64.8832 33.518L56.2249 42.3998C55.1316 41.0568 53.4643 40.2197 51.6629 40.2197H35.3008C32.9726 39.2475 30.5021 38.7554 27.9531 38.7554C20.8875 38.7554 14.7179 42.0124 11.407 48.119C10.0121 47.8552 8.54093 48.2764 7.48257 49.3326L0.50235 56.3198C-0.0675347 56.8903 -0.0686813 57.8133 0.500056 58.3855L16.9751 74.9537ZM27.9525 41.684C30.2 41.684 32.3729 42.1354 34.4122 43.0258C34.5979 43.1071 34.798 43.1488 35.0004 43.1488H51.6629C53.2539 43.1488 54.5978 44.4437 54.5978 46.0774C54.5978 47.6927 53.2814 49.0065 51.6629 49.0065H39.6914C38.8813 49.0065 38.2242 49.6622 38.2242 50.4708C38.2242 51.2799 38.8813 51.935 39.6914 51.935H51.6629C54.8994 51.935 57.5321 49.3075 57.5321 46.0774C57.5321 45.8199 57.5137 45.5647 57.4805 45.3118C65.8562 36.719 67.0372 35.5116 67.0877 35.4515C68.1334 34.2196 69.9898 34.0634 71.2248 35.1025C72.4609 36.1456 72.6174 37.9973 71.5688 39.2361L58.4081 54.9385C56.4863 56.7799 53.9631 57.7933 51.296 57.7933H31.7898C29.8783 57.7933 28.0689 58.5228 26.6964 59.8463L25.4494 61.0474L13.9543 49.5753C16.6409 44.545 21.6821 41.684 27.9525 41.684ZM9.55915 51.4023C10.043 50.9194 10.7861 50.8324 11.376 51.1963C11.63 51.3508 10.9007 50.6882 24.0849 63.8283C24.6714 64.4137 24.6399 65.3464 24.0929 65.8923L18.0283 71.8552L3.61091 57.3561L9.55915 51.4023Z" fill="#CC9A1B"/>
<path d="M42.0384 7.70898V9.42503C40.3305 10.0293 39.1036 11.6572 39.1036 13.5666C39.1036 15.9888 41.0781 17.96 43.5055 17.96C44.3145 17.96 44.9727 18.6169 44.9727 19.4243C44.9727 20.2317 44.3145 20.8886 43.5055 20.8886C42.8789 20.8886 42.2018 20.4955 41.6004 19.7808C41.0787 19.1617 40.1533 19.0821 39.533 19.6023C38.9126 20.123 38.8324 21.0465 39.3541 21.6656C40.1384 22.5966 41.0609 23.2455 42.0384 23.5728V25.282C42.0384 26.0911 42.6954 26.7462 43.5055 26.7462C44.3157 26.7462 44.9727 26.0911 44.9727 25.282V23.5659C46.6806 22.9611 47.9075 21.3332 47.9075 19.4243C47.9075 17.0016 45.933 15.0309 43.5055 15.0309C42.6966 15.0309 42.0384 14.374 42.0384 13.5666C42.0384 12.7593 42.6966 12.1018 43.5055 12.1018C44.0256 12.1018 44.5742 12.3667 45.0925 12.8674C45.675 13.4299 46.6038 13.4144 47.1674 12.8337C47.731 12.2523 47.7155 11.3253 47.1335 10.7628C46.3888 10.0436 45.6435 9.63674 44.9727 9.41473V7.70898C44.9727 6.89989 44.3157 6.24414 43.5055 6.24414C42.6954 6.24414 42.0384 6.89989 42.0384 7.70898Z" fill="#CC9A1B"/>
</g>
<defs>
<clipPath id="clip0">
<rect width="75" height="75" fill="white" transform="translate(0 0.386719)"/>
</clipPath>
</defs>
</svg>
