<svg width="36" height="35" viewBox="0 0 36 35" fill="none" xmlns="http://www.w3.org/2000/svg">
<path d="M29.5487 23.3828C33.0889 24.4448 35.2603 25.9849 35.2603 28.2122C35.2603 30.9334 31.6577 32.8709 26.308 33.8211L25.4255 33.9665C25.1264 34.0121 24.8225 34.0547 24.514 34.0944L23.5755 34.2046C23.0998 34.2553 22.6145 34.2992 22.1207 34.3363L21.1221 34.4015L20.1026 34.4482C19.931 34.4545 19.7586 34.46 19.5855 34.4647L18.5378 34.4835H17.4774L16.4297 34.4647C16.2566 34.46 16.0842 34.4545 15.9126 34.4482L14.8931 34.4015L13.8945 34.3363C13.4007 34.2992 12.9154 34.2553 12.4397 34.2046L11.5012 34.0944C11.347 34.0746 11.1939 34.054 11.042 34.0327L10.1448 33.896C4.55487 32.9751 0.754883 31.007 0.754883 28.2122C0.754883 25.9849 2.92627 24.4448 6.46644 23.3828C7.29613 23.1339 8.1705 23.6047 8.41941 24.4344C8.66832 25.264 8.19751 26.1384 7.36782 26.3873C6.08831 26.7712 5.09358 27.2129 4.46324 27.66C4.24557 27.8144 4.1027 27.9415 4.01424 28.0354L3.91982 28.1508C3.90025 28.1805 3.89174 28.2012 3.89174 28.2122C3.89174 28.5319 4.32528 28.8983 5.10365 29.2652L5.52117 29.4485C5.66965 29.5095 5.82729 29.5703 5.9937 29.6307L6.51877 29.8103C6.70228 29.8696 6.89413 29.9283 7.09393 29.9862L7.7167 30.1571C7.82433 30.1851 7.93384 30.2128 8.04518 30.2402L8.73476 30.4011C8.97167 30.4535 9.21549 30.5044 9.46581 30.5538L10.2359 30.697L11.0424 30.8294C11.1798 30.8505 11.3185 30.8711 11.4587 30.8911L12.3154 31.0049L13.2025 31.1047L14.1176 31.1893C14.427 31.2147 14.7406 31.2375 15.0581 31.2572L16.0216 31.3074L17.0056 31.3384C17.1711 31.3419 17.3374 31.3446 17.5045 31.3463L18.0076 31.349C18.3444 31.349 18.6785 31.3454 19.0097 31.3384L19.9936 31.3074L20.9571 31.2572C21.2746 31.2375 21.5882 31.2147 21.8976 31.1893L22.8127 31.1047L23.6998 31.0049L24.5566 30.8911L25.3805 30.7646C25.5149 30.7426 25.6479 30.72 25.7793 30.697L26.5494 30.5538L26.9199 30.4786L27.6306 30.3216C27.8605 30.268 28.0832 30.213 28.2985 30.1571L28.9213 29.9862C29.0212 29.9573 29.1191 29.9281 29.215 29.8988L29.7654 29.7209C30.028 29.631 30.2713 29.54 30.494 29.4485L30.9116 29.2652C31.6899 28.8983 32.1235 28.5319 32.1235 28.2122C32.1235 28.2012 32.115 28.1805 32.0954 28.1508L32.001 28.0355C31.9125 27.9415 31.7696 27.8144 31.552 27.66C30.9216 27.2129 29.9269 26.7712 28.6474 26.3873C27.8177 26.1384 27.3469 25.264 27.5958 24.4344C27.8447 23.6047 28.719 23.1339 29.5487 23.3828ZM18.0076 0.764648C24.4957 0.764648 29.7708 5.91068 29.7708 12.2783C29.7708 16.1434 27.6735 19.8911 24.231 23.4414C23.0615 24.6475 21.8133 25.7461 20.5648 26.7194L20.0311 27.1279L19.3598 27.6185L18.8656 27.9566C18.3443 28.2973 17.6709 28.2973 17.1496 27.9566C17.1054 27.9278 17.0575 27.896 17.006 27.8613L16.45 27.4716L15.9841 27.1279L15.4504 26.7194C14.2019 25.7461 12.9537 24.6475 11.7842 23.4414C8.34172 19.8911 6.24438 16.1434 6.24438 12.2783C6.24438 5.91068 11.5195 0.764648 18.0076 0.764648ZM18.0076 3.90151C13.2348 3.90151 9.38124 7.66076 9.38124 12.2783C9.38124 15.1531 11.107 18.2367 14.0362 21.2577C15.0968 22.3515 16.2381 23.3561 17.3789 24.2453C17.5781 24.4006 17.7699 24.5465 17.9531 24.6828L18.0076 24.7208L18.2011 24.5788L18.6363 24.2453C19.7772 23.3561 20.9184 22.3515 21.979 21.2577C24.9082 18.2367 26.634 15.1531 26.634 12.2783C26.634 7.66076 22.7804 3.90151 18.0076 3.90151ZM18.0076 7.03836C21.0394 7.03836 23.4971 9.49612 23.4971 12.5279C23.4971 15.5596 21.0394 18.0174 18.0076 18.0174C14.9759 18.0174 12.5181 15.5596 12.5181 12.5279C12.5181 9.49612 14.9759 7.03836 18.0076 7.03836ZM18.0076 10.1752C16.7083 10.1752 15.655 11.2286 15.655 12.5279C15.655 13.8272 16.7083 14.8805 18.0076 14.8805C19.3069 14.8805 20.3602 13.8272 20.3602 12.5279C20.3602 11.2286 19.3069 10.1752 18.0076 10.1752Z" fill="#B7B7B7"/>
</svg>
