<svg width="35" height="28" viewBox="0 0 35 28" fill="none" xmlns="http://www.w3.org/2000/svg">
<path d="M33.3711 0.25C33.6055 0.254727 33.8279 0.297579 34.05 0.403202C34.2791 0.512751 34.4807 0.677808 34.6331 0.88099C34.733 1.02989 34.7096 0.985209 34.6331 0.88099C34.8374 1.15342 34.9486 1.48701 34.9486 1.82747C34.948 1.74345 34.9445 1.70698 34.9486 1.82747V25.4896C34.9486 26.3608 34.2423 27.0671 33.3711 27.0671H1.82161C0.9504 27.0671 0.244141 26.3608 0.244141 25.4896V1.82747C0.244141 1.54506 0.320753 1.26464 0.464867 1.02244C0.758544 0.527603 1.26722 0.261177 1.82161 0.25H33.3711ZM31.7936 4.98242L18.5428 14.9205C18.038 15.2991 17.3629 15.337 16.824 15.0341L16.6499 14.9205L3.39909 4.98242V23.9121H31.7936V4.98242ZM6.55404 3.40495L17.5964 11.6867L28.6387 3.40495H6.55404Z" fill="#B7B7B7"/>
</svg>
