<svg width="55" height="55" viewBox="0 0 55 55" fill="none" xmlns="http://www.w3.org/2000/svg">
<g clip-path="url(#clip0)">
<path d="M53.4104 19.0636C51.5599 17.2132 48.5489 17.2132 46.6985 19.0636L33.6846 32.0774C33.6763 32.0856 33.6665 32.0918 33.6579 32.0993C34.2909 31.0613 34.656 29.8428 34.656 28.5406C34.656 24.7605 31.5807 21.6851 27.8006 21.6851C24.0205 21.6851 20.9451 24.7605 20.9451 28.5406C20.9451 29.8429 21.3103 31.0615 21.9435 32.0996C21.9347 32.0919 21.925 32.0858 21.9167 32.0776L8.90258 19.0636C7.05213 17.2132 4.0411 17.2132 2.19065 19.0636C0.340096 20.9142 0.340096 23.9251 2.19065 25.7757L16.7264 40.3112V50.9C16.7264 52.9354 18.3823 54.5914 20.4178 54.5914H35.1834C37.2188 54.5914 38.8748 52.9354 38.8748 50.9V40.3112L53.4104 25.7757C55.2609 23.925 55.2609 20.9141 53.4104 19.0636ZM51.1731 23.5382L36.1742 38.5373C35.8775 38.8339 35.7107 39.2363 35.7107 39.6559V50.9C35.7107 51.1908 35.4742 51.4273 35.1834 51.4273H20.4178C20.127 51.4273 19.8904 51.1908 19.8904 50.9V39.656C19.8904 39.2363 19.7238 38.8339 19.427 38.5374L4.42806 23.5382C3.81118 22.9214 3.81118 21.9177 4.42806 21.3008C4.73646 20.9924 5.14167 20.8382 5.54667 20.8382C5.95167 20.8382 6.35698 20.9924 6.66527 21.3008L19.6795 34.3151C20.3767 35.0122 21.3037 35.3961 22.2895 35.3961H33.3116C34.2974 35.3961 35.2244 35.0122 35.9218 34.3149L48.9359 21.3008C49.5527 20.684 50.5564 20.684 51.1732 21.3008C51.79 21.9177 51.79 22.9215 51.1731 23.5382ZM24.1092 28.5406C24.1092 26.5052 25.7651 24.8492 27.8006 24.8492C29.836 24.8492 31.492 26.5052 31.492 28.5406C31.492 30.5761 29.836 32.232 27.8006 32.232C25.7651 32.232 24.1092 30.5761 24.1092 28.5406Z" fill="white"/>
<path d="M22.2244 12.2632L21.4377 16.8501C21.336 17.4436 21.58 18.0434 22.0672 18.3975C22.5542 18.7512 23.2001 18.7981 23.7333 18.5179L27.8526 16.3522L31.9719 18.5179C32.2034 18.6395 32.4562 18.6996 32.7079 18.6996C33.0359 18.6996 33.3624 18.5977 33.6379 18.3976C34.1251 18.0436 34.3692 17.4437 34.2674 16.8502L33.4807 12.2633L36.8133 9.01474C37.2446 8.59445 37.3998 7.96575 37.2137 7.39305C37.0276 6.82025 36.5325 6.40281 35.9366 6.31632L31.331 5.64702L29.2711 1.47362C29.0046 0.933621 28.4547 0.591797 27.8525 0.591797C27.2502 0.591797 26.7003 0.933621 26.4338 1.47362L24.3742 5.64691L19.7686 6.31622C19.1727 6.4027 18.6775 6.82015 18.4916 7.39295C18.3054 7.96564 18.4607 8.59434 18.8919 9.01464L22.2244 12.2632ZM26.8434 7.7931L27.8525 5.74848L28.8615 7.7931C29.092 8.26001 29.5373 8.58359 30.0526 8.65847L32.3091 8.98637L30.6765 10.5779C30.3035 10.9413 30.1334 11.465 30.2215 11.9781L30.6069 14.2255L28.5887 13.1644C28.3582 13.0433 28.1054 12.9827 27.8526 12.9827C27.5998 12.9827 27.3468 13.0432 27.1164 13.1644L25.0982 14.2255L25.4836 11.9781C25.5717 11.465 25.4016 10.9413 25.0286 10.5779L23.396 8.98637L25.6525 8.65847C26.1675 8.58359 26.6129 8.26001 26.8434 7.7931Z" fill="white"/>
</g>
<defs>
<clipPath id="clip0">
<rect width="54" height="54" fill="white" transform="translate(0.798828 0.591797)"/>
</clipPath>
</defs>
</svg>
