<svg width="33" height="34" viewBox="0 0 33 34" fill="none" xmlns="http://www.w3.org/2000/svg">
<path d="M9.13582 3.40738C10.309 3.40738 11.39 4.04367 11.9596 5.06951L13.9349 8.62775C14.4522 9.55957 14.4765 10.6866 13.9999 11.6398L12.3689 14.8998L12.394 14.9787L12.547 15.4113C12.8544 16.2228 13.2822 17.0357 13.8446 17.7883C14.0925 18.1199 14.3619 18.433 14.6538 18.7249C14.9421 19.0132 15.2509 19.2794 15.5775 19.5243C16.3304 20.0887 17.1434 20.5167 17.9549 20.8233C18.1134 20.8832 18.2583 20.9338 18.3872 20.9758L18.4657 21.0001L21.7288 19.3697C22.5873 18.9404 23.5867 18.9174 24.4576 19.2949L24.7427 19.4356L28.3109 21.4194C29.3358 21.9891 29.9714 23.0697 29.9714 24.2423V28.3388C29.9714 31.5287 26.9517 33.8159 23.9258 32.7948C17.8779 30.7542 12.52 28.01 8.94446 24.4343C5.36879 20.8587 2.6246 15.5009 0.583908 9.45296C-0.437104 6.42699 1.85007 3.40738 5.03994 3.40738H9.13582ZM9.13587 6.63712H5.03994C4.01852 6.63712 3.34325 7.52863 3.64414 8.42038C5.53918 14.0366 8.08522 19.0076 11.2282 22.1505C14.3712 25.2935 19.3421 27.8396 24.9584 29.7346C25.8501 30.0355 26.7416 29.3603 26.7416 28.3388V24.2423L23.1733 22.2584L19.3679 24.1611C19.0506 24.3197 18.6899 24.3695 18.3415 24.3027C17.1119 24.0668 15.3794 23.4124 13.6402 22.1084C13.1934 21.7735 12.7688 21.4074 12.3701 21.0087C11.9665 20.6051 11.5962 20.1748 11.2576 19.7218C9.96048 17.9862 9.30583 16.258 9.06734 15.0318C8.99934 14.6822 9.04883 14.3199 9.20812 14.0013L11.1111 10.1953L9.13587 6.63712ZM23.8372 1.25716C25.9443 1.78553 27.8769 2.87142 29.4454 4.43997C31.0141 6.00859 32.1 7.94121 32.6283 10.0483C33.0174 11.6 33.0958 13.2161 32.8599 14.7981C32.7284 15.6802 31.9067 16.2887 31.0246 16.1572C30.1425 16.0257 29.534 15.204 29.6655 14.3219C29.8387 13.16 29.7811 11.9727 29.4955 10.8338C29.1084 9.28991 28.314 7.87609 27.1617 6.72375C26.0094 5.57146 24.5956 4.77707 23.0516 4.38991C21.9128 4.10435 20.7254 4.04676 19.5635 4.21995C18.6814 4.35144 17.8597 3.74293 17.7282 2.86081C17.5967 1.97869 18.2052 1.15699 19.0873 1.0255C20.6693 0.78969 22.2855 0.868071 23.8372 1.25716ZM24.9106 8.62588C26.3761 10.0914 27.0313 12.1393 26.7316 14.1496C26.6001 15.0317 25.7784 15.6403 24.8963 15.5088C24.0772 15.3866 23.494 14.6694 23.5201 13.8613L23.5371 13.6734C23.6875 12.6649 23.3607 11.6436 22.6268 10.9097C21.9661 10.2491 21.0728 9.91831 20.1656 9.96836L19.863 9.99921C18.9809 10.1307 18.1592 9.52221 18.0277 8.64009C17.8962 7.75797 18.5047 6.93626 19.3868 6.80477C21.397 6.5051 23.4449 7.16035 24.9106 8.62588Z" fill="#B7B7B7"/>
</svg>
