<svg width="75" height="81" viewBox="0 0 75 81" fill="none" xmlns="http://www.w3.org/2000/svg">
<path d="M67.7554 80.1128H56.0366C54.0982 80.1128 52.521 78.5401 52.521 76.6071V66.4924C50.6523 68.0434 48.6699 69.4128 46.9432 70.5078C42.6046 73.2593 37.5954 75.6827 34.1813 76.6815C33.8109 76.7901 33.4187 76.7901 33.0479 76.6815C29.6341 75.6827 24.6249 73.2593 20.2863 70.5078C16.518 68.1177 11.5302 64.4209 9.16882 60.3807C2.4382 48.8662 0.0672607 19.0098 0.0672607 13.4793C0.0672607 12.6233 0.482417 11.8582 1.15085 11.4825C7.26382 8.04607 17.694 4.40301 32.1515 0.655094C32.5816 0.543537 33.2901 0.34021 33.6149 0.34021C33.9398 0.34021 34.648 0.543537 35.0782 0.655094C46.8829 3.71544 56.0702 6.73231 62.3849 9.62189C62.9732 9.89112 63.2312 10.5848 62.9612 11.1712C62.6912 11.7577 61.9955 12.0148 61.4074 11.7458C55.2173 8.91329 46.1604 5.94284 34.4885 2.91678C34.1048 2.81737 33.8096 2.74071 33.6149 2.68868C33.4199 2.74087 33.1248 2.81737 32.7412 2.91678C15.1357 7.48112 6.5371 11.158 2.41195 13.4567C2.41132 13.4638 2.41101 13.4714 2.41101 13.4795C2.41101 18.6876 4.80304 48.2708 11.1937 59.2042C12.8512 62.0401 16.5273 65.3542 21.5441 68.5361C25.6729 71.1546 30.3955 73.4525 33.6148 74.4118C36.8341 73.4524 41.5569 71.1544 45.6854 68.5361C50.7023 65.3542 54.3782 62.0402 56.0359 59.2042C56.0599 59.1628 56.0841 59.1212 56.1082 59.0791H56.0366C55.2062 59.0791 54.4419 58.7904 53.8396 58.3085C50.5866 63.4531 40.0341 69.7042 34.0144 71.8233C33.9213 71.8571 33.8226 71.8792 33.7202 71.8886C33.7199 71.8886 33.7193 71.8887 33.7184 71.8887C33.6826 71.892 33.6471 71.8929 33.6105 71.8932C33.6098 71.8932 33.6091 71.8932 33.6084 71.8932C33.4605 71.8924 33.3191 71.8646 33.1891 71.8141C28.5899 70.1895 21.1601 66.1206 16.4071 61.7562C15.9309 61.3188 15.9004 60.5797 16.3387 60.1049C16.7774 59.6299 17.5185 59.5997 17.9946 60.0367C21.883 63.6071 28.0121 67.1767 32.4421 69.0197L32.4424 38.045H9.75851C11.0829 45.5961 12.9063 52.8515 15.2435 56.8502C15.5694 57.4076 15.3804 58.1231 14.8212 58.4481C14.2621 58.7731 13.5446 58.5847 13.2187 58.027C7.4346 48.1316 5.11867 22.0471 4.81507 15.6034C4.7932 15.1387 5.05007 14.7051 5.46898 14.4999C11.4957 11.5467 20.8573 8.41377 33.2948 5.18812C33.3876 5.16194 33.4851 5.14683 33.5857 5.14434H33.5884H33.5885C33.6059 5.14402 33.6238 5.14402 33.6412 5.14434H33.6437C33.7446 5.14683 33.8424 5.16194 33.9355 5.18827C46.3729 8.41393 55.7341 11.5467 61.7609 14.4999C62.1798 14.7051 62.4365 15.1388 62.4148 15.6036C62.3632 16.6946 62.2809 17.9711 62.1732 19.3484H64.5082C64.7352 16.4115 64.8187 14.4137 64.8187 13.4793C64.8187 13.4677 64.8179 13.4567 64.8168 13.4476C64.339 13.1042 64.1865 12.4501 64.4824 11.9264C64.8002 11.3644 65.5144 11.1655 66.0788 11.4824C66.7471 11.858 67.1624 12.6232 67.1624 13.4792C67.1624 14.4385 67.0802 16.4473 66.8574 19.3644C67.4116 19.4573 67.8337 19.9378 67.8337 20.5168C67.8337 21.1623 67.3091 21.6853 66.6618 21.6853H56.0368C55.3905 21.6853 54.8649 22.2095 54.8649 22.8539V34.5393C54.8649 35.1838 55.3905 35.7079 56.0368 35.7079H67.7555C68.4018 35.7079 68.9274 35.1838 68.9274 34.5393V26.1927L63.1204 31.9833C62.6624 32.4397 61.9205 32.4394 61.463 31.9833L57.5519 28.0834C57.0943 27.6268 57.0943 26.8871 57.5519 26.4307C58.0096 25.9747 58.7515 25.9744 59.2093 26.4307L62.2918 29.5046L72.1335 19.6907C72.5913 19.2345 73.3332 19.2345 73.7909 19.6907C74.2485 20.1472 74.2485 20.887 73.7909 21.3433L71.2712 23.8557V34.5395C71.2712 36.4724 69.694 38.0451 67.7555 38.0451H64.6012C64.4682 38.8374 64.3316 39.6182 64.1923 40.3822H66.6618C67.3091 40.3822 67.8337 40.9053 67.8337 41.5508C67.8337 42.1963 67.3091 42.7193 66.6618 42.7193H56.0368C55.3905 42.7193 54.8649 43.2434 54.8649 43.8879C54.8649 43.8879 54.871 55.7101 54.8826 55.776C54.8868 55.7952 54.8909 55.8145 54.8943 55.834C55.0134 56.3533 55.4804 56.7419 56.0368 56.7419H67.7555C68.4018 56.7419 68.9274 56.2177 68.9274 55.5733V47.2266L63.1204 53.0173C62.6624 53.4735 61.9205 53.4735 61.463 53.0173L57.5519 49.1173C57.0943 48.6608 57.0943 47.9211 57.5519 47.4647C58.0096 47.0085 58.7515 47.0083 59.2093 47.4647L62.2918 50.5386L72.1335 40.7247C72.5913 40.2685 73.3332 40.2685 73.7909 40.7247C74.2485 41.1812 74.2485 41.921 73.7909 42.3773L71.2712 44.8897V55.5735C71.2712 57.5064 69.694 59.0791 67.7555 59.0791H58.7662C58.5343 59.5394 58.298 59.9753 58.0609 60.3809C57.8576 60.7286 57.6346 61.0741 57.3951 61.4162H66.6618C67.3091 61.4162 67.8337 61.9392 67.8337 62.5848C67.8337 63.2303 67.3091 63.7533 66.6618 63.7533H56.0368C55.3905 63.7533 54.8649 64.2774 54.8649 64.9218V76.6073C54.8649 77.2517 55.3905 77.7758 56.0368 77.7758H67.7555C68.4018 77.7758 68.9274 77.2517 68.9274 76.6073V68.2606L63.1204 74.0513C62.6624 74.5077 61.9205 74.5073 61.463 74.0513L57.5519 70.1513C57.0943 69.6948 57.0943 68.955 57.5519 68.4987C58.0096 68.0425 58.7515 68.0423 59.2093 68.4987L62.2918 71.5726L72.1335 61.7587C72.5913 61.3025 73.3332 61.3025 73.7909 61.7587C74.2485 62.2152 74.2485 62.9549 73.7909 63.4113L71.2712 65.9237V76.6075C71.271 78.5401 69.694 80.1128 67.7554 80.1128V80.1128ZM34.7863 38.0451L34.786 69.0245C41.1477 66.4039 49.6651 60.821 51.986 56.8502C52.168 56.5385 52.3507 56.1998 52.531 55.8399C52.5243 55.752 52.521 55.6629 52.521 55.5733V43.8879C52.521 41.9549 54.0982 40.3822 56.0366 40.3822H57.0368C57.1824 39.6217 57.3255 38.8408 57.4649 38.0451H34.7863ZM59.4223 40.3822H61.8093C61.9505 39.6196 62.0893 38.839 62.2243 38.0451H59.8438C59.7066 38.8393 59.5657 39.6199 59.4223 40.3822ZM34.7863 35.708H52.7218C52.5918 35.3424 52.521 34.949 52.521 34.5395V22.854C52.521 20.9211 54.0982 19.3484 56.0366 19.3484H59.8221C59.9099 18.2411 59.9813 17.1981 60.0335 16.2644C55.9315 14.3332 48.3505 11.4088 34.7868 7.82732L34.7863 35.708ZM9.36539 35.708H32.4426L32.4429 7.82732C18.8793 11.4088 11.2979 14.3335 7.19585 16.2645C7.45132 20.8865 8.17007 28.2918 9.36539 35.708V35.708ZM64.9266 13.5177C64.9271 13.5178 64.9274 13.5181 64.9277 13.5183C64.9274 13.5181 64.9271 13.5178 64.9266 13.5177Z" fill="#E0AE2D"/>
</svg>
