<svg width="53" height="53" viewBox="0 0 53 53" fill="none" xmlns="http://www.w3.org/2000/svg">
<g clip-path="url(#clip0)">
<path d="M16.5666 13.0078C16.3777 12.8189 16.1156 12.7102 15.8485 12.7102C15.5814 12.7102 15.3194 12.8189 15.1305 13.0078C14.9417 13.1967 14.8329 13.4587 14.8329 13.7258C14.8329 13.9929 14.9416 14.255 15.1305 14.4439C15.3194 14.6329 15.5814 14.7415 15.8485 14.7415C16.1156 14.7415 16.3777 14.6328 16.5666 14.4439C16.7554 14.255 16.8641 13.9929 16.8641 13.7258C16.8641 13.4587 16.7555 13.1967 16.5666 13.0078Z" fill="#DEAC2C"/>
<path d="M51.8213 4.50188L50.5655 3.24463L51.8209 1.98922C52.2175 1.59262 52.2175 0.949525 51.8209 0.552822C51.4242 0.156221 50.7813 0.156221 50.3845 0.552822L49.1298 1.80742L47.8925 0.568564C47.7021 0.378033 47.4439 0.270783 47.1745 0.270682L29.9847 0.261135C29.9837 0.261135 29.9828 0.261135 29.9818 0.261135C28.6245 0.261135 27.3483 0.789666 26.3885 1.74953L17.8105 10.3275C17.4139 10.7241 17.4139 11.3672 17.8105 11.7639C18.2072 12.1605 18.8501 12.1605 19.2469 11.7639L27.8249 3.18593C28.4011 2.60967 29.167 2.29249 29.9818 2.29249C29.9825 2.29249 29.9831 2.29249 29.9836 2.29249L46.7527 2.30183L47.6937 3.24392L43.9254 7.0123C42.3274 6.05517 40.2207 6.26388 38.8451 7.63924C38.0593 8.42513 37.6266 9.46991 37.6266 10.5812C37.6266 11.6925 38.0593 12.7373 38.8451 13.5232C39.6562 14.3342 40.7217 14.7398 41.7872 14.7398C42.8526 14.7398 43.9179 14.3342 44.7291 13.5232C46.1025 12.1497 46.3126 10.0472 45.3604 8.45002L49.1293 4.68113L50.0871 5.63999L50.0777 22.3863C50.0772 23.2004 49.7599 23.9659 49.1842 24.5417L24.4006 49.3251C23.8244 49.9012 23.0583 50.2185 22.2436 50.2185C21.4289 50.2185 20.6628 49.9012 20.0866 49.3251L3.04321 32.2816C2.46694 31.7054 2.14966 30.9393 2.14966 30.1246C2.14966 29.3098 2.46694 28.5438 3.04321 27.9676L13.991 17.0198C14.3876 16.6232 14.3876 15.9801 13.991 15.5834C13.5943 15.1868 12.9514 15.1868 12.5546 15.5834L1.60681 26.5312C0.647041 27.491 0.118408 28.7672 0.118408 30.1246C0.118408 31.482 0.647041 32.7582 1.60681 33.718L18.6502 50.7615C19.641 51.7521 20.9422 52.2475 22.2436 52.2475C23.545 52.2475 24.8462 51.7521 25.837 50.7615L50.6205 25.9779C51.5795 25.0188 52.1081 23.7436 52.1089 22.3872L52.1184 5.22013C52.1186 4.95078 52.0117 4.69241 51.8213 4.50188ZM43.2927 12.0867C42.8905 12.4889 42.3558 12.7104 41.7872 12.7104C41.2183 12.7104 40.6837 12.4889 40.2815 12.0867C39.4512 11.2565 39.4512 9.90561 40.2815 9.07544C40.6967 8.66025 41.2418 8.45276 41.7872 8.45276C41.9925 8.45276 42.1978 8.48231 42.3962 8.54122L41.224 9.71345C40.8274 10.1101 40.8274 10.7531 41.224 11.1499C41.4224 11.3482 41.6823 11.4473 41.9422 11.4473C42.202 11.4473 42.4619 11.3482 42.6603 11.1499L43.8293 9.98087C44.0404 10.7039 43.8618 11.5176 43.2927 12.0867Z" fill="#DEAC2C"/>
<path d="M43.5018 20.7024L31.6659 8.86629C30.0979 7.29837 27.5466 7.29858 25.9789 8.86629L7.2486 27.5967C6.48902 28.3561 6.07068 29.366 6.07068 30.4401C6.07068 31.5142 6.48891 32.5242 7.2485 33.2836L19.0846 45.1195C19.8442 45.8791 20.8539 46.2975 21.928 46.2975C23.0022 46.2975 24.0121 45.8792 24.7715 45.1196L43.5018 26.3893C44.2614 25.6297 44.6797 24.62 44.6797 23.5458C44.6797 22.4717 44.2614 21.4619 43.5018 20.7024ZM42.0654 24.9529L23.3352 43.6834C22.9594 44.0592 22.4596 44.2662 21.9281 44.2662C21.3967 44.2662 20.8969 44.0592 20.5211 43.6833L8.6849 31.8473C8.30902 31.4715 8.10203 30.9718 8.10203 30.4402C8.10193 29.9086 8.30902 29.4088 8.6849 29.0331L27.4153 10.3027C27.8032 9.91473 28.3128 9.72074 28.8224 9.72074C29.3319 9.72074 29.8416 9.91483 30.2295 10.3027L42.0654 22.1387C42.4413 22.5146 42.6483 23.0143 42.6483 23.5458C42.6483 24.0773 42.4413 24.5771 42.0654 24.9529Z" fill="#DEAC2C"/>
<path d="M33.2358 20.5722C33.6324 20.1756 33.6324 19.5325 33.2358 19.1358C32.8391 18.7392 32.1962 18.7392 31.7994 19.1358L31.2146 19.7206C29.653 18.7561 27.6494 18.8856 26.3828 20.152C25.6444 20.8904 25.2666 21.8933 25.319 22.9756C25.3696 24.0209 25.8198 25.0187 26.5863 25.7852C26.5864 25.7853 26.5865 25.7853 26.5865 25.7854C27.4033 26.6027 27.4945 27.841 26.7897 28.5458C26.0845 29.2508 24.8461 29.1594 24.0289 28.3425C23.2117 27.5252 23.1205 26.2868 23.8255 25.5817C24.2221 25.1851 24.2221 24.542 23.8255 24.1453C23.4288 23.7487 22.7859 23.7487 22.3891 24.1453C21.1226 25.4118 20.9932 27.4154 21.9578 28.977L21.2639 29.6708C20.8673 30.0674 20.8673 30.7105 21.2639 31.1072C21.4627 31.3058 21.7226 31.4049 21.9825 31.4049C22.2425 31.4049 22.5023 31.3057 22.7007 31.1074L23.395 30.4131C24.0773 30.8345 24.8437 31.048 25.5964 31.048C26.5663 31.0479 27.5131 30.6952 28.2262 29.9822C29.7228 28.4855 29.6318 25.9591 28.0236 24.3498C28.0233 24.3495 28.0231 24.3492 28.0228 24.3489C27.6139 23.94 27.3742 23.4175 27.348 22.8773C27.3237 22.3744 27.491 21.9166 27.8193 21.5884C28.5242 20.8834 29.7624 20.9746 30.5797 21.7915C30.5798 21.7916 30.5798 21.7917 30.5799 21.7918C30.58 21.7919 30.5801 21.7919 30.5801 21.7919C31.3971 22.6092 31.4882 23.8474 30.7832 24.5524C30.3866 24.949 30.3866 25.5921 30.7832 25.9888C30.9816 26.1871 31.2415 26.2862 31.5014 26.2862C31.7613 26.2862 32.0212 26.1871 32.2195 25.9888C33.486 24.7222 33.6155 22.7186 32.651 21.157L33.2358 20.5722Z" fill="#DEAC2C"/>
<path d="M22.9564 37.41L17.7401 32.1935C17.3435 31.7972 16.7006 31.797 16.3037 32.1935C15.9071 32.5901 15.9071 33.2332 16.3037 33.6299L21.5201 38.8464C21.7185 39.0447 21.9784 39.1439 22.2383 39.1439C22.4982 39.1439 22.7581 39.0447 22.9564 38.8464C23.353 38.4498 23.353 37.8067 22.9564 37.41Z" fill="#DEAC2C"/>
<path d="M14.9576 29.4111C14.7688 29.2223 14.5076 29.1135 14.2396 29.1135C13.9725 29.1135 13.7115 29.2222 13.5216 29.4111C13.3327 29.6 13.224 29.862 13.224 30.1302C13.224 30.3973 13.3326 30.6593 13.5216 30.8482C13.7105 31.0371 13.9725 31.1458 14.2396 31.1458C14.5077 31.1458 14.7688 31.0371 14.9576 30.8482C15.1475 30.6583 15.2562 30.3973 15.2562 30.1302C15.2562 29.862 15.1475 29.601 14.9576 29.4111Z" fill="#DEAC2C"/>
</g>
<defs>
<clipPath id="clip0">
<rect width="52" height="52" fill="white" transform="translate(0.118408 0.251465)"/>
</clipPath>
</defs>
</svg>
