<svg width="51" height="57" viewBox="0 0 51 57" fill="none" xmlns="http://www.w3.org/2000/svg">
<g clip-path="url(#clip0)">
<path fill-rule="evenodd" clip-rule="evenodd" d="M8.24319 0.589844C12.3169 0.589844 15.6318 3.89559 15.6318 7.95909C15.6318 11.7102 12.8055 14.8095 9.16687 15.2653V21.3168H11.0142C11.5248 21.3168 11.9379 21.729 11.9379 22.2382V52.6375C11.9365 53.6143 11.5468 54.5508 10.8541 55.2414C10.1615 55.9319 9.2225 56.3203 8.24319 56.3212C7.26418 56.3198 6.32566 55.9313 5.63339 55.2407C4.94113 54.5502 4.5516 53.614 4.55021 52.6375V22.2382C4.55021 21.729 4.96249 21.3168 5.47301 21.3168H7.3195V15.2653C3.68178 14.8095 0.855469 11.7102 0.855469 7.95909C0.855469 3.89559 4.1695 0.589844 8.24319 0.589844ZM46.4739 4.00059C46.6109 3.89714 46.7741 3.83389 46.9452 3.81797C47.1163 3.80205 47.2884 3.83409 47.4422 3.91048C47.596 3.98688 47.7254 4.1046 47.8158 4.25037C47.9062 4.39615 47.9539 4.5642 47.9537 4.73559V21.3168H49.8011C50.3116 21.3168 50.7248 21.729 50.7248 22.2382V52.6375C50.7234 53.6142 50.3337 54.5505 49.6413 55.241C48.9488 55.9316 48.0101 56.3201 47.0309 56.3212C46.0516 56.3203 45.1126 55.9319 44.42 55.2414C43.7273 54.5508 43.3376 53.6143 43.3362 52.6375V22.2382C43.3362 21.729 43.7493 21.3168 44.2599 21.3168H46.1072V6.58534L43.8932 8.25134C43.6973 8.39178 43.4542 8.45024 43.2157 8.41421C42.9772 8.37819 42.7623 8.25055 42.617 8.05857C42.4716 7.86659 42.4073 7.6255 42.4377 7.38683C42.4682 7.14816 42.5911 6.93085 42.78 6.78134L46.4739 4.00059ZM30.4072 11.1843C31.8762 11.186 33.2846 11.7687 34.3234 12.8048C35.3622 13.8408 35.9466 15.2455 35.9485 16.7108C35.9485 19.0821 34.4406 21.1033 32.3335 21.8865C32.8883 22.4037 33.3312 23.0285 33.6352 23.7226C33.9391 24.4167 34.0977 25.1654 34.1011 25.9228V31.4493H35.9485C36.459 31.4493 36.8721 31.8623 36.8721 32.3707V52.6375C36.8707 53.6142 36.4811 54.5505 35.7886 55.241C35.0962 55.9316 34.1574 56.3201 33.1783 56.3212C32.199 56.3203 31.26 55.9319 30.5673 55.2414C29.8747 54.5508 29.4849 53.6143 29.4835 52.6375V32.3707C29.4835 31.8623 29.8967 31.4493 30.4072 31.4493H32.2546V25.9228C32.2546 24.8405 31.7914 23.8491 31.0063 23.1605C30.7453 23.7099 30.3337 24.1743 29.8191 24.5001C29.3045 24.8259 28.7079 24.9997 28.0984 25.0015C27.4905 24.9995 26.8954 24.8264 26.3817 24.5019C25.868 24.1775 25.4566 23.7149 25.1949 23.1675C24.8025 23.5121 24.4879 23.9359 24.2721 24.4109C24.0563 24.886 23.9442 25.4013 23.9432 25.9228V31.4493H25.7897C26.3002 31.4493 26.7134 31.8623 26.7134 32.3707V52.6375C26.712 53.6142 26.3223 54.5505 25.6299 55.241C24.9374 55.9316 23.9987 56.3201 23.0195 56.3212C22.0403 56.3201 21.1016 55.9316 20.4091 55.241C19.7167 54.5505 19.327 53.6142 19.3256 52.6375V32.3707C19.3256 31.8623 19.7379 31.4493 20.2485 31.4493H22.0958V25.9228C22.0958 24.3706 22.7528 22.9181 23.8616 21.8856C21.7555 21.1025 20.2485 19.0812 20.2485 16.7108C20.2501 15.2454 20.8344 13.8404 21.8732 12.8042C22.9121 11.768 24.3206 11.1851 25.7897 11.1835C26.0347 11.1835 26.2696 11.2805 26.4428 11.4533C26.616 11.6261 26.7134 11.8605 26.7134 12.1048C26.7134 12.3492 26.616 12.5836 26.4428 12.7564C26.2696 12.9291 26.0347 13.0262 25.7897 13.0262C24.8105 13.0276 23.8719 13.4163 23.1796 14.107C22.4873 14.7977 22.0979 15.7341 22.0967 16.7108C22.0967 18.5483 23.4555 20.063 25.2221 20.3386C25.7546 19.2851 26.8379 18.5536 28.0993 18.5536C29.3599 18.5536 30.4432 19.2851 30.9756 20.3386C32.7423 20.063 34.1011 18.5483 34.1011 16.7108C34.0999 15.7341 33.7105 14.7977 33.0182 14.107C32.3259 13.4163 31.3873 13.0276 30.4081 13.0262C30.1631 13.0262 29.9282 12.9291 29.755 12.7564C29.5817 12.5836 29.4844 12.3492 29.4844 12.1048C29.4844 11.8605 29.5817 11.6261 29.755 11.4533C29.9282 11.2805 30.1631 11.1835 30.4081 11.1835L30.4072 11.1843ZM10.0906 23.1578H6.3967V52.6366C6.3967 53.6516 7.22564 54.4785 8.24319 54.4785C8.73285 54.478 9.20233 54.2838 9.54865 53.9385C9.89498 53.5932 10.0899 53.125 10.0906 52.6366V23.1578ZM48.8774 23.1578H45.1835V52.6366C45.1835 53.6516 46.0125 54.4785 47.03 54.4785C47.5197 54.478 47.9892 54.2838 48.3355 53.9385C48.6818 53.5932 48.8767 53.125 48.8774 52.6366V23.1578ZM35.0248 33.2921H31.3309V52.6375C31.3309 53.6525 32.1599 54.4793 33.1783 54.4793C34.1958 54.4793 35.0248 53.6533 35.0248 52.6375V33.2921ZM24.8669 33.2921H21.1713V52.6375C21.1713 53.6525 22.0002 54.4793 23.0186 54.4793C24.0362 54.4793 24.866 53.6533 24.866 52.6375V33.2921H24.8669ZM28.0984 20.3955C27.731 20.3957 27.3787 20.5415 27.119 20.8007C26.8593 21.0599 26.7134 21.4115 26.7134 21.778C26.7261 22.1359 26.8777 22.4749 27.136 22.7236C27.3944 22.9723 27.7394 23.1113 28.0984 23.1113C28.4575 23.1113 28.8025 22.9723 29.0609 22.7236C29.3192 22.4749 29.4708 22.1359 29.4835 21.778C29.4835 21.4115 29.3376 21.0599 29.0779 20.8007C28.8182 20.5415 28.4659 20.3957 28.0984 20.3955ZM8.24319 2.43172C6.77421 2.43357 5.36595 3.01654 4.32731 4.05275C3.28867 5.08896 2.70446 6.49379 2.70284 7.95909C2.70446 9.4244 3.28867 10.8292 4.32731 11.8654C5.36595 12.9016 6.77421 13.4846 8.24319 13.4865C9.71231 13.4848 11.1208 12.902 12.1596 11.8657C13.1985 10.8295 13.7828 9.42455 13.7844 7.95909C13.7826 6.49379 13.1981 5.08905 12.1593 4.05301C11.1205 3.01696 9.71216 2.43421 8.24319 2.43259V2.43172ZM11.9379 7.49884C12.4476 7.49884 12.8607 7.91097 12.8607 8.42022C12.8596 9.39693 12.4701 10.3333 11.7779 11.0241C11.0856 11.7148 10.1469 12.1035 9.16775 12.1048C8.92277 12.1048 8.68783 12.0078 8.51461 11.835C8.34138 11.6622 8.24407 11.4278 8.24407 11.1835C8.24407 10.9391 8.34138 10.7047 8.51461 10.532C8.68783 10.3592 8.92277 10.2621 9.16775 10.2621C10.1853 10.2621 11.0142 9.43609 11.0142 8.42022C11.0142 7.91097 11.4265 7.49884 11.9379 7.49884Z" fill="#CC9A1B"/>
</g>
<defs>
<clipPath id="clip0">
<rect width="50" height="56" fill="white" transform="translate(0.855469 0.455078)"/>
</clipPath>
</defs>
</svg>
