<svg width="47" height="59" viewBox="0 0 47 59" fill="none" xmlns="http://www.w3.org/2000/svg">
<g clip-path="url(#clip0)">
<path d="M27.3177 19.6264C28.0791 19.5697 28.8436 19.6826 29.5569 19.9572C30.2703 20.2317 30.9151 20.6611 31.4456 21.2149C31.9761 21.7688 32.3794 22.4335 32.6268 23.1621C32.8743 23.8907 32.9598 24.6653 32.8775 25.4309C32.5926 28.0525 31.6196 33.2609 28.304 38.7004C28.1716 38.9171 27.9794 39.0902 27.7509 39.1984C27.5225 39.3066 27.2677 39.3453 27.0178 39.3097C26.7679 39.2741 26.5337 39.1658 26.3439 38.998C26.1541 38.8301 26.0169 38.6101 25.9492 38.3649L25.6042 37.1112C25.24 35.7863 24.5279 34.5852 23.543 33.6348L23.5076 33.5991L23.4899 33.6169C22.5896 34.5638 21.9459 35.7284 21.6207 36.9988L21.2811 38.3239C21.2176 38.5725 21.083 38.7968 20.8939 38.9687C20.7049 39.1407 20.4699 39.2527 20.2182 39.2907C19.9664 39.3288 19.7092 39.2913 19.4785 39.1828C19.2478 39.0743 19.0539 38.8997 18.9209 38.6808C15.6151 33.2529 14.6438 28.0534 14.3589 25.4363C14.277 24.6676 14.364 23.8902 14.6138 23.1594C14.8637 22.4286 15.2701 21.7622 15.8042 21.2079C16.3384 20.6535 16.9871 20.2247 17.7042 19.952C18.4213 19.6793 19.1892 19.5693 19.9532 19.63C20.5282 19.6746 20.9635 19.9655 21.4252 20.2734C21.6844 20.4536 21.9551 20.616 22.2347 20.7624C23.2688 20.4982 26.4764 19.6898 27.3177 19.6264ZM26.3304 23.0467C25.7767 23.1172 25.2716 23.1475 24.8089 23.1475C22.4319 23.1475 21.205 22.3301 20.4212 21.8072C20.1956 21.6582 19.9152 21.4708 19.8108 21.4628C19.3121 21.4228 18.8107 21.4946 18.3427 21.6731C17.8747 21.8516 17.4516 22.1323 17.1039 22.4952C16.7573 22.8539 16.4937 23.2856 16.3321 23.7592C16.1704 24.2328 16.1147 24.7367 16.1689 25.2346C16.6384 29.2357 17.884 33.1045 19.8347 36.6204L19.8551 36.5383C20.2592 34.9626 21.0582 33.5181 22.1754 32.3436L22.2895 32.224C22.5985 31.9008 23.0218 31.7141 23.4669 31.7047C23.912 31.6953 24.3426 31.8641 24.6647 32.1741L24.8018 32.3052C26.024 33.4848 26.9079 34.9754 27.3601 36.6195L27.3734 36.6677C29.3399 33.1384 30.5947 29.2516 31.0658 25.231C31.1191 24.7336 31.0634 24.2304 30.9025 23.7571C30.7417 23.2838 30.4796 22.8519 30.1349 22.4922C29.7902 22.1324 29.3713 21.8534 28.9078 21.6751C28.4444 21.4967 27.9477 21.4234 27.453 21.4601C27.3469 21.4682 27.1593 21.4994 26.9169 21.5458C27.0218 21.6725 27.0908 21.8253 27.1169 21.9883C27.143 22.1512 27.1251 22.3182 27.0651 22.4717C27.0051 22.6253 26.9052 22.7597 26.7759 22.8608C26.6467 22.962 26.4928 23.0262 26.3304 23.0467ZM7.10244 29.4552C7.10244 20.2609 14.5173 12.7807 23.6324 12.7807C32.7474 12.7807 40.1623 20.2609 40.1623 29.4552C40.1623 38.6487 32.7474 46.1289 23.6324 46.1289C14.5173 46.1289 7.10244 38.6487 7.10244 29.4552ZM8.92475 29.4552C8.92475 37.6484 15.5098 44.2907 23.6324 44.2907C31.7549 44.2907 38.34 37.6484 38.34 29.4552C38.34 21.2612 31.7549 14.6188 23.6324 14.6188C15.5134 14.6277 8.93359 21.2656 8.92475 29.4552ZM23.6501 0.901367C23.7863 0.902259 23.9216 0.93349 24.0481 0.99506L45.8751 11.8027C46.1936 11.9544 46.4006 12.2729 46.4112 12.6272V33.2145C46.4112 35.7353 45.5894 38.6371 44.1484 41.3854C42.7073 44.1319 40.7514 46.426 38.6867 47.8448L24.1437 57.8484C23.9914 57.9524 23.8118 58.008 23.6279 58.008C23.4441 58.008 23.2645 57.9524 23.1122 57.8484L8.56294 47.8448C6.50179 46.4278 4.55828 44.1292 3.11548 41.3729C1.67355 38.621 0.853516 35.7237 0.853516 33.2145V12.5968C0.8659 12.2408 1.07467 11.9223 1.39402 11.7715L23.2378 0.99506C23.3643 0.93349 23.4997 0.902259 23.6359 0.901367H23.6501ZM23.6456 55.9773L37.6889 46.3261C41.4795 43.7196 44.5898 37.8376 44.5898 33.2145V13.2L23.6324 2.84392L2.67582 13.1706V33.2154C2.67582 35.4301 3.42509 38.0232 4.7299 40.5163C6.03736 43.0112 7.78978 45.076 9.60944 46.327L23.6456 55.9773Z" fill="#CC9A1B"/>
</g>
<defs>
<clipPath id="clip0">
<rect width="46" height="58" fill="white" transform="translate(0.853516 0.455078)"/>
</clipPath>
</defs>
</svg>
