<svg width="57" height="82" viewBox="0 0 57 82" fill="none" xmlns="http://www.w3.org/2000/svg">
<g clip-path="url(#clip0)">
<path d="M54.1387 17.4676C50.8331 14.5051 46.8609 14.1977 44.4165 14.3654C43.8887 14.4492 43.3331 14.5331 42.8054 14.6169C42.1387 14.7287 41.4998 14.8405 40.8331 15.0082C40.1943 15.1759 39.5276 15.3436 38.8609 15.4833C38.1943 15.623 37.5276 15.7628 36.8887 15.9025C37.5276 15.6789 38.1665 15.4554 38.7776 15.2038C39.4165 14.9523 40.0276 14.7287 40.6665 14.4492C40.8331 14.3654 41.0276 14.3095 41.1943 14.2256C40.1387 13.8064 38.2498 13.2754 35.6943 13.3872C31.0831 13.6108 29.4165 15.2318 29.4165 15.2318C29.4165 15.2318 27.7498 14.3095 25.3609 14.4772C22.972 14.6728 21.1109 15.2318 19.0831 17.0764C17.0554 18.9209 14.472 21.1568 15.1942 29.3177C15.9442 37.6462 18.5276 38.4008 18.5276 41.7546C18.5276 45.1084 17.6109 47.7076 18.8887 52.9059C20.1665 58.1043 24.4165 65.5385 25.1665 66.0975C25.9165 66.6564 27.1942 67.4111 28.1109 65.9018C28.8887 64.6721 29.2498 59.865 29.3609 58.244C29.1109 57.2659 28.8609 56.2597 28.6387 55.2815L27.5831 51.0614C27.222 49.6639 26.8609 48.2665 26.472 46.8691C26.0831 45.4997 25.5831 44.1302 25.0554 42.7607C24.8054 42.09 24.5276 41.4192 24.222 40.7485C23.9442 40.0777 23.6387 39.4349 23.3054 38.7921C24.0831 40.0218 24.7498 41.3074 25.3887 42.621C25.6942 43.2918 25.9998 43.9346 26.2776 44.6333C26.5554 45.304 26.8331 45.9748 27.0831 46.6735C28.0276 49.4404 28.8331 52.2352 29.6387 55.03C30.4442 57.8248 31.1665 60.6196 31.972 63.4145C32.3609 64.8119 32.7498 66.2093 33.1665 67.5508C33.222 67.7185 33.2776 67.8862 33.3331 68.0259L33.5554 68.529C33.6943 68.8644 33.8331 69.1718 33.9998 69.5072C34.3054 70.15 34.6387 70.7648 34.9998 71.3238C35.1943 71.6033 35.3887 71.8548 35.5831 72.0784C35.8054 72.302 36.0276 72.4697 36.222 72.5535C36.3331 72.6094 36.4165 72.6094 36.4998 72.6094C36.5276 72.6094 36.5554 72.6094 36.5831 72.6094H36.6109C36.6109 72.6094 36.6387 72.6094 36.6665 72.6094C36.7498 72.6094 36.8054 72.5815 36.8887 72.5535C37.1665 72.4697 37.4165 72.3579 37.6665 72.1902C38.1109 71.8548 38.472 71.3238 38.7776 70.7089C39.0831 70.0941 39.3331 69.4233 39.5831 68.7526C39.8609 68.0539 40.0831 67.439 40.3054 66.7403C40.5276 66.0416 40.722 65.3708 40.9165 64.6721L42.0831 60.4799L44.3887 52.0954C44.5831 51.3967 44.7776 50.698 44.9998 49.9993C45.222 49.3006 45.4443 48.6019 45.6943 47.9312C45.9443 47.2325 46.1665 46.5617 46.4165 45.863L47.1943 43.8228L46.6109 45.9189L46.0276 48.015C45.8331 48.7137 45.6665 49.4124 45.472 50.1111C45.3887 50.4744 45.3054 50.8098 45.222 51.1732L44.9998 52.2352L44.0554 56.4833C43.8054 57.5733 43.5554 58.6633 43.3054 59.7532V60.3402C43.3054 60.3402 43.4998 65.3429 44.972 66.0975C46.0276 66.6285 47.3609 65.1752 48.6665 63.3027C49.9443 61.4581 53.0831 53.6605 53.2776 51.229C53.472 48.8255 52.9165 44.7171 53.2776 41.9502C53.6387 39.1554 54.7498 37.6742 55.4998 35.9973C56.2498 34.3204 56.8054 30.9946 56.972 28.7587C57.0831 26.5508 57.3609 20.3463 54.1387 17.4676ZM28.472 19.6196C27.5831 20.0109 26.722 20.4301 25.9165 20.9891C26.222 20.5978 26.6109 20.2624 26.972 19.955C27.1665 19.7873 27.3609 19.6476 27.5554 19.5078C27.7498 19.3681 27.972 19.2284 28.1665 19.0886C28.9998 18.5576 29.8887 18.1104 30.8331 17.7192L31.5276 17.4676C31.7776 17.3838 31.9998 17.3279 32.2498 17.244C32.722 17.1043 33.222 17.0205 33.722 16.9087C33.972 16.8528 34.222 16.8248 34.472 16.7969C34.722 16.7689 34.972 16.713 35.222 16.713C35.722 16.6851 36.222 16.6292 36.722 16.6292C38.722 16.6012 40.6943 16.8807 42.6109 17.3838C43.5554 17.6353 44.4998 17.9427 45.4165 18.334L46.0831 18.6414C46.3054 18.7532 46.5276 18.865 46.7498 18.9768C47.1943 19.2004 47.6109 19.4519 48.0276 19.7314C47.0831 19.4519 46.1665 19.2004 45.222 18.9768C44.2776 18.7532 43.3331 18.5856 42.3887 18.4179C40.4998 18.1104 38.6109 17.9427 36.722 17.9707C35.7776 17.9707 34.8331 18.0545 33.9165 18.1663C32.9998 18.3061 32.0554 18.4738 31.1387 18.7253C30.222 18.9209 29.3331 19.2284 28.472 19.6196ZM38.3331 36.3606C35.0276 36.4724 31.5831 32.0845 30.4442 28.8146C29.3054 25.5447 29.7498 23.225 32.6665 20.9891C32.6665 20.9891 35.5831 19.6476 38.3054 19.8432C40.5831 19.983 51.0831 19.7314 51.4443 26.0198C51.8054 32.3081 41.6387 36.2488 38.3331 36.3606Z" fill="#717171"/>
<path d="M49.191 28.3672C48.8854 28.8144 48.441 29.1498 47.9965 29.5131C47.5521 29.8485 47.0799 30.1839 46.5799 30.4633C45.6076 31.0502 44.5799 31.5533 43.5243 31.9725C42.4688 32.3918 41.3854 32.6992 40.3021 32.9228C39.7465 33.0346 39.191 33.1184 38.6354 33.1464C38.1354 33.2023 37.6076 33.1184 37.1354 32.9507C36.1632 32.6433 35.3021 31.9166 34.5521 31.0782C33.8299 30.2397 33.2188 29.2616 32.6632 28.2554C32.1076 27.2493 31.6354 26.1873 31.2188 25.0693C31.4132 26.2152 31.7465 27.3611 32.1632 28.479C32.6076 29.569 33.1354 30.659 33.8576 31.6372C34.5799 32.6153 35.5243 33.4817 36.7465 33.9569C37.3576 34.1804 38.0243 34.2922 38.6632 34.2363C39.2743 34.2084 39.8576 34.1245 40.441 34.0128C41.6076 33.7892 42.7743 33.4258 43.8576 32.9507C44.941 32.4756 45.9965 31.8887 46.9688 31.2179C47.441 30.8826 47.941 30.5192 48.3577 30.1C48.5799 29.9044 48.8021 29.6808 48.9965 29.4572C49.191 29.2336 49.3854 28.9541 49.5521 28.7026C49.8576 28.1716 50.0521 27.5847 50.2188 27.0257C50.3854 26.4388 50.4688 25.8798 50.5243 25.2929C50.3576 25.8519 50.1632 26.4108 49.9132 26.9419C49.7743 27.417 49.5243 27.948 49.191 28.3672Z" fill="#717171"/>
<path d="M12.4991 23.756C12.1936 21.2407 9.83247 10.4806 9.4158 10.1732C8.99913 9.86579 7.52691 9.6981 5.77691 10.1732C4.02691 10.6204 3.05469 11.4588 3.05469 11.4588C3.05469 11.4588 4.08247 22.4984 4.19358 24.4268C4.30469 26.3552 4.58247 33.5938 4.69358 36.3607C4.80469 39.6865 3.88802 80.6865 3.88802 80.6865C3.88802 80.6865 4.88802 81.5809 5.74913 81.7765C6.58247 81.9721 8.22136 82.0001 10.0547 82.0001C11.888 82.0001 12.8325 81.7206 13.9436 81.3293C15.0547 80.9101 15.1102 80.6586 15.1102 80.6586C15.1102 80.6586 14.638 66.5168 14.638 56.4554C14.638 46.3941 12.7769 26.2714 12.4991 23.756Z" fill="#717171"/>
<path d="M9.94296 9.55814C9.94296 9.55814 10.193 9.08302 10.1096 7.15459C10.1096 7.0987 10.1096 7.07075 10.1096 7.01485C9.80408 7.40613 9.38741 7.71356 8.91519 7.90919C7.30408 8.49611 5.47074 7.43408 4.7763 5.56155C4.08185 3.68902 4.83185 1.67675 6.44296 1.08984C6.47074 1.08984 6.49852 1.06189 6.5263 1.06189C5.74852 0.950096 4.88741 0.894199 4.49852 1.06189C3.72074 1.36932 1.24852 3.32569 0.60963 3.9685C-0.0292593 4.61131 -0.195926 6.56768 0.220741 7.99304C0.665185 9.4184 2.80407 10.732 2.80407 10.732C2.80407 10.732 5.94296 9.13891 7.69296 9.08302C9.35963 9.02712 9.94296 9.55814 9.94296 9.55814Z" fill="#717171"/>
<path d="M5.58334 5.03064C6.05556 6.34421 7.19445 7.18265 8.33334 7.18265C8.58334 7.18265 8.86112 7.12676 9.11112 7.04291C10.4722 6.53985 11.1111 4.83501 10.5278 3.24196C10.4722 3.13017 10.4445 3.01837 10.3889 2.90658C11.9167 1.62096 13.6945 0.0558649 13.5 -3.15178e-05C13.3056 -0.0559279 11.5 1.1179 9.94445 2.17993C9.3889 1.48122 8.58334 1.08995 7.77779 1.08995C7.52779 1.08995 7.25001 1.14584 7.00001 1.22969C5.6389 1.73276 5.00001 3.4376 5.58334 5.03064ZM6.86112 3.21401C6.94445 3.01837 7.11112 2.683 7.47223 2.54325C7.58334 2.51531 7.66668 2.48736 7.77779 2.48736C8.08334 2.48736 8.47223 2.65505 8.77779 2.99043C8.08334 3.49349 7.58334 3.88477 7.55556 3.94066C7.55556 3.94066 7.52779 4.24809 7.55556 4.35989C7.58334 4.47168 7.97223 4.63937 8.25001 4.55552C8.30556 4.52758 8.72223 4.24809 9.25001 3.80092C9.3889 4.22015 9.3889 4.66732 9.25001 5.05859C9.16668 5.25423 9.00001 5.58961 8.61112 5.72935C8.50001 5.7573 8.41668 5.78524 8.30556 5.78524C7.80556 5.78524 7.16668 5.36602 6.86112 4.55552C6.72223 4.10835 6.69445 3.60529 6.86112 3.21401Z" fill="#717171"/>
</g>
<defs>
<clipPath id="clip0">
<rect width="57" height="82" fill="white"/>
</clipPath>
</defs>
</svg>
