<svg width="65" height="63" viewBox="0 0 65 63" fill="none" xmlns="http://www.w3.org/2000/svg">
<g clip-path="url(#clip0)">
<path d="M63.5378 19.9939C63.0978 21.5904 62.5844 23.1132 62.2422 24.0711C62.2177 24.0219 62.1688 23.9728 62.1688 23.9483C61.8999 23.6044 61.5332 23.4325 61.1177 23.4325C60.971 23.4325 60.8243 23.457 60.7021 23.4816C60.5554 23.3097 60.3843 23.1623 60.2131 23.064C60.0176 22.9658 59.7731 22.8921 59.5531 22.8921C59.382 22.8921 59.2353 22.9167 59.0886 22.9658C58.8931 22.2781 58.6242 22.0079 58.2575 21.8114C58.0619 21.7132 57.8419 21.664 57.6219 21.6395C57.4752 20.3377 57.084 19.2816 56.0573 19.0114C55.8862 18.9623 55.7395 18.9623 55.6173 18.9623C55.0795 18.9623 54.2238 19.1588 51.9992 20.657C51.3636 21.0746 50.7769 21.5167 50.3858 21.7869C49.7746 20.4114 48.8457 19.1097 47.4767 18.7658C47.2322 18.7167 46.9878 18.6676 46.7433 18.6676C45.0321 18.6676 43.3453 20.0676 42.343 21.05C41.3407 19.1588 39.0917 18.4711 37.4782 18.4711C37.356 18.4711 37.2093 18.4711 37.0627 18.4956C34.0802 18.7167 32.7357 19.7728 32.1979 20.436C31.66 19.7728 30.3155 18.7167 27.3331 18.4956C27.1864 18.4956 27.0397 18.4711 26.9175 18.4711C25.2796 18.4711 23.055 19.1588 22.0527 21.05C21.0749 20.0676 19.3636 18.6676 17.6524 18.6676C17.4079 18.6676 17.1635 18.6921 16.919 18.7658C15.55 19.1097 14.6211 20.4114 14.0099 21.7869C13.6188 21.4921 13.0321 21.0746 12.3965 20.657C10.1719 19.1833 9.31627 18.9623 8.77846 18.9623C8.68067 18.9623 8.53399 18.9623 8.33843 19.0114C7.31169 19.2816 6.92055 20.3623 6.77387 21.6395C6.55386 21.6395 6.33384 21.7132 6.13827 21.7869C5.77158 21.9833 5.50267 22.2535 5.3071 22.9412C5.16043 22.8921 4.9893 22.8676 4.84263 22.8676C4.59817 22.8676 4.37815 22.9167 4.18258 23.0395C3.98701 23.1377 3.84034 23.2605 3.69366 23.457C3.57143 23.4325 3.42475 23.4079 3.27807 23.4079C2.86249 23.4079 2.4958 23.6044 2.22689 23.9237C2.15355 24.0219 2.03132 24.1693 1.93354 24.5132C1.59129 23.629 0.95569 21.8605 0.466767 19.9693C-0.266617 17.2676 -0.0221556 13.3377 0.466767 13.0921C0.95569 12.8465 0.95569 10.636 3.15584 8.67106C5.356 6.70615 13.4232 4.25001 17.5791 3.26755C21.7349 2.2851 20.5126 2.03948 23.2017 0.811414C25.8908 -0.416656 32.0023 0.0745718 32.0023 0.0745718C32.0023 0.0745718 38.1138 -0.416656 40.8029 0.811414C43.492 2.03948 42.2697 2.2851 46.4255 3.26755C50.5814 4.25001 58.6486 6.70615 60.8487 8.67106C63.0489 10.636 63.0489 12.8465 63.5378 13.0921C64.0267 13.3377 64.2712 17.2921 63.5378 19.9939Z" fill="#717171"/>
<path d="M61.0939 24.6597C60.9228 24.6597 60.7517 24.807 60.5561 25.0281C60.6294 25.2737 60.6783 25.593 60.7517 25.9614C60.9228 27.1158 60.9717 28.4667 60.8495 29.6211C60.6783 31.2667 60.1161 32.3474 59.4805 32.9614C59.5294 32.986 59.5783 33.0105 59.6271 33.0105C60.1161 33.0105 60.605 33.0105 61.0939 31.0456C61.5828 29.0807 61.5828 24.6597 61.0939 24.6597Z" fill="#717171"/>
<path d="M37.4828 19.7227C37.3606 19.7227 37.2628 19.7227 37.1405 19.7227C33.7181 19.9683 32.9847 21.442 32.9847 21.442C32.8625 21.9823 32.4469 24.5613 32.2024 27.042C31.958 24.5613 31.5424 21.9577 31.4201 21.442C31.4201 21.442 30.6868 19.9683 27.2643 19.7227C27.1665 19.7227 27.0443 19.7227 26.9221 19.7227C25.5042 19.7227 23.7685 20.3367 23.1085 21.6876C22.3751 23.1613 21.8862 29.7928 22.864 31.2665C23.4263 32.1016 26.1153 32.5437 28.4622 32.5437C30.2467 32.5437 31.8357 32.2981 32.1535 31.7577C32.178 31.7332 32.2024 31.6841 32.2024 31.6349C32.2269 31.6841 32.2269 31.7086 32.2513 31.7577C32.5691 32.2981 34.1581 32.5437 35.9427 32.5437C38.2895 32.5437 40.9786 32.1016 41.5408 31.2665C42.5187 29.7928 42.0298 23.1613 41.2964 21.6876C40.6119 20.3367 38.8762 19.7227 37.4828 19.7227Z" fill="#717171"/>
<path d="M50.2172 25.7649C49.8749 23.4561 48.7504 20.4105 47.1614 19.993C47.0147 19.9684 46.868 19.9438 46.7214 19.9438C44.8146 19.9438 42.5166 22.6947 42.5166 22.6947C42.5166 22.6947 42.5166 23.014 42.4922 23.5053C42.81 25.5193 42.9567 28.3684 42.6389 30.2351C42.6878 30.407 42.7122 30.5053 42.7611 30.5544C43.0544 30.8491 44.9612 31.0702 46.5258 31.0702C47.5036 31.0702 48.3348 30.9965 48.6282 30.8C49.0438 30.5298 49.5571 30.0631 49.8994 29.3263C50.1683 28.7614 50.3394 28.0491 50.3394 27.1158C50.3394 26.7228 50.2905 26.2561 50.2172 25.7649Z" fill="#717171"/>
<path d="M60.191 25.5681C60.0443 24.8067 59.8487 24.2664 59.6287 24.1681C59.6042 24.1436 59.5554 24.1436 59.5309 24.1436C59.2865 24.1436 58.9198 24.4629 58.602 24.8067C58.6264 25.0769 58.6509 25.3962 58.6753 25.74C58.7486 27.0418 58.7731 28.6874 58.6264 29.4243C58.4797 30.1365 58.0641 31.4629 57.5508 32.2734C57.8441 32.6909 58.1864 33.0102 58.4064 33.0102C58.602 33.0102 58.9198 32.8383 59.2376 32.4944C59.7265 31.9786 60.2154 31.0207 60.3621 29.5716C60.5088 28.1471 60.3865 26.6243 60.191 25.5681Z" fill="#717171"/>
<path d="M58.1611 25.3225C58.0633 24.0945 57.8922 23.0383 57.6722 22.9401C57.6233 22.9155 57.5744 22.9155 57.5255 22.9155C57.3544 22.9155 57.1344 23.0138 56.9144 23.1611C56.9144 24.3401 56.8166 25.6418 56.6943 26.4524C56.5721 27.3611 56.0832 28.9085 55.472 30.3331C55.3742 30.5541 55.3009 30.7261 55.2031 30.9225C55.6432 31.6594 56.2543 32.5682 56.621 32.5682C56.6454 32.5682 56.6699 32.5682 56.6943 32.5436C56.8655 32.4454 57.061 32.1997 57.2566 31.8313C57.6233 31.1436 57.99 30.1611 58.1611 29.3506C58.2833 28.6383 58.2833 26.8454 58.1611 25.3225Z" fill="#717171"/>
<path d="M56.4272 23.5049C56.4516 21.9085 56.305 20.3856 55.7182 20.2383C55.6694 20.2383 55.6449 20.2383 55.596 20.2383C54.447 20.2383 50.5846 23.1856 50.5846 23.1856C50.5846 23.1856 50.5601 23.3821 50.5112 23.7014C50.9024 25.0278 51.0735 26.3295 51.0735 27.1155C51.0735 28.4172 50.7557 29.5225 50.1445 30.3576C50.4379 30.726 52.198 32.7646 53.1514 32.7646C53.2003 32.7646 53.2492 32.7646 53.2736 32.74C53.7381 32.6172 54.3493 31.5856 54.9115 30.3576C55.5471 28.9576 56.0849 27.2874 56.2072 26.3541C56.305 25.6909 56.4027 24.5856 56.4272 23.5049Z" fill="#717171"/>
<path d="M3.623 25.9614C3.67189 25.593 3.74523 25.2737 3.81857 25.0281C3.64745 24.807 3.45188 24.6597 3.28075 24.6597C2.79183 24.6597 2.79183 29.0807 3.28075 31.0456C3.76968 33.0105 4.2586 33.0105 4.74752 33.0105C4.79642 33.0105 4.84531 32.986 4.8942 32.9614C4.28305 32.3719 3.69634 31.2667 3.52522 29.6211C3.42743 28.4667 3.45188 27.1404 3.623 25.9614Z" fill="#717171"/>
<path d="M21.8618 22.6947C21.8618 22.6947 19.5394 19.9438 17.6571 19.9438C17.5104 19.9438 17.3637 19.9684 17.2171 19.993C15.6036 20.386 14.5035 23.4561 14.1613 25.7649C14.088 26.2561 14.0391 26.7228 14.0391 27.1158C14.0391 28.0491 14.2102 28.786 14.4791 29.3263C14.8213 30.0631 15.3347 30.5053 15.7503 30.8C16.0436 30.9965 16.8748 31.0702 17.8527 31.0702C19.4172 31.0702 21.324 30.8737 21.6174 30.5544C21.6663 30.5053 21.7152 30.3824 21.7396 30.2351C21.4218 28.3684 21.544 25.5438 21.8863 23.5053C21.8863 23.014 21.8618 22.6947 21.8618 22.6947Z" fill="#717171"/>
<path d="M5.70184 25.74C5.72629 25.3962 5.75073 25.0769 5.77518 24.8067C5.45738 24.4629 5.11513 24.1436 4.84623 24.1436C4.79733 24.1436 4.77289 24.1436 4.74844 24.1681C4.55287 24.2664 4.33286 24.8067 4.18618 25.5681C3.96616 26.6243 3.86838 28.1471 4.01506 29.5716C4.16173 31.0453 4.65066 31.9786 5.13958 32.4944C5.45738 32.8383 5.77518 33.0102 5.97075 33.0102C6.19076 33.0102 6.53301 32.6909 6.82636 32.2734C6.31299 31.4383 5.87296 30.1365 5.75073 29.4243C5.60406 28.6874 5.6285 27.0418 5.70184 25.74Z" fill="#717171"/>
<path d="M7.70453 26.4524C7.5823 25.6418 7.48452 24.3401 7.48452 23.1611C7.2645 23.0138 7.04449 22.9155 6.87337 22.9155C6.82447 22.9155 6.77558 22.9155 6.72669 22.9401C6.50667 23.0629 6.33555 24.0945 6.23777 25.3225C6.11554 26.8453 6.09109 28.6383 6.23777 29.3261C6.40889 30.1366 6.77558 31.119 7.14227 31.8068C7.33784 32.1752 7.53341 32.4208 7.70453 32.519C7.72898 32.519 7.75343 32.5436 7.77787 32.5436C8.14457 32.5436 8.75572 31.6348 9.19575 30.898C9.12241 30.726 9.02463 30.5296 8.92684 30.3085C8.31569 28.9085 7.82677 27.3611 7.70453 26.4524Z" fill="#717171"/>
<path d="M13.8677 23.7014C13.8188 23.3821 13.7944 23.1856 13.7944 23.1856C13.7944 23.1856 9.93189 20.2383 8.78292 20.2383C8.73402 20.2383 8.70958 20.2383 8.66069 20.2383C8.07398 20.3856 7.9273 21.933 7.95175 23.5049C7.97619 24.5856 8.07398 25.6664 8.17176 26.3786C8.29399 27.2874 8.85626 28.9576 9.46741 30.3821C10.0297 31.6348 10.6408 32.6663 11.1053 32.7646C11.1542 32.7646 11.2031 32.7892 11.2275 32.7892C12.1809 32.7892 13.9166 30.726 14.2344 30.3821C13.6233 29.5225 13.3055 28.4418 13.3055 27.14C13.3055 26.3295 13.501 25.0278 13.8677 23.7014Z" fill="#717171"/>
<path d="M56.9407 36.6948C56.9407 36.6948 56.8673 36.7194 56.7695 36.7931C56.8429 36.9404 56.9162 37.0878 56.9651 37.2106C57.0873 37.5299 57.4296 38.4633 57.2585 39.1019C57.7229 39.1264 58.2607 39.0527 58.4074 38.9299C58.6519 38.6597 57.9185 36.6948 56.9407 36.6948Z" fill="#717171"/>
<path d="M55.2271 35.958C55.2271 35.958 55.0315 35.958 54.8359 36.1791C54.9826 36.4984 55.1293 36.8177 55.276 37.137C55.7649 38.365 55.8627 39.0282 55.8138 39.4457C56.1071 39.4457 56.4738 39.372 56.7183 39.1264C56.7427 39.1019 56.7672 39.0527 56.7916 39.0036C56.9627 38.6352 56.7427 37.751 56.376 37.0141C56.0582 36.4492 55.6427 35.958 55.2271 35.958Z" fill="#717171"/>
<path d="M53.5656 34.8774C53.4189 34.6809 53.1989 34.5581 52.9789 34.5581C52.8811 34.5581 52.7833 34.5827 52.6855 34.6318C52.1233 34.902 51.5121 35.516 51.2188 36.2528C51.5121 37.309 51.6832 39.2739 51.6832 40.6493C51.8299 40.6739 52.001 40.6985 52.1966 40.6985C53.1989 40.6985 54.8123 40.3055 55.2524 39.6423C55.3013 39.5686 55.3257 39.4949 55.3257 39.4213C55.4235 38.8564 55.0324 37.7511 54.5679 36.7441C54.2012 35.9581 53.81 35.2458 53.5656 34.8774Z" fill="#717171"/>
<path d="M50.9518 37.5791C50.8541 36.8669 50.7318 36.2774 50.5852 35.9581C50.0962 34.9756 49.1184 33.502 48.8739 33.502C48.6295 33.502 48.6295 33.502 48.6295 33.502C48.0183 33.502 46.6004 34.509 45.9648 35.3932C46.356 36.4984 46.576 38.8809 46.1849 40.3791C46.8205 40.7967 49.5829 42.0248 50.6585 42.0248C50.8785 42.0248 51.0252 41.9756 51.0741 41.8528C51.1474 41.6072 51.1963 40.9441 51.1719 40.1335C51.1474 39.323 51.0741 38.3897 50.9518 37.5791Z" fill="#717171"/>
<path d="M45.5721 36.9407C45.4988 36.3266 45.3521 35.7863 45.2054 35.467C44.8876 34.8038 42.9319 34.7056 41.514 34.7056C40.8051 34.7056 40.2428 34.7301 40.0717 34.7301C39.7295 34.7301 39.5095 34.8529 39.4117 34.9266C39.4606 35.295 39.4361 35.8354 39.3383 36.7196C39.2894 37.0389 39.1917 37.8494 38.9961 38.7582C39.045 39.7407 39.1428 40.5757 39.3383 40.895C39.6072 41.288 41.0496 41.5336 42.4674 41.5336C43.6898 41.5336 44.8632 41.3371 45.2054 40.895C45.4743 40.5266 45.5966 39.8635 45.6454 39.1021C45.6943 38.3898 45.6454 37.6038 45.5721 36.9407Z" fill="#717171"/>
<path d="M35.7932 34.3125C34.5709 34.3125 33.2752 34.3862 32.6396 34.4353C32.3707 34.4599 32.1507 34.6564 32.1018 34.9265C31.9062 36.523 32.4929 41.1406 32.7129 41.5827C32.8596 41.902 34.0086 42.1967 35.1087 42.1967C35.7687 42.1967 36.4043 42.0985 36.8688 41.8283C38.0911 41.0915 38.9712 35.0985 38.58 34.7055C38.2867 34.4107 37.0644 34.3125 35.7932 34.3125Z" fill="#717171"/>
<path d="M7.11887 36.7931C7.02108 36.7439 6.94774 36.6948 6.94774 36.6948C5.9699 36.6948 5.23651 38.6597 5.48097 38.9054C5.62765 39.0527 6.14102 39.1018 6.62994 39.0773C6.45882 38.4387 6.80107 37.5054 6.9233 37.1861C6.97219 37.0878 7.02108 36.9404 7.11887 36.7931Z" fill="#717171"/>
<path d="M8.61152 37.137C8.73375 36.8177 8.88042 36.4984 9.05155 36.1791C8.85598 35.958 8.66041 35.958 8.66041 35.958C8.24483 35.958 7.82924 36.4492 7.51144 37.0387C7.14475 37.751 6.94918 38.6352 7.09586 39.0282C7.1203 39.0773 7.14475 39.1264 7.1692 39.151C7.41366 39.3966 7.7559 39.4457 8.0737 39.4703C8.04926 39.0527 8.12259 38.365 8.61152 37.137Z" fill="#717171"/>
<path d="M11.2256 34.6562C11.1278 34.6071 11.03 34.5825 10.9323 34.5825C10.7122 34.5825 10.4922 34.7053 10.3455 34.9018C10.1011 35.2702 9.70995 35.9825 9.34326 36.7439C8.87878 37.7509 8.48764 38.8562 8.58542 39.4211C8.58542 39.5194 8.63432 39.593 8.65876 39.6422C9.09879 40.3053 10.7122 40.6983 11.7145 40.6983C11.9101 40.6983 12.0812 40.6738 12.2279 40.6492C12.2279 39.2737 12.399 37.3334 12.6924 36.2527C12.399 35.5159 11.7879 34.9264 11.2256 34.6562Z" fill="#717171"/>
<path d="M15.2611 33.502C15.2611 33.502 15.2611 33.502 15.0167 33.502C14.7722 33.502 13.7944 34.9756 13.3055 35.9581C13.1588 36.2528 13.0365 36.8669 12.9388 37.5791C12.841 38.3897 12.7676 39.323 12.7432 40.1335C12.7187 40.9441 12.7432 41.6072 12.841 41.8528C12.8899 41.9756 13.0365 42.0248 13.2566 42.0248C14.3322 42.0248 17.0946 40.7967 17.7302 40.3791C17.3391 38.8809 17.5591 36.4984 17.9502 35.3932C17.2902 34.509 15.8723 33.502 15.2611 33.502Z" fill="#717171"/>
<path d="M24.477 34.9266C24.3792 34.8529 24.1592 34.7301 23.8169 34.7301C23.6458 34.7301 23.0835 34.7056 22.3746 34.7056C20.9567 34.7056 19.001 34.8038 18.6832 35.467C18.5366 35.7617 18.4143 36.3021 18.3165 36.9407C18.2188 37.6038 18.1943 38.3898 18.2432 39.0775C18.2921 39.8389 18.4143 40.5021 18.6832 40.8705C19.0255 41.3371 20.2233 41.5091 21.4212 41.5091C22.8391 41.5091 24.2814 41.2635 24.5503 40.8705C24.7459 40.5757 24.8681 39.7161 24.8925 38.7336C24.697 37.8003 24.5747 37.0143 24.5503 36.695C24.4525 35.8354 24.4525 35.2705 24.477 34.9266Z" fill="#717171"/>
<path d="M31.2463 34.4597C30.6107 34.4106 29.3151 34.3369 28.0928 34.3369C26.8216 34.3369 25.5993 34.4352 25.2815 34.7545C24.8903 35.1474 25.7704 41.1404 26.9927 41.8773C27.4327 42.1474 28.0928 42.2457 28.7528 42.2457C29.8773 42.2457 31.0019 41.9264 31.1485 41.6317C31.3686 41.1895 31.9553 36.5966 31.7597 34.9755C31.7352 34.6808 31.5152 34.4597 31.2463 34.4597Z" fill="#717171"/>
<path d="M58.1612 51.1858C57.1833 53.3963 48.1382 60.5191 43.9824 62.2384C39.8266 63.9577 31.7593 62.2384 31.7593 62.2384C31.7593 62.2384 23.6921 63.9577 19.5363 62.2384C15.3804 60.5191 6.33534 53.3963 5.35749 51.1858C4.37965 48.9752 2.91288 43.3261 3.4018 41.6068C3.7196 40.477 3.93962 39.7647 4.33076 39.3472C4.40409 39.5191 4.50188 39.6419 4.62411 39.7647C4.86857 40.0103 5.3086 40.3051 6.48202 40.3051C6.55535 40.3051 6.62869 40.3051 6.67759 40.3051H6.70203C7.04428 40.5261 7.48431 40.6489 7.94878 40.6735C8.90218 41.6314 10.7356 41.9016 11.5913 41.9261C11.6157 42.098 11.6402 42.1717 11.6646 42.2454C11.7379 42.491 12.0802 43.277 13.2292 43.277C14.4515 43.277 16.6761 42.3191 17.8006 41.7296C18.4117 42.4173 19.634 42.7612 21.4186 42.7612C22.5676 42.7612 24.5477 42.6138 25.3789 41.7787C25.6478 42.2945 25.9656 42.6875 26.3567 42.9331C27.1146 43.3998 28.068 43.4735 28.728 43.4735C29.1436 43.4735 31.0504 43.4244 31.9305 42.5893C32.8105 43.4244 34.7173 43.4735 35.1329 43.4735C35.7929 43.4735 36.7463 43.3752 37.5042 42.9331C37.8709 42.7121 38.2131 42.2945 38.482 41.7787C39.3132 42.6384 41.2933 42.7612 42.4423 42.7612C44.2513 42.7612 45.4736 42.4173 46.0603 41.7296C47.1848 42.2945 49.4094 43.277 50.6317 43.277C51.7807 43.277 52.123 42.491 52.2207 42.2454C52.2452 42.1963 52.2696 42.098 52.2941 41.9261C53.1253 41.9016 54.9587 41.6314 55.9366 40.6735C56.401 40.6489 56.8411 40.5261 57.1833 40.3051H57.2078C57.2811 40.3051 57.33 40.3051 57.4033 40.3051C58.5767 40.3051 59.0168 39.9858 59.2612 39.7647C59.3101 39.7156 59.359 39.6665 59.3835 39.6173C59.6524 40.0594 59.8479 40.6735 60.0924 41.6068C60.6058 43.3261 59.139 48.9752 58.1612 51.1858Z" fill="#717171"/>
</g>
<defs>
<clipPath id="clip0">
<rect width="64" height="63" fill="white" transform="translate(0.00390625)"/>
</clipPath>
</defs>
</svg>
