<svg width="52" height="75" viewBox="0 0 52 75" fill="none" xmlns="http://www.w3.org/2000/svg">
<g clip-path="url(#clip0)">
<path d="M31.9161 48.2379L31.5555 48.639L30.7982 48.7119C30.6901 48.7119 30.6179 48.7483 30.5458 48.7483L30.5098 48.6754V48.7483L29.8246 51.9204C29.5722 53.0507 29.3197 54.181 29.0312 55.3113V55.9311C29.0312 55.9311 29.2116 61.1086 30.7261 61.8742C31.8079 62.4212 33.2143 60.9263 34.5125 58.9938C35.8468 57.0614 39.0923 49.0036 39.2726 46.4878C39.4529 43.972 38.8759 39.7425 39.2726 36.8621C39.6693 33.9817 40.7871 32.4503 41.5444 30.7002C42.0493 29.5699 42.482 27.6375 42.7344 25.8145C38.912 34.3463 33.3946 46.3784 31.9161 48.1285C31.9522 48.2014 31.9161 48.2014 31.9161 48.2379Z" fill="#717171"/>
<path d="M28.7068 52.6131C28.4183 53.4517 28.1659 54.1445 27.9856 54.5091C27.6971 55.1289 27.4807 55.4935 27.1562 55.7123L27.1201 55.7488C26.9038 56.1863 26.5432 57.0614 26.0383 58.1916C23.6583 63.6608 22.1437 67.0152 21.2422 68.2184C21.3864 68.3642 21.5667 68.4736 21.711 68.5101C21.8192 68.5465 21.9273 68.583 21.9995 68.583C22.0355 68.583 22.0355 68.583 22.0716 68.583H22.1077H22.1437C22.2158 68.583 22.288 68.5465 22.3601 68.5465C22.6486 68.4736 22.901 68.3642 23.1534 68.1819C23.6222 67.8538 23.9828 67.2704 24.2713 66.6506C24.5959 66.0307 24.8483 65.338 25.1007 64.6088C25.3892 63.8795 25.6056 63.2232 25.8219 62.5305C26.0383 61.8377 26.2547 61.1085 26.471 60.3793L27.661 56.0405L28.6347 52.4673C28.7429 52.5037 28.7068 52.5767 28.7068 52.6131Z" fill="#717171"/>
<path d="M40.2445 11.4852C36.8548 8.42244 32.7438 8.09429 30.2195 8.24013C29.6786 8.31306 29.1016 8.42244 28.5607 8.49536C27.8756 8.60474 27.1904 8.75059 26.5413 8.89643C25.8561 9.07873 25.171 9.22458 24.5219 9.37042C23.8367 9.51626 23.1516 9.66211 22.4664 9.80795C23.1155 9.58919 23.7646 9.33396 24.4137 9.07873C25.0628 8.82351 25.7119 8.56828 26.361 8.31306C26.5413 8.24013 26.7216 8.16721 26.9019 8.09429C25.8201 7.65676 23.8728 7.10985 21.2403 7.21923C16.4803 7.51092 14.7854 9.18812 14.7854 9.18812C14.7854 9.18812 13.0905 8.24013 10.6023 8.42244C8.11412 8.60474 6.23895 9.18812 4.14741 11.1205C2.01981 13.053 -0.612648 15.35 0.144633 23.8089C0.901915 32.4502 3.57043 33.2158 3.57043 36.6796C3.57043 40.1434 2.63284 42.8415 3.93104 48.2012C5.2653 53.5974 9.62868 61.2542 10.386 61.8376C11.1432 62.421 12.4775 63.1867 13.4151 61.6553C14.2084 60.3792 14.6051 55.384 14.7133 53.7433C14.4609 52.7224 14.2084 51.7015 13.956 50.6806L12.8742 46.3053C12.5136 44.8468 12.1169 43.3884 11.7202 41.9664C11.3236 40.5445 10.7826 39.1225 10.2778 37.737C10.0254 37.0442 9.73687 36.3515 9.44838 35.6587C9.15989 34.9659 8.83534 34.2732 8.51079 33.6169C9.30414 34.893 9.98929 36.2421 10.6384 37.5911C10.9629 38.2839 11.2514 38.9766 11.5399 39.6694C11.8284 40.3622 12.1169 41.0549 12.3693 41.7841C13.343 44.6281 14.1724 47.5449 15.0018 50.4254C15.8312 53.3058 16.5885 56.2226 17.3818 59.103C17.49 59.4677 17.5982 59.8687 17.7064 60.2333C18.6079 58.629 19.87 56.5508 21.1322 54.4361C21.3846 53.9985 21.6009 53.6339 21.7091 53.4516L21.7813 53.3787C21.8534 53.2693 21.8894 53.1964 21.9255 53.1235L21.9976 53.0141L22.0337 52.9776L22.1058 52.8682C22.1779 52.0661 22.8631 51.0817 24.0531 49.4409C24.6301 48.6388 25.6037 47.2897 25.6758 46.8887C25.784 46.4147 25.7119 46.3053 25.6398 46.123C25.6037 46.0501 25.5677 45.9407 25.5316 45.8677C25.4955 45.7584 25.4595 45.6125 25.4234 45.4302V45.3573V44.7375V44.6281C25.4234 44.5552 25.4595 44.4458 25.4955 44.3364C25.748 43.279 26.7216 40.982 31.8783 31.2469C34.3305 26.6164 37.9727 20.1264 41.7951 13.5634C41.3263 12.7248 40.8575 12.0685 40.2445 11.4852ZM31.0489 13.0165C30.0753 12.7977 29.1016 12.6154 28.128 12.4331C26.1807 12.105 24.2334 11.9591 22.2861 11.9591C21.3125 11.9591 20.3388 12.0321 19.4012 12.1414C18.4276 12.2873 17.49 12.4696 16.5524 12.7248C15.6148 12.98 14.6772 13.3082 13.7757 13.7093C12.8742 14.1103 11.9727 14.5479 11.1432 15.1312C11.4678 14.7302 11.8284 14.402 12.2251 14.0739C12.4054 13.8916 12.6217 13.7457 12.8381 13.5999C13.0545 13.454 13.2708 13.3082 13.4512 13.1624C14.3166 12.6154 15.2542 12.1414 16.1918 11.7404L16.913 11.4852C17.1654 11.3758 17.4179 11.3393 17.6703 11.2664C18.1751 11.1205 18.68 11.0112 19.1849 10.9018C19.4373 10.8653 19.6897 10.8289 19.9421 10.7924C20.1946 10.7559 20.447 10.7195 20.6994 10.683C21.2043 10.6466 21.7452 10.6101 22.25 10.6101C24.3055 10.6101 26.361 10.8653 28.3083 11.3758C29.2819 11.631 30.2556 11.9591 31.1932 12.3602L31.8783 12.6519C32.0947 12.7613 32.3471 12.8707 32.5635 12.98C32.9962 13.2353 33.465 13.454 33.8617 13.7457C32.9962 13.4905 32.0226 13.2353 31.0489 13.0165Z" fill="#717171"/>
<path d="M51.7136 0.473991C51.4972 0.182304 51.1366 0 50.7399 0C50.3793 0 50.0908 0.145843 49.9826 0.218765L49.9105 0.255226C49.6941 0.40107 49.4417 0.583374 47.3502 4.0107C46.088 6.0525 44.4653 8.78707 42.6262 11.9227C42.3377 12.4332 42.0132 12.9801 41.7247 13.4905C41.8328 13.6728 41.905 13.8551 41.9771 14.0374C42.0492 14.2197 42.1574 14.4385 42.2295 14.6208C38.948 20.3087 35.3058 26.7623 32.7455 31.648C28.31 40.034 26.9396 42.9509 26.543 44.1906C26.6512 44.1906 26.7233 44.1906 26.8315 44.1906C27.6969 44.1906 28.4903 44.3364 29.1394 44.6281C29.7524 44.8833 30.2212 45.2844 30.6179 45.7219C30.7982 45.9042 30.9064 46.0865 31.0506 46.2688C31.267 46.597 31.4112 46.8522 31.5194 47.071C33.4306 44.0812 39.561 30.5542 43.131 22.5693C43.131 22.8245 43.095 23.0433 43.095 23.262C43.0589 23.5173 43.0589 23.8089 43.0229 24.1006C42.9507 24.6475 42.8786 25.2674 42.8065 25.8872C44.9702 21.0379 46.629 17.3189 46.665 17.2095C47.7829 14.6573 51.8218 2.66164 51.966 1.96889C51.966 1.71366 52.1463 0.984443 51.7136 0.473991Z" fill="#717171"/>
<path d="M23.1523 52.6131C23.8014 52.7225 24.3784 52.9048 24.9193 53.1601C25.6766 53.4882 26.3257 53.9622 26.8306 54.5456C26.9027 54.4362 26.9748 54.2903 27.0469 54.108C27.5518 53.0507 28.7418 48.8212 29.5712 48.0191C29.5712 48.0191 29.6794 47.9461 29.9679 47.8368C30.0039 47.8368 30.0761 47.8003 30.1121 47.8003C30.2564 47.7638 30.4367 47.7274 30.617 47.7274V47.6909C30.5449 47.5451 30.4367 47.2534 30.2203 46.9617C30.1121 46.7794 29.9679 46.5971 29.7876 46.3783C29.7515 46.3419 29.7155 46.3054 29.6794 46.269C29.5712 46.1596 29.427 46.0502 29.3188 45.9408C29.2827 45.9043 29.2106 45.8679 29.1745 45.8314C29.1745 45.8314 29.1745 45.8314 29.1385 45.8314C29.0664 45.795 28.9942 45.7585 28.9221 45.722C28.85 45.6856 28.8139 45.6491 28.7418 45.6491C28.7418 45.6491 28.7057 45.6491 28.7057 45.6127C28.6336 45.5762 28.5254 45.5397 28.4533 45.5033C28.3812 45.4668 28.273 45.4668 28.2009 45.4304C28.1288 45.3939 28.0206 45.3939 27.9485 45.3574H27.9124C27.7321 45.321 27.5878 45.2845 27.4436 45.2845C27.3715 45.2845 27.2994 45.2845 27.2272 45.248C27.1551 45.248 27.083 45.248 27.0109 45.248C26.9388 45.248 26.8666 45.248 26.7945 45.248C26.6503 45.248 26.506 45.248 26.3978 45.248C26.4339 45.4304 26.506 45.6127 26.5781 45.7585C26.6863 46.0502 26.7945 46.3419 26.6503 47.0711C26.3978 48.2014 23.6572 51.3005 23.1523 52.6131Z" fill="#717171"/>
<path d="M26.218 55.3478C26.1819 55.3113 26.1819 55.3113 26.1458 55.2749C26.1098 55.2384 26.0737 55.2019 26.0016 55.129C25.9655 55.0926 25.9295 55.0561 25.8574 54.9832C25.7131 54.8738 25.5689 54.7279 25.3886 54.6186C25.3525 54.5821 25.3164 54.5821 25.2804 54.5456C25.1001 54.4363 24.9198 54.3269 24.7395 54.2175C24.6673 54.181 24.5592 54.1446 24.487 54.1081C24.3428 54.0352 24.1986 53.9987 24.0543 53.9258C23.9822 53.8893 23.9461 53.8893 23.874 53.8529C23.6576 53.78 23.4773 53.7435 23.261 53.707C23.1888 53.707 23.1167 53.6706 23.0807 53.6706C22.9725 53.6341 22.8643 53.6341 22.7922 53.5977C22.7201 53.707 22.6479 53.8164 22.5758 53.9623C22.4676 54.1446 22.2873 54.4363 22.071 54.8009C21.0973 56.4416 19.1861 59.5772 18.0682 61.5826C17.6715 62.3118 17.347 62.8952 17.2388 63.1869C16.7339 64.463 15.2194 69.0935 15.2194 69.8592C15.2194 70.6249 14.9669 70.8801 15.4718 70.8801C15.9766 70.8801 19.0418 69.0935 20.304 67.8174C20.3761 67.7445 20.4843 67.5986 20.5924 67.4163C21.8906 65.4474 24.8837 58.2646 26.0016 55.7853C26.0737 55.6395 26.1458 55.4572 26.218 55.3478ZM23.7658 59.5408C23.1528 60.9263 22.4676 62.2753 21.8185 63.6244C21.4579 64.2807 21.1334 64.9734 20.7728 65.6297C20.5924 65.9579 20.4121 66.286 20.1958 66.6142C20.1958 66.6506 20.1597 66.6871 20.1237 66.7236C19.9434 67.0153 19.727 67.3069 19.4746 67.5622C18.3927 68.6925 17.0945 69.4946 15.7963 70.2238C16.4094 69.7863 17.0224 69.3488 17.5994 68.8383C18.1764 68.3643 18.7173 67.8539 19.1861 67.3069C19.4385 67.0153 19.6188 66.7236 19.7991 66.3954C19.8352 66.359 19.8352 66.286 19.8712 66.2496C20.0155 65.9579 20.1597 65.6662 20.304 65.3745C20.6646 64.7182 20.9891 64.0255 21.3137 63.3692C21.9988 62.0201 22.684 60.6711 23.3692 59.322C24.0543 57.973 24.7755 56.6604 25.5328 55.3478C25.028 56.8062 24.4149 58.1917 23.7658 59.5408Z" fill="#717171"/>
<path d="M0.503906 58.5925C0.503906 58.5925 0.9727 58.7019 1.6218 59.1759L2.34302 58.1185C1.47755 57.4987 0.828455 57.3529 0.756333 57.3164L0.503906 58.5925Z" fill="#717171"/>
<path d="M12.6561 70.2236L11.5742 70.8799C11.9709 71.6091 12.7282 72.63 13.8461 73.5051L14.6033 72.4842C13.6658 71.7185 13.0167 70.8435 12.6561 70.2236Z" fill="#717171"/>
<path d="M3.64453 61.3637C4.36575 62.4939 4.65424 63.3325 4.90667 64.1347L6.13274 63.7701C5.88032 62.9315 5.55577 61.947 4.72636 60.6709L3.64453 61.3637Z" fill="#717171"/>
<path d="M18.9668 73.7238C18.3538 73.7603 17.7768 73.7238 17.2359 73.6509L17.0195 74.927C17.4883 74.9999 17.9571 75.0728 18.462 75.0728C18.6783 75.0728 18.8586 75.0728 19.075 75.0364C19.5438 74.9999 19.9765 74.9635 20.3732 74.927L20.265 73.6509C19.8683 73.6509 19.4356 73.6873 18.9668 73.7238Z" fill="#717171"/>
<path d="M7.43006 66.2129L6.63672 67.1973C7.24976 67.7078 8.07916 68.2182 8.90856 68.6922C9.08887 68.8016 9.23311 68.911 9.41342 68.9839L10.0625 67.8901C9.88221 67.7807 9.73797 67.6713 9.55766 67.5984C8.76432 67.1244 7.97098 66.6504 7.43006 66.2129Z" fill="#717171"/>
<path d="M28.5265 69.0936C28.3822 69.2759 28.238 69.4582 28.0938 69.6769L29.1035 70.4791C29.2477 70.2968 29.3919 70.078 29.5723 69.8957C30.0771 69.2394 30.5459 68.656 31.1229 68.0727L30.2213 67.1611C29.5362 67.781 28.9953 68.4373 28.5265 69.0936Z" fill="#717171"/>
<path d="M40.3878 62.0198C39.9911 62.275 39.5223 62.5302 38.9453 62.749L39.4141 63.9522C40.0632 63.6969 40.6041 63.4053 41.0729 63.1136C41.5056 62.8584 41.9023 62.4573 42.2629 61.9468L41.2532 61.1812C40.9647 61.5458 40.6762 61.8374 40.3878 62.0198Z" fill="#717171"/>
<path d="M32.9258 65.1554L33.5028 66.2856C34.5846 65.7023 35.5943 65.3377 36.3516 65.046L35.9188 63.8428C35.1255 64.098 34.0797 64.5355 32.9258 65.1554Z" fill="#717171"/>
<path d="M23.332 73.1404L23.6566 74.3801C24.8466 74.0519 25.8202 73.6144 26.7578 72.8852L25.9645 71.8643C25.1351 72.4841 24.3417 72.8852 23.332 73.1404Z" fill="#717171"/>
<path d="M42.625 58.4466L43.815 58.8841C44.1035 58.0091 44.2838 57.3528 44.2838 57.3528L43.0577 57.0611C43.0577 57.0246 42.9135 57.6445 42.625 58.4466Z" fill="#717171"/>
</g>
<defs>
<clipPath id="clip0">
<rect width="52" height="75" fill="white"/>
</clipPath>
</defs>
</svg>
