<svg width="83" height="32" viewBox="0 0 83 32" fill="none" xmlns="http://www.w3.org/2000/svg">
<g clip-path="url(#clip0)">
<path d="M74.2227 17.4049H78.0049V15.5176H74.2227V17.4049ZM75.0585 16.1467H77.1481V16.7758H75.0585V16.1467Z" fill="#717171"/>
<path d="M82.9362 16.1888C82.3093 16.2517 81.4525 16.3566 80.4286 16.4824V15.4339C81.4107 15.3291 82.2257 15.2242 82.8526 15.1613C82.7899 14.4483 82.6854 13.6934 82.56 12.8966C81.557 6.83627 78.0464 1.46798 78.0464 1.46798C78.0464 1.46798 75.6643 1.04859 72.8433 2.30678C70.0223 3.56497 66.0938 9.22683 66.0938 9.22683L66.3236 10.6947C66.7833 12.6659 67.1595 14.7629 67.4311 16.8179C68.873 16.6711 70.2939 16.5243 71.6522 16.3985V17.447C70.3148 17.5938 68.9356 17.7196 67.5565 17.8664C67.9326 21.2216 67.9953 24.2832 67.6192 26.1495C67.6192 26.1705 67.6192 26.1914 67.5983 26.2124C67.8281 27.177 68.7476 28.2675 71.8611 28.0158C77.2106 27.5964 79.739 26.4641 81.2853 24.4929C82.5182 22.8782 83.2287 20.2989 82.9362 16.1888ZM79.4465 19.7537H78.0046V18.0551H74.2224V19.7537H72.7806V13.0433H74.2224V14.8887H78.0046V13.0433H79.4465V19.7537Z" fill="#717171"/>
<path d="M52.2812 19.6069H57.1292V17.2163H52.2812V19.6069ZM53.3679 17.9922H56.0426V18.81H53.3679V17.9922V17.9922Z" fill="#717171"/>
<path d="M59.9715 18.5374V17.4889C61.9776 17.3211 64.0881 17.1324 66.1777 16.9436C65.7598 13.7353 65.0493 10.3172 64.1299 7.54915C62.1656 1.61468 60.3268 0.775885 59.3447 0.482307C58.8013 0.335518 56.5028 0 54.0997 0C52.1563 0 50.1503 0.209699 48.9592 0.901704C48.9592 0.901704 42.7739 6.83617 42.0634 11.9109C41.8754 13.3368 41.7709 15.7274 41.75 18.2647C44.4456 18.2438 46.9323 18.1809 49.3144 18.097V19.1455C46.9323 19.2294 44.4456 19.2923 41.75 19.3132C41.75 23.4024 41.8963 27.5334 42.0634 28.2674C42.356 29.5256 42.6276 31.6435 45.574 31.9371C46.0337 31.979 46.6397 32 47.3711 32C51.2996 32 58.4252 31.4128 61.0372 30.8047C64.1299 30.0917 65.6762 29.3997 66.3867 25.8768C66.721 24.1782 66.6792 21.2425 66.3031 17.9712C64.1508 18.1809 61.9985 18.3696 59.9715 18.5374ZM58.9894 22.6055H57.1296V20.4246H52.2817V22.6055H50.4219V14.0079H52.2817V16.3775H57.1296V14.0288H58.9894V22.6055Z" fill="#717171"/>
<path d="M4.63672 17.4049H8.41894V15.5176H4.63672V17.4049ZM5.47257 16.1467H7.5622V16.7758H5.47257V16.1467V16.1467Z" fill="#717171"/>
<path d="M15.5458 17.0902C15.8175 14.9513 16.1936 12.7494 16.6951 10.6944L16.925 9.22651C16.925 9.22651 16.5488 8.6813 15.9219 7.88444C14.5637 6.12297 12.0979 3.1872 10.1755 2.30646C8.87989 1.71931 7.6888 1.48864 6.76937 1.42573C6.47682 1.40476 6.22606 1.38379 5.9962 1.38379C5.34842 1.38379 4.97229 1.4467 4.97229 1.4467C4.97229 1.4467 1.44082 6.83595 0.458692 12.8962C0.333315 13.6721 0.228833 14.427 0.166145 15.119C0.625863 15.2239 1.25275 15.3707 2.06771 15.4965V16.566C1.23185 16.4192 0.58407 16.2934 0.0616633 16.1885C-0.230885 20.2986 0.479589 22.8989 1.71247 24.4716C3.25879 26.4428 5.78724 27.5751 11.1367 27.9945C11.4292 28.0155 11.7218 28.0365 11.9725 28.0365C14.4174 28.0365 15.1697 27.0509 15.3786 26.1911C15.3786 26.1702 15.3786 26.1492 15.3577 26.1282C15.0025 24.3248 15.0443 21.3681 15.3995 18.1387C13.7278 17.9919 12.2024 17.8451 10.8232 17.6983V16.6498C12.2442 16.7757 13.8114 16.9434 15.5458 17.0902ZM9.86202 19.7534H8.42017V18.0548H4.63795V19.7534H3.1961V13.043H4.63795V14.8884H8.42017V13.043H9.86202V19.7534V19.7534Z" fill="#717171"/>
<path d="M25.8672 19.6069H30.7151V17.2163H25.8672V19.6069ZM26.9538 17.9922H29.6285V18.81H26.9538V17.9922Z" fill="#717171"/>
<path d="M40.3511 19.3342C38.1988 19.3342 35.942 19.3132 33.5389 19.2294V18.1809C36.2763 18.2647 38.8257 18.2857 41.2288 18.2857C41.2079 15.7484 41.1243 13.3368 40.9153 11.9318C40.5392 9.22674 38.6167 6.31193 36.9032 4.15203C35.4196 2.20183 34.0613 0.901704 34.0613 0.901704C32.8494 0.209699 30.8433 0 28.9 0C27.4163 0 25.9745 0.125819 24.9506 0.251638C24.3237 0.335518 23.8431 0.419397 23.6341 0.482307C22.652 0.754915 20.8131 1.61468 18.8489 7.52818C17.9085 10.3801 17.1772 13.903 16.7801 17.1953C18.9115 17.384 20.9385 17.5308 22.8818 17.6566V18.7051C20.8967 18.5793 18.828 18.4115 16.6547 18.2228C16.3204 21.3683 16.2786 24.1992 16.5921 25.8558C17.3025 29.3788 18.8489 30.0917 21.9415 30.7837C24.5535 31.3709 31.6792 31.979 35.6077 31.979C36.3181 31.979 36.945 31.9581 37.4047 31.9161C40.3511 31.6435 40.6437 29.5256 40.9153 28.2464C41.0825 27.5125 41.2288 23.3814 41.2288 19.2923C40.9571 19.3342 40.6646 19.3342 40.3511 19.3342ZM32.5777 22.6055H30.7179V20.4246H25.87V22.6055H24.0102V14.0079H25.87V16.3775H30.7179V14.0288H32.5777V22.6055Z" fill="#717171"/>
</g>
<defs>
<clipPath id="clip0">
<rect width="83" height="32" fill="white"/>
</clipPath>
</defs>
</svg>
