<svg width="87" height="33" viewBox="0 0 87 33" fill="none" xmlns="http://www.w3.org/2000/svg">
<g clip-path="url(#clip0)">
<path d="M86.4523 16.6488C86.2036 17.6398 85.9549 18.2839 85.7062 18.7299C85.5569 18.5812 85.358 18.4821 85.2087 18.383C85.159 18.3335 85.0595 18.3335 85.0098 18.2839C85.5569 17.392 85.9549 16.1533 86.1041 14.5677C86.2533 12.883 86.2036 10.901 85.9549 9.16681C85.8554 8.62176 85.7559 8.17582 85.7062 7.77942C85.9549 7.48212 86.2533 7.23438 86.5021 7.23438C87.1984 7.28392 87.1985 13.7749 86.4523 16.6488Z" fill="#717171"/>
<path d="M58.0488 14.518C56.3576 12.4369 53.4725 11.6441 51.3335 11.6441C51.1346 11.6441 50.9356 11.6441 50.6869 11.6937C46.409 11.991 44.3696 13.4775 43.4742 14.4685C42.5788 13.4775 40.5394 11.991 36.2615 11.6937C36.0128 11.6937 35.8138 11.6441 35.6148 11.6441C33.4759 11.6441 30.5908 12.4369 28.8996 14.518C28.5016 10.8018 29.0986 4.60811 29.9442 2.92342C30.939 0.941441 33.5257 0 35.6148 0C35.7641 0 35.963 0 36.1123 0C41.186 0.346847 42.2804 2.52703 42.2804 2.52703C42.4793 3.31982 43.0763 7.13513 43.4742 10.8018C43.8224 7.13513 44.4691 3.31982 44.668 2.52703C44.668 2.52703 45.7624 0.346847 50.8361 0C50.9853 0 51.1843 0 51.3335 0C53.4227 0 56.0094 0.891892 57.0042 2.92342C57.8498 4.60811 58.4965 10.8018 58.0488 14.518Z" fill="#717171"/>
<path d="M70.4845 10.901C70.4845 12.2884 70.2357 13.3784 69.8378 14.1712C69.7383 14.3694 69.6886 14.5181 69.5891 14.6667C68.7435 13.428 67.6491 12.437 66.2563 12.0902C65.9081 11.9911 65.5102 11.9415 65.1122 11.9415C62.8738 11.9415 60.6354 13.5271 59.0934 14.8649C59.4416 12.1397 59.2426 8.32439 58.7949 5.54962C58.7949 4.80637 58.8447 4.36043 58.8447 4.36043C58.8447 4.36043 62.2769 0.297363 65.1122 0.297363C65.3112 0.297363 65.5599 0.297363 65.7589 0.396462C68.1465 0.991057 69.7881 5.50007 70.3352 8.86944C70.4347 9.61268 70.4845 10.3064 70.4845 10.901Z" fill="#717171"/>
<path d="M85.3583 14.518C85.2091 16.1531 84.7116 17.3423 84.2142 18.1351C84.1645 18.1351 84.1147 18.1351 84.1147 18.1351C83.9157 18.1351 83.7168 18.1847 83.5178 18.2342C83.2193 17.3423 82.8214 16.8964 82.2742 16.5991C82.2245 16.5991 82.1747 16.5495 82.125 16.5495C82.4235 15.7072 82.6722 14.8649 82.7716 14.3198C82.9706 13.2297 82.9706 10.8018 82.8214 8.86936C82.7717 8.37386 82.7219 7.87837 82.7219 7.48197C83.2193 6.98647 83.7168 6.54053 84.065 6.54053C84.1147 6.54053 84.1645 6.54053 84.2142 6.59008C84.5127 6.73873 84.8111 7.53152 85.0598 8.67116C85.408 10.1576 85.607 12.3874 85.3583 14.518Z" fill="#717171"/>
<path d="M82.1244 14.1217C81.9752 14.8154 81.7265 15.5586 81.4778 16.3019H81.428C81.229 14.5181 80.6321 13.0316 79.2891 12.4865C79.6373 11.446 79.8362 10.5541 79.9357 9.86042C80.0849 8.67123 80.2839 6.7388 80.2839 5.00456C80.5824 4.80636 80.9306 4.65771 81.1793 4.65771C81.2788 4.65771 81.3285 4.65772 81.428 4.70726C81.7265 4.85591 82.0249 6.39195 82.1244 8.22528C82.2736 10.455 82.3234 13.1307 82.1244 14.1217Z" fill="#717171"/>
<path d="M79.5382 5.54947C79.5382 7.13506 79.389 8.77019 79.2398 9.76118C79.1403 10.4053 78.8916 11.3468 78.5931 12.3378C78.4936 12.3378 78.3941 12.3378 78.3444 12.3378C76.6034 12.3378 73.4696 14.3197 70.7835 16.3017C70.5348 16.0044 70.3358 15.8062 70.2363 15.6576C71.1317 14.4188 71.6291 12.7837 71.6291 10.9008C71.6291 9.76118 71.3804 7.82875 70.7835 5.84677C70.8332 5.40082 70.883 5.10352 70.883 5.10352C70.883 5.10352 76.6034 0.743164 78.3444 0.743164C78.3941 0.743164 78.4936 0.743164 78.5434 0.743164C79.3392 0.941362 79.5382 3.22064 79.5382 5.54947Z" fill="#717171"/>
<path d="M2.03925 18.2839C1.98951 18.2839 1.89003 18.3335 1.84028 18.383C1.64131 18.4821 1.49208 18.5812 1.34286 18.7299C1.09414 18.2839 0.845428 17.6398 0.596715 16.6488C-0.149426 13.7749 -0.149426 7.23438 0.596715 7.23438C0.845428 7.23438 1.09414 7.48212 1.3926 7.77942C1.29311 8.17582 1.19363 8.62176 1.14388 9.16681C0.795686 10.901 0.745943 12.883 0.895171 14.5677C1.0444 16.1533 1.49208 17.392 2.03925 18.2839Z" fill="#717171"/>
<path d="M27.9058 14.8647C26.4135 13.4773 24.1751 11.9413 21.8869 11.9413C21.489 11.9413 21.1408 11.9908 20.7926 12.0899C19.3998 12.4368 18.3054 13.4278 17.4598 14.6665C17.3603 14.5179 17.2609 14.3692 17.2111 14.171C16.8132 13.3782 16.5645 12.2881 16.5645 10.9007C16.5645 10.3061 16.6142 9.66199 16.7137 8.91875C17.2111 5.54938 18.9024 0.990824 21.29 0.445779C21.489 0.396229 21.688 0.34668 21.9367 0.34668C24.772 0.34668 28.2042 4.40974 28.2042 4.40974C28.2042 4.40974 28.2042 4.85569 28.254 5.59893C27.7566 8.32416 27.5576 12.1395 27.9058 14.8647Z" fill="#717171"/>
<path d="M4.87465 16.5002C4.82491 16.5002 4.77517 16.5498 4.72543 16.5498C4.12851 16.8471 3.73057 17.3426 3.48186 18.2345C3.28289 18.1849 3.08392 18.1354 2.88495 18.1354C2.8352 18.1354 2.8352 18.1354 2.78546 18.1354C2.28803 17.3426 1.79061 16.1534 1.64138 14.5182C1.44241 12.3876 1.59164 10.1579 1.89009 8.62184C2.08906 7.4822 2.43726 6.68941 2.73572 6.54076C2.78546 6.49121 2.8352 6.49121 2.88495 6.49121C3.23315 6.49121 3.78032 6.93716 4.228 7.43265C4.17826 7.82905 4.12851 8.32454 4.12851 8.82004C3.97929 10.7525 3.97929 13.1804 4.17826 14.2705C4.32748 14.8651 4.52646 15.7074 4.87465 16.5002Z" fill="#717171"/>
<path d="M5.57127 16.3512C5.27282 15.6079 5.0241 14.8151 4.92462 14.171C4.72565 13.18 4.72565 10.5043 4.92462 8.2746C5.07385 6.44127 5.32256 4.90523 5.62102 4.75658C5.67076 4.70703 5.77024 4.70703 5.81999 4.70703C6.0687 4.70703 6.4169 4.85568 6.71536 5.05388C6.71536 6.78811 6.86458 8.72054 7.06356 9.90973C7.16304 10.6034 7.41175 11.5449 7.71021 12.5359L5.57127 16.3512Z" fill="#717171"/>
<path d="M16.8138 15.6576C16.7143 15.7567 16.5153 16.0044 16.2666 16.3017C13.5805 14.3197 10.4467 12.3378 8.70574 12.3378C8.656 12.3378 8.55651 12.3378 8.45703 12.3378C8.10883 11.3468 7.90986 10.4053 7.81037 9.76118C7.66114 8.72064 7.51191 7.13506 7.51191 5.54947C7.46217 3.22064 7.71089 0.941362 8.55651 0.743164C8.60625 0.743164 8.656 0.743164 8.75548 0.743164C10.4965 0.743164 16.2169 5.10352 16.2169 5.10352C16.2169 5.10352 16.2666 5.40082 16.3164 5.84677C15.7195 7.7792 15.421 9.71163 15.421 10.9008C15.421 12.8333 15.9184 14.4188 16.8138 15.6576Z" fill="#717171"/>
<g opacity="0.5">
<path opacity="0.5" d="M86.453 20.6621C86.2043 20.6621 85.9556 20.9099 85.6571 21.2072C85.7566 21.6035 85.8561 22.0495 85.9059 22.5945C86.1546 24.3288 86.2043 26.2612 86.0551 27.9954C85.8064 30.4234 84.9607 32.009 84.0156 32.9008C84.0654 32.9504 84.1649 32.9999 84.2146 32.9999C84.9607 32.9999 85.6571 32.9999 86.4033 30.1261C87.1494 27.2522 87.1992 20.6621 86.453 20.6621Z" fill="#717171"/>
<path opacity="0.5" d="M51.3346 13.4277C51.1854 13.4277 50.9864 13.4277 50.8372 13.4277C45.7634 13.7746 44.6691 15.9548 44.6691 15.9548C44.4701 16.7476 43.8732 20.5629 43.4753 24.2295C43.1271 20.5629 42.4804 16.7476 42.2814 15.9548C42.2814 15.9548 41.1871 13.7746 36.1133 13.4277C35.9641 13.4277 35.7651 13.4277 35.6159 13.4277C33.5267 13.4277 30.9401 14.3196 29.9452 16.3512C28.8509 18.5313 28.1048 28.2926 29.597 30.4728C30.4427 31.7115 34.4221 32.3557 37.9041 32.3557C40.5404 32.3557 42.9281 31.9593 43.4255 31.216C43.4753 31.1665 43.4753 31.1169 43.525 31.0674C43.5747 31.1169 43.5747 31.1665 43.6245 31.216C44.0722 32.0088 46.4598 32.3557 49.1459 32.3557C52.6279 32.3557 56.6073 31.7115 57.453 30.4728C58.8955 28.2926 58.1991 18.5313 57.1048 16.3512C56.0104 14.3196 53.4735 13.4277 51.3346 13.4277Z" fill="#717171"/>
<path opacity="0.5" d="M70.3352 22.2969C69.8378 18.878 68.1466 14.369 65.7589 13.7744C65.5599 13.7248 65.361 13.6753 65.1122 13.6753C62.2769 13.6753 58.8447 17.7384 58.8447 17.7384C58.8447 17.7384 58.8447 18.1843 58.7949 18.9275C59.2923 21.9005 59.4913 26.1122 58.9939 28.8375C59.0436 29.0852 59.0934 29.2339 59.1929 29.333C59.6405 29.7789 62.4759 30.0762 64.8138 30.0762C66.2563 30.0762 67.4999 29.9771 67.9476 29.6798C68.5942 29.2834 69.2906 28.5897 69.8378 27.4996C70.2357 26.7068 70.4845 25.6167 70.4845 24.2293C70.4845 23.7339 70.4347 23.0402 70.3352 22.2969Z" fill="#717171"/>
<path opacity="0.5" d="M85.1104 21.9998C84.8617 20.8601 84.5632 20.0673 84.2648 19.9187C84.215 19.8691 84.1653 19.8691 84.1155 19.8691C83.7673 19.8691 83.2202 20.3151 82.7725 20.8106C82.8222 21.207 82.872 21.6529 82.872 22.198C83.0212 24.1304 83.0212 26.5583 82.8222 27.6484C82.6233 28.689 81.9766 30.6214 81.2305 31.8601C81.6782 32.4547 82.1756 32.9502 82.474 32.9502C82.7725 32.9502 83.2202 32.7025 83.7176 32.207C84.414 31.4637 85.1601 30.0763 85.3591 27.8962C85.6078 25.8151 85.4586 23.5854 85.1104 21.9998Z" fill="#717171"/>
<path opacity="0.5" d="M82.1244 21.653C81.9751 19.8197 81.7264 18.2836 81.3782 18.135C81.3285 18.0854 81.229 18.0854 81.1793 18.0854C80.9305 18.0854 80.5823 18.2341 80.2839 18.4323C80.2839 20.1665 80.1347 22.099 79.9357 23.2882C79.7367 24.626 78.9906 26.9053 78.0952 28.9863C77.946 29.2836 77.8465 29.5809 77.6973 29.8287C78.3439 30.9188 79.2393 32.2566 79.7865 32.2566C79.8362 32.2566 79.8859 32.2566 79.8859 32.2071C80.1347 32.0584 80.4331 31.7116 80.7316 31.1665C81.2787 30.1755 81.8259 28.6891 82.0746 27.4999C82.3233 26.5584 82.2736 23.8827 82.1244 21.653Z" fill="#717171"/>
<path opacity="0.5" d="M79.5391 18.9772C79.5889 16.6484 79.3402 14.3691 78.4945 14.1709C78.4448 14.1709 78.395 14.1709 78.2956 14.1709C76.5546 14.1709 70.8341 18.5313 70.8341 18.5313C70.8341 18.5313 70.7844 18.8286 70.7347 19.2745C71.2818 21.2565 71.5803 23.1394 71.5803 24.3286C71.5803 26.261 71.1326 27.8466 70.1875 29.1349C70.6352 29.6799 73.2715 32.7024 74.6643 32.7024C74.7141 32.7024 74.8136 32.7024 74.8633 32.7024C75.5597 32.5538 76.4551 31.0177 77.3007 29.1844C78.2458 27.1033 79.0417 24.6259 79.2407 23.288C79.3402 22.1979 79.4894 20.5628 79.5391 18.9772Z" fill="#717171"/>
<path opacity="0.5" d="M1.04428 22.5945C1.14376 22.0495 1.24325 21.6035 1.29299 21.2072C1.04428 20.9099 0.745819 20.6621 0.497105 20.6621C-0.249035 20.6621 -0.249035 27.2026 0.497105 30.0765C1.24325 32.9504 1.93964 32.9504 2.68578 32.9504C2.73553 32.9504 2.83501 32.9008 2.88476 32.8513C1.98939 31.9594 1.09402 30.3738 0.845304 27.9459C0.745819 26.2612 0.795562 24.3288 1.04428 22.5945Z" fill="#717171"/>
<path opacity="0.5" d="M28.1545 17.7882C28.1545 17.7882 24.7223 13.7251 21.8869 13.7251C21.688 13.7251 21.4392 13.7746 21.2403 13.8242C18.8526 14.3692 17.2111 18.8783 16.7137 22.2972C16.6142 23.0404 16.5645 23.7341 16.5645 24.2792C16.5645 25.6665 16.8132 26.7566 17.2111 27.5494C17.7085 28.6395 18.4547 29.2837 19.1013 29.7296C19.4993 30.0269 20.7926 30.126 22.2351 30.126C24.573 30.126 27.3586 29.8287 27.856 29.3828C27.9058 29.3332 28.0053 29.135 28.055 28.8873C27.5576 26.162 27.8063 21.9503 28.254 18.9773C28.1545 18.2341 28.1545 17.7882 28.1545 17.7882Z" fill="#717171"/>
<path opacity="0.5" d="M4.12851 22.2478C4.17826 21.7523 4.17826 21.2568 4.228 20.8604C3.78032 20.3649 3.23315 19.9189 2.88495 19.9189C2.8352 19.9189 2.78546 19.9189 2.73572 19.9685C2.43726 20.1171 2.13881 20.9099 1.89009 22.0496C1.59164 23.6352 1.44241 25.8649 1.64138 27.946C1.84035 30.1262 2.58649 31.5135 3.28289 32.2568C3.78032 32.7523 4.228 33 4.52646 33C4.87466 33 5.37208 32.5541 5.77002 31.9099C4.97414 30.6712 4.37723 28.7883 4.17826 27.6982C3.97929 26.6081 4.02903 24.1802 4.12851 22.2478Z" fill="#717171"/>
<path opacity="0.5" d="M7.1133 23.2882C6.91433 22.099 6.7651 20.1665 6.7651 18.4323C6.4169 18.2341 6.11844 18.0854 5.86973 18.0854C5.77025 18.0854 5.7205 18.0854 5.67076 18.135C5.32256 18.2836 5.07385 19.8197 4.92462 21.653C4.72565 23.8827 4.72565 26.5584 4.92462 27.5494C5.17333 28.7386 5.7205 30.2251 6.26767 31.2161C6.56613 31.7611 6.86458 32.1575 7.1133 32.2566C7.16304 32.2566 7.21278 32.3062 7.21278 32.3062C7.75995 32.3062 8.65532 30.9683 9.30198 29.8782C9.20249 29.6305 9.05326 29.3332 8.90404 29.0359C8.00867 26.9548 7.26253 24.626 7.1133 23.2882Z" fill="#717171"/>
<path opacity="0.5" d="M16.2656 19.2252C16.2159 18.7792 16.1661 18.4819 16.1661 18.4819C16.1661 18.4819 10.4457 14.1216 8.7047 14.1216C8.65496 14.1216 8.55547 14.1216 8.50573 14.1216C7.6601 14.3198 7.41139 16.5991 7.46113 18.9279C7.46113 20.5135 7.61036 22.1486 7.75959 23.1396C7.95856 24.4774 8.75444 26.9549 9.69956 29.036C10.5452 30.8693 11.4406 32.4054 12.1369 32.554C12.1867 32.554 12.2862 32.554 12.3359 32.554C13.7287 32.554 16.3651 29.5315 16.8128 28.9864C15.9174 27.8468 15.42 26.2117 15.42 24.2792C15.42 23.1396 15.7184 21.2072 16.2656 19.2252Z" fill="#717171"/>
</g>
<path d="M5.57031 16.3514H5.62006C5.81903 14.5677 6.41594 13.0812 7.75899 12.5361L5.57031 16.3514Z" fill="white"/>
</g>
<defs>
<clipPath id="clip0">
<rect width="87" height="33" fill="white"/>
</clipPath>
</defs>
</svg>
