<svg width="54" height="55" viewBox="0 0 54 55" fill="none" xmlns="http://www.w3.org/2000/svg">
<g clip-path="url(#clip0)">
<path d="M22.9525 34.6852L12.7024 24.5589C12.0342 23.8908 11.1459 23.5228 10.2011 23.5228C9.55204 23.5228 8.92966 23.6964 8.38703 24.0218V11.8315C8.38703 11.2092 8.22492 10.6243 7.94174 10.1158C8.12821 10.0525 8.32491 10.0175 8.52656 10.0175C9.52683 10.0175 10.3405 10.8313 10.3405 11.8316V20.7913C10.3405 21.2672 10.7263 21.653 11.2022 21.653C11.6781 21.653 12.0639 21.2672 12.0639 20.7913V11.8316C12.0639 9.88107 10.4771 8.29419 8.52656 8.29419C7.86981 8.29419 7.2371 8.47465 6.68761 8.81004C6.15162 8.48298 5.52239 8.29419 4.84992 8.29419C2.89938 8.29419 1.3125 9.88107 1.3125 11.8323L1.32748 28.8236C1.32821 29.5849 1.61003 30.6595 1.98307 31.3232C1.98908 31.3338 1.9952 31.3443 2.00184 31.3546L12.6152 48.4859C12.839 48.8935 13.0408 49.6699 13.0408 50.1274V53.3747C13.0408 53.8506 13.4266 54.2364 13.9025 54.2364C14.3784 54.2364 14.7642 53.8506 14.7642 53.3747V50.1274C14.7642 49.3659 14.4827 48.291 14.1096 47.6271C14.1035 47.6164 14.0974 47.606 14.0909 47.5956L3.47725 30.4642C3.25344 30.0563 3.05126 29.2797 3.05073 28.822L3.03575 11.8315C3.03575 10.8312 3.84945 10.0174 4.84971 10.0174C5.84998 10.0174 6.66367 10.8312 6.66367 11.8315V27.0604C6.66367 27.0819 6.66536 27.1029 6.66694 27.1238C6.68265 28.0084 7.02637 28.8881 7.69979 29.5616L15.9326 37.7944C16.2691 38.131 16.8147 38.131 17.1512 37.7944C17.4877 37.4579 17.4877 36.9123 17.1512 36.5758L8.91848 28.343C8.57592 28.0004 8.38713 27.5448 8.38713 27.0601C8.38713 26.5756 8.57592 26.1201 8.91848 25.7774C9.26105 25.4348 9.71667 25.2461 10.2012 25.2461C10.6857 25.2461 11.1412 25.4349 11.4875 25.7811L21.7376 35.9074C22.8775 37.0473 23.8404 39.3721 23.8404 40.9842V53.3898C23.8404 53.8657 24.2262 54.2515 24.7021 54.2515C25.178 54.2515 25.5638 53.8657 25.5638 53.3898V40.9842C25.5638 38.9164 24.4184 36.1511 22.9525 34.6852Z" fill="#E0AE2D"/>
<path d="M49.1502 8.29419C48.4778 8.29419 47.8485 8.48298 47.3127 8.81004C46.7631 8.47465 46.1302 8.29419 45.4737 8.29419C43.5232 8.29419 41.9363 9.88107 41.9363 11.8316V20.7913C41.9363 21.2672 42.3221 21.653 42.798 21.653C43.2738 21.653 43.6596 21.2672 43.6596 20.7913V11.8316C43.6596 10.8313 44.4734 10.0175 45.4736 10.0175C45.6753 10.0175 45.872 10.0525 46.0583 10.1158C45.775 10.6244 45.613 11.2092 45.613 11.8315V24.0218C45.0704 23.6965 44.448 23.5228 43.799 23.5228C42.8541 23.5228 41.9657 23.8908 41.3014 24.5553L31.0439 34.6889C29.5817 36.1511 28.4363 38.9164 28.4363 40.9842V53.39C28.4363 53.8659 28.8221 54.2517 29.298 54.2517C29.7738 54.2517 30.1596 53.8659 30.1596 53.39V40.9844C30.1596 39.3725 31.1226 37.0476 32.2588 35.9114L42.5163 25.7777C42.8588 25.4352 43.3144 25.2464 43.799 25.2464C44.2835 25.2464 44.739 25.4352 45.0817 25.7777C45.4242 26.1203 45.613 26.5759 45.613 27.0605C45.613 27.5451 45.4242 28.0006 45.0817 28.3433L36.8489 36.5761C36.5123 36.9126 36.5123 37.4582 36.8489 37.7946C37.1854 38.1312 37.731 38.1312 38.0675 37.7946L46.3003 29.5619C46.9738 28.8883 47.3174 28.0086 47.3331 27.1241C47.3346 27.1031 47.3364 27.0819 47.3364 27.0606V11.8317C47.3364 10.8315 48.1502 10.0177 49.1503 10.0177C50.1506 10.0177 50.9644 10.8315 50.9644 11.8309L50.9494 28.8223C50.9491 29.28 50.7467 30.0566 50.5228 30.4646L39.9095 47.5957C39.9031 47.6061 39.8968 47.6166 39.8908 47.6272C39.5176 48.291 39.2362 49.3658 39.2362 50.1275V53.3748C39.2362 53.8507 39.622 54.2365 40.0979 54.2365C40.5737 54.2365 40.9595 53.8507 40.9595 53.3748V50.1275C40.9595 49.6699 41.1614 48.8936 41.3851 48.486L51.9984 31.3547C52.0049 31.3444 52.0111 31.3338 52.0172 31.3233C52.3903 30.6595 52.6722 29.5848 52.6728 28.8237L52.6878 11.8316C52.6876 9.88118 51.1008 8.29419 49.1502 8.29419Z" fill="#E0AE2D"/>
<path d="M39.3508 6.57063C39.8267 6.57063 40.2125 6.18482 40.2125 5.70895V1.11314C40.2125 0.63727 39.8267 0.251465 39.3508 0.251465H14.6488C14.1729 0.251465 13.7871 0.63727 13.7871 1.11314V5.70884C13.7871 6.18471 14.1729 6.57052 14.6488 6.57052H14.936V8.29388H14.6488C14.1729 8.29388 13.7871 8.67968 13.7871 9.15556V13.7515C13.7871 14.2273 14.1729 14.6131 14.6488 14.6131H14.936V16.3365H14.6488C14.1729 16.3365 13.7871 16.7223 13.7871 17.1982V21.7939C13.7871 22.2698 14.1729 22.6556 14.6488 22.6556H39.3509C39.8268 22.6556 40.2126 22.2698 40.2126 21.7939V17.1982C40.2126 16.7223 39.8268 16.3365 39.3509 16.3365H39.0637V14.6131H39.3509C39.8268 14.6131 40.2126 14.2273 40.2126 13.7515V9.15577C40.2126 8.67989 39.8268 8.29409 39.3509 8.29409H39.0637V6.57073H39.3508V6.57063ZM38.4892 20.9323H15.5105V18.06H38.4892V20.9323ZM38.4892 12.8898H34.7551C34.2793 12.8898 33.8935 13.2756 33.8935 13.7515C33.8935 14.2273 34.2793 14.6131 34.7551 14.6131H37.3403V16.3365H16.6593V14.6131H31.3083C31.7842 14.6131 32.17 14.2273 32.17 13.7515C32.17 13.2756 31.7842 12.8898 31.3083 12.8898H15.5105V10.0174H38.4892V12.8898ZM16.6593 8.29398V6.57063H37.3402V8.29398H16.6593ZM38.4892 4.84716H15.5105V1.97482H38.4892V4.84716Z" fill="#E0AE2D"/>
</g>
<defs>
<clipPath id="clip0">
<rect width="54" height="54" fill="white" transform="translate(0 0.251465)"/>
</clipPath>
</defs>
</svg>
