<svg width="51" height="51" viewBox="0 0 51 51" fill="none" xmlns="http://www.w3.org/2000/svg">
<g clip-path="url(#clip0)">
<path d="M30.5215 37.6133C31.0608 37.6133 31.498 37.1761 31.498 36.6367C31.498 36.0974 31.0608 35.6602 30.5215 35.6602C29.9821 35.6602 29.5449 36.0974 29.5449 36.6367C29.5449 37.1761 29.9821 37.6133 30.5215 37.6133Z" fill="#CC9A1B"/>
<path d="M49.3398 15.8125C49.8791 15.8125 50.3164 15.3753 50.3164 14.8359C50.3164 14.2966 49.8791 13.8594 49.3398 13.8594H43.3825C43.3818 13.1839 43.3633 12.5322 43.3279 11.9062H49.3398C49.8791 11.9062 50.3164 11.469 50.3164 10.9297C50.3164 10.3903 49.8791 9.95312 49.3398 9.95312H43.1509C43.147 9.92275 43.1437 9.8915 43.1396 9.86133C42.9854 8.69531 42.752 7.62207 42.4463 6.67188C42.0117 5.32129 41.4141 4.16895 40.668 3.24805C39.6846 2.0293 38.4081 1.17285 36.873 0.701172C35.4453 0.260742 34.0068 0.203125 32.9131 0.202148L32.8359 0.1875C32.5763 0.1875 31.2108 0.1875 31.1758 0.1875C29.5898 0.1875 27.6572 0.341797 25.3164 1.4873C22.9756 0.341797 21.0381 0.1875 19.4521 0.1875C19.3594 0.1875 17.6992 0.1875 17.6992 0.1875C16.6045 0.1875 15.5 0.246094 14.2139 0.573242C13.2178 0.827148 12.3203 1.22949 11.5469 1.76953C10.1797 2.71777 9.12891 4.13965 8.42383 5.99414C8.04199 6.99707 7.75 8.14941 7.55664 9.41895C7.52988 9.59385 7.50508 9.77217 7.48184 9.95312H1.29297C0.753613 9.95312 0.316406 10.3903 0.316406 10.9297C0.316406 11.469 0.753613 11.9062 1.29297 11.9062H7.30547C7.27002 12.5325 7.25098 13.1837 7.25039 13.8594H1.29297C0.753613 13.8594 0.316406 14.2966 0.316406 14.8359C0.316406 15.3753 0.753613 15.8125 1.29297 15.8125H7.27969C7.29854 16.4531 7.32617 17.1051 7.36289 17.7656H1.29297C0.753613 17.7656 0.316406 18.2028 0.316406 18.7422V49.2109C0.316406 49.7503 0.753613 50.1875 1.29297 50.1875H49.3398C49.8791 50.1875 50.3164 49.7503 50.3164 49.2109V18.7422C50.3164 18.2028 49.8791 17.7656 49.3398 17.7656H43.2702C43.3071 17.1043 43.3346 16.4531 43.3532 15.8125H49.3398ZM41.4294 13.8594H33.6172V11.9062H41.3717C41.4093 12.5285 41.4289 13.1792 41.4294 13.8594ZM10.0459 7.27051C10.7418 5.10557 12.1063 3.26621 14.3379 2.56738C15.2422 2.28613 16.3096 2.15527 17.6982 2.15527L19.3496 2.14062C21.0127 2.14746 22.5742 2.25098 24.8604 3.44727C25.1406 3.5957 25.4922 3.5957 25.7725 3.44727C28.0575 2.25098 29.62 2.14746 31.2832 2.14062L32.9277 2.15527C34.1523 2.15527 35.1084 2.25391 35.9365 2.46582C38.116 3.02354 39.5883 4.61894 40.3838 6.69043C40.7395 7.621 41.0048 8.7123 41.1796 9.95312H33.6172V7.02344C33.6172 6.48408 33.1799 6.04688 32.6406 6.04688H17.9922C17.4528 6.04688 17.0156 6.48408 17.0156 7.02344V9.95312H9.45332C9.59307 8.96064 9.79043 8.06367 10.0459 7.27051ZM31.6641 8V17.7656H18.9688V8H31.6641ZM9.26084 11.9062H17.0156V13.8594H9.20332C9.20381 13.1797 9.22314 12.5285 9.26084 11.9062V11.9062ZM31.6045 41.252C32.39 42.1302 33.5523 42.668 34.7549 42.668H34.7608C37.4056 42.668 38.8473 39.2054 39.6358 37.1748C40.7296 34.3584 41.671 30.5869 42.3575 26.2666C42.6855 24.2021 42.9396 22.0947 43.1144 20.0049C43.1224 19.9091 43.1292 19.8143 43.1369 19.7188H48.3633V48.2344H2.26953V19.7188H7.49521C7.58975 20.9022 7.71064 22.1015 7.85732 23.2988C8.25381 26.5264 8.82803 29.6816 9.51846 32.4239C10.2328 35.2496 11.0893 38.3174 12.825 40.7099C13.5396 41.6946 14.5806 42.668 15.8721 42.668H15.8848C17.7156 42.668 18.9296 41.2054 19.6846 39.7031C20.4512 38.1621 21.0195 36.1807 21.6328 33.9385C21.708 33.6611 22.953 29.0549 23.6621 27.0471C23.909 26.3479 24.5775 25.8302 25.3495 25.8301C26.1066 25.83 26.7783 26.3243 27.0361 27.0518C27.6738 28.8671 28.1406 30.7801 28.5508 32.5769C28.6636 33.0711 29.1986 33.431 29.7207 33.3115C30.2451 33.1914 30.5752 32.667 30.4552 32.1416C30.0606 30.416 29.5812 28.4072 28.88 26.4053C28.362 24.9264 26.9497 23.877 25.3487 23.877C23.7682 23.877 22.3416 24.914 21.8214 26.3966C20.6403 29.741 19.9267 33.2209 18.8243 36.588C18.3968 37.8939 17.6403 40.7031 15.8702 40.7149C14.3345 40.7252 13.2354 37.5387 12.8175 36.4659C11.7862 33.8194 10.8575 30.088 10.2042 25.961C9.66709 22.575 9.33164 19.0419 9.23389 15.8126H17.0156V18.7423C17.0156 19.2816 17.4528 19.7188 17.9922 19.7188H32.6406C33.1799 19.7188 33.6172 19.2816 33.6172 18.7423V15.8126H41.3998C41.24 21.1195 40.4359 27.1326 39.2197 31.9464C38.5244 34.711 37.7148 36.9874 36.8777 38.5307C36.4952 39.2404 35.732 40.7148 34.7608 40.7149C34.1363 40.715 33.4917 40.4285 33.0587 39.9483C32.7006 39.5514 32.0787 39.5166 31.6798 39.8721C31.2802 40.228 31.2488 40.8543 31.6045 41.252Z" fill="#CC9A1B"/>
<path d="M25.3164 15.8125C26.9318 15.8125 28.2461 14.4982 28.2461 12.8828C28.2461 11.2674 26.9318 9.95312 25.3164 9.95312C23.701 9.95312 22.3867 11.2674 22.3867 12.8828C22.3867 14.4982 23.701 15.8125 25.3164 15.8125ZM25.3164 11.9062C25.8549 11.9062 26.293 12.3443 26.293 12.8828C26.293 13.4213 25.8549 13.8594 25.3164 13.8594C24.7779 13.8594 24.3398 13.4213 24.3398 12.8828C24.3398 12.3443 24.7779 11.9062 25.3164 11.9062Z" fill="#CC9A1B"/>
</g>
<defs>
<clipPath id="clip0">
<rect width="50" height="50" fill="white" transform="translate(0.316406 0.1875)"/>
</clipPath>
</defs>
</svg>
