<svg width="52" height="52" viewBox="0 0 52 52" fill="none" xmlns="http://www.w3.org/2000/svg">
<g clip-path="url(#clip0)">
<path d="M26.2815 18.4346H6.7831C6.36243 18.4346 6.02148 18.7756 6.02148 19.1962C6.02148 19.6169 6.36243 19.9578 6.7831 19.9578H26.2816C26.7022 19.9578 27.0432 19.6168 27.0432 19.1962C27.0432 18.7756 26.7023 18.4346 26.2815 18.4346Z" fill="#DEAC2C"/>
<path d="M26.2815 23.7861H6.7831C6.36243 23.7861 6.02148 24.1272 6.02148 24.5478C6.02148 24.9683 6.36243 25.3094 6.7831 25.3094H26.2816C26.7022 25.3094 27.0432 24.9683 27.0432 24.5478C27.0432 24.1272 26.7023 23.7861 26.2815 23.7861Z" fill="#DEAC2C"/>
<path d="M26.2815 29.1377H6.7831C6.36243 29.1377 6.02148 29.4787 6.02148 29.8993C6.02148 30.3199 6.36243 30.6609 6.7831 30.6609H26.2816C26.7022 30.6609 27.0432 30.3199 27.0432 29.8993C27.0432 29.4787 26.7023 29.1377 26.2815 29.1377Z" fill="#DEAC2C"/>
<path d="M27.0432 35.2519C27.0432 34.8312 26.7022 34.4902 26.2816 34.4902H6.7831C6.36243 34.4902 6.02148 34.8313 6.02148 35.2519C6.02148 35.6724 6.36243 36.0135 6.7831 36.0135H26.2816C26.7022 36.0135 27.0432 35.6725 27.0432 35.2519Z" fill="#DEAC2C"/>
<path d="M6.7831 42.333C6.36243 42.333 6.02148 42.6741 6.02148 43.0946C6.02148 43.5152 6.36243 43.8562 6.7831 43.8562H16.5573C16.978 43.8562 17.3189 43.5152 17.3189 43.0946C17.3189 42.6741 16.978 42.333 16.5573 42.333H6.7831Z" fill="#DEAC2C"/>
<path d="M35.0589 9.43084V6.95942C35.0589 6.01794 34.2931 5.25195 33.3515 5.25195H17.7142C16.7727 5.25195 16.0068 6.01794 16.0068 6.95942V9.43084C16.0068 10.3723 16.7727 11.1382 17.7142 11.1382H19.0347C19.4554 11.1382 19.7963 10.7972 19.7963 10.3766C19.7963 9.95592 19.4554 9.61498 19.0347 9.61498H17.7142C17.6127 9.61498 17.5302 9.53241 17.5302 9.43095V6.95942C17.5302 6.85796 17.6127 6.77529 17.7142 6.77529H33.3515C33.453 6.77529 33.5356 6.85786 33.5356 6.95942V9.43084C33.5356 9.5323 33.453 9.61488 33.3515 9.61488H22.5955C22.1748 9.61488 21.8339 9.95592 21.8339 10.3765C21.8339 10.7972 22.1748 11.1381 22.5955 11.1381H33.3516C34.2931 11.1383 35.0589 10.3723 35.0589 9.43084Z" fill="#DEAC2C"/>
<path d="M40.7537 46.4441C40.333 46.4441 39.9921 46.7852 39.9921 47.2057V48.2314C39.9921 49.4694 38.9849 50.4767 37.7467 50.4767H4.05217C2.81422 50.4767 1.80693 49.4695 1.80693 48.2314V11.6216C1.80693 11.4568 1.82622 11.2951 1.86065 11.1378H8.79564C10.2435 11.1378 11.4214 9.95983 11.4214 8.51195V1.57706C11.5788 1.54263 11.7403 1.52334 11.9052 1.52334H37.7466C38.9847 1.52334 39.992 2.53053 39.992 3.76858V13.9088C39.992 14.3295 40.3329 14.6704 40.7536 14.6704C41.1743 14.6704 41.5152 14.3294 41.5152 13.9088V3.76848C41.5153 1.69061 39.8247 0 37.7467 0H11.9053C10.8987 0 9.95224 0.392031 9.24049 1.10378L1.38737 8.9569C0.675621 9.66865 0.283691 10.615 0.283691 11.6217V48.2315C0.283691 50.3095 1.9742 52 4.05217 52H37.7467C39.8247 52 41.5153 50.3094 41.5153 48.2315V47.2058C41.5153 46.7852 41.1744 46.4441 40.7537 46.4441ZM9.89821 2.60041V8.51195C9.89821 9.11991 9.4036 9.61452 8.79564 9.61452H2.8841L9.89821 2.60041Z" fill="#DEAC2C"/>
<path d="M51.1858 27.2189C51.7204 26.4341 51.8587 25.4661 51.5653 24.5631C51.2719 23.66 50.5909 22.9582 49.6972 22.6376C49.1043 22.425 48.7087 21.8806 48.6898 21.2509C48.6611 20.3018 48.2039 19.4373 47.4356 18.8791C46.6675 18.321 45.7039 18.1535 44.7926 18.4194C44.1875 18.596 43.548 18.388 43.1625 17.8898C42.5814 17.1387 41.7035 16.708 40.7539 16.708C39.8044 16.708 38.9264 17.1387 38.3452 17.8898C37.9597 18.3881 37.3198 18.5957 36.7152 18.4194C35.8039 18.1533 34.8403 18.321 34.072 18.8791C33.3038 19.4373 32.8469 20.3017 32.818 21.2508C32.799 21.8805 32.4035 22.4248 31.8105 22.6375C30.9168 22.9581 30.2358 23.66 29.9425 24.563C29.6491 25.466 29.7874 26.4341 30.322 27.2188C30.6767 27.7395 30.6767 28.4123 30.322 28.9329C29.7874 29.7177 29.6491 30.6856 29.9425 31.5887C30.2358 32.4918 30.9168 33.1936 31.8105 33.5143C32.4035 33.727 32.7991 34.2713 32.818 34.901C32.8445 35.774 33.2446 36.5944 33.9159 37.1514C34.3588 37.5191 34.8909 37.7491 35.4478 37.826V44.7605C35.4478 45.3456 35.7652 45.8864 36.2759 46.1717C36.7861 46.4568 37.4132 46.4441 37.9118 46.1371L40.7053 44.4174C40.7508 44.3893 40.7779 44.402 40.803 44.4174L43.5962 46.1371C44.0946 46.4438 44.7215 46.457 45.2322 46.1716C45.7431 45.8862 46.0603 45.3454 46.0603 44.7604V37.8258C46.617 37.749 47.1491 37.519 47.592 37.1514C48.2634 36.5944 48.6636 35.7741 48.6901 34.9009C48.709 34.2712 49.1046 33.7268 49.6975 33.5142C50.5913 33.1936 51.2723 32.4917 51.5656 31.5886C51.859 30.6855 51.7207 29.7176 51.1861 28.9328C50.831 28.4124 50.831 27.7396 51.1858 27.2189V27.2189ZM44.3946 44.8399L41.6012 43.1203C41.082 42.8006 40.4263 42.8001 39.9065 43.1203L37.1131 44.8398C37.0495 44.8785 36.971 44.8339 36.971 44.7604V37.6814C37.4947 37.6207 38.0139 37.8338 38.3452 38.2621C38.9265 39.0131 39.8044 39.4438 40.754 39.4438C41.7035 39.4438 42.5814 39.0131 43.1625 38.2621C43.494 37.8337 44.0132 37.6207 44.5368 37.6814V44.7604C44.5368 44.8344 44.4573 44.8786 44.3946 44.8399V44.8399ZM49.9269 29.7908C50.1942 30.183 50.2633 30.6668 50.1166 31.1181C49.97 31.5694 49.6297 31.9202 49.1829 32.0805C47.9964 32.5061 47.2053 33.5951 47.1672 34.855C47.1537 35.2979 46.959 35.6971 46.619 35.9793C46.2369 36.2965 45.7193 36.4161 45.2194 36.2703C44.0095 35.9172 42.7291 36.3332 41.9576 37.33C41.6673 37.7052 41.2284 37.9206 40.7538 37.9206C40.2793 37.9206 39.8405 37.7053 39.5499 37.33C38.9609 36.5687 38.0752 36.1462 37.1507 36.1462C36.8645 36.1462 36.5744 36.1867 36.2884 36.2702C35.7836 36.4172 35.2676 36.2939 34.8885 35.9792C34.5485 35.697 34.3538 35.2978 34.3405 34.855C34.3024 33.5951 33.5112 32.5061 32.3246 32.0804C31.878 31.9201 31.5377 31.5694 31.391 31.1181C31.2443 30.6668 31.3134 30.1829 31.5807 29.7907C32.2903 28.749 32.2903 27.4029 31.5807 26.3612C31.3134 25.969 31.2443 25.4851 31.391 25.0337C31.5376 24.5824 31.878 24.2316 32.3246 24.0714C33.5112 23.6457 34.3024 22.5567 34.3405 21.2968C34.3549 20.8224 34.5832 20.3904 34.9672 20.1115C35.351 19.8325 35.8324 19.7488 36.2883 19.8816C37.4979 20.2348 38.7786 19.8187 39.5499 18.8219C39.8403 18.4466 40.2791 18.2312 40.7538 18.2312C41.2284 18.2312 41.6672 18.4465 41.9576 18.8218C42.729 19.8187 44.0091 20.2347 45.2193 19.8816C45.6749 19.7486 46.1563 19.8324 46.5403 20.1114C46.9243 20.3903 47.1528 20.8224 47.1671 21.2967C47.2053 22.5566 47.9964 23.6457 49.1829 24.0713C49.6297 24.2315 49.9699 24.5822 50.1166 25.0336C50.2633 25.4849 50.1942 25.9689 49.9269 26.361C49.2171 27.4028 49.2171 28.7491 49.9269 29.7908V29.7908Z" fill="#DEAC2C"/>
<path d="M40.7537 21.6924C37.2338 21.6924 34.3701 24.556 34.3701 28.076C34.3701 31.5959 37.2338 34.4596 40.7537 34.4596C44.2736 34.4596 47.1372 31.5959 47.1372 28.076C47.1372 24.556 44.2736 21.6924 40.7537 21.6924V21.6924ZM40.7537 32.9364C38.0737 32.9364 35.8934 30.756 35.8934 28.0761C35.8934 25.3962 38.0737 23.2157 40.7537 23.2157C43.4338 23.2157 45.614 25.3961 45.614 28.0761C45.614 30.7561 43.4337 32.9364 40.7537 32.9364Z" fill="#DEAC2C"/>
</g>
<defs>
<clipPath id="clip0">
<rect width="52" height="52" fill="white"/>
</clipPath>
</defs>
</svg>
