<svg width="21" height="19" viewBox="0 0 21 19" fill="none" xmlns="http://www.w3.org/2000/svg">
<path d="M13.3494 1.98019C14.9115 0.418065 17.4441 0.418065 19.0063 1.98018C20.5163 3.49018 20.5666 5.90714 19.1572 7.47766L19.0063 7.63704L10.1674 16.4758C8.01953 18.6237 4.53711 18.6237 2.38924 16.4758C0.301013 14.3876 0.243006 11.038 2.21521 8.8797L2.38923 8.69768L9.81384 1.27306C10.2044 0.882532 10.8375 0.882531 11.2281 1.27305C11.5885 1.63354 11.6163 2.20077 11.3112 2.59306L11.2281 2.68727L3.80345 10.1119C2.43661 11.4787 2.43661 13.6948 3.80345 15.0616C5.12146 16.3796 7.22915 16.4267 8.60357 15.2028L8.75319 15.0616L17.592 6.22284C18.3731 5.44176 18.3731 4.17542 17.592 3.39439C16.8521 2.65444 15.6766 2.61549 14.8908 3.27756L14.7636 3.39439L5.92478 12.2332C5.72952 12.4284 5.72952 12.7451 5.92475 12.9403C6.09833 13.1139 6.36776 13.1332 6.56264 12.9982L6.63189 12.9403L14.0565 5.51568C14.447 5.12515 15.0802 5.12515 15.4707 5.51567C15.8312 5.87616 15.8589 6.44339 15.5539 6.83568L15.4707 6.92989L8.0461 14.3545C7.06978 15.3309 5.48686 15.3309 4.51051 14.3545C3.57672 13.4206 3.53612 11.9318 4.38874 10.9497L4.51054 10.819L13.3494 1.98019Z" fill="#E8CC83"/>
</svg>
