<svg width="59" height="57" viewBox="0 0 59 57" fill="none" xmlns="http://www.w3.org/2000/svg">
<path d="M58.0536 31.0401C57.5337 25.8108 55.1975 20.8809 51.4751 17.1584C48.294 13.9774 44.4004 11.9332 40.3034 11.0243V8.15076C41.9768 7.73446 43.2206 6.21979 43.2206 4.41943C43.2206 2.29914 41.4957 0.574219 39.3754 0.574219H31.2325C29.1123 0.574219 27.3873 2.29914 27.3873 4.41943C27.3873 6.21967 28.6311 7.73435 30.3044 8.15076V11.0323C26.22 11.9451 22.3392 13.9864 19.1672 17.1585C18.473 17.8527 17.8329 18.5809 17.2469 19.3377C17.2186 19.3356 17.1902 19.3334 17.1612 19.3334H9.10198C8.47747 19.3334 7.97104 19.8398 7.97104 20.4644C7.97104 21.089 8.47747 21.5953 9.10198 21.5953H15.7081C14.8788 22.9836 14.2102 24.4415 13.7013 25.9422H1.39266C0.768156 25.9422 0.261719 26.4486 0.261719 27.0732C0.261719 27.6978 0.768156 28.2041 1.39266 28.2041H13.0622C12.7363 29.6349 12.5492 31.091 12.5009 32.5511H7.49977C6.87526 32.5511 6.36882 33.0575 6.36882 33.6821C6.36882 34.3067 6.87526 34.813 7.49977 34.813H12.537C12.6325 36.2769 12.8678 37.7331 13.2432 39.16H5.91645C5.29194 39.16 4.7855 39.6664 4.7855 40.291C4.7855 40.9156 5.29194 41.4219 5.91645 41.4219H13.9649C15.0744 44.3569 16.8082 47.1077 19.1672 49.4666C22.8932 53.1926 27.8282 55.5294 33.0629 56.0465C33.81 56.1203 34.5576 56.1568 35.3043 56.1568C39.7175 56.1568 44.0745 54.8796 47.7716 52.4721C48.295 52.1312 48.4431 51.4306 48.1022 50.9072C47.7613 50.3838 47.0607 50.2357 46.5373 50.5766C38.4446 55.8465 27.6064 54.707 20.7666 47.8672C12.7411 39.8418 12.7411 26.7835 20.7666 18.758C28.7919 10.7327 41.8501 10.7327 49.8756 18.758C56.7064 25.5889 57.8521 36.4178 52.5996 44.5066C52.2594 45.0304 52.4084 45.731 52.9321 46.071C53.4562 46.4112 54.1565 46.2623 54.4966 45.7384C57.3029 41.4165 58.5661 36.1966 58.0536 31.0401ZM29.6492 4.41955C29.6492 3.54646 30.3595 2.83622 31.2325 2.83622H39.3754C40.2484 2.83622 40.9587 3.54646 40.9587 4.41955C40.9587 5.29264 40.2484 6.00287 39.3754 6.00287H39.1725H31.4353H31.2325C30.3595 6.00287 29.6492 5.29252 29.6492 4.41955ZM32.5663 10.6435V8.26476H38.0415V10.6394C36.2234 10.4232 34.384 10.4245 32.5663 10.6435Z" fill="#CC9A1B"/>
<path d="M50.6754 47.5352C50.3768 47.5352 50.0861 47.6562 49.8759 47.8665C49.6644 48.0769 49.5444 48.3687 49.5444 48.6661C49.5444 48.9635 49.6644 49.2553 49.8759 49.4657C50.0861 49.6771 50.3769 49.797 50.6754 49.797C50.9728 49.797 51.2634 49.6771 51.4749 49.4657C51.6853 49.2553 51.8063 48.9635 51.8063 48.6661C51.8063 48.3687 51.6854 48.0769 51.4749 47.8665C51.2634 47.6562 50.9727 47.5352 50.6754 47.5352Z" fill="#CC9A1B"/>
<path d="M35.3206 15.7686C25.6467 15.7686 17.7764 23.6388 17.7764 33.3128C17.7764 42.9868 25.6467 50.857 35.3206 50.857C44.9945 50.857 52.8649 42.9868 52.8649 33.3128C52.8649 23.6388 44.9945 15.7686 35.3206 15.7686ZM35.3206 48.5952C26.8938 48.5952 20.0383 41.7395 20.0383 33.3128C20.0383 24.8861 26.8938 18.0304 35.3206 18.0304C43.7474 18.0304 50.603 24.8861 50.603 33.3128C50.603 41.7395 43.7474 48.5952 35.3206 48.5952Z" fill="#CC9A1B"/>
<path d="M42.4745 24.5588L36.8729 30.1602C36.4045 29.9286 35.8776 29.7978 35.3206 29.7978C34.7635 29.7978 34.2367 29.9286 33.7683 30.1602L31.2613 27.6533C30.8195 27.2116 30.1037 27.2116 29.6618 27.6533C29.2202 28.0949 29.2202 28.811 29.6618 29.2526L32.1688 31.7596C31.937 32.228 31.8063 32.755 31.8063 33.3119C31.8063 35.2497 33.3827 36.8262 35.3206 36.8262C37.2585 36.8262 38.8349 35.2497 38.8349 33.3119C38.8349 32.755 38.704 32.228 38.4724 31.7596L43.9095 26.3225L44.0739 26.1581C44.5155 25.7165 44.5155 25.0004 44.0739 24.5588C43.6322 24.1171 42.9163 24.1171 42.4745 24.5588ZM35.3206 34.5645C34.63 34.5645 34.0682 34.0026 34.0682 33.3121C34.0682 32.6215 34.63 32.0597 35.3206 32.0597C36.0111 32.0597 36.573 32.6215 36.573 33.3121C36.573 34.0026 36.0111 34.5645 35.3206 34.5645Z" fill="#CC9A1B"/>
<path d="M47.4131 32.1953H46.3653C45.7408 32.1953 45.2344 32.7016 45.2344 33.3262C45.2344 33.9509 45.7408 34.4572 46.3653 34.4572H47.4131C48.0376 34.4572 48.544 33.9509 48.544 33.3262C48.544 32.7016 48.0376 32.1953 47.4131 32.1953Z" fill="#CC9A1B"/>
<path d="M24.2763 32.168H23.2286C22.6041 32.168 22.0977 32.6743 22.0977 33.2989C22.0977 33.9235 22.6041 34.4298 23.2286 34.4298H24.2763C24.9008 34.4298 25.4072 33.9235 25.4072 33.2989C25.4072 32.6743 24.9008 32.168 24.2763 32.168Z" fill="#CC9A1B"/>
<path d="M35.3341 23.3994C35.9586 23.3994 36.465 22.8931 36.465 22.2685V21.2208C36.465 20.5962 35.9586 20.0898 35.3341 20.0898C34.7096 20.0898 34.2031 20.5962 34.2031 21.2208V22.2685C34.2031 22.8931 34.7096 23.3994 35.3341 23.3994Z" fill="#CC9A1B"/>
<path d="M35.3072 43.2256C34.6827 43.2256 34.1763 43.7319 34.1763 44.3565V45.4042C34.1763 46.0288 34.6827 46.5351 35.3072 46.5351C35.9317 46.5351 36.4381 46.0288 36.4381 45.4042V44.3565C36.4381 43.7319 35.9317 43.2256 35.3072 43.2256Z" fill="#CC9A1B"/>
<path d="M1.39216 39.1592C1.09472 39.1592 0.802945 39.2802 0.592592 39.4905C0.38224 39.7009 0.26123 39.9927 0.26123 40.2901C0.26123 40.5887 0.382127 40.8793 0.592592 41.0897C0.803058 41.3 1.09472 41.421 1.39216 41.421C1.68959 41.421 1.98137 41.3 2.19161 41.0897C2.40196 40.8793 2.52309 40.5875 2.52309 40.2901C2.52309 39.9927 2.40208 39.7009 2.19161 39.4905C1.98137 39.2802 1.68959 39.1592 1.39216 39.1592Z" fill="#CC9A1B"/>
</svg>
