<svg width="21" height="22" viewBox="0 0 21 22" fill="none" xmlns="http://www.w3.org/2000/svg">
<g clip-path="url(#clip0)">
<path d="M10.5 0.886719C4.71007 0.886719 0 5.59679 0 11.3867C0 17.1767 4.71007 21.8867 10.5 21.8867C16.2899 21.8867 21 17.1767 21 11.3867C21 5.59679 16.2899 0.886719 10.5 0.886719ZM15.4937 16.8178C15.323 16.9884 15.099 17.0743 14.8751 17.0743C14.6511 17.0743 14.4269 16.9884 14.2565 16.8178L9.8814 12.4429C9.71686 12.2793 9.62505 12.0569 9.62505 11.8243V6.13672C9.62505 5.65286 10.0169 5.26177 10.5 5.26177C10.9831 5.26177 11.3749 5.65286 11.3749 6.13672V11.462L15.4937 15.5806C15.8357 15.9228 15.8357 16.4757 15.4937 16.8178Z" fill="#CC9A1B"/>
</g>
<defs>
<clipPath id="clip0">
<rect width="21" height="21" fill="white" transform="translate(0 0.886719)"/>
</clipPath>
</defs>
</svg>
