<svg width="45" height="52" viewBox="0 0 45 52" fill="none" xmlns="http://www.w3.org/2000/svg">
<path d="M43.7186 32.3857C44.4299 31.5918 44.8633 30.5438 44.8633 29.3972C44.8633 26.9257 42.852 24.9144 40.3804 24.9144H31.6798C32.5415 22.2994 32.9091 18.8297 32.9091 17.3424V15.8492C32.9091 12.5538 30.2274 9.87207 26.932 9.87207H25.4377C24.7524 9.87207 24.1547 10.3383 23.9883 11.0037L23.1744 14.2602C22.0338 18.8208 18.4127 23.8525 14.6651 24.767C14.0086 23.1053 12.3878 21.9258 10.495 21.9258H1.52943C0.704589 21.9258 0.0351562 22.5953 0.0351562 23.4201V50.317C0.0351562 51.1418 0.704589 51.8112 1.52943 51.8112H10.495C12.2772 51.8112 13.8193 50.7663 14.5415 49.2561L19.6758 50.9675C21.3544 51.5273 23.1037 51.8112 24.8739 51.8112H37.3919C39.8634 51.8112 41.8747 49.8 41.8747 47.3284C41.8747 46.7457 41.7631 46.1878 41.5599 45.6768C43.4606 45.1578 44.8633 43.4154 44.8633 41.3514C44.8633 40.2048 44.4299 39.1568 43.7186 38.3628C44.4299 37.5689 44.8633 36.5209 44.8633 35.3743C44.8633 34.2277 44.4299 33.1797 43.7186 32.3857ZM11.9893 47.3284C11.9893 48.1523 11.3189 48.8227 10.495 48.8227H3.0237V24.9144H10.495C11.3189 24.9144 11.9893 25.5848 11.9893 26.4087V47.3284ZM37.3919 33.88H40.3804C41.2043 33.88 41.8747 34.5504 41.8747 35.3743C41.8747 36.1981 41.2043 36.8685 40.3804 36.8685H37.3919C36.5671 36.8685 35.8976 37.538 35.8976 38.3628C35.8976 39.1877 36.5671 39.8571 37.3919 39.8571H40.3804C41.2043 39.8571 41.8747 40.5275 41.8747 41.3514C41.8747 42.1752 41.2043 42.8456 40.3804 42.8456H37.3919C36.5671 42.8456 35.8976 43.5151 35.8976 44.3399C35.8976 45.1647 36.5671 45.8342 37.3919 45.8342C38.2157 45.8342 38.8862 46.5046 38.8862 47.3284C38.8862 48.1523 38.2157 48.8227 37.3919 48.8227H24.8739C23.4255 48.8227 21.994 48.5906 20.6202 48.1324L14.9779 46.2516V27.7615C17.3219 27.3162 19.6161 25.8319 21.6871 23.4022C23.7094 21.0293 25.3491 17.8834 26.0733 14.9855L26.6043 12.8606H26.932C28.5797 12.8606 29.9206 14.2015 29.9206 15.8492V17.3424C29.9206 19.3487 29.293 23.197 28.49 24.9144H25.4377C24.6129 24.9144 23.9435 25.5838 23.9435 26.4087C23.9435 27.2335 24.6129 27.9029 25.4377 27.9029H40.3804C41.2043 27.9029 41.8747 28.5734 41.8747 29.3972C41.8747 30.221 41.2043 30.8915 40.3804 30.8915H37.3919C36.5671 30.8915 35.8976 31.5609 35.8976 32.3857C35.8976 33.2106 36.5671 33.88 37.3919 33.88Z" fill="#CC9A1B"/>
<path d="M7.50794 45.8342C8.3332 45.8342 9.00221 45.1652 9.00221 44.34C9.00221 43.5147 8.3332 42.8457 7.50794 42.8457C6.68268 42.8457 6.01367 43.5147 6.01367 44.34C6.01367 45.1652 6.68268 45.8342 7.50794 45.8342Z" fill="#CC9A1B"/>
<path d="M28.4279 0.806641C27.6026 0.806641 26.9336 1.47568 26.9336 2.30091V5.38907C26.9336 6.2143 27.6026 6.88334 28.4279 6.88334C29.2531 6.88334 29.9221 6.2143 29.9221 5.38907V2.30091C29.9221 1.47568 29.2531 0.806641 28.4279 0.806641Z" fill="#CC9A1B"/>
<path d="M22.0879 7.39657L19.9747 5.28337C19.3912 4.69981 18.4451 4.69981 17.8615 5.28337C17.2779 5.86694 17.2779 6.81301 17.8615 7.39657L19.9747 9.50977C20.5582 10.0932 21.5044 10.0933 22.0879 9.50977C22.6715 8.92621 22.6715 7.98013 22.0879 7.39657Z" fill="#CC9A1B"/>
<path d="M38.9942 5.28338C38.4107 4.69981 37.4645 4.69981 36.8809 5.28338L34.7678 7.39647C34.1842 7.98004 34.1842 8.92611 34.7678 9.50967C35.3512 10.0932 36.2974 10.0933 36.8809 9.50977L38.9942 7.39657C39.5777 6.81301 39.5777 5.86694 38.9942 5.28338Z" fill="#CC9A1B"/>
</svg>
