<svg width="52" height="52" viewBox="0 0 52 52" fill="none" xmlns="http://www.w3.org/2000/svg">
<g clip-path="url(#clip0)">
<path d="M3.07205 41.41C2.72014 41.1793 2.24783 41.2774 2.01712 41.6294C0.697534 43.6421 0 45.9762 0 48.3793V51.1172C0 51.5379 0.341147 51.8791 0.761943 51.8791C1.18274 51.8791 1.52389 51.5379 1.52389 51.1172V48.3793C1.52389 46.2738 2.13517 44.2287 3.29149 42.465C3.52221 42.1131 3.42397 41.6407 3.07205 41.41Z" fill="#DEAC2C"/>
<path d="M12.2161 45.2715H5.94002C5.22735 45.2715 4.64746 45.8514 4.64746 46.564V48.9045C4.64746 49.6172 5.22735 50.1971 5.94002 50.1971H12.2161C12.9288 50.1971 13.5087 49.6172 13.5087 48.9045V46.564C13.5087 45.8514 12.9288 45.2715 12.2161 45.2715ZM11.9848 48.6732H6.17135V46.7955H11.9848V48.6732Z" fill="#DEAC2C"/>
<path d="M23.0615 8.96973C21.3691 8.96973 19.9922 10.3466 19.9922 12.039C19.9922 13.7315 21.3691 15.1083 23.0615 15.1083C24.754 15.1083 26.1309 13.7315 26.1309 12.039C26.1309 10.3466 24.754 8.96973 23.0615 8.96973V8.96973ZM23.0615 13.5845C22.2093 13.5845 21.5161 12.8912 21.5161 12.039C21.5161 11.1869 22.2093 10.4936 23.0615 10.4936C23.9136 10.4936 24.607 11.1869 24.607 12.039C24.607 12.8912 23.9136 13.5845 23.0615 13.5845Z" fill="#DEAC2C"/>
<path d="M45.8125 27.8462C45.4541 27.6257 44.9848 27.7372 44.7642 28.0956C44.5435 28.4539 44.6553 28.9233 45.0135 29.1439C48.4339 31.2499 50.4759 34.9015 50.4759 38.912C50.4759 45.2327 45.3336 50.375 39.0128 50.375C32.692 50.375 27.5498 45.2326 27.5498 38.912C27.5498 32.5913 32.692 27.449 39.0128 27.449C40.1009 27.449 41.1784 27.6017 42.2154 27.9029C42.6193 28.0199 43.0423 27.7878 43.1596 27.3837C43.277 26.9795 43.0445 26.5568 42.6405 26.4395C41.4653 26.0982 40.2446 25.9251 39.0128 25.9251C33.1075 25.9251 28.1108 29.8872 26.5398 35.2925L24.8377 34.598V31.4184C27.3457 29.4325 28.892 26.3717 28.892 23.057V22.6707C30.7209 22.5569 32.1743 21.0336 32.1743 19.1765C32.1743 18.6567 32.0596 18.1633 31.8555 17.7193L31.856 14.249C32.6455 14.0496 33.2323 13.3356 33.2323 12.485V11.5925C33.2323 10.6259 32.4748 9.83509 31.5226 9.77698L31.5255 9.6066L31.4271 7.8009C31.3019 5.50542 29.8741 3.45803 27.7737 2.54217L27.6638 2.43468C26.3758 1.17585 24.6089 0.552785 22.8164 0.725493L22.0054 0.803617L21.5107 0.591797C19.9847 -0.061849 18.2344 -0.061849 16.7087 0.591797L16.2139 0.803617L15.4029 0.725493C13.6104 0.552785 11.8436 1.17585 10.5557 2.43468L10.4458 2.54217C8.3456 3.45792 6.91761 5.50532 6.79255 7.8009L6.69167 9.64826L6.68192 9.84453C5.92363 10.0647 5.36731 10.7643 5.36731 11.5925V12.485C5.36731 13.2009 5.78354 13.8199 6.38588 14.1173V17.6707C6.16756 18.1272 6.04504 18.6378 6.04504 19.1765C6.04504 21.0337 7.49842 22.557 9.32739 22.6707V23.0874C9.32739 26.4497 10.9217 29.5576 13.4985 31.5414V34.598L7.66086 36.9799C6.43952 37.4782 5.31062 38.1673 4.30537 39.0283C3.98576 39.302 3.94857 39.783 4.22237 40.1026C4.37303 40.2786 4.58657 40.3689 4.80144 40.3689C4.97689 40.3689 5.15305 40.3087 5.29671 40.1856C6.17761 39.4312 7.16672 38.8272 8.23659 38.3908L12.549 36.6313L18.4607 51.4197C18.5764 51.7092 18.8566 51.8988 19.1681 51.8988C19.4797 51.8988 19.76 51.7091 19.8756 51.4197L25.7872 36.6313L26.1986 36.7991C26.0856 37.487 26.0258 38.1926 26.0258 38.912C26.0258 46.073 31.8518 51.8988 39.0127 51.8988C46.1738 51.8988 51.9997 46.0729 51.9997 38.912C51.9998 34.3683 49.6867 30.2317 45.8125 27.8462V27.8462ZM28.892 15.6822V14.3062H30.332L30.3317 16.0936C29.8983 15.8594 29.4102 15.7144 28.892 15.6822ZM23.0609 16.6319C20.5281 16.6319 18.4676 14.5714 18.4676 12.0387C18.4676 9.50603 20.5281 7.44553 23.0609 7.44553C25.5936 7.44553 27.6541 9.50603 27.6541 12.0387C27.6541 14.5714 25.5936 16.6319 23.0609 16.6319ZM28.892 21.1414V17.2115C29.8795 17.3211 30.6504 18.1602 30.6504 19.1765C30.6504 20.1928 29.8795 21.0318 28.892 21.1414V21.1414ZM31.7083 11.5924V12.4849C31.7083 12.6489 31.5749 12.7822 31.4111 12.7822H29.1311C29.1608 12.5383 29.1779 12.2905 29.1779 12.0386C29.1779 11.7868 29.1609 11.539 29.1311 11.2951H31.4111C31.575 11.2952 31.7083 11.4286 31.7083 11.5924ZM8.314 7.8838C8.41001 6.1232 9.52763 4.55715 11.1614 3.89416C11.2532 3.85688 11.3368 3.80222 11.4075 3.73304L11.6208 3.52447C12.5869 2.58027 13.9115 2.11304 15.2568 2.24237L16.2618 2.33919C16.3887 2.35148 16.5173 2.33157 16.6347 2.28118L17.3086 1.99255C18.4532 1.50237 19.766 1.50237 20.9107 1.99255L21.5845 2.28118C21.702 2.33157 21.8304 2.35148 21.9575 2.33919L22.9624 2.24237C24.3072 2.11294 25.6325 2.58027 26.5984 3.52436L26.8118 3.73293C26.8826 3.80212 26.9662 3.85688 27.0579 3.89416C28.6916 4.55715 29.8093 6.1232 29.9052 7.8838L30.0057 9.7274C30.0059 9.73055 30.0051 9.7464 30.0035 9.77139H28.7404C27.8375 7.51807 25.6328 5.92164 23.0608 5.92164C20.4887 5.92164 18.2839 7.51807 17.3811 9.77139H13.1985C12.7777 9.77139 12.4365 10.1125 12.4365 10.5333C12.4365 10.9541 12.7777 11.2953 13.1985 11.2953H16.9904C16.9607 11.5392 16.9436 11.787 16.9436 12.0388C16.9436 12.2907 16.9606 12.5385 16.9904 12.7824H7.18856C7.02459 12.7824 6.8913 12.649 6.8913 12.4851V11.5926C6.8913 11.4287 7.02469 11.2954 7.18856 11.2954H9.95137C10.3722 11.2954 10.7133 10.9542 10.7133 10.5334C10.7133 10.1126 10.3722 9.77149 9.95137 9.77149H8.21129L8.21343 9.7275L8.314 7.8838ZM9.32749 15.6822C8.818 15.7139 8.33778 15.8548 7.90987 16.0821V14.3061H9.32749V15.6822ZM7.56902 19.1764C7.56902 18.1601 8.33991 17.321 9.32749 17.2114V21.1414C8.33991 21.0318 7.56902 20.1928 7.56902 19.1764V19.1764ZM10.8514 23.0873V14.3061H17.3811C18.284 16.5594 20.4887 18.1558 23.0608 18.1558C24.7392 18.1558 26.2616 17.476 27.368 16.3776V23.057C27.368 26.9165 24.9241 30.3765 21.2866 31.667L21.2117 31.6936C19.8196 32.1875 18.2873 32.1844 16.8972 31.6848C13.281 30.385 10.8514 26.9301 10.8514 23.0873V23.0873ZM16.3819 33.1188C17.2473 33.4298 18.157 33.5853 19.067 33.5853C19.9659 33.5853 20.8651 33.4334 21.7214 33.1296L21.7962 33.103C22.3246 32.9156 22.8314 32.6888 23.3137 32.4268V34.9296L20.2367 37.5741C19.6071 38.1152 18.6609 38.1114 18.0355 37.5656L15.0224 34.9351V32.5175C15.4574 32.7468 15.9104 32.9493 16.3819 33.1188V33.1188ZM19.1681 49.0842L13.96 36.0556L13.9797 36.0476L17.0335 38.7136C17.633 39.237 18.387 39.4988 19.1414 39.4988C19.8872 39.4988 20.6334 39.2425 21.2301 38.7298L24.3528 36.046L24.3763 36.0556L19.1681 49.0842Z" fill="#DEAC2C"/>
<path d="M39.6304 32.3313C39.3046 32.5678 38.867 32.5678 38.5412 32.3313C36.6213 30.9369 33.9819 30.9928 32.1227 32.4674C29.8859 34.2416 29.4493 37.44 31.1288 39.749L33.3964 42.8664L33.7466 46.1849C33.8571 47.2316 34.7342 48.021 35.7867 48.021C36.7731 48.021 37.621 47.3172 37.8029 46.3477L38.4233 43.0393C38.4831 42.7209 38.7616 42.4897 39.0857 42.4897C39.4098 42.4897 39.6883 42.7208 39.7481 43.0393L40.3686 46.3477C40.5504 47.3172 41.3983 48.021 42.3848 48.021C43.4372 48.021 44.3142 47.2316 44.4248 46.1849L44.775 42.8664L47.0426 39.7489C48.722 37.44 48.2854 34.2416 46.0486 32.4674C44.1898 30.9929 41.5504 30.9368 39.6304 32.3313V32.3313ZM45.1016 33.6613C46.6964 34.9262 47.0077 37.2064 45.8103 38.8525L43.4226 42.1351C43.3439 42.2433 43.2951 42.3703 43.281 42.5034L42.9092 46.025C42.8809 46.2941 42.6553 46.4971 42.3848 46.4971C42.1311 46.4971 41.9131 46.3161 41.8663 46.0668L41.2459 42.7585C41.0511 41.7197 40.1427 40.9658 39.0857 40.9658C38.0289 40.9658 37.1205 41.7196 36.9256 42.7584L36.3052 46.0668C36.2584 46.3161 36.0405 46.4971 35.7867 46.4971C35.516 46.4971 35.2905 46.2941 35.2622 46.025L34.8905 42.5034C34.8764 42.3703 34.8276 42.2433 34.7489 42.1351L32.3611 38.8525C31.1637 37.2064 31.4749 34.9262 33.0698 33.6613C34.3951 32.61 36.2769 32.5702 37.6456 33.5642C38.5069 34.1898 39.6644 34.1898 40.5259 33.5642C41.8948 32.5702 43.7762 32.6101 45.1016 33.6613Z" fill="#DEAC2C"/>
<path d="M37.5712 35.6201L37.5692 35.6188C37.2127 35.3958 36.7422 35.5042 36.5192 35.8611C36.2962 36.218 36.4047 36.6881 36.7616 36.9111C36.7641 36.9128 36.7688 36.9157 36.7716 36.9173C37.4635 37.3379 38.274 37.5482 39.0846 37.5482C39.8962 37.5482 40.7079 37.3374 41.4002 36.9158C41.7596 36.697 41.8736 36.2281 41.6548 35.8688C41.4359 35.5092 40.9669 35.3954 40.6077 35.6143C39.6974 36.1685 38.4739 36.1687 37.5712 35.6201V35.6201Z" fill="#DEAC2C"/>
</g>
<defs>
<clipPath id="clip0">
<rect width="52" height="52" fill="white"/>
</clipPath>
</defs>
</svg>
