<svg width="59" height="59" viewBox="0 0 59 59" fill="none" xmlns="http://www.w3.org/2000/svg">
<path d="M34.4141 22.8857C33.5395 22.8857 32.8281 23.5971 32.8281 24.4717C32.8281 25.3462 33.5395 26.0576 34.4141 26.0576C35.2886 26.0576 36 25.3462 36 24.4717C36 23.5971 35.2886 22.8857 34.4141 22.8857ZM34.1875 24.4717C34.1875 24.3466 34.289 24.2451 34.4141 24.2451C34.5391 24.2451 34.6406 24.3466 34.6406 24.4717C34.6406 24.7209 34.1875 24.7209 34.1875 24.4717Z" fill="#CC9A1B"/>
<path d="M25.3516 22.8857C24.477 22.8857 23.7656 23.5971 23.7656 24.4717C23.7656 25.3462 24.477 26.0576 25.3516 26.0576C26.2261 26.0576 26.9375 25.3462 26.9375 24.4717C26.9375 23.5971 26.2261 22.8857 25.3516 22.8857ZM25.125 24.4717C25.125 24.3466 25.2265 24.2451 25.3516 24.2451C25.4766 24.2451 25.5781 24.3466 25.5781 24.4717C25.5781 24.7209 25.125 24.7209 25.125 24.4717Z" fill="#CC9A1B"/>
<path d="M52.6086 39.5037L49.4123 40.5694C49.0869 40.6772 48.7417 40.6772 48.4154 40.5694L45.2191 39.5037C44.5484 39.2789 43.8497 39.2789 43.2036 39.4674C41.7092 38.6663 40.0553 38.2186 38.3633 38.1678L35.3201 35.9539V34.7304C37.863 33.1998 39.7535 30.6378 40.4531 27.62C42.3852 29.9228 44.5747 31.9945 47.0053 33.7616L50.1944 36.0807C50.353 36.1958 50.5397 36.2529 50.7263 36.2529C50.9411 36.2529 51.1568 36.1759 51.3272 36.0255C51.6453 35.7427 51.7241 35.2787 51.5184 34.9071C48.6293 29.7053 47.1013 23.811 47.1013 17.8597V10.8779C47.1013 6.38021 43.4428 2.72168 38.9451 2.72168C36.8272 2.72168 34.8044 3.55362 33.2901 5.01268C32.2044 4.70909 31.0643 4.53418 29.8826 4.53418C22.8863 4.53418 17.1951 10.2254 17.1951 17.2217V21.1648C16.1275 21.6759 15.3826 22.758 15.3826 24.0186C15.3826 25.7676 16.8054 27.1904 18.5545 27.1904H19.1689C19.5441 29.4388 20.6035 31.5069 22.2647 33.1381C22.9271 33.7888 23.663 34.3335 24.4451 34.7875V35.953L21.5415 38.0654H19.9138C16.7927 38.0654 14.1963 40.3347 13.6725 43.3081L12.9566 41.3995C13.8528 40.9546 14.4763 40.0383 14.4763 38.9717V33.5342C15.9753 33.5342 17.1951 32.3144 17.1951 30.8154C17.1951 29.3165 15.9753 28.0967 14.4763 28.0967V25.3779C14.4763 24.8768 14.0712 24.4717 13.5701 24.4717H12.6638V17.1301C14.7292 16.7087 16.2888 14.879 16.2888 12.6904C16.2888 10.1919 14.2561 8.15918 11.7576 8.15918C9.25906 8.15918 7.22634 10.1919 7.22634 12.6904C7.22634 14.8781 8.786 16.7087 10.8513 17.1301V24.4717H9.94509C9.44394 24.4717 9.03884 24.8768 9.03884 25.3779V28.0967H6.70706C5.66216 28.0967 4.66709 28.548 3.97925 29.3337C3.2905 30.1203 2.97603 31.1652 3.11378 32.2002L6.32825 56.3101C6.38806 56.7605 6.77231 57.0967 7.22634 57.0967H45.2888V57.0849C45.6242 57.0849 45.9441 56.9073 46.0999 56.5955L48.9138 50.9668L51.7277 56.5955C51.8836 56.9073 52.2008 57.0967 52.5388 57.0967C52.5987 57.0967 52.6603 57.0903 52.721 57.0776C53.1225 56.9952 53.4197 56.6526 53.4433 56.243C53.5629 54.2211 54.1003 50.6116 55.0356 49.534C56.1321 48.2707 56.7873 45.1605 57.0175 43.8845C57.0529 43.686 57.0701 43.4902 57.0701 43.2881V42.719C57.0701 41.8273 56.7085 40.9536 56.0768 40.322C55.1633 39.4085 53.8348 39.094 52.6086 39.5037ZM9.03884 12.6904C9.03884 11.1915 10.2587 9.97168 11.7576 9.97168C13.2565 9.97168 14.4763 11.1915 14.4763 12.6904C14.4763 14.1894 13.2565 15.4092 11.7576 15.4092C10.2587 15.4092 9.03884 14.1894 9.03884 12.6904ZM40.8138 43.8935C41.0503 45.1623 41.7146 48.2508 42.7831 49.5231C43.6077 50.5064 44.1134 53.2632 44.3101 55.2842H41.6638V50.7529H39.8513V55.2842H30.7888V45.358L34.8171 48.0441C35.2349 48.3206 35.7959 48.2091 36.0741 47.7931C37.5658 45.5547 38.4521 41.6832 38.7829 40.0093C39.7118 40.0864 40.6235 40.293 41.4871 40.6455C41.0277 41.2364 40.7576 41.9659 40.7576 42.719V43.2809C40.7576 43.4893 40.7757 43.6923 40.8138 43.8935V43.8935ZM37.0447 39.4493C36.8018 40.7081 36.1185 43.8709 35.0228 46.0015L31.2247 43.4694L35.1098 38.8067C35.2458 38.6454 35.3201 38.4397 35.3201 38.2276V38.195L37.0447 39.4493ZM20.8201 25.3779V22.6592C26.002 22.6592 30.5949 19.7936 32.8941 15.324C34.132 17.9711 36.2762 20.1344 38.9451 21.4095V25.0471C38.9451 25.7848 38.8527 26.4999 38.6941 27.1904H21.0004C20.8817 26.6005 20.8201 25.9942 20.8201 25.3779V25.3779ZM20.8545 20.8467C21.0149 18.746 21.73 16.7459 22.9162 15.0521C24.6463 12.975 27.1847 11.7842 29.8826 11.7842C30.7308 11.7842 31.5519 11.9011 32.3313 12.1204C32.2189 12.2255 32.1328 12.3606 32.0857 12.5155C30.565 17.4872 26.0537 20.8313 20.8545 20.8467V20.8467ZM33.8692 12.7095C36.4275 13.9691 38.3107 16.3997 38.8119 19.2988C36.384 17.8406 34.5869 15.4699 33.8692 12.7095ZM41.2107 22.6592C41.9602 22.6592 42.5701 23.2691 42.5701 24.0186C42.5701 24.768 41.9602 25.3779 41.2107 25.3779H40.7413C40.7449 25.2674 40.7576 25.1586 40.7576 25.0471V22.6592H41.2107ZM38.9451 4.53418C42.4423 4.53418 45.2888 7.38071 45.2888 10.8779V17.8597C45.2888 22.8803 46.3229 27.8638 48.3012 32.4621L48.0701 32.2944C45.9486 30.7511 44.0183 28.9631 42.2928 26.9874C43.5081 26.5434 44.3826 25.3861 44.3826 24.0186C44.3826 22.758 43.6377 21.6759 42.5701 21.1648V17.2217C42.5701 12.1403 39.5604 7.75952 35.2367 5.73587C36.3079 4.96374 37.6029 4.53418 38.9451 4.53418V4.53418ZM29.8826 6.34668C35.8792 6.34668 40.7576 11.225 40.7576 17.2217V20.8467H40.7558C40.7558 20.8431 40.7567 20.8403 40.7567 20.8367C40.7522 14.8464 35.8738 9.97168 29.8826 9.97168C26.6455 9.97168 23.5987 11.4008 21.4789 13.9519C20.038 16.0028 19.207 18.3708 19.0429 20.8467H19.0076V17.2217C19.0076 11.225 23.8859 6.34668 29.8826 6.34668V6.34668ZM18.5545 25.3779C17.805 25.3779 17.1951 24.768 17.1951 24.0186C17.1951 23.2691 17.805 22.6592 18.5545 22.6592H19.0076V25.3779H18.5545ZM21.5759 29.0029H38.0814C36.6541 32.1503 33.5964 34.3743 30.0521 34.4386C27.5907 34.4721 25.2825 33.5623 23.5334 31.8458C22.6906 31.0175 22.0345 30.0524 21.5759 29.0029ZM29.8799 36.2529C29.9478 36.2529 30.0167 36.252 30.0865 36.2511C31.2846 36.2294 32.4319 35.9946 33.5076 35.5977V37.8987L29.8826 42.2487L26.2576 37.8987V35.624C27.4076 36.03 28.6247 36.2529 29.8799 36.2529V36.2529ZM24.4451 38.1941V38.2267C24.4451 38.4388 24.5194 38.6445 24.6544 38.8076L28.5395 43.4703L24.7433 46.0015C23.6539 43.8663 22.9933 40.6781 22.7622 39.4176L24.4451 38.1941ZM10.8513 38.9717V33.3674C11.1903 33.2469 11.4957 33.0638 11.7576 32.8273C12.0195 33.0629 12.3249 33.2469 12.6638 33.3674V38.9717C12.6638 39.4719 12.2578 39.8779 11.7576 39.8779C11.2573 39.8779 10.8513 39.4719 10.8513 38.9717ZM15.3826 30.8154C15.3826 31.3157 14.9766 31.7217 14.4763 31.7217H13.5701C13.0698 31.7217 12.6638 31.3157 12.6638 30.8154C12.6638 30.3152 13.0698 29.9092 13.5701 29.9092H14.4763C14.9766 29.9092 15.3826 30.3152 15.3826 30.8154ZM12.6638 26.2842V28.2634C12.3249 28.384 12.0195 28.5679 11.7576 28.8036C11.4957 28.567 11.1903 28.384 10.8513 28.2634V26.2842H12.6638ZM5.34316 30.5281C5.68753 30.1348 6.18416 29.9092 6.70706 29.9092H9.94509C10.4453 29.9092 10.8513 30.3152 10.8513 30.8154C10.8513 31.3157 10.4453 31.7217 9.94509 31.7217H7.22634V33.5342H9.03884V38.9717C9.03884 39.2907 9.10409 39.5934 9.20559 39.8779H5.96575L4.90997 31.9609C4.84109 31.4426 4.99878 30.9206 5.34316 30.5281V30.5281ZM6.20772 41.6904H11.1296L13.5701 48.1991V49.8467H11.7576V51.6592H14.4763C14.9775 51.6592 15.3826 51.2541 15.3826 50.7529V44.4092C15.3826 41.9106 17.4153 39.8779 19.9138 39.8779H21.0041C21.3077 41.511 22.1695 45.5112 23.6911 47.7922C23.8651 48.0541 24.1533 48.1955 24.446 48.1955C24.6182 48.1955 24.7931 48.1456 24.9481 48.0432L28.9763 45.358V55.2842H8.02022L6.20772 41.6904ZM55.2576 43.2881C55.2576 43.3797 55.2512 43.4667 55.234 43.56C54.896 45.4332 54.2807 47.64 53.6671 48.3468C52.7881 49.3582 52.2787 51.3438 51.9878 53.0639L50.5342 50.1575C50.2252 49.5386 49.6044 49.1552 48.9129 49.1552C48.2215 49.1552 47.6007 49.5395 47.2917 50.1566L45.8435 53.053C45.558 51.3601 45.0514 49.409 44.1687 48.3577C43.5633 47.6354 42.9417 45.4287 42.5937 43.5573C42.5773 43.4658 42.5701 43.3742 42.5701 43.2809V42.719C42.5701 42.304 42.7387 41.898 43.0323 41.6043C43.4564 41.1793 44.0763 41.0316 44.6454 41.2228L47.8417 42.2886C48.0148 42.3466 48.1916 42.3901 48.3701 42.4191L51.1296 44.2578L52.1347 42.7498L50.9565 41.965L53.1814 41.2237C53.7514 41.0325 54.3704 41.1802 54.7945 41.6052C55.0881 41.8989 55.2567 42.3049 55.2567 42.7199V43.2881H55.2576Z" fill="#CC9A1B"/>
</svg>
