<svg width="59" height="59" viewBox="0 0 59 59" fill="none" xmlns="http://www.w3.org/2000/svg">
<g clip-path="url(#clip0)">
<path d="M3.92652 46.2398C3.534 45.9825 3.0072 46.092 2.74986 46.4846C1.27802 48.7295 0.5 51.3329 0.5 54.0133V57.067C0.5 57.5364 0.880511 57.9169 1.34986 57.9169C1.81921 57.9169 2.19972 57.5364 2.19972 57.067V54.0133C2.19972 51.6649 2.88153 49.3837 4.17128 47.4166C4.42862 47.0241 4.31904 46.4972 3.92652 46.2398Z" fill="#CC9A1B"/>
<path d="M14.1255 50.5459H7.1253C6.33039 50.5459 5.68359 51.1927 5.68359 51.9876V54.5981C5.68359 55.393 6.33039 56.0398 7.1253 56.0398H14.1255C14.9204 56.0398 15.5672 55.393 15.5672 54.5981V51.9876C15.5672 51.1927 14.9204 50.5459 14.1255 50.5459ZM13.8675 54.3401H7.38332V52.2457H13.8675V54.3401Z" fill="#CC9A1B"/>
<path d="M26.2203 10.0566C24.3326 10.0566 22.7969 11.5924 22.7969 13.4801C22.7969 15.3678 24.3326 16.9036 26.2203 16.9036C28.1081 16.9036 29.6439 15.3678 29.6439 13.4801C29.6439 11.5924 28.1081 10.0566 26.2203 10.0566V10.0566ZM26.2203 15.2038C25.2698 15.2038 24.4966 14.4306 24.4966 13.4801C24.4966 12.5296 25.2698 11.7564 26.2203 11.7564C27.1708 11.7564 27.9442 12.5296 27.9442 13.4801C27.9442 14.4306 27.1708 15.2038 26.2203 15.2038Z" fill="#CC9A1B"/>
<path d="M51.5993 31.111C51.1995 30.865 50.6761 30.9894 50.43 31.3892C50.1839 31.7888 50.3085 32.3124 50.7081 32.5584C54.5232 34.9074 56.8008 38.9804 56.8008 43.4536C56.8008 50.5037 51.0651 56.2392 44.015 56.2392C36.9649 56.2392 31.2294 50.5036 31.2294 43.4536C31.2294 36.4036 36.9649 30.6679 44.015 30.6679C45.2286 30.6679 46.4305 30.8382 47.5872 31.1742C48.0377 31.3048 48.5094 31.0458 48.6403 30.5951C48.7712 30.1443 48.5119 29.6728 48.0613 29.5419C46.7505 29.1613 45.389 28.9682 44.015 28.9682C37.4284 28.9682 31.8551 33.3875 30.1028 39.4165L28.2044 38.6419V35.0954C31.0018 32.8803 32.7264 29.4663 32.7264 25.7692V25.3383C34.7664 25.2114 36.3875 23.5123 36.3875 21.4409C36.3875 20.8611 36.2596 20.3109 36.0319 19.8156L36.0325 15.9448C36.913 15.7225 37.5675 14.926 37.5675 13.9774V12.9819C37.5675 11.9037 36.7227 11.0217 35.6606 10.9568L35.6639 10.7668L35.5541 8.75276C35.4145 6.19242 33.8218 3.90879 31.4791 2.88725L31.3565 2.76737C29.9199 1.36329 27.9492 0.668326 25.9498 0.860961L25.0453 0.9481L24.4934 0.711839C22.7914 -0.0172276 20.8391 -0.0172276 19.1374 0.711839L18.5855 0.9481L17.6809 0.860961C15.6816 0.668326 13.711 1.36329 12.2745 2.76737L12.1519 2.88725C9.8093 3.90867 8.21655 6.1923 8.07706 8.75276L7.96454 10.8133L7.95366 11.0322C7.10788 11.2778 6.48737 12.058 6.48737 12.9819V13.9774C6.48737 14.7759 6.95162 15.4663 7.62346 15.798V19.7614C7.37995 20.2705 7.24329 20.84 7.24329 21.4409C7.24329 23.5125 8.86437 25.2115 10.9044 25.3383V25.8031C10.9044 29.5534 12.6826 33.0199 15.5567 35.2326V38.6419L9.04556 41.2985C7.68329 41.8544 6.42414 42.623 5.30289 43.5833C4.9464 43.8886 4.90493 44.4251 5.21031 44.7816C5.37836 44.9779 5.61655 45.0786 5.85621 45.0786C6.0519 45.0786 6.24839 45.0114 6.40862 44.8742C7.39117 44.0327 8.4944 43.3591 9.68772 42.8723L14.4977 40.9098L21.0915 57.4045C21.2205 57.7274 21.5331 57.9389 21.8806 57.9389C22.2281 57.9389 22.5408 57.7273 22.6697 57.4045L29.2634 40.9098L29.7223 41.097C29.5962 41.8642 29.5296 42.6512 29.5296 43.4536C29.5296 51.4409 36.0277 57.9389 44.0149 57.9389C52.0022 57.9389 58.5004 51.4408 58.5004 43.4536C58.5005 38.3857 55.9206 33.7717 51.5993 31.111V31.111ZM32.7264 17.5435V16.0086H34.3326L34.3323 18.0023C33.8489 17.7411 33.3044 17.5794 32.7264 17.5435ZM26.2225 18.6028C23.3974 18.6028 21.0992 16.3045 21.0992 13.4796C21.0992 10.6546 23.3974 8.35639 26.2225 8.35639C29.0474 8.35639 31.3457 10.6546 31.3457 13.4796C31.3457 16.3045 29.0474 18.6028 26.2225 18.6028ZM32.7264 23.6326V19.2492C33.8279 19.3715 34.6878 20.3073 34.6878 21.4409C34.6878 22.5745 33.8279 23.5103 32.7264 23.6326V23.6326ZM35.8677 12.9818V13.9772C35.8677 14.1601 35.7189 14.3088 35.5362 14.3088H32.9931C33.0262 14.0367 33.0454 13.7604 33.0454 13.4795C33.0454 13.1985 33.0263 12.9222 32.9931 12.6501H35.5362C35.719 12.6502 35.8677 12.799 35.8677 12.9818ZM9.77406 8.84523C9.88114 6.88148 11.1277 5.13474 12.95 4.39525C13.0524 4.35366 13.1456 4.2927 13.2245 4.21553L13.4625 3.98289C14.54 2.92975 16.0175 2.40861 17.518 2.55286L18.6389 2.66085C18.7804 2.67456 18.9239 2.65235 19.0549 2.59615L19.8065 2.27422C21.0832 1.72748 22.5475 1.72748 23.8242 2.27422L24.5758 2.59615C24.7068 2.65235 24.85 2.67456 24.9918 2.66085L26.1127 2.55286C27.6126 2.4085 29.0908 2.92975 30.1682 3.98278L30.4062 4.21542C30.4851 4.29258 30.5784 4.35366 30.6807 4.39525C32.5029 5.13474 33.7496 6.88148 33.8566 8.84523L33.9687 10.9015C33.9689 10.9051 33.968 10.9227 33.9662 10.9506H32.5573C31.5503 8.43729 29.0912 6.65667 26.2224 6.65667C23.3536 6.65667 20.8943 8.43729 19.8874 10.9506H15.2221C14.7528 10.9506 14.3723 11.3311 14.3723 11.8005C14.3723 12.2698 14.7528 12.6503 15.2221 12.6503H19.4516C19.4185 12.9224 19.3993 13.1988 19.3993 13.4797C19.3993 13.7606 19.4184 14.037 19.4516 14.309H8.51876C8.33587 14.309 8.1872 14.1603 8.1872 13.9775V12.982C8.1872 12.7991 8.33599 12.6504 8.51876 12.6504H11.6004C12.0697 12.6504 12.4502 12.2699 12.4502 11.8006C12.4502 11.3312 12.0697 10.9507 11.6004 10.9507H9.6595L9.66188 10.9017L9.77406 8.84523ZM10.9045 17.5435C10.3362 17.5788 9.80058 17.736 9.3233 17.9895V16.0085H10.9045V17.5435ZM8.94312 21.4408C8.94312 20.3072 9.80296 19.3714 10.9045 19.2491V23.6326C9.80296 23.5103 8.94312 22.5745 8.94312 21.4408V21.4408ZM12.6042 25.803V16.0085H19.8874C20.8944 18.5218 23.3536 20.3025 26.2224 20.3025C28.0944 20.3025 29.7926 19.5442 31.0266 18.3191V25.7692C31.0266 30.0741 28.3007 33.9332 24.2436 35.3726L24.1599 35.4023C22.6072 35.9532 20.8982 35.9498 19.3477 35.3925C15.3141 33.9427 12.6042 30.0891 12.6042 25.803V25.803ZM18.7728 36.9919C19.7382 37.3389 20.7528 37.5123 21.7677 37.5123C22.7705 37.5123 23.7734 37.3428 24.7284 37.004L24.8119 36.9743C25.4013 36.7653 25.9665 36.5124 26.5045 36.2201V39.0117L23.0724 41.9613C22.3702 42.5648 21.3148 42.5606 20.6173 41.9518L17.2565 39.0179V36.3213C17.7417 36.5771 18.2469 36.8029 18.7728 36.9919V36.9919ZM21.8806 54.7995L16.0715 40.2676L16.0935 40.2587L19.4996 43.2323C20.1683 43.8161 21.0093 44.1081 21.8508 44.1081C22.6826 44.1081 23.5149 43.8223 24.1804 43.2504L27.6635 40.257L27.6897 40.2676L21.8806 54.7995Z" fill="#CC9A1B"/>
<path d="M44.7028 36.1138C44.3394 36.3776 43.8512 36.3776 43.4878 36.1138C41.3464 34.5584 38.4025 34.6208 36.3288 36.2655C33.8338 38.2444 33.3469 41.8119 35.2201 44.3873L37.7494 47.8644L38.14 51.5658C38.2633 52.7333 39.2416 53.6138 40.4155 53.6138C41.5158 53.6138 42.4615 52.8288 42.6643 51.7475L43.3564 48.0573C43.4231 47.7021 43.7337 47.4442 44.0952 47.4442C44.4566 47.4442 44.7673 47.702 44.834 48.0573L45.5261 51.7475C45.7289 52.8288 46.6747 53.6138 47.7749 53.6138C48.9488 53.6138 49.927 52.7333 50.0503 51.5658L50.4409 47.8644L52.9702 44.3872C54.8434 41.8119 54.3564 38.2444 51.8615 36.2655C49.7882 34.621 46.8443 34.5583 44.7028 36.1138V36.1138ZM50.8052 37.5972C52.584 39.0081 52.9312 41.5514 51.5957 43.3874L48.9325 47.0488C48.8447 47.1694 48.7902 47.3111 48.7745 47.4595L48.3599 51.3875C48.3283 51.6876 48.0767 51.914 47.7749 51.914C47.492 51.914 47.2488 51.7122 47.1966 51.4341L46.5046 47.7441C46.2873 46.5854 45.2741 45.7445 44.0952 45.7445C42.9165 45.7445 41.9032 46.5853 41.6859 47.7439L40.9939 51.4341C40.9416 51.7122 40.6986 51.914 40.4155 51.914C40.1136 51.914 39.8621 51.6876 39.8305 51.3875L39.4159 47.4595C39.4002 47.3111 39.3458 47.1694 39.258 47.0488L36.5946 43.3874C35.2591 41.5514 35.6062 39.0081 37.3851 37.5972C38.8633 36.4246 40.9622 36.3802 42.4889 37.489C43.4496 38.1866 44.7406 38.1866 45.7015 37.489C47.2284 36.3802 49.3269 36.4247 50.8052 37.5972Z" fill="#CC9A1B"/>
<path d="M42.4061 39.781L42.4039 39.7797C42.0063 39.531 41.4815 39.6519 41.2328 40.0499C40.984 40.448 41.1051 40.9723 41.5031 41.221C41.506 41.223 41.5112 41.2261 41.5142 41.228C42.286 41.6971 43.1901 41.9316 44.0942 41.9316C44.9995 41.9316 45.9047 41.6965 46.677 41.2263C47.0779 40.9822 47.205 40.4592 46.9609 40.0584C46.7167 39.6574 46.1937 39.5305 45.793 39.7746C44.7777 40.3927 43.4131 40.3929 42.4061 39.781V39.781Z" fill="#CC9A1B"/>
</g>
<defs>
<clipPath id="clip0">
<rect width="58" height="58" fill="white" transform="translate(0.5 0.0517578)"/>
</clipPath>
</defs>
</svg>
