<svg width="36" height="37" viewBox="0 0 36 37" fill="none" xmlns="http://www.w3.org/2000/svg">
<g clip-path="url(#clip0)">
<path d="M32.9981 2.99175H27.5982C27.5982 1.6663 26.5237 0.591797 25.1982 0.591797C23.8728 0.591797 22.7983 1.6663 22.7983 2.99175H17.3984C15.7424 2.9937 14.4004 4.33573 14.3984 5.9917V10.1418H15.5984V5.9917C15.5984 4.99759 16.4043 4.19173 17.3984 4.19173H20.7325L20.2825 5.39171H17.3984C17.067 5.39171 16.7984 5.66035 16.7984 5.9917V10.1418H17.9984V6.59168H19.8325L19.2361 8.18045C19.1195 8.49057 19.2763 8.83662 19.5865 8.95324C19.6543 8.97874 19.726 8.99171 19.7983 8.99164H30.5981C30.9295 8.99194 31.1984 8.72359 31.1987 8.39225C31.1988 8.31995 31.1858 8.24818 31.1603 8.18045L30.5639 6.59168H32.3981V24.5913H28.1982C27.8668 24.5913 27.5982 24.86 27.5982 25.1913V29.3913H19.7983V30.5912H32.9981C33.3294 30.5912 33.5981 30.3226 33.5981 29.9912V5.9917C33.5981 5.66035 33.3294 5.39171 32.9981 5.39171H30.1139L29.664 4.19173H32.9981C33.9922 4.19173 34.7981 4.99759 34.7981 5.9917V29.9912C34.7981 30.9853 33.9922 31.7912 32.9981 31.7912H19.7983V32.9912H32.9981C34.6541 32.9892 35.9961 31.6472 35.998 29.9912V5.9917C35.996 4.33573 34.6541 2.9937 32.9981 2.99175ZM28.7982 25.7913H31.5497L28.7982 28.5429V25.7913ZM32.3981 29.3913H29.6465L32.3981 26.6397V29.3913ZM29.7323 7.79166H20.6641L22.0141 4.19173H23.3983C23.7296 4.19173 23.9983 3.92308 23.9983 3.59174V2.99175C23.9983 2.32899 24.5355 1.79177 25.1982 1.79177C25.861 1.79177 26.3982 2.32899 26.3982 2.99175V3.59174C26.3982 3.92308 26.6669 4.19173 26.9982 4.19173H28.3824L29.7323 7.79166Z" fill="white"/>
<path d="M16.0167 11.394C15.263 11.3944 14.5173 11.5476 13.8243 11.844C11.8921 12.6678 9.70752 12.6678 7.77525 11.844C4.94211 10.6315 1.66249 11.9454 0.449992 14.7786C0.153447 15.4715 0.000374993 16.2173 0 16.971C0.00314994 19.3134 0.548615 21.6232 1.59357 23.7196L2.41495 25.3636L3.43494 34.5374C3.57556 35.8044 4.71666 36.7175 5.98361 36.5769C7.02399 36.4614 7.8564 35.6602 8.01165 34.625L9.32622 25.8598C9.4472 25.046 10.2051 24.4843 11.0189 24.6053C11.6675 24.7017 12.1769 25.2111 12.2734 25.8598L13.5879 34.625C13.7769 35.8857 14.9522 36.7545 16.2128 36.5655C17.248 36.4103 18.0492 35.5778 18.1647 34.5374L19.1846 25.3636L20.006 23.7196C21.051 21.6232 21.5964 19.3134 21.5996 16.971C21.5979 13.8893 19.0984 11.3924 16.0167 11.394ZM18.9326 23.1826L18.0627 24.9226C18.0312 24.9861 18.0109 25.0545 18.0027 25.1248L16.9719 34.4048C16.9053 35.0129 16.3583 35.4518 15.7502 35.3852C15.2498 35.3303 14.8493 34.9448 14.7753 34.4468L13.4607 25.6816C13.2394 24.212 11.8687 23.2 10.3991 23.4214C9.23135 23.5972 8.31464 24.5139 8.13885 25.6816L6.82427 34.4468C6.73442 35.0519 6.17111 35.4696 5.56602 35.3798C5.06803 35.3058 4.68254 34.9053 4.62771 34.4048L3.59633 25.1248C3.58801 25.0545 3.56776 24.9861 3.53633 24.9226L2.66635 23.1826C1.70464 21.253 1.20268 19.1269 1.19998 16.971C1.20043 14.552 3.16172 12.5914 5.58065 12.5918C6.17276 12.5919 6.75865 12.7121 7.30306 12.945C9.5369 13.8978 12.0627 13.8978 14.2965 12.945C16.5204 11.9934 19.0947 13.0247 20.0464 15.2485C20.2793 15.7929 20.3995 16.3788 20.3996 16.971C20.3967 19.127 19.8946 21.2531 18.9326 23.1826Z" fill="white"/>
<path d="M4.46736 13.8926C3.17468 14.7522 2.39867 16.2023 2.40039 17.7547V18.5917H3.60037V17.7547C3.5991 16.6036 4.17471 15.5283 5.13335 14.891L4.46736 13.8926Z" fill="white"/>
<path d="M30.5987 14.9922H22.7988V16.1922H30.5987V14.9922Z" fill="white"/>
<path d="M30.5987 18.5918H22.7988V19.7918H30.5987V18.5918Z" fill="white"/>
<path d="M30.5987 22.1914H22.7988V23.3914H30.5987V22.1914Z" fill="white"/>
<path d="M30.5998 11.3906H21V12.5906H30.5998V11.3906Z" fill="white"/>
<path d="M26.3988 25.791H22.7988V26.991H26.3988V25.791Z" fill="white"/>
</g>
<defs>
<clipPath id="clip0">
<rect width="36" height="36" fill="white" transform="translate(0 0.591797)"/>
</clipPath>
</defs>
</svg>
