<svg width="63" height="63" viewBox="0 0 63 63" fill="none" xmlns="http://www.w3.org/2000/svg">
<g clip-path="url(#clip0)">
<path d="M13.5657 32.4624C12.8973 32.4624 12.3547 33.005 12.3547 33.6733C12.3547 34.3417 12.8973 34.8843 13.5657 34.8843C14.2341 34.8843 14.7766 34.3417 14.7766 33.6733C14.7766 33.005 14.2341 32.4624 13.5657 32.4624Z" fill="#DEAC2C"/>
<path d="M59.5945 25.0326C59.4795 24.4518 59.6763 23.615 59.866 22.8056C60.1526 21.5857 60.4766 20.2036 59.9525 18.9373C59.4175 17.6483 58.1971 16.8943 57.1201 16.2292C56.4243 15.7992 55.7043 15.3546 55.3893 14.8835C55.0672 14.4019 54.9286 13.5604 54.7952 12.7468C54.5913 11.5047 54.36 10.0965 53.3822 9.11874C52.4045 8.14101 50.9958 7.91017 49.7537 7.7063C48.9401 7.57291 48.0991 7.43478 47.6189 7.11407C47.1469 6.7981 46.7027 6.07816 46.2727 5.38187C45.6072 4.30479 44.8532 3.08345 43.5637 2.54893C42.2984 2.02435 40.9162 2.34885 39.6968 2.63503C38.8869 2.82518 38.0497 3.02148 37.4693 2.90701C36.8917 2.79254 36.0606 2.29776 35.257 1.81906C33.9633 1.04851 32.6251 0.251465 31.25 0.251465C29.874 0.251465 28.5353 1.04851 27.2407 1.81906C26.437 2.29776 25.6059 2.79254 25.0283 2.90701C24.4484 3.02148 23.6116 2.82518 22.8023 2.63503C21.5824 2.34885 20.2002 2.02435 18.9344 2.54893C17.6454 3.08392 16.8914 4.30479 16.2259 5.38187C15.7964 6.07816 15.3517 6.7981 14.8806 7.1136C14.4005 7.43478 13.5594 7.57291 12.7458 7.7063C11.5032 7.91017 10.095 8.14148 9.11633 9.11922C8.13954 10.096 7.90871 11.5028 7.70483 12.7445C7.57144 13.5585 7.43332 14.4005 7.10977 14.883C6.79427 15.3551 6.0748 15.7992 5.37898 16.2292C4.30238 16.8948 3.08199 17.6483 2.54747 18.9382C2.02336 20.2036 2.34691 21.5853 2.63261 22.8042C2.8223 23.6136 3.0186 24.4508 2.90318 25.0326C2.78918 25.6107 2.2944 26.4418 1.8157 27.2459C1.0461 28.5396 0.25 29.8769 0.25 31.2515C0.25 32.627 1.0461 33.9652 1.81618 35.2594C2.2944 36.0635 2.78918 36.8946 2.90318 37.4741C3.01813 38.054 2.8223 38.8913 2.63261 39.7006C2.34691 40.92 2.02336 42.3017 2.54747 43.5666C3.08246 44.8561 4.30238 45.6096 5.37898 46.2751C6.0748 46.7046 6.79427 47.1493 7.11119 47.6228C7.43332 48.1029 7.57191 48.9449 7.70531 49.7589C7.90871 51.0002 8.13954 52.4069 9.11633 53.3851C10.0936 54.3619 11.5004 54.5928 12.7416 54.7966C13.5561 54.93 14.3981 55.0681 14.8806 55.3917C15.3522 55.7072 15.7968 56.4267 16.2268 57.1225C16.8919 58.1991 17.6459 59.419 18.9353 59.954C20.1997 60.4781 21.5814 60.1541 22.8009 59.8689C23.6102 59.6792 24.4479 59.4833 25.0288 59.5983C25.6064 59.7123 26.4379 60.2071 27.2421 60.6853C28.5363 61.4554 29.8745 62.2515 31.25 62.2515C32.6246 62.2515 33.9623 61.4554 35.2556 60.6858C36.0597 60.2071 36.8913 59.7123 37.4698 59.5983C38.0506 59.4833 38.8879 59.6792 39.6982 59.8689C40.9172 60.1546 42.2989 60.4781 43.5642 59.954C44.8532 59.4195 45.6072 58.1991 46.2722 57.1225C46.7022 56.4267 47.1464 55.7072 47.6194 55.3912C48.101 55.0681 48.9429 54.93 49.757 54.7966C50.9982 54.5928 52.4055 54.3619 53.3822 53.3851C54.36 52.4079 54.5913 50.9997 54.7952 49.7575C54.9286 48.9435 55.0672 48.1024 55.3888 47.6209C55.7043 47.1493 56.4243 46.7046 57.1201 46.2747C58.1971 45.6096 59.4175 44.8556 59.9525 43.5661C60.4766 42.3008 60.1526 40.9186 59.866 39.6992C59.6763 38.8898 59.48 38.0535 59.5945 37.4736C59.7085 36.8956 60.2037 36.0645 60.6819 35.2608C61.453 33.9661 62.25 32.6275 62.25 31.2515C62.25 29.8764 61.453 28.5382 60.6824 27.2445C60.2037 26.4408 59.7089 25.6097 59.5945 25.0326ZM58.6011 34.022C58.0179 35.0021 57.4143 36.0157 57.2185 37.0029V37.0034C57.0023 38.097 57.2596 39.1926 57.5084 40.2526C57.7213 41.1584 57.9408 42.095 57.7156 42.639C57.4805 43.2062 56.6504 43.7184 55.8476 44.2146C54.9314 44.7804 53.9844 45.365 53.3761 46.2747C52.7626 47.1923 52.5809 48.2968 52.4055 49.3649C52.2536 50.2897 52.0966 51.2461 51.6699 51.6723C51.2442 52.098 50.2892 52.2551 49.3653 52.4064C48.2954 52.5819 47.1894 52.7636 46.2718 53.379C45.3626 53.9868 44.778 54.9338 44.2118 55.8496C43.716 56.6518 43.2038 57.4815 42.6366 57.7166C42.0921 57.9422 41.156 57.7227 40.2502 57.5108C39.1902 57.2625 38.0937 57.0056 37.0001 57.2223C36.0119 57.4172 34.9978 58.0208 34.0172 58.6045C33.0522 59.1787 31.9586 59.8296 31.25 59.8296C30.5405 59.8296 29.4464 59.1782 28.4805 58.604C27.4999 58.0203 26.4857 57.4172 25.499 57.2223C24.4106 57.0066 23.324 57.2587 22.2484 57.5108C21.343 57.7227 20.4064 57.9422 19.8625 57.7171C19.2953 57.4815 18.783 56.6518 18.2868 55.8496C17.7211 54.9338 17.1364 53.9868 16.2282 53.3795C15.3096 52.7636 14.2037 52.5819 13.1337 52.4064C12.2104 52.2551 11.2549 52.0985 10.8296 51.6728C10.4034 51.2466 10.2469 50.2911 10.095 49.3668C9.91953 48.2973 9.73836 47.1909 9.12296 46.2742C8.51465 45.3655 7.56813 44.7804 6.65236 44.2146C5.84964 43.7189 5.01996 43.2062 4.78487 42.6395C4.55923 42.095 4.77872 41.1584 4.99063 40.2531C5.23897 39.1926 5.49582 38.0966 5.27917 37.0039C5.08429 36.0157 4.48119 35.0016 3.89748 34.021C3.32323 33.0556 2.67188 31.961 2.67188 31.2515C2.67188 30.5429 3.32275 29.4492 3.897 28.4843C4.48071 27.5037 5.08429 26.4895 5.2787 25.5023C5.49582 24.4082 5.23897 23.3118 4.99063 22.2517C4.77872 21.3459 4.55923 20.4098 4.78439 19.8653C5.01996 19.2977 5.84964 18.7854 6.65189 18.2897C7.56766 17.7235 8.51465 17.1388 9.12201 16.2306C9.73788 15.312 9.91953 14.2061 10.095 13.1361C10.2464 12.2123 10.403 11.2573 10.8287 10.832C11.2558 10.4054 12.2127 10.2483 13.1384 10.0965C14.2065 9.92099 15.3106 9.73982 16.2278 9.12631C17.1364 8.51753 17.7211 7.57054 18.2868 6.65477C18.7825 5.85158 19.2953 5.02142 19.862 4.78633C20.4064 4.5607 21.343 4.78018 22.2489 4.99304C23.3084 5.24185 24.4044 5.49918 25.4985 5.283C26.4857 5.08765 27.4994 4.48407 28.4795 3.90036C29.4454 3.32516 30.5405 2.67334 31.25 2.67334C31.9586 2.67334 33.0527 3.32516 34.0177 3.89989C34.9978 4.4836 36.0114 5.08717 36.9996 5.283C38.0937 5.49918 39.1897 5.24185 40.2497 4.99304C41.1556 4.78065 42.0921 4.5607 42.6361 4.78586C43.2033 5.02142 43.716 5.85158 44.2118 6.65477C44.7775 7.57054 45.3626 8.51753 46.2722 9.12726C47.1894 9.73982 48.2935 9.92099 49.3616 10.096C50.2868 10.2478 51.2432 10.4049 51.6699 10.8316C52.0961 11.2578 52.2536 12.2142 52.4055 13.139C52.5809 14.2075 52.7621 15.312 53.3761 16.2297C53.9844 17.1388 54.9314 17.7235 55.8476 18.2897C56.6504 18.7854 57.48 19.2977 57.7151 19.8644C57.9408 20.4093 57.7208 21.3459 57.5084 22.2517C57.2596 23.3118 57.0023 24.4078 57.2185 25.5019C57.4143 26.49 58.0179 27.5037 58.6016 28.4838C59.1763 29.4488 59.8281 30.5429 59.8281 31.2515C59.8281 31.961 59.1763 33.056 58.6011 34.022Z" fill="#DEAC2C"/>
<path d="M31.2454 7.51709C18.5878 7.51709 7.51099 18.5522 7.51099 31.2515C7.51099 43.9091 18.5461 54.9858 31.2454 54.9858C43.903 54.9858 54.9797 43.9507 54.9797 31.2515C54.9797 18.5939 43.9446 7.51709 31.2454 7.51709ZM31.2454 52.564C19.8919 52.564 9.93286 42.6049 9.93286 31.2515C9.93286 19.898 19.8919 9.93896 31.2454 9.93896C42.5988 9.93896 52.5579 19.898 52.5579 31.2515C52.5579 42.6049 42.5988 52.564 31.2454 52.564Z" fill="#DEAC2C"/>
<path d="M31.2452 14.7827C31.914 14.7827 32.4561 14.2406 32.4561 13.5718C32.4561 12.9029 31.914 12.3608 31.2452 12.3608C22.1348 12.3608 13.8067 19.8218 12.5386 28.6602C12.4435 29.322 12.9033 29.9355 13.5655 30.0306C13.6237 30.0391 13.6814 30.0429 13.7391 30.0429C14.3313 30.0429 14.8493 29.6077 14.9359 29.0037C16.0418 21.2953 23.5103 14.7827 31.2452 14.7827Z" fill="#DEAC2C"/>
<path d="M42.3127 28.3939L35.399 27.3897L32.3083 21.125C32.1044 20.7115 31.6834 20.45 31.2222 20.45C30.7615 20.45 30.3405 20.7115 30.1366 21.125L27.0445 27.3897L20.1303 28.3939C19.6743 28.4601 19.2954 28.7799 19.153 29.2184C19.0106 29.6564 19.1294 30.1379 19.4595 30.4596L24.4622 35.336L23.2816 42.2227C23.2035 42.6768 23.3904 43.1361 23.7636 43.4067C24.1363 43.6777 24.6306 43.7132 25.0388 43.4989L31.2222 40.2473L37.4046 43.4989C37.8086 43.7108 38.3034 43.6805 38.6804 43.4067C39.0531 43.1361 39.2399 42.6768 39.1619 42.2222L37.9812 35.336L42.9844 30.4596C43.3146 30.1374 43.4333 29.6564 43.2909 29.2179C43.1481 28.7799 42.7692 28.4601 42.3127 28.3939ZM35.8346 34.046C35.5494 34.3242 35.4189 34.7253 35.4865 35.1179L36.3602 40.2133L31.786 37.8075C31.4332 37.6221 31.0117 37.6221 30.6588 37.8075L26.0833 40.2133L26.957 35.1179C27.0241 34.7253 26.894 34.3246 26.6088 34.046L22.9069 30.4383L28.0227 29.6952C28.4172 29.6379 28.7582 29.3901 28.9347 29.0325L31.2222 24.3973L33.5088 29.0325C33.6852 29.3901 34.0263 29.6379 34.4208 29.6952L39.5365 30.4383L35.8346 34.046Z" fill="#DEAC2C"/>
</g>
<defs>
<clipPath id="clip0">
<rect width="62" height="62" fill="white" transform="translate(0.25 0.251465)"/>
</clipPath>
</defs>
</svg>
