<svg width="19" height="15" viewBox="0 0 19 15" fill="none" xmlns="http://www.w3.org/2000/svg">
<path fill-rule="evenodd" clip-rule="evenodd" d="M9.62988 2.45117C8.30417 2.45117 6.43478 2.51076 4.01464 2.63139C3.13938 2.67502 2.43133 3.35936 2.35792 4.23264C2.24692 5.55313 2.19238 6.69715 2.19238 7.66783C2.19238 8.65038 2.24826 9.81047 2.36199 11.1513C2.43515 12.0137 3.12781 12.6931 3.99153 12.7496C6.04946 12.8842 7.92857 12.9512 9.62988 12.9512C11.3314 12.9512 13.2112 12.8842 15.2703 12.7496C16.1344 12.6931 16.8271 12.0132 16.8999 11.1504C17.0122 9.82007 17.0674 8.66017 17.0674 7.66783C17.0674 6.68758 17.0135 5.5437 16.904 4.23347C16.831 3.35985 16.1228 2.67507 15.2471 2.63143C12.8258 2.5108 10.9557 2.45117 9.62988 2.45117ZM3.92752 0.883557C6.35769 0.762426 8.26086 0.701172 9.62988 0.701172C10.999 0.701172 12.9029 0.76247 15.3342 0.8836C17.0854 0.970865 18.5019 2.34041 18.6479 4.08768C18.7603 5.43219 18.8174 6.62649 18.8174 7.66783C18.8174 8.72195 18.7589 9.93277 18.6437 11.2976C18.4981 13.0231 17.1125 14.3828 15.3845 14.4958C13.2948 14.6325 11.3763 14.7012 9.62988 14.7012C7.88369 14.7012 5.96584 14.6325 3.87732 14.4959C2.14989 14.3829 0.764569 13.0241 0.618256 11.2992C0.501665 9.9247 0.442383 8.71319 0.442383 7.66783C0.442383 6.63503 0.500254 5.44009 0.61407 4.08606C0.760889 2.3395 2.17699 0.970824 3.92752 0.883557Z" fill="url(#paint0_linear)" fill-opacity="0.65"/>
<path fill-rule="evenodd" clip-rule="evenodd" d="M7.44335 5.78018C7.44335 4.80402 8.55148 4.17853 9.3908 4.74285L12.2771 6.68361C13.0033 7.17182 13.0177 8.26909 12.269 8.76389L9.38273 10.6715C8.57182 11.2075 7.44335 10.6354 7.44335 9.62882V5.78018ZM9.19335 6.71891L10.6784 7.71749L9.19335 8.699V6.71891Z" fill="url(#paint1_linear)" fill-opacity="0.65"/>
<defs>
<linearGradient id="paint0_linear" x1="9.62988" y1="0.701172" x2="9.62988" y2="14.7012" gradientUnits="userSpaceOnUse">
<stop stop-color="#CE9D20"/>
<stop offset="0.583333" stop-color="#D6A526"/>
<stop offset="1" stop-color="#DFAD2D"/>
</linearGradient>
<linearGradient id="paint1_linear" x1="9.62988" y1="0.701172" x2="9.62988" y2="14.7012" gradientUnits="userSpaceOnUse">
<stop stop-color="#CE9D20"/>
<stop offset="0.583333" stop-color="#D6A526"/>
<stop offset="1" stop-color="#DFAD2D"/>
</linearGradient>
</defs>
</svg>
