<svg width="17" height="13" viewBox="0 0 17 13" fill="none" xmlns="http://www.w3.org/2000/svg">
<path d="M15.9436 0.212891C16.0523 0.215082 16.1554 0.234952 16.2584 0.283929C16.3647 0.334725 16.4581 0.411261 16.5288 0.505474C16.5751 0.574518 16.5643 0.553799 16.5288 0.505474C16.6235 0.631798 16.6751 0.78648 16.6751 0.944348C16.6748 0.905387 16.6732 0.888476 16.6751 0.944348V11.9162C16.6751 12.3202 16.3476 12.6477 15.9436 12.6477H1.31447C0.910493 12.6477 0.583008 12.3202 0.583008 11.9162V0.944348C0.583008 0.813397 0.618532 0.68337 0.685356 0.571063C0.821531 0.341612 1.0574 0.218073 1.31447 0.212891H15.9436ZM15.2122 2.40726L9.06792 7.01545C8.83385 7.191 8.52079 7.20855 8.27092 7.06811L8.19017 7.01545L2.04592 2.40726V11.1848H15.2122V2.40726ZM3.50884 1.67581L8.62904 5.51596L13.7492 1.67581H3.50884Z" fill="#E2C370"/>
</svg>
