<svg width="16" height="18" viewBox="0 0 16 18" fill="none" xmlns="http://www.w3.org/2000/svg">
<path fill-rule="evenodd" clip-rule="evenodd" d="M7.62924 2.04675C6.37699 2.04675 5.36185 3.06189 5.36185 4.31413C5.36185 5.56637 6.37699 6.58151 7.62924 6.58151C8.88148 6.58151 9.89662 5.56637 9.89662 4.31413C9.89662 3.06189 8.88148 2.04675 7.62924 2.04675ZM3.85026 4.31413C3.85026 2.22706 5.54217 0.535156 7.62924 0.535156C9.7163 0.535156 11.4082 2.22706 11.4082 4.31413C11.4082 6.4012 9.71631 8.0931 7.62924 8.0931C5.54217 8.0931 3.85026 6.4012 3.85026 4.31413ZM0.0712891 16.4068C0.0712891 12.2327 3.45511 8.8489 7.62924 8.8489C11.8034 8.8489 15.1872 12.2327 15.1872 16.4068C15.1872 16.8243 14.8488 17.1626 14.4314 17.1626C14.014 17.1626 13.6756 16.8243 13.6756 16.4068C13.6756 13.0675 10.9685 10.3605 7.62924 10.3605C4.28993 10.3605 1.58288 13.0675 1.58288 16.4068C1.58288 16.8243 1.2445 17.1626 0.827084 17.1626C0.40967 17.1626 0.0712891 16.8243 0.0712891 16.4068Z" fill="url(#paint0_linear)" fill-opacity="0.65"/>
<defs>
<linearGradient id="paint0_linear" x1="7.62924" y1="0.535156" x2="7.62924" y2="17.1626" gradientUnits="userSpaceOnUse">
<stop stop-color="#CE9D20"/>
<stop offset="0.583333" stop-color="#D6A526"/>
<stop offset="1" stop-color="#DFAD2D"/>
</linearGradient>
</defs>
</svg>
