<svg width="19" height="22" viewBox="0 0 19 22" fill="none" xmlns="http://www.w3.org/2000/svg">
<path fill-rule="evenodd" clip-rule="evenodd" d="M1.07244 4.46095C0.963937 3.51925 1.63937 2.6679 2.58106 2.5594L14.5167 1.18415C15.4584 1.07564 16.3097 1.75108 16.4182 2.69277L18.1864 18.0385C18.2949 18.9803 17.6195 19.8316 16.6778 19.9401L4.74217 21.3153C3.80048 21.4239 2.94913 20.7484 2.84062 19.8067L1.07244 4.46095ZM14.7131 2.88923L2.77753 4.26448L3.85808 13.6425L15.7937 12.2672L14.7131 2.88923ZM15.9902 13.9723L4.05455 15.3475L4.54571 19.6103L16.4813 18.235L15.9902 13.9723ZM8.56284 16.9877C8.50859 16.5169 8.84631 16.0912 9.31715 16.037L11.0222 15.8405C11.4931 15.7863 11.9188 16.124 11.973 16.5948C12.0273 17.0657 11.6896 17.4913 11.2187 17.5456L9.51362 17.7421C9.04277 17.7963 8.6171 17.4586 8.56284 16.9877Z" fill="url(#paint0_linear)" fill-opacity="0.65"/>
<defs>
<linearGradient id="paint0_linear" x1="8.54887" y1="1.87177" x2="10.71" y2="20.6277" gradientUnits="userSpaceOnUse">
<stop stop-color="#CE9D20"/>
<stop offset="0.583333" stop-color="#D6A526"/>
<stop offset="1" stop-color="#DFAD2D"/>
</linearGradient>
</defs>
</svg>
