<svg width="60" height="48" viewBox="0 0 60 48" fill="none" xmlns="http://www.w3.org/2000/svg">
<path d="M59.5715 28.4115C59.326 28.2406 53.4725 24.2546 45.375 26.708C44.5019 26.971 43.5135 26.846 42.2664 26.314C41.7584 26.0979 41.1719 26.331 40.9529 26.8405C40.7364 27.3485 40.9714 27.9354 41.4794 28.153C43.1598 28.8704 44.6219 29.026 45.9549 28.622C51.9294 26.8135 56.6034 29.009 57.9999 29.794V45.4995H1.99995V29.7946C3.39946 29.0081 8.0729 26.8145 14.0449 28.6226C15.5254 29.0711 17.1189 28.843 19.0643 27.9061C19.5614 27.6656 19.7704 27.0681 19.5303 26.5706C19.2918 26.0732 18.6964 25.8656 18.1953 26.1041C16.7323 26.8106 15.5963 27.0041 14.6247 26.708C6.52265 24.2556 0.673242 28.241 0.428174 28.4115C0.159961 28.598 0 28.905 0 29.2321V46.4995C0 47.0515 0.44751 47.4996 1.00005 47.4996H59.0001C59.5526 47.4996 60.0001 47.0516 60.0001 46.4995V29.232C60 28.9046 59.84 28.5986 59.5715 28.4115Z" fill="#CC9A1B"/>
<path d="M10 32.5C7.79399 32.5 6 34.2944 6 36.5C6 38.7055 7.79399 40.5001 10 40.5001C12.2061 40.5001 14.0001 38.7057 14.0001 36.5C14 34.2944 12.206 32.5 10 32.5ZM10 38.5C8.89761 38.5 8.0001 37.6029 8.0001 36.5C8.0001 35.397 8.89761 34.5001 10 34.5001C11.1025 34.5001 12 35.3972 12 36.5C12 37.6029 11.1025 38.5 10 38.5Z" fill="#CC9A1B"/>
<path d="M28.4999 38.5C26.5705 38.5 25 40.0705 25 42C25 43.9294 26.5705 45.4999 28.4999 45.4999C30.4294 45.4999 31.9999 43.9294 31.9999 42C31.9999 40.0705 30.4294 38.5 28.4999 38.5ZM28.4999 43.5C27.6729 43.5 27 42.827 27 42C27 41.1729 27.6729 40.5 28.4999 40.5C29.327 40.5 29.9999 41.1729 29.9999 42C29.9999 42.827 29.327 43.5 28.4999 43.5Z" fill="#CC9A1B"/>
<path d="M50.5 33.5C48.0186 33.5 46 35.5186 46 38C46 40.4814 48.0186 42.5 50.5 42.5C52.9814 42.5 55 40.4814 55 38C55 35.5186 52.9814 33.5 50.5 33.5ZM50.5 40.5C49.121 40.5 47.9999 39.3786 47.9999 38C47.9999 36.6214 49.121 35.4999 50.5 35.4999C51.879 35.4999 53 36.6214 53 38C52.9999 39.3786 51.879 40.5 50.5 40.5Z" fill="#CC9A1B"/>
<path d="M36.2859 0.5C35.0428 0.5 33.9043 1.03906 32.804 1.56055C31.8615 2.00703 30.972 2.42861 30.179 2.42861C29.3859 2.42861 28.4954 2.00718 27.5529 1.56055C26.4524 1.03906 25.3145 0.5 24.0714 0.5C19.3945 0.5 16 5.5165 16 12.4285C16 16.2966 18.2255 38.5 24.0714 38.5C26.0419 38.5 26.666 35.3814 27.6099 30.6614C28.0464 28.479 29.2054 22.682 30.1744 22.6779C31.5634 22.6824 32.533 28.1908 33.0544 31.15C33.8339 35.576 34.3495 38.5 36.2859 38.5C42.1319 38.5 44.3573 16.2964 44.3573 12.4285C44.3575 5.5165 40.963 0.5 36.2859 0.5ZM36.4299 36.4851C35.9074 35.8156 35.3789 32.8171 35.0244 30.8026C34.1484 25.8307 33.2434 20.6882 30.1749 20.6776C27.5654 20.6891 26.6778 25.1286 25.6494 30.2687C25.2039 32.4947 24.5399 35.8156 23.9414 36.4881C21.2354 35.9946 17.9998 20.2591 17.9998 12.4287C17.9998 6.76865 20.6103 2.5001 24.0713 2.5001C24.8644 2.5001 25.7548 2.92212 26.6967 3.36816C27.7973 3.88965 28.9352 4.42871 30.1782 4.42871C31.4203 4.42871 32.5592 3.88965 33.6597 3.36816C34.6022 2.92212 35.4927 2.5001 36.2857 2.5001C39.7467 2.5001 42.3572 6.76865 42.3572 12.4287C42.3575 20.2455 39.134 35.9396 36.4299 36.4851Z" fill="#CC9A1B"/>
<path d="M25.1777 3.5C21.8692 3.5 19.1777 6.1915 19.1777 9.5C19.1777 10.052 19.6252 10.5 20.1778 10.5C20.7308 10.5 21.1778 10.0521 21.1778 9.5C21.1778 7.29453 22.9718 5.49995 25.1779 5.49995C25.7304 5.49995 26.1779 5.052 26.1779 4.4999C26.1779 3.9478 25.7303 3.5 25.1777 3.5Z" fill="#CC9A1B"/>
</svg>
