<svg width="55" height="55" viewBox="0 0 55 55" fill="none" xmlns="http://www.w3.org/2000/svg">
<g clip-path="url(#clip0)">
<path fill-rule="evenodd" clip-rule="evenodd" d="M51.455 13.6089C51.8992 13.6089 52.3382 13.7039 52.7426 13.8874C53.1471 14.0709 53.5077 14.3387 53.8003 14.6729C54.0928 15.0071 54.3106 15.3999 54.439 15.8251C54.5674 16.2503 54.6035 16.698 54.5448 17.1383L52.6582 31.2323C52.4834 32.5307 51.8616 33.7277 50.8998 34.6174L42.2295 42.6229C41.8624 42.9604 41.6523 43.4413 41.6523 43.9391V47.8406C41.9881 48.0354 42.2669 48.3148 42.4609 48.6511C42.6549 48.9873 42.7572 49.3686 42.7577 49.7568V51.4949C42.7577 52.7184 41.7629 53.714 40.5394 53.714H33.4671C32.2437 53.714 31.2481 52.7184 31.2481 51.4949V49.7568C31.2481 48.6903 32.0049 47.7976 33.009 47.5858L33.2697 35.4181C33.2823 34.7859 33.435 34.1644 33.7167 33.5983C33.9985 33.0322 34.4022 32.5356 34.899 32.1444L36.6464 30.7623C37.2205 30.3098 37.8815 29.9803 38.5884 29.7941C39.2953 29.6078 40.0329 29.5689 40.7554 29.6798C41.8686 29.8535 42.8982 30.3751 43.6968 31.1698L45.3294 29.7743L45.3581 29.7498L46.4575 28.8107C46.602 28.6875 46.696 28.5154 46.7216 28.3272L48.3669 16.3021C48.4715 15.5567 48.8412 14.8739 49.4085 14.3791C49.9757 13.8842 50.7023 13.6105 51.455 13.608V13.6089ZM3.68866 13.6089C4.44126 13.6113 5.16777 13.8849 5.73498 14.3796C6.30218 14.8743 6.67205 15.5568 6.77678 16.3021L8.42209 28.3264C8.44741 28.5154 8.54191 28.6867 8.68619 28.8107L11.4469 31.1698C12.2456 30.3752 13.2751 29.8536 14.3883 29.6798C15.1108 29.569 15.8484 29.608 16.5552 29.7942C17.2621 29.9804 17.9231 30.3099 18.4973 30.7623L20.2439 32.1435C20.7408 32.5347 21.1448 33.0312 21.4267 33.5973C21.7085 34.1634 21.8613 34.785 21.874 35.4173L22.1347 47.5858C22.6323 47.6915 23.0785 47.9647 23.3989 48.3599C23.7192 48.755 23.8943 49.2481 23.8948 49.7568V51.4949C23.8948 52.7184 22.9 53.714 21.6766 53.714H14.6043C13.3808 53.714 12.3852 52.7184 12.3852 51.4949V49.7568C12.3852 48.9384 12.8307 48.2254 13.4905 47.8406V43.94C13.4905 43.4413 13.2804 42.9612 12.9142 42.6229L4.24384 34.6174C3.28186 33.7275 2.66008 32.5302 2.48547 31.2314L0.599688 17.1383C0.540917 16.6981 0.576863 16.2504 0.705119 15.8253C0.833375 15.4001 1.05098 15.0072 1.34337 14.673C1.63576 14.3387 1.99618 14.0708 2.4005 13.8871C2.80483 13.7035 3.24373 13.6083 3.68781 13.608L3.68866 13.6089ZM21.6774 49.6471H14.6034C14.589 49.6471 14.5747 49.6499 14.5614 49.6555C14.5481 49.661 14.536 49.669 14.5258 49.6792C14.5157 49.6894 14.5076 49.7015 14.5021 49.7148C14.4966 49.7281 14.4937 49.7424 14.4937 49.7568V51.4949C14.4937 51.5548 14.5427 51.6046 14.6034 51.6046H21.6757C21.7048 51.6046 21.7327 51.593 21.7533 51.5725C21.7738 51.5519 21.7854 51.524 21.7854 51.4949V49.7568C21.7854 49.7424 21.7826 49.7281 21.7771 49.7148C21.7715 49.7015 21.7635 49.6894 21.7533 49.6792C21.7431 49.669 21.731 49.661 21.7177 49.6555C21.7044 49.6499 21.6901 49.6471 21.6757 49.6471H21.6774ZM40.5394 49.6471H33.4671C33.4527 49.6471 33.4385 49.6499 33.4252 49.6555C33.4118 49.661 33.3997 49.669 33.3896 49.6792C33.3794 49.6894 33.3713 49.7015 33.3658 49.7148C33.3603 49.7281 33.3574 49.7424 33.3574 49.7568V51.4949C33.3574 51.5557 33.4064 51.6046 33.4671 51.6046H40.5394C40.5685 51.6046 40.5964 51.593 40.617 51.5725C40.6376 51.5519 40.6491 51.524 40.6491 51.4949V49.7568C40.6491 49.7424 40.6463 49.7281 40.6408 49.7148C40.6353 49.7015 40.6272 49.6894 40.617 49.6792C40.6068 49.669 40.5947 49.661 40.5814 49.6555C40.5681 49.6499 40.5538 49.6471 40.5394 49.6471ZM51.455 15.7182C50.9538 15.7182 50.5252 16.092 50.4569 16.589L48.8116 28.6133C48.7158 29.3141 48.3656 29.9553 47.8278 30.4147L46.6684 31.4052L42.1333 35.2907C42.0282 35.3812 41.9063 35.45 41.7746 35.4932C41.6429 35.5365 41.5039 35.5532 41.3657 35.5426C41.2274 35.5319 41.0927 35.494 40.9691 35.4311C40.8456 35.3682 40.7357 35.2815 40.6457 35.1759C40.4639 34.9635 40.3738 34.6876 40.3954 34.4088C40.4169 34.1301 40.5482 33.8712 40.7605 33.6893L42.0894 32.5502C41.6266 32.1312 41.0505 31.8579 40.4331 31.7647C39.9972 31.6954 39.5517 31.7177 39.1249 31.8301C38.6981 31.9426 38.2994 32.1427 37.9542 32.4177L36.2068 33.7989C35.9541 33.9978 35.7487 34.2503 35.6054 34.5382C35.4621 34.8261 35.3845 35.1422 35.3782 35.4637L35.12 47.5377H39.543V43.94C39.543 42.8541 40.0003 41.8095 40.7976 41.0738L49.468 33.0666C50.0693 32.5111 50.4581 31.7634 50.5674 30.9521L52.4532 16.8581C52.4731 16.7161 52.462 16.5714 52.4207 16.434C52.3793 16.2967 52.3086 16.1699 52.2136 16.0625C52.1196 15.9536 52.0031 15.8665 51.8721 15.8071C51.7411 15.7476 51.5988 15.7173 51.455 15.7182ZM3.68866 15.7182C3.39334 15.7182 3.12419 15.8397 2.93013 16.0616C2.73606 16.2835 2.65169 16.5662 2.6905 16.8581L4.57628 30.9521C4.68428 31.7621 5.07409 32.5131 5.67569 33.0674L14.3452 41.0729C14.7404 41.4387 15.0559 41.8822 15.2718 42.3755C15.4877 42.8688 15.5994 43.4015 15.5999 43.94V47.5377H20.0237L19.7646 35.4637C19.7584 35.1422 19.6809 34.8262 19.5377 34.5383C19.3946 34.2505 19.1894 33.9979 18.9369 33.7989L17.1895 32.4177C16.8444 32.1426 16.4457 31.9423 16.0189 31.8297C15.5921 31.7172 15.1465 31.6947 14.7106 31.7638C14.0929 31.8573 13.5165 32.1308 13.0534 32.5502L14.3832 33.6893C14.5928 33.8721 14.7217 34.1303 14.7418 34.4077C14.7619 34.6852 14.6716 34.9593 14.4906 35.1705C14.3096 35.3816 14.0525 35.5127 13.7753 35.5353C13.498 35.5578 13.2231 35.4699 13.0104 35.2907L8.43981 31.3749L7.31594 30.4138C6.77799 29.9548 6.42779 29.3139 6.33213 28.6133L4.68681 16.589C4.65328 16.3479 4.53386 16.1269 4.35048 15.9668C4.16711 15.8067 3.9321 15.7181 3.68866 15.7174V15.7182ZM30.2702 9.23401C31.9138 8.68894 33.7768 8.06963 35.9005 9.77063C37.4884 11.0413 38.117 13.365 38.3507 14.6374C38.8173 17.1771 38.6208 20.1479 37.7964 23.0057C36.9299 26.0078 35.4423 28.7348 33.4933 30.8905C33.2468 31.1646 32.9349 31.3718 32.5867 31.4928C32.2385 31.6138 31.8654 31.6446 31.502 31.5824C31.1362 31.5218 30.7916 31.3696 30.5005 31.1399C30.2094 30.9102 29.9813 30.6104 29.8373 30.2687C29.4704 29.4183 29.1438 28.5511 28.8586 27.6699C28.7728 27.3961 28.6016 27.157 28.37 26.9876C28.1385 26.8181 27.8588 26.7273 27.5718 26.7283C26.9804 26.7283 26.4632 27.1063 26.2851 27.6699C25.9998 28.5511 25.6732 29.4183 25.3064 30.2687C25.1623 30.6101 24.9342 30.9096 24.6433 31.1391C24.3524 31.3687 24.0081 31.5209 23.6425 31.5816C23.2789 31.6438 22.9055 31.613 22.557 31.492C22.2085 31.3711 21.8964 31.1638 21.6496 30.8897C19.7005 28.7348 18.2138 26.0078 17.3481 23.0057C16.5238 20.1479 16.3272 17.1754 16.7929 14.6374C17.0267 13.365 17.6553 11.0413 19.2432 9.77063C21.3669 8.07048 23.2299 8.68894 24.8735 9.23401C25.7215 9.51582 26.5982 9.80691 27.5718 9.82716C28.5455 9.80691 29.4222 9.51498 30.2702 9.23401ZM22.1921 10.7696C21.6403 10.7696 21.1416 10.9519 20.5611 11.4176C19.8034 12.0234 19.1698 13.3701 18.8677 15.0179C18.0003 19.7395 19.7874 25.6854 23.2147 29.4756C23.2257 29.4874 23.2451 29.5093 23.2923 29.5009C23.3086 29.4992 23.3241 29.493 23.337 29.483C23.35 29.473 23.3599 29.4596 23.3657 29.4444C23.7454 28.55 24.0509 27.74 24.2736 27.0338C24.4938 26.3321 24.9328 25.7193 25.5262 25.285C26.1196 24.8506 26.8365 24.6176 27.5718 24.6198C28.3073 24.6176 29.0242 24.8508 29.6177 25.2853C30.2111 25.7198 30.65 26.3328 30.8701 27.0346C31.0928 27.74 31.3983 28.5508 31.7779 29.4444C31.7836 29.4599 31.7934 29.4736 31.8064 29.4838C31.8194 29.4941 31.8349 29.5006 31.8513 29.5026C31.8977 29.5102 31.9188 29.4882 31.929 29.4773C35.3554 25.6863 37.1433 19.7404 36.276 15.0188C35.9731 13.3709 35.3394 12.0243 34.5826 11.4185C33.4055 10.476 32.5685 10.6954 30.935 11.2371C29.9774 11.5552 28.8932 11.9146 27.5904 11.9374H27.5533C26.2505 11.9146 25.1655 11.5552 24.2087 11.2371C23.3818 10.9629 22.7583 10.7713 22.1921 10.7713V10.7696ZM32.7558 21.0575C32.9951 21.0095 33.2437 21.0463 33.4588 21.1614C33.674 21.2766 33.8425 21.4629 33.9354 21.6886C33.9882 21.8168 34.0155 21.9541 34.0156 22.0928C34.0149 22.2661 33.9718 22.4366 33.89 22.5894C33.8082 22.7422 33.6903 22.8727 33.5464 22.9694C33.3728 23.0845 33.1692 23.1464 32.9609 23.1474C32.7872 23.148 32.6162 23.1054 32.4631 23.0233C32.3101 22.9413 32.1799 22.8224 32.0842 22.6775C32.0075 22.5625 31.9544 22.4335 31.9281 22.2978C31.8791 22.0585 31.9153 21.8097 32.0304 21.5943C32.1455 21.3789 32.3323 21.2105 32.5584 21.1182C32.6221 21.0917 32.6882 21.0713 32.7558 21.0575ZM32.0058 12.6689C32.2486 12.5303 32.5365 12.4937 32.8063 12.5673C33.076 12.6408 33.3055 12.8185 33.4443 13.0613C33.5118 13.1794 35.0728 15.957 34.5539 18.9C34.5305 19.037 34.4803 19.1681 34.4061 19.2857C34.3319 19.4032 34.2352 19.5049 34.1216 19.585C34.008 19.6651 33.8796 19.7219 33.744 19.7521C33.6083 19.7824 33.468 19.7856 33.3311 19.7615C33.1942 19.7373 33.0634 19.6864 32.9463 19.6115C32.8291 19.5367 32.728 19.4394 32.6486 19.3253C32.5691 19.2112 32.5131 19.0826 32.4835 18.9467C32.454 18.8109 32.4517 18.6706 32.4766 18.5338C32.8588 16.3679 31.6252 14.1294 31.6126 14.1075C31.474 13.8646 31.4375 13.5766 31.5113 13.3068C31.585 13.037 31.7629 12.8076 32.0058 12.6689ZM10.0067 2.53885C10.1049 2.44116 10.2214 2.36378 10.3495 2.31112C10.4776 2.25846 10.6149 2.23156 10.7534 2.23195C10.8919 2.23234 11.029 2.26002 11.1569 2.3134C11.2847 2.36678 11.4007 2.44483 11.4984 2.54307L16.2124 7.28241C16.4097 7.48079 16.5201 7.74941 16.5193 8.02916C16.5185 8.30892 16.4066 8.57691 16.2082 8.77416C16.0098 8.97142 15.7412 9.0818 15.4615 9.08101C15.1817 9.08022 14.9137 8.96832 14.7165 8.76995L10.0024 4.0306C9.90475 3.93238 9.82736 3.81588 9.7747 3.68776C9.72205 3.55963 9.69514 3.42238 9.69554 3.28385C9.69593 3.14533 9.72361 3.00823 9.77699 2.8804C9.83037 2.75258 9.90841 2.63651 10.0067 2.53885ZM43.6453 2.54307C43.8425 2.34469 44.1105 2.2328 44.3903 2.23201C44.67 2.23122 44.9387 2.34159 45.137 2.53885C45.3354 2.73611 45.4473 3.0041 45.4481 3.28385C45.4489 3.56361 45.3385 3.83222 45.1413 4.0306L40.4272 8.76995C40.3297 8.86849 40.2137 8.9468 40.0859 9.00037C39.958 9.05395 39.8208 9.08173 39.6822 9.08212C39.5436 9.08251 39.4063 9.05551 39.2781 9.00266C39.15 8.94981 39.0335 8.87216 38.9355 8.77416C38.8372 8.6765 38.7592 8.56044 38.7058 8.43261C38.6524 8.30478 38.6247 8.16769 38.6244 8.02916C38.624 7.89064 38.6509 7.75339 38.7035 7.62526C38.7562 7.49713 38.8336 7.38063 38.9313 7.28241L43.6453 2.54307ZM31.4987 1.21923C31.5759 0.950248 31.7568 0.722954 32.0015 0.587347C32.2463 0.451741 32.535 0.41893 32.8039 0.496133C33.0729 0.573336 33.3002 0.754228 33.4358 0.999016C33.5714 1.2438 33.6042 1.53244 33.527 1.80141L32.5061 5.35613C32.4708 5.49246 32.4085 5.62034 32.323 5.73221C32.2374 5.84409 32.1304 5.93771 32.0081 6.00753C31.8858 6.07736 31.7507 6.12199 31.6109 6.13878C31.4711 6.15557 31.3293 6.14419 31.1939 6.10531C31.0586 6.06643 30.9324 6.00083 30.8228 5.91239C30.7132 5.82394 30.6224 5.71445 30.5558 5.59036C30.4892 5.46627 30.4481 5.3301 30.435 5.18988C30.4219 5.04966 30.437 4.90824 30.4794 4.77395L31.4987 1.21923ZM22.3406 0.496133C22.4738 0.457845 22.6132 0.446179 22.7509 0.461802C22.8886 0.477425 23.0219 0.520031 23.1431 0.587185C23.2643 0.654338 23.3711 0.744723 23.4574 0.853172C23.5436 0.961622 23.6077 1.08601 23.6459 1.21923L24.6651 4.77395C24.7423 5.04281 24.7096 5.33134 24.574 5.57605C24.4385 5.82075 24.2113 6.0016 23.9425 6.0788C23.6736 6.15601 23.3851 6.12324 23.1404 5.98771C22.8956 5.85219 22.7148 5.625 22.6376 5.35613L21.6175 1.80057C21.5407 1.53182 21.5737 1.24356 21.7093 0.999135C21.8449 0.754707 22.0719 0.574094 22.3406 0.496977V0.496133Z" fill="#CC9A1B"/>
</g>
<defs>
<clipPath id="clip0">
<rect width="54" height="54" fill="white" transform="translate(0.572266 0.455078)"/>
</clipPath>
</defs>
</svg>
