<svg width="21" height="21" viewBox="0 0 21 21" fill="none" xmlns="http://www.w3.org/2000/svg">
<path d="M11.381 5.25584C11.381 4.62825 10.8722 4.11947 10.2446 4.11947C9.61704 4.11947 9.10827 4.62825 9.10827 5.25584C9.10827 5.88343 9.61704 6.3922 10.2446 6.3922C10.8722 6.3922 11.381 5.88343 11.381 5.25584Z" fill="#DBAA2A"/>
<path d="M8.65372 8.21038C8.65372 7.70831 9.06073 7.30129 9.56281 7.30129H10.4719C10.974 7.30129 11.381 7.70831 11.381 8.21038V13.6649H12.0628C12.5649 13.6649 12.9719 14.0719 12.9719 14.574C12.9719 15.0761 12.5649 15.4831 12.0628 15.4831H8.88099C8.37892 15.4831 7.9719 15.0761 7.9719 14.574C7.9719 14.0719 8.37892 13.6649 8.88099 13.6649H9.56281V9.11947C9.06073 9.11947 8.65372 8.71246 8.65372 8.21038Z" fill="#DBAA2A"/>
<path fill-rule="evenodd" clip-rule="evenodd" d="M10.2446 0.0285645C7.48348 0.0285645 4.98223 1.14885 3.17356 2.95749C1.36493 4.76616 0.244629 7.26741 0.244629 10.0286C0.244629 12.7897 1.36492 15.291 3.17356 17.0996C4.98222 18.9083 7.48347 20.0286 10.2446 20.0286C13.0058 20.0286 15.507 18.9083 17.3157 17.0996C19.1243 15.291 20.2446 12.7897 20.2446 10.0286C20.2446 7.26741 19.1243 4.76616 17.3157 2.9575C15.507 1.14886 13.0058 0.0285645 10.2446 0.0285645ZM4.4592 4.24315C5.94084 2.76153 7.98506 1.84675 10.2446 1.84675C12.5042 1.84675 14.5484 2.76153 16.03 4.24315C17.5117 5.72478 18.4264 7.76899 18.4264 10.0286C18.4264 12.2881 17.5117 14.3323 16.03 15.814C14.5484 17.2956 12.5042 18.2104 10.2446 18.2104C7.98506 18.2104 5.94085 17.2956 4.45921 15.814C2.9776 14.3323 2.06281 12.2881 2.06281 10.0286C2.06281 7.76899 2.97759 5.72479 4.4592 4.24315Z" fill="#DBAA2A"/>
</svg>
