<svg width="54" height="55" viewBox="0 0 54 55" fill="none" xmlns="http://www.w3.org/2000/svg">
<g clip-path="url(#clip0)">
<path d="M49.6794 19.7654H46.4612V19.4039C46.4612 18.5043 45.7292 17.7725 44.8296 17.7725H38.4823C38.0448 17.7725 37.6901 18.127 37.6901 18.5646C37.6901 19.0022 38.0448 19.3567 38.4823 19.3567H44.8296C44.8557 19.3567 44.8769 19.3779 44.8769 19.4039V29.0624C44.8769 29.5 45.2316 29.8545 45.669 29.8545C46.1065 29.8545 46.4612 29.5 46.4612 29.0624V21.3496H49.6794C49.7865 21.3496 49.8737 21.4368 49.8737 21.5439V49.1796C49.8737 50.9923 48.3989 52.4671 46.5862 52.4671H7.41275C5.60003 52.4671 4.12528 50.9923 4.12528 49.1796V21.5439C4.12528 21.4368 4.21242 21.3496 4.31952 21.3496H7.64342V48.442C7.64342 49.559 8.55215 50.4679 9.66927 50.4679H44.4352C45.5523 50.4679 46.4611 49.5591 46.4611 48.442V32.441C46.4611 32.0034 46.1064 31.6489 45.6689 31.6489C45.2315 31.6489 44.8768 32.0034 44.8768 32.441V43.8404H32.0607C30.4008 43.8404 28.9027 44.5424 27.8444 45.6636V35.4171C27.8444 34.9795 27.4898 34.625 27.0523 34.625C26.6148 34.625 26.2602 34.9795 26.2602 35.4171V45.6637C25.2019 44.5425 23.7037 43.8405 22.0439 43.8405H18.4444C18.007 43.8405 17.6523 44.1951 17.6523 44.6327C17.6523 45.0702 18.007 45.4248 18.4444 45.4248H22.0439C24.1101 45.4248 25.8327 46.9192 26.1908 48.8836H9.66927C9.42572 48.8836 9.22768 48.6855 9.22768 48.442V45.4248H15.0657C15.5032 45.4248 15.8578 45.0702 15.8578 44.6327C15.8578 44.1951 15.5032 43.8405 15.0657 43.8405H9.22768V19.4039C9.22768 19.3779 9.24891 19.3567 9.275 19.3567H15.6223C16.0598 19.3567 16.4145 19.0022 16.4145 18.5646C16.4145 18.127 16.0598 17.7725 15.6223 17.7725H9.275C8.37535 17.7725 7.64342 18.5044 7.64342 19.4039V19.7654H4.31952C3.33885 19.7654 2.54102 20.5632 2.54102 21.5439V49.1796C2.54102 51.8659 4.72646 54.0514 7.41275 54.0514H46.586C49.2723 54.0514 51.4577 51.8659 51.4577 49.1796V21.5439C51.4578 20.5632 50.6601 19.7654 49.6794 19.7654V19.7654ZM32.0607 45.4247H44.8768V48.442C44.8768 48.6855 44.6787 48.8836 44.4352 48.8836H27.9139C28.2719 46.9191 29.9945 45.4247 32.0607 45.4247V45.4247Z" fill="#CC9A1B"/>
<path d="M16.4912 11.166C16.926 11.2064 17.3131 10.8873 17.3542 10.4517C17.5808 8.04957 18.69 5.82547 20.4779 4.18923C22.2768 2.54286 24.6117 1.63603 27.0526 1.63603C32.4246 1.63603 36.7951 6.00649 36.7951 11.3784C36.7951 13.3999 36.1815 15.3384 35.0209 16.9847C35.0144 16.994 35.008 17.0035 35.0018 17.013L29.9328 24.9046C29.8507 25.0324 29.8071 25.1809 29.8071 25.3328V26.359C29.8071 26.5672 29.6377 26.7366 29.4294 26.7366H29.3776L29.8823 18.1737H30.7847C32.076 18.1737 33.1264 17.1232 33.1264 15.832V15.7359C33.1264 14.4447 32.076 13.3943 30.7847 13.3943C29.5467 13.3943 28.5199 14.3623 28.447 15.5982L28.3886 16.5894H25.6108L25.5524 15.5982C25.4796 14.3623 24.4527 13.3943 23.2147 13.3943C21.9234 13.3943 20.873 14.4447 20.873 15.7359V15.832C20.873 17.1232 21.9234 18.1737 23.2147 18.1737H24.1171L24.6215 26.7312C24.439 26.7045 24.298 26.5486 24.298 26.359V25.3328C24.298 25.1809 24.2544 25.0324 24.1725 24.9046L19.1033 17.013C19.0972 17.0035 19.0909 16.994 19.0843 16.9847C18.3555 15.9507 17.8422 14.8017 17.559 13.5695C17.4609 13.1431 17.0352 12.877 16.6095 12.975C16.1831 13.0731 15.917 13.4981 16.015 13.9245C16.3432 15.3523 16.9369 16.6841 17.7795 17.8832L22.714 25.565V26.3587C22.714 27.1586 23.1957 27.8471 23.8838 28.1522V29.4918C23.8838 30.9014 25.0305 32.0481 26.4401 32.0481H27.6657C29.0751 32.0481 30.2219 30.9014 30.2219 29.4918V28.1522C30.9099 27.8471 31.3918 27.1587 31.3918 26.3587V25.565L36.3261 17.8832C37.6696 15.9714 38.3797 13.7224 38.3797 11.3783C38.3792 5.13282 33.2981 0.0517578 27.0526 0.0517578C24.2148 0.0517578 21.5 1.10614 19.4083 3.02057C17.33 4.92275 16.0404 7.50891 15.777 10.303C15.7358 10.7387 16.0556 11.1251 16.4912 11.166V11.166ZM30.0286 15.6913C30.0521 15.2916 30.3843 14.9784 30.7847 14.9784C31.2024 14.9784 31.5422 15.3182 31.5422 15.7358V15.8319C31.5422 16.2495 31.2024 16.5893 30.7847 16.5893H29.9756L30.0286 15.6913ZM23.2147 16.5893C22.797 16.5893 22.4572 16.2495 22.4572 15.8319V15.7358C22.4572 15.3182 22.797 14.9784 23.2147 14.9784C23.6152 14.9784 23.9473 15.2916 23.9708 15.6913L24.0238 16.5893H23.2147ZM28.2953 18.1736L27.7907 26.7365H26.2088L25.7042 18.1736H28.2953ZM28.6373 29.4919C28.6373 30.0278 28.2013 30.4639 27.6653 30.4639H26.4397C25.9038 30.4639 25.4677 30.0278 25.4677 29.4919V28.3208H28.6371V29.4919H28.6373Z" fill="#CC9A1B"/>
<path d="M40.9272 6.06657C41.1128 6.06657 41.2991 6.00172 41.4495 5.8697L43.1778 4.35218C43.5066 4.06363 43.539 3.563 43.2505 3.23432C42.9619 2.90563 42.4614 2.8731 42.1326 3.16165L40.4043 4.67917C40.0755 4.96772 40.0431 5.46835 40.3316 5.79703C40.4882 5.97542 40.7072 6.06657 40.9272 6.06657Z" fill="#CC9A1B"/>
<path d="M40.4062 10.8445L42.1345 12.3621C42.2849 12.4942 42.4712 12.559 42.6569 12.559C42.8769 12.559 43.0959 12.4678 43.2525 12.2894C43.5411 11.9608 43.5086 11.4602 43.1799 11.1716L41.4516 9.65396C41.1228 9.3652 40.6224 9.39784 40.3337 9.72663C40.045 10.0553 40.0774 10.5557 40.4062 10.8445Z" fill="#CC9A1B"/>
<path d="M10.9258 4.3523L12.6541 5.86982C12.8045 6.00194 12.9908 6.06669 13.1764 6.06669C13.3964 6.06669 13.6154 5.97554 13.772 5.79715C14.0606 5.46847 14.0281 4.96784 13.6993 4.67929L11.971 3.16177C11.6423 2.87301 11.1417 2.90565 10.8531 3.23444C10.5645 3.56312 10.597 4.06364 10.9258 4.3523V4.3523Z" fill="#CC9A1B"/>
<path d="M11.4486 12.5589C11.6342 12.5589 11.8205 12.494 11.971 12.362L13.6993 10.8444C14.028 10.5557 14.0606 10.0552 13.7719 9.7265C13.4833 9.39782 12.9828 9.36529 12.654 9.65384L10.9257 11.1715C10.597 11.4601 10.5645 11.9606 10.8531 12.2893C11.0097 12.4677 11.2285 12.5589 11.4486 12.5589V12.5589Z" fill="#CC9A1B"/>
<path d="M20.0435 27.5285C20.0435 27.0909 19.6888 26.7363 19.2513 26.7363H11.4484C11.0109 26.7363 10.6562 27.0909 10.6562 27.5285C10.6562 27.966 11.0109 28.3206 11.4484 28.3206H19.2513C19.6888 28.3206 20.0435 27.966 20.0435 27.5285Z" fill="#CC9A1B"/>
<path d="M21.6633 30.7656H12.8781C12.4406 30.7656 12.0859 31.1202 12.0859 31.5578C12.0859 31.9953 12.4406 32.3499 12.8781 32.3499H21.6633C22.1007 32.3499 22.4554 31.9953 22.4554 31.5578C22.4554 31.1202 22.1007 30.7656 21.6633 30.7656Z" fill="#CC9A1B"/>
<path d="M21.6633 34.625H12.8781C12.4406 34.625 12.0859 34.9796 12.0859 35.4171C12.0859 35.8547 12.4406 36.2093 12.8781 36.2093H21.6633C22.1007 36.2093 22.4554 35.8547 22.4554 35.4171C22.4554 34.9796 22.1007 34.625 21.6633 34.625Z" fill="#CC9A1B"/>
<path d="M21.6633 38.4844H12.8781C12.4406 38.4844 12.0859 38.8389 12.0859 39.2765C12.0859 39.7141 12.4406 40.0686 12.8781 40.0686H21.6633C22.1007 40.0686 22.4554 39.7141 22.4554 39.2765C22.4554 38.8389 22.1007 38.4844 21.6633 38.4844Z" fill="#CC9A1B"/>
<path d="M43.4478 27.5285C43.4478 27.0909 43.0931 26.7363 42.6556 26.7363H34.8527C34.4152 26.7363 34.0605 27.0909 34.0605 27.5285C34.0605 27.966 34.4152 28.3206 34.8527 28.3206H42.6556C43.0931 28.3206 43.4478 27.966 43.4478 27.5285Z" fill="#CC9A1B"/>
<path d="M41.2258 30.7656H32.4406C32.0031 30.7656 31.6484 31.1202 31.6484 31.5578C31.6484 31.9953 32.0031 32.3499 32.4406 32.3499H41.2258C41.6632 32.3499 42.0179 31.9953 42.0179 31.5578C42.0179 31.1202 41.6632 30.7656 41.2258 30.7656Z" fill="#CC9A1B"/>
<path d="M41.2258 34.625H32.4406C32.0031 34.625 31.6484 34.9796 31.6484 35.4171C31.6484 35.8547 32.0031 36.2093 32.4406 36.2093H41.2258C41.6632 36.2093 42.0179 35.8547 42.0179 35.4171C42.0179 34.9796 41.6632 34.625 41.2258 34.625Z" fill="#CC9A1B"/>
<path d="M41.2258 38.4844H32.4406C32.0031 38.4844 31.6484 38.8389 31.6484 39.2765C31.6484 39.7141 32.0031 40.0686 32.4406 40.0686H41.2258C41.6632 40.0686 42.0179 39.7141 42.0179 39.2765C42.0179 38.8389 41.6632 38.4844 41.2258 38.4844Z" fill="#CC9A1B"/>
</g>
<defs>
<clipPath id="clip0">
<rect width="54" height="54" fill="white" transform="translate(0 0.0517578)"/>
</clipPath>
</defs>
</svg>
