<svg width="21" height="22" viewBox="0 0 21 22" fill="none" xmlns="http://www.w3.org/2000/svg">
<g clip-path="url(#clip0)">
<path d="M2.18749 10.0742C0.98175 10.0742 0 11.056 0 12.2617V19.2617C0 20.4675 0.98175 21.4492 2.18749 21.4492H4.81249C5.30512 21.4492 5.75835 21.283 6.12499 21.0064V10.0742H2.18749Z" fill="#CC9A1B"/>
<path d="M21 13.3555C21 12.8296 20.7917 12.3396 20.4304 11.9782C20.839 11.5311 21.0472 10.9317 20.9903 10.3078C20.888 9.19569 19.8861 8.32419 18.7084 8.32419H13.3035C13.5712 7.5113 14 6.0212 14 4.8242C14 2.92633 12.3874 1.32422 11.375 1.32422C10.4659 1.32422 9.81658 1.83609 9.78861 1.85709C9.68537 1.94023 9.625 2.06623 9.625 2.1992V5.16632L7.105 10.6255L7 10.6788V20.0571C7.71224 20.3931 8.61347 20.5742 9.18749 20.5742H17.2191C18.172 20.5742 19.0059 19.9319 19.2019 19.0456C19.3025 18.5897 19.2439 18.1303 19.0435 17.7313C19.6901 17.4058 20.125 16.7399 20.125 15.9805C20.125 15.6707 20.0541 15.3741 19.9194 15.1055C20.566 14.78 21 14.1141 21 13.3555Z" fill="#CC9A1B"/>
</g>
<defs>
<clipPath id="clip0">
<rect width="21" height="21" fill="white" transform="translate(0 0.886719)"/>
</clipPath>
</defs>
</svg>
