<svg width="61" height="74" viewBox="0 0 61 74" fill="none" xmlns="http://www.w3.org/2000/svg">
<circle cx="30.5" cy="30.5" r="21.5" stroke="#D5D5D5" stroke-width="2"/>
<path d="M60 30.5C60 34.4824 58.4848 39.1098 56.0474 43.8693C53.6185 48.6124 50.3174 53.4028 46.8479 57.6874C43.3787 61.9715 39.7612 65.7252 36.7154 68.3984C35.1907 69.7366 33.8267 70.7886 32.7093 71.4995C32.1502 71.8552 31.6704 72.1143 31.2761 72.2815C30.8669 72.455 30.6181 72.5 30.5 72.5C30.3819 72.5 30.1331 72.455 29.7239 72.2815C29.3296 72.1143 28.8498 71.8552 28.2907 71.4995C27.1733 70.7886 25.8093 69.7366 24.2846 68.3984C21.2388 65.7252 17.6213 61.9715 14.1522 57.6874C10.6826 53.4028 7.38152 48.6124 4.95258 43.8693C2.51524 39.1098 1 34.4824 1 30.5C1 14.2076 14.2076 1 30.5 1C46.7924 1 60 14.2076 60 30.5Z" stroke="#D5D5D5" stroke-width="2"/>
<path d="M45.4421 35.6295H43.4908L37.437 19.1807L30.4997 29.2137L23.0847 19.2999L17.5092 35.6295H15.5579L15 37.8193H22.4076L25.3155 29.8142L30.5876 36.8548L30.6192 36.8991L30.6515 36.8548L35.6845 29.8142L38.5924 37.8193H46L45.4421 35.6295Z" fill="#CC1B1B"/>
</svg>
