<svg width="21" height="24" viewBox="0 0 21 24" fill="none" xmlns="http://www.w3.org/2000/svg">
<g clip-path="url(#clip0)">
<path d="M4.5279 11.8555C3.37471 11.8555 2.43945 12.8798 2.43945 14.1428C2.43945 15.4058 3.37471 16.4302 4.5279 16.4302C5.68108 16.4302 6.61634 15.4058 6.61634 14.1428C6.61634 12.8798 5.68108 11.8555 4.5279 11.8555Z" fill="#CC9A1B"/>
<path d="M14.4992 5.13272C13.573 4.82443 12.2972 4.65039 11.0033 4.65039C9.69576 4.65039 8.46539 4.82443 7.5483 5.13272C6.68114 5.4261 6.37695 5.75926 6.37695 5.86368C6.38149 5.86865 6.38603 5.87362 6.38603 5.87859C6.40873 5.98799 6.68568 6.33109 7.6618 6.63939C8.56527 6.92779 9.75478 7.08691 11.0078 7.08691C12.3018 7.08691 13.5775 6.9079 14.4992 6.60458C15.4889 6.27639 15.7023 5.93826 15.7023 5.86865C15.7023 5.79903 15.4889 5.46091 14.4992 5.13272Z" fill="#CC9A1B"/>
<path d="M14.7656 7.54323C13.7487 7.88135 12.4184 8.06534 11.0155 8.06534C9.67619 8.06534 8.40043 7.89627 7.41523 7.58301C7.07472 7.48356 6.74784 7.34433 6.43457 7.17029L6.46635 8.57253C6.97484 8.78137 7.45609 9.07972 7.88286 9.45266C7.89194 9.45763 7.90556 9.45763 7.91918 9.4626C8.79088 9.70626 9.88958 9.83554 11.011 9.83554C12.3049 9.83554 13.5807 9.6615 14.5023 9.35321C15.4875 9.02503 15.7009 8.68192 15.7009 8.61728C15.7009 8.51783 15.7236 8.42336 15.7735 8.33882V7.0957C15.4512 7.28963 15.1107 7.44378 14.7656 7.54323Z" fill="#CC9A1B"/>
<path d="M10.8156 16.518C10.8066 16.4583 10.8066 16.4036 10.8156 16.3439C10.3934 16.339 9.9848 16.3141 9.59435 16.2793C9.38551 16.871 9.0904 17.423 8.72266 17.9152C9.42637 18.0445 10.1301 18.1092 10.8338 18.1191L10.8156 16.518Z" fill="#CC9A1B"/>
<path d="M8.9597 13.1417C8.75539 12.0676 8.23329 11.093 7.47055 10.382C7.00292 9.93444 6.45357 9.60128 5.86336 9.40238C5.42751 9.25818 4.97804 9.18359 4.52403 9.18359C3.39809 9.18359 2.31301 9.64603 1.47763 10.4764C-0.370184 12.3163 -0.501846 15.4539 1.17799 17.4777C2.85782 19.5015 5.72262 19.6507 7.57043 17.8059C8.51477 16.871 9.05504 15.5384 9.0505 14.1412C9.0505 13.808 9.01872 13.4699 8.9597 13.1417ZM4.52857 17.418C2.87598 17.418 1.53211 15.9462 1.53211 14.1362C1.53211 12.3262 2.87144 10.8543 4.52857 10.8543C6.18117 10.8593 7.52049 12.3262 7.52503 14.1362C7.52503 15.9462 6.18117 17.418 4.52857 17.418Z" fill="#CC9A1B"/>
<path d="M10.8079 15.3458L10.7898 13.69C10.7807 13.6552 10.7716 13.6204 10.7671 13.5856C10.481 13.5806 10.2041 13.5707 9.93621 13.5508C9.94983 13.7497 9.95891 13.9436 9.95891 14.1375C9.95891 14.5254 9.92259 14.9182 9.85449 15.3011C10.1587 15.3259 10.481 15.3409 10.8079 15.3458Z" fill="#CC9A1B"/>
<path d="M19.7659 12.6599C18.8442 12.3516 17.573 12.1875 16.2746 12.1875H16.2382C15.0215 12.1875 13.8638 12.3367 12.9739 12.6102C12.0886 12.8787 11.7481 13.182 11.6709 13.3361C11.6845 13.3809 11.6936 13.4256 11.6936 13.4704C11.8026 13.6395 12.1703 13.9328 13.0238 14.1864C13.9137 14.45 15.0714 14.5992 16.2746 14.5992C17.5685 14.5992 18.7988 14.4351 19.7296 14.1317C20.7375 13.8036 20.9599 13.4605 20.9645 13.3859V13.3809C20.9508 13.2964 20.7193 12.9781 19.7659 12.6599Z" fill="#CC9A1B"/>
<path d="M20.011 17.8314C18.994 18.1695 17.6774 18.3535 16.2745 18.3535C15.0351 18.3535 13.8319 18.2043 12.8785 17.9309C12.4881 17.8264 12.1113 17.6773 11.748 17.4833L11.7617 18.6071L11.7662 18.9104C11.7662 18.9154 11.7662 18.9154 11.7662 18.9204C11.7662 19.0298 12.0568 19.358 12.9239 19.6513C13.8365 19.9547 15.0578 20.1237 16.3699 20.1237C17.6774 20.1237 18.9032 19.9497 19.8294 19.6364C20.7964 19.3082 20.9962 18.9651 20.9962 18.8955V17.3789C20.7238 17.5728 20.3424 17.722 20.011 17.8314Z" fill="#CC9A1B"/>
<path d="M19.9775 15.0873C18.965 15.4154 17.6529 15.5945 16.2728 15.5945C14.5838 15.5945 12.7814 15.316 11.71 14.7044L11.7281 16.2757C12.1186 16.753 13.7984 17.3547 16.2682 17.3547C17.5848 17.3547 18.8197 17.1856 19.7505 16.8774C20.7266 16.5492 20.9354 16.211 20.9354 16.1414C20.9354 16.042 20.9944 15.9525 20.999 15.8779V14.6348C20.6721 14.8287 20.3316 14.9779 19.9775 15.0873Z" fill="#CC9A1B"/>
<path d="M14.7579 10.3129C13.741 10.6511 12.4107 10.835 11.0078 10.835C10.3223 10.835 9.63219 10.7853 8.95117 10.6908C9.31438 11.2527 9.59132 11.8793 9.75931 12.5406C10.1498 12.5754 10.5674 12.5953 11.0078 12.5953C11.0215 12.5953 11.0305 12.5953 11.0442 12.5953C11.362 12.2074 11.9204 11.8892 12.7194 11.6406C13.5684 11.377 14.6354 11.2179 15.7704 11.1831V9.85547C15.448 10.0494 15.1121 10.2035 14.7579 10.3129Z" fill="#CC9A1B"/>
</g>
<defs>
<clipPath id="clip0">
<rect width="21" height="23" fill="white" transform="translate(0 0.886719)"/>
</clipPath>
</defs>
</svg>
