<svg width="24" height="24" viewBox="0 0 24 24" fill="none" xmlns="http://www.w3.org/2000/svg">
<g clip-path="url(#clip0)">
<path d="M4.72098 12.881C4.10798 14.086 4.80398 14.662 6.39198 15.646C7.74198 16.48 9.60698 16.785 10.805 16.907C10.314 17.379 12.564 15.215 6.08398 21.448C4.70998 22.765 6.92198 24.878 8.29498 23.589L12.012 20.004C13.435 21.373 14.799 22.685 15.729 23.594C17.103 24.888 19.314 22.793 17.955 21.453C17.853 21.356 12.918 16.622 13.219 16.912C14.432 16.79 16.269 16.467 17.603 15.651L17.602 15.65C19.19 14.661 19.886 14.086 19.282 12.881C18.917 12.197 17.933 11.625 16.623 12.614C16.623 12.614 14.854 13.969 12.001 13.969C9.14698 13.969 7.37898 12.614 7.37898 12.614C6.06998 11.62 5.08198 12.197 4.72098 12.881V12.881Z" fill="white"/>
<path d="M11.9987 12.142C15.4767 12.142 18.3167 9.424 18.3167 6.078C18.3167 2.718 15.4767 0 11.9987 0C8.51969 0 5.67969 2.718 5.67969 6.078C5.67969 9.424 8.51969 12.142 11.9987 12.142ZM11.9987 3.079C13.7077 3.079 15.1017 4.42 15.1017 6.078C15.1017 7.722 13.7077 9.063 11.9987 9.063C10.2897 9.063 8.89569 7.722 8.89569 6.078C8.89469 4.419 10.2887 3.079 11.9987 3.079V3.079Z" fill="white"/>
</g>
<defs>
<clipPath id="clip0">
<rect width="24" height="24" fill="white"/>
</clipPath>
</defs>
</svg>
