<svg width="54" height="53" viewBox="0 0 54 53" fill="none" xmlns="http://www.w3.org/2000/svg">
<path d="M47.5986 43.867C47.4786 36.664 39.9751 34.536 34.4962 32.9821C33.8569 32.8008 33.2421 32.6264 32.6661 32.4523V29.4809C33.7861 28.7917 34.7676 27.9049 35.5594 26.8705H38.8969C40.5301 26.8705 41.8589 25.5663 41.8589 23.9633V20.4442C42.0568 19.9912 42.1668 19.4927 42.1668 18.9692V17.8747C42.1668 17.3518 42.0568 16.8535 41.8589 16.4009V14.5854C41.8589 6.54304 35.1926 0 26.9986 0C18.8061 0 12.1412 6.54304 12.1412 14.5855V16.349C12.1412 16.3629 12.1428 16.3762 12.1433 16.39C11.9423 16.8457 11.8303 17.3475 11.8303 17.8748V18.9693C11.8303 21.0383 13.544 22.7216 15.6503 22.7216H16.5219C17.1256 25.5629 18.9029 27.9862 21.3311 29.4803V32.4523C20.7549 32.6264 20.1402 32.8007 19.501 32.9821C14.0221 34.536 6.51857 36.6641 6.39854 43.867C6.39844 43.8727 6.39844 43.8783 6.39844 43.884V51.9648C6.39844 52.5366 6.87073 53 7.45313 53H10.5801C11.1625 53 11.6348 52.5366 11.6348 51.9648C11.6348 51.3931 11.1625 50.9297 10.5801 50.9297H8.50772V43.8926C8.55212 41.3795 9.72831 39.4956 12.2091 37.9641C13.846 36.9535 15.8473 36.2334 17.82 35.631L20.3683 40.504C20.6523 41.0471 21.3795 41.2317 21.8963 40.8895L23.0325 40.1372L24.008 43.7357L22.3366 50.9296H20.0509C19.4685 50.9296 18.9962 51.393 18.9962 51.9647C18.9962 52.5365 19.4685 52.9999 20.0509 52.9999H46.544C47.1264 52.9999 47.5987 52.5365 47.5987 51.9647V43.8839C47.5987 43.8783 47.5987 43.8727 47.5986 43.867V43.867ZM33.9106 34.9709C33.9801 34.9906 34.0508 35.0108 34.1208 35.0307L32.2976 38.5206L28.8855 36.2624L31.7765 34.3485C32.4482 34.5559 33.1624 34.7587 33.9106 34.9709ZM26.9993 37.5111L29.1142 38.9108L28.0921 42.6815H25.9051L24.8833 38.912L26.9993 37.5111ZM26.9991 35.014L23.4404 32.6587V30.4795C24.5542 30.8661 25.7514 31.0782 26.9985 31.0782C28.2454 31.0782 29.4428 30.8668 30.5566 30.4802V32.6587L26.9991 35.014ZM35.591 14.7748C35.5766 14.7658 35.5622 14.7568 35.5478 14.7478C33.3837 13.3957 31.5146 12.2279 28.5859 13.0504C28.5587 13.058 28.5317 13.0667 28.5052 13.0765C27.8843 13.3053 27.3197 13.5187 26.7736 13.725C23.4384 14.9851 21.6173 15.6733 18.406 15.5846V14.7557C18.406 10.1053 22.2606 6.32203 26.9985 6.32203C31.7364 6.32203 35.5909 10.1053 35.5909 14.7557V14.7748H35.591ZM39.7495 23.9633C39.7495 24.4248 39.367 24.8002 38.8969 24.8002H36.7951C37.0919 24.1398 37.3218 23.4443 37.4754 22.7215H38.3469C38.8421 22.7215 39.3149 22.6275 39.7496 22.4582V23.9633H39.7495ZM40.0574 18.9692C40.0574 19.8966 39.2902 20.6511 38.3468 20.6511H37.6995C37.6997 20.6255 37.7005 16.1957 37.7005 16.1957H38.3469C39.2902 16.1957 40.0576 16.9489 40.0576 17.8747V18.9692H40.0574ZM15.6503 20.6512C14.7071 20.6512 13.9397 19.8967 13.9397 18.9693V17.8748C13.9397 16.949 14.707 16.1958 15.6503 16.1958H16.2967C16.2967 16.1958 16.2976 20.6256 16.2978 20.6512H15.6503ZM16.3164 14.1254H15.6502C15.1571 14.1254 14.6862 14.2185 14.2531 14.3862C14.3621 7.57696 20.0372 2.07032 26.9986 2.07032C33.962 2.07032 39.6386 7.57758 39.7468 14.3874C39.313 14.219 38.841 14.1254 38.3468 14.1254H37.6806C37.3473 8.62578 32.6839 4.25171 26.9986 4.25171C21.3132 4.25171 16.6497 8.62589 16.3164 14.1254ZM18.4695 21.5813C18.4694 21.5803 18.4692 21.5793 18.4691 21.5782C18.4291 21.2487 18.4061 20.9142 18.4061 20.5743V17.6549C22.0145 17.7412 24.167 16.9284 27.5314 15.6572C28.0613 15.457 28.609 15.2501 29.2056 15.0299C31.1979 14.4841 32.3443 15.2005 34.4151 16.4943C34.7744 16.7189 35.1685 16.9649 35.591 17.2176V20.5743C35.591 22.1137 35.1666 23.5567 34.4297 24.8003H26.9986C26.4162 24.8003 25.9439 25.2637 25.9439 25.8354C25.9439 26.4071 26.4162 26.8706 26.9986 26.8706H32.707C31.188 28.1988 29.1881 29.008 26.9986 29.008C22.608 29.0079 18.9784 25.7583 18.4695 21.5813V21.5813ZM21.7021 38.5207L19.8769 35.0304C19.9467 35.0107 20.0171 34.9906 20.0865 34.9709C20.8347 34.7587 21.549 34.5558 22.2208 34.3484L25.113 36.2626L21.7021 38.5207ZM24.5002 50.9297L25.9355 44.7518H28.0619L29.4995 50.9297H24.5002ZM45.4893 50.9297H31.6632L29.9892 43.7356L30.9651 40.1358L32.104 40.8896C32.621 41.2317 33.3482 41.0471 33.6322 40.5036L36.1776 35.6313C38.1501 36.2336 40.1513 36.9536 41.7882 37.9641C44.2688 39.4955 45.4451 41.3795 45.4895 43.8926V50.9297H45.4893Z" fill="#CC9A1B"/>
<path d="M41.3231 45.7534H36.0078C35.4254 45.7534 34.9531 46.2169 34.9531 46.7886C34.9531 47.3603 35.4254 47.8237 36.0078 47.8237H41.3231C41.9055 47.8237 42.3778 47.3603 42.3778 46.7886C42.3778 46.2169 41.9056 45.7534 41.3231 45.7534Z" fill="#CC9A1B"/>
<path d="M15.3164 50.9297C14.734 50.9297 14.2617 51.3931 14.2617 51.9648C14.2617 52.5366 14.734 53 15.3164 53H15.3194C15.9018 53 16.3725 52.5366 16.3725 51.9648C16.3725 51.3931 15.8988 50.9297 15.3164 50.9297Z" fill="#CC9A1B"/>
</svg>
