<svg width="48" height="48" viewBox="0 0 48 48" fill="none" xmlns="http://www.w3.org/2000/svg">
<path d="M40.2607 0H7.73934C3.47184 0 0 3.47184 0 7.73934V40.2607C0 44.5282 3.47184 48 7.73934 48H40.2607C44.5282 48 48 44.5282 48 40.2607V7.73934C48 3.47184 44.5282 0 40.2607 0ZM45.1654 40.2607C45.1654 42.9651 42.9652 45.1654 40.2607 45.1654H7.73934C5.03494 45.1654 2.83463 42.9652 2.83463 40.2607V7.73934C2.83463 5.03494 5.03484 2.83463 7.73934 2.83463H40.2607C42.9651 2.83463 45.1654 5.03484 45.1654 7.73934V40.2607Z" fill="#CC9A1B"/>
<path d="M24.9919 7.89038H18.2127C15.6077 7.89038 13.4883 10.0098 13.4883 12.6148V38.6922C13.4883 39.4749 14.1229 40.1095 14.9056 40.1095H21.5197C22.3025 40.1095 22.9371 39.4749 22.9371 38.6923V30.7087H24.9918C31.2828 30.7087 36.4009 25.5905 36.4009 19.2995C36.4009 13.0085 31.2829 7.89038 24.9919 7.89038ZM24.9919 27.8739H21.5198C20.7371 27.8739 20.1025 28.5085 20.1025 29.2913V37.2748H16.323V12.6147C16.323 11.5727 17.1708 10.725 18.2127 10.725H24.9919C29.7198 10.725 33.5663 14.5715 33.5663 19.2995C33.5663 24.0275 29.7198 27.8739 24.9919 27.8739Z" fill="#CC9A1B"/>
<path d="M24.9929 14.5046H21.5208C20.7381 14.5046 20.1035 15.1392 20.1035 15.922V22.6772C20.1035 23.4599 20.7381 24.0945 21.5208 24.0945H24.9929C27.6367 24.0945 29.7878 21.9435 29.7878 19.2996C29.7877 16.6556 27.6367 14.5046 24.9929 14.5046ZM24.9929 21.2599H22.9381V17.3393H24.9929C26.0737 17.3393 26.9531 18.2186 26.9531 19.2996C26.9531 20.3804 26.0737 21.2599 24.9929 21.2599Z" fill="#CC9A1B"/>
</svg>
