<svg width="48" height="49" viewBox="0 0 48 49" fill="none" xmlns="http://www.w3.org/2000/svg">
<g clip-path="url(#clip0)">
<path d="M36.345 43.6447C36.0853 43.1971 35.5118 43.0447 35.0637 43.3044L35.0276 43.3252C34.5799 43.585 34.4275 44.1586 34.6872 44.6065C34.8611 44.9062 35.1757 45.0736 35.4989 45.0736C35.6585 45.0736 35.8205 45.0327 35.9685 44.9468L36.0046 44.926C36.4523 44.6662 36.6047 44.0925 36.345 43.6447Z" fill="white"/>
<path d="M44.7838 12.151C41.5792 6.6005 36.4051 2.63028 30.2144 0.971467C24.0239 -0.687346 17.5577 0.163998 12.0073 3.36847C6.4569 6.57294 2.48659 11.7472 0.827871 17.9378C-0.830848 24.1284 0.0204016 30.5946 3.22487 36.145C6.09934 41.1237 10.668 44.9076 16.0892 46.7993C18.6589 47.6959 21.3416 48.1434 24.0201 48.1434C26.9325 48.1434 29.8396 47.6141 32.5875 46.558C33.0707 46.3722 33.3119 45.8299 33.1261 45.3466C32.9402 44.8633 32.3978 44.6219 31.9147 44.808C24.6003 47.6193 16.682 46.342 10.7661 41.9014L11.606 37.5172L12.0107 37.3857C13.5401 36.8889 14.3801 35.2404 13.8834 33.7109L13.5864 32.797C13.5177 32.5855 13.5181 32.3619 13.5873 32.1506C13.8479 31.3563 13.7548 30.4873 13.3319 29.7662C12.909 29.0452 12.196 28.5396 11.3756 28.3792L9.25965 27.9657L5.17703 24.8617C4.93243 24.6757 4.61228 24.6214 4.31996 24.7163L1.92971 25.4927C1.879 24.6378 1.87825 23.7832 1.92643 22.9331C2.02075 23.0209 2.08215 23.0806 2.11993 23.1198C2.16671 23.1977 2.22465 23.2692 2.29253 23.331C2.48771 23.5088 2.66453 23.5894 3.03578 23.5894C3.37693 23.5893 3.88196 23.5213 4.71587 23.3982C5.50675 23.2812 6.2935 23.1495 6.30128 23.1482C6.61656 23.0954 6.88309 22.8854 7.00853 22.5915C7.13396 22.2975 7.10087 21.9599 6.92078 21.6957L5.77131 20.0097L7.41775 18.8324C7.52743 18.754 7.61893 18.6528 7.68596 18.5358L10.2381 14.0803L11.2668 12.978C12.3181 11.8513 12.6181 10.2029 12.031 8.77831C11.6847 7.93803 11.0798 7.23847 10.3232 6.767C11.1426 6.12284 12.0163 5.52809 12.9448 4.99212C16.3515 3.02525 20.0692 2.07209 23.7479 2.03562L22.0739 4.13553L15.8662 6.31175C15.6141 6.40006 15.4116 6.59187 15.3098 6.83881L13.5762 11.0414C13.4531 11.34 13.4922 11.6807 13.6798 11.9436L16.2118 15.4903C15.8492 15.8212 15.4962 16.3031 15.0746 16.9014C14.8897 17.1638 14.7152 17.4116 14.5945 17.5505C14.4896 17.6714 14.3846 17.7896 14.2805 17.9066C13.7359 18.5192 13.1729 19.1529 12.7728 19.9992C11.8933 21.861 12.0709 24.025 13.2364 25.6467C14.3634 27.2146 16.2213 28.0117 18.2043 27.7784C18.5274 27.7406 18.8286 27.666 19.1201 27.5938C19.9238 27.395 20.1784 27.3751 20.4362 27.6164C20.5617 27.7339 20.5732 27.7561 20.5707 28.1545C20.5689 28.408 20.5669 28.7233 20.6543 29.0834C20.7943 29.6595 21.1561 30.0577 21.4467 30.3776C21.5912 30.5365 21.7406 30.7009 21.7866 30.8112C22.079 31.5119 21.9517 31.9 21.6727 32.7503C21.6488 32.823 21.6244 32.8973 21.6 32.9734C21.1761 34.2854 21.7669 35.5869 22.2882 36.7349C22.4575 37.1078 22.6173 37.4597 22.7221 37.7708C23.565 40.2719 24.1968 40.8447 24.7039 41.0754C24.9695 41.1961 25.2444 41.2491 25.5221 41.249C26.8735 41.2489 28.2837 39.9942 28.9315 39.1987C29.3384 38.6992 29.4386 38.199 29.5117 37.8337C29.5482 37.652 29.5769 37.5086 29.6316 37.4148C29.7154 37.2714 29.8142 37.1602 29.9391 37.0194C30.1905 36.7363 30.5033 36.3842 30.7059 35.7459C30.8598 35.261 30.9717 35.1421 31.3421 34.7476C31.4066 34.6791 31.4753 34.6058 31.5491 34.5255C32.7977 33.1668 32.4762 32.1289 32.1356 31.03C31.849 30.1053 32.3503 29.5139 33.5623 28.3853C34.0877 27.896 34.6308 27.3901 35.0507 26.7822C35.2345 26.5162 35.7935 25.7068 35.4476 24.9046C35.1085 24.1181 34.2467 23.9859 33.5542 23.8797C33.2807 23.8377 32.8675 23.7744 32.736 23.6884C32.1559 23.3092 31.8011 22.5177 31.4579 21.7523C31.3895 21.5999 31.3221 21.4496 31.2538 21.3036C31.1319 21.0432 31.0101 20.7281 30.8812 20.3945C30.5402 19.5117 30.1536 18.5112 29.4956 17.8137C28.9041 17.1869 27.7892 16.8851 26.8054 16.6186C26.4746 16.5291 26.1623 16.4445 25.9563 16.3685C25.7837 16.3047 25.5964 16.2932 25.4177 16.3352C24.939 16.4474 24.6403 16.5711 24.4185 16.7488C24.3599 16.7958 24.1863 16.95 24.0847 17.1979C23.7415 17.0332 23.2696 16.7187 22.9791 16.5251C22.9731 16.521 22.967 16.517 22.961 16.513C23.0589 16.1213 22.9703 15.8069 22.8775 15.6106C22.3538 14.5029 20.6154 14.5896 20.2725 14.6187C20.0777 14.6351 19.8312 14.6438 19.5705 14.653C19.161 14.6675 18.7083 14.6838 18.2605 14.7341L18.2836 14.6697C18.6235 13.7226 19.528 13.0862 20.5343 13.0862H21.0673C21.5849 13.0862 22.0047 12.6664 22.0047 12.1488C22.0047 11.6312 21.5849 11.2114 21.0673 11.2114H20.5343C19.0403 11.2114 17.6722 11.9977 16.9054 13.2353L15.5072 11.2766L16.8828 7.94197L22.9487 5.81534C23.1151 5.75703 23.2617 5.65297 23.3717 5.51506L26.0682 2.13265C32.9582 2.78806 39.4439 6.65112 43.1603 13.0882C44.1502 14.8028 44.8825 16.6078 45.3693 18.4541L44.9719 18.8084C44.4532 19.2713 44.1493 19.9351 44.1377 20.6299C44.1376 20.6375 44.1374 20.645 44.1371 20.6525L43.4897 18.872C43.3932 18.6063 43.2511 18.3627 43.0675 18.1479L41.9126 16.7957C41.4648 16.2716 40.8129 15.9711 40.1237 15.9711H38.7101C38.2082 15.9711 37.7496 16.246 37.5129 16.6882C37.2762 17.1305 37.3021 17.6647 37.5804 18.0821L37.7235 18.2968C36.81 19.0824 35.7534 19.711 34.6284 20.1349L32.6906 16.4231V15.595C32.6906 15.3388 32.5858 15.0937 32.4004 14.917L30.6555 13.2511C30.5592 13.1592 30.4444 13.0889 30.3189 13.0448L28.7481 12.4928C28.2594 12.3208 27.7245 12.578 27.5529 13.0663C27.3812 13.5549 27.638 14.0899 28.1265 14.2616L29.5068 14.7467L30.8158 15.9961V16.6531C30.8158 16.8042 30.8523 16.953 30.9223 17.087L33.3482 21.7339C33.5664 22.152 34.0616 22.3431 34.5035 22.1796L35.2099 21.9192C36.851 21.3139 38.3721 20.3403 39.6089 19.1037C39.9248 18.7877 39.9739 18.2928 39.726 17.9209L39.6761 17.846H40.1237C40.2637 17.846 40.3962 17.907 40.4871 18.0135L41.642 19.3657C41.6792 19.4093 41.708 19.4586 41.7277 19.5127L43.0022 23.0173C43.1117 23.3185 43.3675 23.5427 43.6801 23.6121C43.7476 23.627 43.8155 23.6343 43.8831 23.6343C44.129 23.6343 44.3684 23.5375 44.5459 23.3597L45.1526 22.7531C45.5368 22.3688 45.8012 21.8826 45.9276 21.3436C46.8659 28.8628 43.9175 36.6411 37.6856 41.5324C37.2782 41.852 37.2072 42.4412 37.527 42.8486C37.8466 43.2559 38.4357 43.327 38.8431 43.0072C43.3424 39.4759 46.4333 34.4251 47.5466 28.7852C48.6703 23.0909 47.6892 17.1833 44.7838 12.151ZM4.43265 26.651L8.29825 29.5902C8.41253 29.6771 8.54509 29.7365 8.6859 29.764L11.0158 30.2192C11.3132 30.2773 11.5612 30.4532 11.7145 30.7146C11.8678 30.9759 11.9 31.2782 11.8057 31.5661C11.6117 32.158 11.6107 32.7839 11.8032 33.3762L12.1002 34.29C12.2777 34.8362 11.9775 35.4251 11.4314 35.6025L10.4998 35.9053C10.1747 36.0108 9.93306 36.2849 9.86884 36.6204L9.11903 40.5343C7.47062 39.0256 6.02331 37.2425 4.84853 35.2077C3.41528 32.7254 2.51978 30.0778 2.12509 27.4007L4.43265 26.651ZM9.89612 11.6989L8.79334 12.8804C8.74412 12.9332 8.70109 12.9915 8.66518 13.0542L6.16093 17.4263L3.93521 19.0178C3.52065 19.3142 3.41884 19.8873 3.7059 20.3084L4.53831 21.5294C4.0585 21.6009 3.6279 21.6597 3.34159 21.691C3.28656 21.6382 3.229 21.5847 3.16946 21.5293C2.94662 21.3223 2.63696 21.0459 2.17534 20.6419C2.93668 15.9297 5.20731 11.4905 8.77843 8.1019C9.46225 8.31725 10.0234 8.82734 10.2976 9.49269C10.606 10.241 10.4483 11.1071 9.89612 11.6989ZM17.5396 16.8217C17.9577 16.5864 18.9282 16.552 19.6367 16.5268C19.9207 16.5168 20.189 16.5072 20.4287 16.4872C20.5551 16.4766 20.6956 16.4786 20.828 16.4889C20.7689 16.6407 20.7497 16.8074 20.7753 16.9728C20.8204 17.2637 20.9998 17.5164 21.2593 17.6552C21.4352 17.7493 21.6799 17.9126 21.9391 18.0853C22.6717 18.5738 23.5022 19.1274 24.2824 19.1771C24.9919 19.2231 25.3867 18.8187 25.5558 18.6465C25.5693 18.6328 25.5821 18.6192 25.5956 18.6067C25.6908 18.5291 25.7801 18.425 25.8465 18.2995C25.9964 18.3423 26.1539 18.385 26.3153 18.4287C26.8704 18.579 27.9036 18.8588 28.1319 19.1007C28.5374 19.5305 28.8534 20.3487 29.1323 21.0704C29.2732 21.4352 29.4063 21.7795 29.5557 22.0987C29.6198 22.2357 29.6829 22.3767 29.747 22.5196C30.1796 23.4845 30.6699 24.5782 31.7101 25.2581C32.1817 25.5664 32.7599 25.655 33.2701 25.7333C33.3317 25.7427 33.4024 25.7536 33.4742 25.7654C33.1714 26.1879 32.7403 26.5893 32.2847 27.0135C31.1242 28.0943 29.6799 29.4394 30.3451 31.5852C30.659 32.5985 30.6737 32.708 30.1688 33.2572C30.1 33.3321 30.0359 33.4003 29.9758 33.4643C29.5434 33.9246 29.2019 34.2882 28.9191 35.1788C28.837 35.4374 28.7306 35.5572 28.5374 35.7747C28.3829 35.9487 28.1904 36.1655 28.0129 36.4692C27.8003 36.8332 27.73 37.1836 27.6737 37.4652C27.6181 37.7422 27.5866 37.8812 27.4778 38.0147C27.2302 38.3187 26.7684 38.76 26.2943 39.0612C25.8537 39.341 25.5964 39.3792 25.5088 39.374C25.4087 39.2668 25.0464 38.7972 24.4989 37.1722C24.3639 36.7713 24.1766 36.3588 23.9955 35.9599C23.5962 35.0805 23.1834 34.1712 23.3842 33.5497C23.4079 33.4764 23.4314 33.4047 23.4544 33.3347C23.7752 32.3569 24.0781 31.4336 23.5171 30.0892C23.3462 29.6798 23.0743 29.3806 22.8346 29.1166C22.6794 28.9459 22.5036 28.7524 22.4765 28.641C22.4435 28.5052 22.4446 28.3483 22.4458 28.1667C22.449 27.6769 22.4538 26.9367 21.718 26.2477C20.6806 25.2766 19.4708 25.5758 18.6702 25.7738C18.4243 25.8345 18.192 25.8921 17.9861 25.9163C16.6691 26.0706 15.4933 25.5737 14.7592 24.5522C13.9913 23.4837 13.8798 22.0459 14.4684 20.8C14.7533 20.1971 15.1837 19.7127 15.6821 19.152C15.7909 19.0295 15.9008 18.9059 16.0107 18.7794C16.1935 18.5686 16.3947 18.2832 16.6074 17.9811C16.8614 17.6206 17.3342 16.9494 17.5396 16.8217Z" fill="white"/>
<path d="M38.4392 32.4193L37.9881 30.7193C37.8896 30.348 37.5746 30.0744 37.1933 30.0289C36.8116 29.9843 36.4414 30.1751 36.2581 30.5127C36.1553 30.7021 36.0628 30.9027 35.9734 31.0967C35.8229 31.423 35.6673 31.7605 35.5054 31.9468C35.4144 32.0514 35.1808 32.1642 34.9551 32.2732C34.4153 32.5336 33.6761 32.8903 33.3937 33.7905C33.2184 34.3489 33.2839 34.7906 33.3317 35.1131C33.373 35.3928 33.3826 35.4897 33.3077 35.6656L33.2983 35.6874C32.9999 36.3877 32.4447 37.6912 33.2232 38.7995C33.7787 39.5903 34.3627 39.7937 34.8166 39.7937C34.9052 39.794 34.989 39.7862 35.0665 39.7735C36.0228 39.6172 36.7416 38.6226 37.3291 36.6429L38.4318 32.9266C38.4808 32.7613 38.4834 32.5858 38.4392 32.4193ZM35.5318 36.1096C35.2324 37.1189 34.9674 37.5901 34.8145 37.799C34.7969 37.7765 34.7778 37.751 34.7573 37.7218C34.5782 37.4666 34.8459 36.8381 35.0231 36.4222L35.0326 36.4002C35.3183 35.7295 35.2419 35.2145 35.1863 34.8383C35.1506 34.5975 35.1379 34.494 35.1826 34.3518C35.2193 34.2349 35.439 34.1214 35.7699 33.9617C35.9166 33.8908 36.0782 33.8129 36.2412 33.7186L35.5318 36.1096Z" fill="white"/>
<path d="M25.3151 11.287L25.2518 11.2649C24.7637 11.0939 24.2284 11.3506 24.057 11.8392C23.8856 12.3278 24.1428 12.8626 24.6313 13.034L24.6945 13.0561C24.7972 13.0921 24.9018 13.1092 25.0048 13.1092C25.3918 13.1092 25.7541 12.8676 25.8894 12.4818C26.0608 11.9932 25.8037 11.4583 25.3151 11.287Z" fill="white"/>
</g>
<defs>
<clipPath id="clip0">
<rect width="48" height="48" fill="white" transform="translate(0 0.143555)"/>
</clipPath>
</defs>
</svg>
