<svg width="61" height="62" viewBox="0 0 61 62" fill="none" xmlns="http://www.w3.org/2000/svg">
<path d="M59.0519 54.928L49.5206 23.928C49.4597 23.7312 49.3386 23.5593 49.1749 23.4373C49.0111 23.3154 48.8134 23.2497 48.6104 23.2499H20.9698V19.7731C22.6101 19.0986 23.9687 17.8653 24.8125 16.2844C25.6564 14.7036 25.933 12.8737 25.595 11.1082C25.257 9.34283 24.3254 7.75187 22.9599 6.60801C21.5943 5.46415 19.8799 4.83862 18.1104 4.83862C16.3409 4.83862 14.6264 5.46415 13.2609 6.60801C11.8954 7.75187 10.9638 9.34283 10.6258 11.1082C10.2878 12.8737 10.5644 14.7036 11.4082 16.2844C12.2521 17.8653 13.6106 19.0986 15.251 19.7731V23.2499H12.3916C12.1886 23.2497 11.9909 23.3154 11.8272 23.4373C11.6634 23.5593 11.5423 23.7312 11.4814 23.928L1.95015 54.928C1.90523 55.0732 1.8946 55.2271 1.91911 55.3773C1.94362 55.5274 2.00259 55.6695 2.09124 55.7922C2.17989 55.9149 2.29572 56.0146 2.42935 56.0832C2.56298 56.1519 2.71065 56.1876 2.86039 56.1874H58.1416C58.2914 56.1876 58.439 56.1519 58.5727 56.0832C58.7063 56.0146 58.8221 55.9149 58.9108 55.7922C58.9994 55.6695 59.0584 55.5274 59.0829 55.3773C59.1074 55.2271 59.0968 55.0732 59.0519 54.928V54.928ZM12.3916 12.5937C12.3916 11.4441 12.727 10.3203 13.3554 9.36441C13.9838 8.40855 14.877 7.66354 15.9219 7.22361C16.9669 6.78368 18.1167 6.66857 19.2261 6.89284C20.3354 7.11712 21.3544 7.67071 22.1542 8.4836C22.9539 9.29649 23.4986 10.3322 23.7193 11.4597C23.9399 12.5872 23.8267 13.7559 23.3938 14.818C22.961 15.8801 22.228 16.7879 21.2876 17.4266C20.3471 18.0653 19.2414 18.4062 18.1104 18.4062C16.5941 18.4046 15.1404 17.7917 14.0683 16.702C12.9961 15.6123 12.3932 14.1348 12.3916 12.5937V12.5937ZM18.1104 20.3437C18.4292 20.3415 18.7475 20.3192 19.0635 20.2768V30.0312C19.0635 30.2881 18.9631 30.5345 18.7843 30.7162C18.6056 30.8978 18.3632 30.9999 18.1104 30.9999C17.8576 30.9999 17.6152 30.8978 17.4364 30.7162C17.2577 30.5345 17.1573 30.2881 17.1573 30.0312V20.2768C17.4733 20.3192 17.7916 20.3415 18.1104 20.3437V20.3437ZM4.15664 54.2499L13.0922 25.1874H15.251V30.0312C15.251 30.8019 15.5523 31.5412 16.0885 32.0862C16.6247 32.6312 17.352 32.9374 18.1104 32.9374C18.8687 32.9374 19.596 32.6312 20.1323 32.0862C20.6685 31.5412 20.9698 30.8019 20.9698 30.0312V25.1874H47.9098L56.8454 54.2499H4.15664Z" fill="#CC9A1B"/>
<path d="M44.7979 36.8125C43.8712 36.8113 42.9759 37.154 42.28 37.7761C41.5842 38.3983 41.1357 39.2571 41.0187 40.1915C40.9017 41.1259 41.1243 42.0716 41.6446 42.8511C42.165 43.6305 42.9473 44.1902 43.8448 44.4249V48.4375H45.751V44.4249C46.6485 44.1902 47.4308 43.6305 47.9512 42.8511C48.4715 42.0716 48.6941 41.1259 48.5771 40.1915C48.4601 39.2571 48.0116 38.3983 47.3158 37.7761C46.6199 37.154 45.7246 36.8113 44.7979 36.8125ZM44.7979 42.625C44.4209 42.625 44.0523 42.5114 43.7388 42.2985C43.4254 42.0856 43.181 41.783 43.0368 41.4289C42.8925 41.0749 42.8547 40.6853 42.9283 40.3095C43.0018 39.9337 43.1834 39.5884 43.45 39.3175C43.7166 39.0465 44.0562 38.862 44.426 38.7872C44.7958 38.7125 45.1791 38.7508 45.5274 38.8975C45.8757 39.0441 46.1734 39.2925 46.3829 39.6111C46.5923 39.9297 46.7041 40.3043 46.7041 40.6875C46.7041 41.2014 46.5033 41.6942 46.1458 42.0575C45.7883 42.4209 45.3035 42.625 44.7979 42.625Z" fill="#CC9A1B"/>
<path d="M43.8438 50.375H45.75V52.3125H43.8438V50.375Z" fill="#CC9A1B"/>
<path d="M40.0312 50.375H41.9375V52.3125H40.0312V50.375Z" fill="#CC9A1B"/>
<path d="M36.2188 50.375H38.125V52.3125H36.2188V50.375Z" fill="#CC9A1B"/>
<path d="M16.2031 42.625H33.3594C34.3705 42.625 35.3402 42.2167 36.0552 41.49C36.7702 40.7633 37.1719 39.7777 37.1719 38.75C37.1719 37.7223 36.7702 36.7367 36.0552 36.01C35.3402 35.2833 34.3705 34.875 33.3594 34.875H24.7812V36.8125H33.3594C33.8649 36.8125 34.3498 37.0166 34.7073 37.38C35.0648 37.7433 35.2656 38.2361 35.2656 38.75C35.2656 39.2639 35.0648 39.7567 34.7073 40.12C34.3498 40.4834 33.8649 40.6875 33.3594 40.6875H16.2031C14.6864 40.6875 13.2318 41.2999 12.1594 42.3899C11.0869 43.48 10.4844 44.9584 10.4844 46.5C10.4844 48.0416 11.0869 49.52 12.1594 50.6101C13.2318 51.7001 14.6864 52.3125 16.2031 52.3125H34.3125V50.375H16.2031C15.192 50.375 14.2223 49.9667 13.5073 49.24C12.7923 48.5133 12.3906 47.5277 12.3906 46.5C12.3906 45.4723 12.7923 44.4867 13.5073 43.76C14.2223 43.0333 15.192 42.625 16.2031 42.625V42.625Z" fill="#CC9A1B"/>
<path d="M20.9688 34.875H22.875V36.8125H20.9688V34.875Z" fill="#CC9A1B"/>
<path d="M17.1562 34.875H19.0625V36.8125H17.1562V34.875Z" fill="#CC9A1B"/>
<path d="M20.9687 12.5938C20.9687 12.0189 20.801 11.4571 20.4869 10.9791C20.1727 10.5012 19.7261 10.1287 19.2036 9.90873C18.6811 9.68876 18.1062 9.63121 17.5515 9.74334C16.9969 9.85548 16.4874 10.1323 16.0875 10.5387C15.6876 10.9452 15.4153 11.463 15.3049 12.0268C15.1946 12.5905 15.2512 13.1749 15.4677 13.7059C15.6841 14.237 16.0506 14.6909 16.5208 15.0102C16.991 15.3295 17.5438 15.5 18.1094 15.5C18.8677 15.5 19.595 15.1938 20.1313 14.6488C20.6675 14.1038 20.9687 13.3645 20.9687 12.5938ZM17.1563 12.5938C17.1563 12.4021 17.2121 12.2149 17.3169 12.0555C17.4216 11.8962 17.5705 11.7721 17.7446 11.6987C17.9188 11.6254 18.1104 11.6062 18.2953 11.6436C18.4802 11.681 18.65 11.7733 18.7833 11.9087C18.9166 12.0442 19.0074 12.2168 19.0442 12.4048C19.081 12.5927 19.0621 12.7875 18.9899 12.9645C18.9178 13.1415 18.7956 13.2928 18.6389 13.3992C18.4822 13.5057 18.2979 13.5625 18.1094 13.5625C17.8566 13.5625 17.6142 13.4604 17.4354 13.2788C17.2567 13.0971 17.1563 12.8507 17.1563 12.5938Z" fill="#CC9A1B"/>
</svg>
