<svg width="21" height="23" viewBox="0 0 21 23" fill="none" xmlns="http://www.w3.org/2000/svg">
<g clip-path="url(#clip0)">
<path d="M4.98145 8.02502C5.06446 9.06542 5.2551 10.4906 5.68646 11.987C6.60259 15.1647 8.22098 17.4243 10.4992 18.7084C12.7774 17.4243 14.3958 15.1647 15.3119 11.987C15.7433 10.4907 15.9339 9.0655 16.0169 8.02502L10.4992 5.13477L4.98145 8.02502Z" fill="#CC9A1B"/>
<path d="M19.7629 6.02824C19.7514 5.79647 19.6218 5.58906 19.4237 5.48529L10.7745 0.954749C10.6013 0.864042 10.3975 0.864042 10.2242 0.954749L1.57508 5.48529C1.37693 5.58906 1.24732 5.79647 1.23584 6.02824C1.22928 6.16016 1.08703 9.30108 2.10836 12.9477C2.71269 15.1053 3.60158 16.9898 4.75034 18.5489C6.19799 20.5135 8.05862 21.9587 10.2806 22.8446C10.3511 22.8726 10.4252 22.8867 10.4994 22.8867C10.5736 22.8867 10.6477 22.8726 10.7182 22.8446C12.9401 21.9588 14.8008 20.5135 16.2484 18.5489C17.3972 16.9898 18.2861 15.1053 18.8904 12.9477C19.9117 9.30108 19.7695 6.16016 19.7629 6.02824ZM10.7721 20.0109C10.6861 20.0554 10.5927 20.0776 10.4994 20.0776C10.406 20.0776 10.3126 20.0554 10.2267 20.0109C7.48719 18.5919 5.5634 16.0174 4.5088 12.3592C3.98134 10.5294 3.79091 8.80527 3.72405 7.68112C3.70867 7.42296 3.84214 7.18023 4.06296 7.06456L10.2243 3.83722C10.3975 3.74656 10.6013 3.74651 10.7746 3.83722L16.9359 7.06456C17.1567 7.18019 17.2902 7.42301 17.2748 7.68116C17.2079 8.8054 17.0175 10.5296 16.49 12.3592C15.4354 16.0174 13.5116 18.5918 10.7721 20.0109Z" fill="#CC9A1B"/>
</g>
<defs>
<clipPath id="clip0">
<rect width="21" height="22" fill="white" transform="translate(0 0.886719)"/>
</clipPath>
</defs>
</svg>
