<svg width="42" height="43" viewBox="0 0 42 43" fill="none" xmlns="http://www.w3.org/2000/svg">
<g clip-path="url(#clip0)">
<path d="M29.826 26.3891C29.4498 26.0522 28.8719 26.0851 28.5368 26.4603C26.6322 28.5887 23.8857 29.8085 20.9996 29.8085C18.1144 29.8085 15.367 28.5887 13.4624 26.4603C13.1255 26.0851 12.5494 26.0522 12.1732 26.3891C11.797 26.7251 11.766 27.3022 12.102 27.6783C14.3526 30.1929 17.5958 31.6346 20.9996 31.6346C24.4043 31.6346 27.6475 30.192 29.8972 27.6783C30.2332 27.3022 30.2012 26.7251 29.826 26.3891Z" fill="white"/>
<path d="M21 0.591797C9.42078 0.591797 0 10.0126 0 21.5918C0 33.171 9.42078 42.5918 21 42.5918C32.5792 42.5918 42 33.171 42 21.5918C42 10.0126 32.5792 0.591797 21 0.591797ZM21 40.7657C10.427 40.7657 1.82609 32.1648 1.82609 21.5918C1.82609 11.0188 10.427 2.41788 21 2.41788C31.573 2.41788 40.1739 11.0188 40.1739 21.5918C40.1739 32.1648 31.573 40.7657 21 40.7657Z" fill="white"/>
<path d="M28.3035 15.2012C25.7862 15.2012 23.7383 17.2491 23.7383 19.7664C23.7383 20.2704 24.1473 20.6794 24.6513 20.6794C25.1553 20.6794 25.5644 20.2704 25.5644 19.7664C25.5644 18.2562 26.7933 17.0273 28.3035 17.0273C29.8137 17.0273 31.0426 18.2562 31.0426 19.7664C31.0426 20.2704 31.4517 20.6794 31.9557 20.6794C32.4597 20.6794 32.8687 20.2704 32.8687 19.7664C32.8687 17.2491 30.8208 15.2012 28.3035 15.2012Z" fill="white"/>
<path d="M16.4352 19.7664C16.4352 20.2704 16.8442 20.6794 17.3482 20.6794C17.8523 20.6794 18.2613 20.2704 18.2613 19.7664C18.2613 17.2491 16.2133 15.2012 13.6961 15.2012C11.1788 15.2012 9.13086 17.2491 9.13086 19.7664C9.13086 20.2704 9.5399 20.6794 10.0439 20.6794C10.5479 20.6794 10.9569 20.2704 10.9569 19.7664C10.9569 18.2562 12.1859 17.0273 13.6961 17.0273C15.2063 17.0273 16.4352 18.2562 16.4352 19.7664Z" fill="white"/>
</g>
<defs>
<clipPath id="clip0">
<rect width="42" height="42" fill="white" transform="translate(0 0.591797)"/>
</clipPath>
</defs>
</svg>
