<svg width="14" height="14" viewBox="0 0 14 14" fill="none" xmlns="http://www.w3.org/2000/svg">
<path d="M9.1875 7.4375H4.8125C4.571 7.4375 4.375 7.6335 4.375 7.875C4.375 8.1165 4.571 8.3125 4.8125 8.3125H9.1875C9.429 8.3125 9.625 8.1165 9.625 7.875C9.625 7.6335 9.429 7.4375 9.1875 7.4375ZM10.0625 4.8125H3.9375C3.696 4.8125 3.5 5.0085 3.5 5.25C3.5 5.4915 3.696 5.6875 3.9375 5.6875H10.0625C10.304 5.6875 10.5 5.4915 10.5 5.25C10.5 5.0085 10.304 4.8125 10.0625 4.8125ZM7 0C3.13426 0 0 2.74224 0 6.125C0 8.05833 1.02593 9.77943 2.625 10.9021V14L5.69143 12.1393C6.11583 12.2093 6.55243 12.25 7 12.25C10.8662 12.25 14 9.50776 14 6.125C14 2.74224 10.8662 0 7 0ZM7 11.375C6.489 11.375 5.9955 11.3155 5.52124 11.2144L3.46148 12.4525L3.48904 10.4234C1.91013 9.47363 0.875 7.90389 0.875 6.125C0.875 3.2257 3.61724 0.875 7 0.875C10.3828 0.875 13.125 3.2257 13.125 6.125C13.125 9.0243 10.3828 11.375 7 11.375Z" fill="#87AEDB"/>
</svg>
