<svg width="52" height="52" viewBox="0 0 52 52" fill="none" xmlns="http://www.w3.org/2000/svg">
<path d="M26.7179 43.2585C26.5291 43.0696 26.2671 42.9609 26 42.9609C25.7329 42.9609 25.4709 43.0696 25.282 43.2585C25.093 43.4474 24.9844 43.7095 24.9844 43.9766C24.9844 44.2437 25.0929 44.5057 25.282 44.6946C25.471 44.8835 25.7329 44.9922 26 44.9922C26.2671 44.9922 26.5291 44.8835 26.7179 44.6946C26.9068 44.5057 27.0156 44.2437 27.0156 43.9766C27.0156 43.7095 26.9069 43.4474 26.7179 43.2585Z" fill="#CC9A1B"/>
<path d="M32.3804 32.1636H19.6195C18.0976 32.1636 16.8594 33.4018 16.8594 34.9237V36.3097C16.8594 37.8316 18.0975 39.0698 19.6195 39.0698H32.3804C33.9024 39.0698 35.1406 37.8317 35.1406 36.3097V34.9237C35.1406 33.4018 33.9024 32.1636 32.3804 32.1636ZM20.9219 37.0386H19.6195C19.2177 37.0386 18.8906 36.7115 18.8906 36.3097V34.9237C18.8906 34.5218 19.2177 34.1948 19.6195 34.1948H20.9219V37.0386ZM24.9844 37.0386H22.9531V34.1948H24.9844V37.0386ZM29.0469 37.0386H27.0156V34.1948H29.0469V37.0386ZM33.1093 36.3096C33.1093 36.7114 32.7823 37.0385 32.3804 37.0385H31.0781V34.1947H32.3804C32.7823 34.1947 33.1093 34.5218 33.1093 34.9236V36.3096Z" fill="#CC9A1B"/>
<path d="M25.9054 18.592C25.7166 18.4031 25.4546 18.2954 25.1875 18.2954C24.9203 18.2954 24.6583 18.4031 24.4695 18.592C24.2805 18.7819 24.1719 19.0429 24.1719 19.311C24.1719 19.5781 24.2804 19.8392 24.4695 20.0291C24.6583 20.218 24.9203 20.3256 25.1875 20.3256C25.4546 20.3256 25.7166 20.218 25.9054 20.0291C26.0944 19.8392 26.2031 19.5781 26.2031 19.311C26.2031 19.0429 26.0945 18.7819 25.9054 18.592Z" fill="#CC9A1B"/>
<path d="M7.71874 32.2461C5.59071 32.2461 3.85938 33.9774 3.85938 36.1055C3.85938 38.2335 5.59071 39.9648 7.71874 39.9648C9.84678 39.9648 11.5781 38.2335 11.5781 36.1055C11.5781 33.9774 9.84678 32.2461 7.71874 32.2461ZM7.71874 37.9336C6.71074 37.9336 5.89062 37.1135 5.89062 36.1055C5.89062 35.0975 6.71074 34.2773 7.71874 34.2773C8.72675 34.2773 9.54686 35.0975 9.54686 36.1055C9.54686 37.1135 8.72675 37.9336 7.71874 37.9336Z" fill="#CC9A1B"/>
<path d="M44.2812 32.2461C42.1532 32.2461 40.4219 33.9774 40.4219 36.1055C40.4219 38.2335 42.1532 39.9648 44.2812 39.9648C46.4093 39.9648 48.1406 38.2335 48.1406 36.1055C48.1406 33.9774 46.4093 32.2461 44.2812 32.2461ZM44.2812 37.9336C43.2732 37.9336 42.4531 37.1135 42.4531 36.1055C42.4531 35.0975 43.2732 34.2773 44.2812 34.2773C45.2892 34.2773 46.1094 35.0975 46.1094 36.1055C46.1094 37.1135 45.2892 37.9336 44.2812 37.9336Z" fill="#CC9A1B"/>
<path d="M46.5156 44.9921H46.9219C49.722 44.9921 52 42.7141 52 39.914V33.8854C52 32.111 51.0985 30.4954 49.5885 29.5637L49.08 29.2499H50.9843C51.5451 29.2499 51.9999 28.7953 51.9999 28.2343V24.2374C51.9999 23.6765 51.5451 23.2218 50.9843 23.2218H47.7851C47.4207 23.2218 47.0843 23.417 46.9033 23.7334L45.8799 25.5235L43.49 15.7929C42.8621 13.2365 40.8648 11.3216 38.3906 10.7441V4.90881C38.3906 2.87411 36.7352 1.21875 34.7005 1.21875H17.2994C15.2647 1.21875 13.6093 2.87411 13.6093 4.90881V10.7441C11.1351 11.3215 9.13776 13.2365 8.50991 15.7929L6.12004 25.5234L5.0966 23.7333C4.91572 23.4169 4.57924 23.2217 4.21484 23.2217H1.01562C0.454796 23.2217 0 23.6764 0 24.2373V28.2343C0 28.7953 0.454796 29.2499 1.01562 29.2499H2.91992L2.4115 29.5637C0.901467 30.4954 0 32.111 0 33.8854V39.914C0 42.7141 2.27804 44.9921 5.07812 44.9921H5.48436V46.5155C5.48436 47.3343 5.71674 48.0996 6.11832 48.7499H5.02754C4.46671 48.7499 4.01191 49.2046 4.01191 49.7655C4.01191 50.3265 4.46671 50.7812 5.02754 50.7812H23.1853C23.7461 50.7812 24.2009 50.3265 24.2009 49.7655C24.2009 49.2046 23.7461 48.7499 23.1853 48.7499H13.3816C13.7832 48.0996 14.0156 47.3343 14.0156 46.5155V44.9921H21.5312C22.092 44.9921 22.5468 44.5374 22.5468 43.9765C22.5468 43.4156 22.092 42.9609 21.5312 42.9609H5.07812C3.39807 42.9609 2.03125 41.594 2.03125 39.914V33.8854C2.03125 32.8208 2.57217 31.8514 3.4781 31.2924L6.78812 29.2499H45.2118L48.5218 31.2923C49.4277 31.8513 49.9687 32.8207 49.9687 33.8853V39.914C49.9687 41.594 48.6018 42.9609 46.9218 42.9609H30.4261C29.8653 42.9609 29.4105 43.4156 29.4105 43.9765C29.4105 44.5374 29.8653 44.9921 30.4261 44.9921H37.9843V46.5155C37.9843 47.3343 38.2167 48.0996 38.6183 48.7499H32.168C31.6072 48.7499 31.1524 49.2046 31.1524 49.7655C31.1524 50.3265 31.6072 50.7812 32.168 50.7812H50.3257C50.8866 50.7812 51.3414 50.3265 51.3414 49.7655C51.3414 49.2046 50.8866 48.7499 50.3257 48.7499H45.8817C46.2833 48.0996 46.5156 47.3343 46.5156 46.5155V44.9921V44.9921ZM7.51561 44.9921H11.9844V46.5155C11.9844 47.7476 10.982 48.7499 9.74998 48.7499C8.51793 48.7499 7.51561 47.7476 7.51561 46.5155V44.9921ZM2.03125 27.2187V25.2531H3.62557L4.74946 27.2187H2.03125ZM15.6406 4.90881C15.6406 3.99424 16.3847 3.25 17.2994 3.25H34.7005C35.6152 3.25 36.3593 3.99424 36.3593 4.90881V10.5625H15.6406V4.90881ZM18.7146 27.2187L23.3889 22.5445C23.7855 22.1478 23.7855 21.5047 23.3889 21.1081C22.9923 20.7115 22.3494 20.7115 21.9525 21.1081L15.902 27.1586C15.8827 27.1779 15.865 27.1983 15.8477 27.2187H11.9784L14.4275 17.2465C14.5129 16.899 14.8225 16.6562 15.1803 16.6562H32.4515L26.2635 22.8443C25.8669 23.2409 25.8669 23.884 26.2635 24.2806C26.4619 24.479 26.7218 24.5781 26.9817 24.5781C27.2415 24.5781 27.5014 24.4789 27.6998 24.2806L35.3242 16.6562H36.8196C37.1774 16.6562 37.487 16.899 37.5723 17.2465L40.0213 27.2187H18.7146ZM42.1129 27.2187L39.5448 16.7621C39.2358 15.5039 38.1151 14.625 36.8195 14.625H15.1804C13.8848 14.625 12.7641 15.5037 12.4551 16.7619L9.88689 27.2187H7.79521L10.4824 16.2775C11.0152 14.1085 12.9471 12.5937 15.1805 12.5937H36.8194C39.0527 12.5937 40.9847 14.1085 41.5175 16.2775L44.2047 27.2187H42.1129ZM47.2504 27.2187L48.3742 25.2531H49.9687V27.2187H47.2504ZM44.4843 46.5155C44.4843 47.7476 43.482 48.7499 42.2499 48.7499C41.0179 48.7499 40.0155 47.7476 40.0155 46.5155V44.9921H44.4843V46.5155Z" fill="#CC9A1B"/>
<path d="M33.6406 4.24023C33.0798 4.24023 32.625 4.69493 32.625 5.25586V8.45507C32.625 9.016 33.0798 9.47069 33.6406 9.47069C34.2015 9.47069 34.6562 9.016 34.6562 8.45507V5.25586C34.6562 4.69493 34.2015 4.24023 33.6406 4.24023Z" fill="#CC9A1B"/>
<path d="M20.6888 4.24023H18.3867C17.8259 4.24023 17.3711 4.69493 17.3711 5.25586C17.3711 5.81679 17.8259 6.27148 18.3867 6.27148H18.5222V8.45507C18.5222 9.016 18.977 9.47069 19.5378 9.47069C20.0987 9.47069 20.5534 9.016 20.5534 8.45507V6.27148H20.6888C21.2497 6.27148 21.7045 5.81679 21.7045 5.25586C21.7045 4.69493 21.2498 4.24023 20.6888 4.24023Z" fill="#CC9A1B"/>
<path d="M30.6061 6.90631L31.4402 5.90663C31.7996 5.4759 31.7418 4.83545 31.3111 4.47612C30.8807 4.1169 30.2402 4.17448 29.8807 4.60521L29.2834 5.32112L28.6861 4.60521C28.3268 4.17438 27.686 4.1168 27.2557 4.47612C26.825 4.83555 26.7671 5.4759 27.1266 5.90663L27.9607 6.90631L27.1265 7.90598C26.7671 8.33671 26.8249 8.97706 27.2556 9.33649C27.4455 9.49503 27.6763 9.57232 27.9057 9.57232C28.1964 9.57232 28.4851 9.448 28.686 9.2073L29.2833 8.49139L29.8806 9.2073C30.0815 9.44811 30.37 9.57232 30.6609 9.57232C30.8904 9.57232 31.1212 9.49493 31.311 9.33649C31.7417 8.97706 31.7996 8.33671 31.4401 7.90598L30.6061 6.90631Z" fill="#CC9A1B"/>
<path d="M26.3091 8.15079L24.8701 4.85001C24.7086 4.47972 24.3431 4.24023 23.9391 4.24023C23.5351 4.24023 23.1696 4.47962 23.0081 4.85001L21.5692 8.15079C21.3451 8.665 21.5802 9.26351 22.0944 9.48765C22.6088 9.7118 23.2071 9.47658 23.4313 8.96248L23.9391 7.79745L24.447 8.96248C24.6136 9.34455 24.9867 9.57246 25.3786 9.57246C25.514 9.57246 25.6518 9.54514 25.7839 9.48765C26.2981 9.26361 26.5332 8.6649 26.3091 8.15079Z" fill="#CC9A1B"/>
</svg>
