<svg width="76" height="77" viewBox="0 0 76 77" fill="none" xmlns="http://www.w3.org/2000/svg">
<g clip-path="url(#clip0)">
<path d="M12.7613 34.2012C12.1429 34.2012 11.6416 34.7024 11.6416 35.3208V37.3433C11.6416 45.6942 15.4251 53.4203 22.0221 58.5403L32.5988 66.7489C32.9894 67.0522 33.4576 67.2037 33.9259 67.2037C34.3943 67.2037 34.8624 67.0522 35.2533 66.7489L43.5258 60.3282C44.0144 59.949 44.103 59.2457 43.7239 58.7572C43.3447 58.2688 42.6415 58.1801 42.1528 58.5592L33.9259 64.9444L23.3952 56.7712C17.3487 52.0784 13.8809 44.9973 13.8809 37.3433V35.3208C13.8809 34.7024 13.3797 34.2012 12.7613 34.2012Z" fill="#CC9A1B"/>
<path d="M33.9256 68.7227C33.0779 68.7227 32.3906 69.4099 32.3906 70.2576C32.3906 71.1054 33.0779 71.7926 33.9256 71.7926C34.7733 71.7926 35.4606 71.1054 35.4606 70.2576C35.4606 69.4098 34.7733 68.7227 33.9256 68.7227Z" fill="#CC9A1B"/>
<path d="M33.9256 6.42578C33.0779 6.42578 32.3906 7.11305 32.3906 7.96077C32.3906 8.8085 33.0779 9.49577 33.9256 9.49577C34.7733 9.49577 35.4606 8.8085 35.4606 7.96077C35.4606 7.1129 34.7733 6.42578 33.9256 6.42578Z" fill="#CC9A1B"/>
<path d="M57.0322 17.0037C57.0322 17.8515 57.7195 18.5387 58.5672 18.5387C59.4149 18.5387 60.1022 17.8515 60.1022 17.0037C60.1022 16.156 59.4149 15.4688 58.5672 15.4688C57.7195 15.4688 57.0322 16.156 57.0322 17.0037Z" fill="#CC9A1B"/>
<path d="M7.56445 17.0037C7.56445 17.8515 8.25172 18.5387 9.09945 18.5387C9.94717 18.5387 10.6344 17.8515 10.6344 17.0037C10.6344 16.156 9.94717 15.4688 9.09945 15.4688C8.25172 15.4688 7.56445 16.156 7.56445 17.0037Z" fill="#CC9A1B"/>
<path d="M70.7974 69.0454V41.8854C72.1075 41.2697 73.0173 39.9377 73.0173 38.3968C73.0173 36.2725 71.289 34.5443 69.1646 34.5443H56.2096V20.9483C56.2096 19.8461 55.3848 18.9218 54.2913 18.7983C50.0227 18.3166 46.0466 17.4112 42.4733 16.1068C40.076 15.2321 37.9072 14.1878 36.027 13.0029C34.7502 12.198 33.1004 12.1982 31.8235 13.003C29.9431 14.188 27.7743 15.2323 25.3772 16.1068C21.8038 17.411 17.8278 18.3166 13.5592 18.7983C12.4656 18.9218 11.6409 19.8461 11.6409 20.9483V30.0254C11.6409 30.6438 12.1422 31.145 12.7606 31.145C13.379 31.145 13.8802 30.6438 13.8802 30.0254V21.0157C18.2986 20.512 22.4246 19.5683 26.1447 18.2106C28.6906 17.2817 31.0029 16.167 33.0174 14.8975C33.5774 14.5448 34.2732 14.5444 34.8331 14.8974C36.8474 16.167 39.1597 17.2816 41.7057 18.2106C45.4259 19.5684 49.552 20.5119 53.9702 21.0157V34.5441H47.9695C45.8451 34.5441 44.1168 36.2724 44.1168 38.3967C44.1168 39.9434 45.0334 41.2793 46.3515 41.8919V66.2619L37.9841 72.7561C36.8281 73.6531 35.3866 74.1472 33.9252 74.1472C32.4426 74.1472 31.0392 73.6663 29.8667 72.7562L17.9235 63.4871C13.9911 60.435 10.7555 56.4587 8.56617 51.9882C6.37687 47.518 5.2198 42.524 5.2198 37.5461V13.1423C5.2198 12.8562 5.45255 12.6218 5.73859 12.6198L9.36892 12.5933C21.7764 12.5032 27.8167 8.30185 30.3132 5.80558C31.0736 5.04498 31.7805 4.23155 32.414 3.38768C32.7775 2.90333 33.3321 2.6259 33.9361 2.6259C33.9377 2.6259 33.9392 2.6259 33.9408 2.62605C34.5421 2.62738 35.0927 2.90496 35.4512 3.38723C36.0881 4.24416 36.7901 5.05775 37.5379 5.80558C39.5477 7.81527 45.6117 12.5 58.4821 12.5933L62.1125 12.6198C62.3985 12.6218 62.6313 12.8562 62.6313 13.1423V29.9788C62.6313 30.5972 63.1325 31.0984 63.7509 31.0984C64.3693 31.0984 64.8706 30.5972 64.8706 29.9788V13.1423C64.8706 11.6304 63.6406 10.3916 62.129 10.3804L58.4986 10.354C46.4568 10.2666 40.9362 6.03655 39.1216 4.2222C38.4508 3.55126 37.8207 2.82095 37.2486 2.05145C36.4641 0.9965 35.2606 0.389836 33.946 0.386719C33.9426 0.386719 33.9392 0.386719 33.9358 0.386719C32.6208 0.386719 31.4137 0.989969 30.6229 2.04313C30.0526 2.80284 29.4156 3.53597 28.7295 4.22205C26.4755 6.47607 20.9611 10.2697 9.35245 10.354L5.72211 10.3804C4.21042 10.3916 2.98047 11.6304 2.98047 13.1423V37.5463C2.98047 42.8636 4.21651 48.1981 6.55499 52.9734C8.89362 57.7488 12.35 61.996 16.5505 65.2563L28.4936 74.5255C30.0402 75.7257 31.9691 76.3867 33.9252 76.3867C35.8812 76.3867 37.8103 75.7257 39.3572 74.5253L44.8735 70.2439C44.3984 70.8846 44.117 71.6769 44.117 72.5339C44.117 74.6583 45.8452 76.3866 47.9696 76.3866H69.1647C71.289 76.3866 73.0174 74.6583 73.0174 72.5339C73.0173 70.9931 72.1077 69.6612 70.7974 69.0454ZM48.5909 56.0766C49.5358 55.1116 50.4071 54.077 51.1936 52.9852C52.0015 53.9643 52.9442 54.7898 53.9744 55.3908C51.3432 56.9261 49.2781 59.9217 48.5909 63.2187V56.0766ZM48.5909 47.563C48.8414 48.7652 49.2762 49.9265 49.8539 50.9923C49.4591 51.5821 49.0369 52.1549 48.5909 52.7096V47.563ZM50.5841 65.5613C50.5841 61.5734 53.3496 57.5126 56.6233 56.6938C57.2215 56.5439 57.6392 56.0079 57.6389 55.3904C57.6387 54.7729 57.2209 54.237 56.6228 54.0875C53.3495 53.2689 50.5839 49.2081 50.5839 45.22V42.2495H66.5497V45.22C66.5497 49.2081 63.7842 53.2689 60.5111 54.0875C59.9129 54.237 59.4949 54.7727 59.4948 55.3904C59.4946 56.0079 59.9122 56.544 60.5108 56.694C63.7842 57.5126 66.5497 61.5734 66.5497 65.5613V68.6812H50.5841V65.5613ZM68.5581 63.2936C67.8865 59.9672 65.8106 56.9375 63.1597 55.3908C65.8108 53.844 67.8865 50.8145 68.5581 47.488V63.2936ZM47.9695 36.7834H69.1646C70.0542 36.7834 70.778 37.5071 70.778 38.3968C70.778 39.2864 70.0542 40.0103 69.1646 40.0103H47.9695C47.0798 40.0103 46.356 39.2865 46.356 38.3968C46.3561 37.5072 47.0799 36.7834 47.9695 36.7834ZM69.1646 74.1474H47.9695C47.0798 74.1474 46.356 73.4236 46.356 72.5339C46.356 71.6443 47.0798 70.9204 47.9695 70.9204H69.1646C70.0542 70.9204 70.778 71.6441 70.778 72.5339C70.778 73.4236 70.0542 74.1474 69.1646 74.1474Z" fill="#CC9A1B"/>
<path d="M28.7949 47.7516H28.8104C29.846 47.7516 30.8078 47.2851 31.4486 46.4717L45.6021 28.5107C46.1575 27.8059 46.4051 26.9272 46.2996 26.0363C46.1939 25.1452 45.7477 24.3487 45.0429 23.7935C44.3381 23.2382 43.4594 22.9906 42.5686 23.096C41.6775 23.2016 40.881 23.6479 40.3259 24.3527L28.8484 38.9175L23.629 32.1022C22.5033 30.6319 20.3909 30.3514 18.9198 31.4775C18.2075 32.0231 17.7503 32.8133 17.6323 33.7028C17.5143 34.5922 17.7497 35.4744 18.2952 36.1867L26.1436 46.4349C26.7789 47.2643 27.7424 47.7444 28.7949 47.7516ZM19.8522 33.9971C19.8915 33.7007 20.044 33.4374 20.2812 33.2557C20.4841 33.1004 20.7234 33.0253 20.961 33.0253C21.2978 33.0253 21.6311 33.1763 21.851 33.4636L27.9468 41.4233C28.157 41.6976 28.4822 41.8597 28.828 41.8621C29.1683 41.86 29.5014 41.707 29.7151 41.4353L42.0847 25.7384C42.2697 25.5035 42.5351 25.3548 42.8321 25.3195C43.1296 25.2849 43.4221 25.367 43.6571 25.5521C43.8919 25.7372 44.0407 26.0027 44.0758 26.2996C44.111 26.5965 44.0285 26.8895 43.8434 27.1245L29.6899 45.0856C29.4763 45.3566 29.1558 45.5122 28.8105 45.5122H28.8028C28.4544 45.5098 28.1332 45.3498 27.9215 45.0732L20.0732 34.825C19.8912 34.5878 19.8127 34.2937 19.8522 33.9971Z" fill="#CC9A1B"/>
</g>
<defs>
<clipPath id="clip0">
<rect width="76" height="76" fill="white" transform="translate(0 0.386719)"/>
</clipPath>
</defs>
</svg>
