<svg width="38" height="38" viewBox="0 0 38 38" fill="none" xmlns="http://www.w3.org/2000/svg">
<path fill-rule="evenodd" clip-rule="evenodd" d="M17.4344 4.06204C9.80522 4.9054 3.87126 11.3735 3.87126 19.2275C3.87126 27.6545 10.7027 34.486 19.1298 34.486C26.9838 34.486 33.4519 28.5521 34.2952 20.9229H19.1298C18.1935 20.9229 17.4344 20.1638 17.4344 19.2275V4.06204ZM20.8252 4.0634V17.5321H34.2939C34.1349 16.1103 33.7765 14.7151 33.2269 13.3882C32.4601 11.537 31.3361 9.85491 29.9192 8.43807L29.9192 8.43802C28.5024 7.02115 26.8203 5.89722 24.969 5.1304C23.6421 4.58079 22.2469 4.22235 20.8252 4.0634ZM37.7791 19.2275C37.7791 29.5272 29.4296 37.8768 19.1298 37.8768C8.83006 37.8768 0.480469 29.5272 0.480469 19.2275C0.480469 8.92772 8.83006 0.578125 19.1298 0.578125C29.4296 0.578125 37.7791 8.92772 37.7791 19.2275Z" fill="#B7B7B7"/>
</svg>
