<svg width="58" height="58" viewBox="0 0 58 58" fill="none" xmlns="http://www.w3.org/2000/svg">
<path d="M13.0975 18.5556V18.2422H11.2266V18.5556C11.2266 19.0916 11.2406 19.6276 11.2677 20.1609L13.1368 20.0654C13.1116 19.5631 13.0975 19.0607 13.0975 18.5556Z" fill="#CC9A1B"/>
<path d="M13.2846 21.877L11.4258 22.0893C11.9609 26.8013 13.6036 31.4067 16.1752 35.4059L17.7487 34.3937C15.3314 30.634 13.7888 26.3055 13.2846 21.877Z" fill="#CC9A1B"/>
<path d="M34.4823 9.08496C32.8621 10.1795 30.9658 10.7576 28.9994 10.7576C27.0331 10.7576 25.1378 10.1795 23.5175 9.0859L22.4707 10.6369C24.4015 11.9401 26.6589 12.6286 28.9994 12.6286C31.34 12.6286 33.5973 11.9401 35.5291 10.636L34.4823 9.08496Z" fill="#CC9A1B"/>
<path d="M8.41935 36.0166H6.54839C6.54839 39.6266 3.61003 42.565 0 42.565V44.436C3.61003 44.436 6.54839 47.3743 6.54839 50.9843H8.41935C8.41935 47.3743 11.3577 44.436 14.9677 44.436V42.565C11.3577 42.565 8.41935 39.6266 8.41935 36.0166ZM7.48387 47.1442C6.67935 45.5819 5.40242 44.305 3.84016 43.5005C5.40242 42.696 6.67935 41.419 7.48387 39.8568C8.28839 41.419 9.56532 42.696 11.1276 43.5005C9.56532 44.305 8.28839 45.5819 7.48387 47.1442Z" fill="#CC9A1B"/>
<path d="M51.4521 11.6938H49.6607C47.8889 7.28677 43.552 4.20996 38.6379 4.20996C36.3179 4.20996 34.1363 4.83767 32.329 6.02386C30.328 7.34103 27.674 7.34103 25.6721 6.02386C23.8656 4.83767 21.6841 4.20996 19.3631 4.20996C12.8129 4.20996 7.48438 9.53848 7.48438 16.0887V18.5556C7.48438 25.263 9.40212 31.789 13.029 37.4309C14.9804 40.4665 16.4136 43.7809 17.2892 47.2815L18.307 51.3546C18.6643 52.7896 19.9469 53.7906 21.425 53.7906C23.0293 53.7906 24.3671 52.639 24.6037 51.0524L26.702 37.0595C26.8751 35.9135 27.8414 35.0809 29.0005 35.0809C30.1596 35.0809 31.1259 35.9135 31.2981 37.0595L33.3963 51.0524C33.634 52.639 34.9717 53.7906 36.5761 53.7906C38.0541 53.7906 39.3367 52.7896 39.694 51.3546L40.7128 47.2815C41.5884 43.78 43.0225 40.4656 44.9739 37.4309C47.1059 34.1136 48.6653 30.4091 49.5774 26.5643C49.5765 26.597 49.5812 26.6288 49.5812 26.6616H51.4521C51.4521 23.0515 54.3905 20.1132 58.0005 20.1132V18.2422C54.3905 18.2422 51.4521 15.3039 51.4521 11.6938ZM43.3995 36.4187C41.3367 39.6274 39.8231 43.1298 38.8979 46.8287L37.8782 50.9018C37.7295 51.5015 37.1935 51.9196 36.5761 51.9196C35.9053 51.9196 35.3468 51.4379 35.2477 50.7746L33.1494 36.7816C32.8388 34.7114 31.0932 33.21 29.0005 33.21C26.9078 33.21 25.1622 34.7114 24.8516 36.7816L22.7533 50.7746C22.6551 51.4379 22.0957 51.9196 21.425 51.9196C20.8075 51.9196 20.2715 51.5015 20.1209 50.9018L19.1021 46.8287C18.1779 43.1289 16.6633 39.6264 14.6006 36.4187C11.1692 31.0799 9.35534 24.9029 9.35534 18.5556V16.0887C9.35534 10.5703 13.8447 6.08093 19.3631 6.08093C21.3174 6.08093 23.1434 6.60199 24.644 7.58799C25.9546 8.44957 27.4214 8.88738 29.0005 8.88738C30.5796 8.88738 32.0464 8.44957 33.3561 7.58799C34.8576 6.60199 36.6836 6.08093 38.6379 6.08093C43.5735 6.08093 47.8318 9.75832 48.5334 14.5602L48.5727 15.1692C47.4127 17.0111 45.3659 18.2422 43.0328 18.2422V20.1132C45.2293 20.1132 47.1723 21.204 48.3603 22.8682C47.7289 27.6653 46.0151 32.3493 43.3995 36.4187ZM50.5166 22.8214C49.7121 21.2592 48.4352 19.9822 46.8729 19.1777C48.4352 18.3732 49.7121 17.0962 50.5166 15.534C51.3211 17.0962 52.5981 18.3732 54.1603 19.1777C52.5981 19.9822 51.3211 21.2592 50.5166 22.8214Z" fill="#CC9A1B"/>
</svg>
