<svg width="59" height="59" viewBox="0 0 59 59" fill="none" xmlns="http://www.w3.org/2000/svg">
<g clip-path="url(#clip0)">
<path d="M10.2664 4.71032C10.1978 4.30471 9.88016 3.98706 9.47455 3.91843C7.89948 3.65528 6.66537 2.42081 6.4027 0.845617C6.31365 0.319305 5.81477 -0.0353159 5.28845 0.0537319C4.88285 0.12236 4.5652 0.440009 4.49657 0.845617C4.2339 2.42081 2.99979 3.6554 1.42472 3.91843C0.898406 4.00748 0.543786 4.50637 0.632833 5.03268C0.701462 5.43829 1.01911 5.75594 1.42472 5.82456C2.99979 6.08772 4.2339 7.32219 4.49657 8.89738C4.58562 9.42369 5.0845 9.77831 5.61081 9.68927C6.01642 9.62064 6.33407 9.30299 6.4027 8.89738C6.66537 7.32219 7.89948 6.08772 9.47455 5.82456C10.0009 5.73564 10.3555 5.23675 10.2664 4.71032ZM5.44963 6.2518C5.07278 5.71546 4.60567 5.24835 4.06933 4.8715C4.60567 4.49465 5.07278 4.02754 5.44963 3.4912C5.82649 4.02754 6.2936 4.49465 6.82994 4.8715C6.29347 5.24847 5.82649 5.71546 5.44963 6.2518Z" fill="#CC9A1B"/>
<path d="M39.0155 5.83751C37.1459 5.83739 35.2958 6.21715 33.5774 6.95394C31.0455 8.03254 28.1832 8.03254 25.6513 6.95394C18.6474 3.95108 10.5353 7.19462 7.53244 14.1986C6.79577 15.917 6.4159 17.767 6.41602 19.6367C6.41408 25.3291 8.01393 30.9072 11.0325 35.7334L11.3089 36.1771L15.4827 54.5425C16.0316 56.9611 18.4374 58.4769 20.856 57.928C22.6353 57.5242 23.9934 56.0842 24.2923 54.2844L27.1921 36.8914C27.4165 35.553 28.6833 34.6501 30.0217 34.8745C31.0553 35.0479 31.8653 35.8578 32.0386 36.8914L34.9384 54.2834C35.3465 56.7304 37.6609 58.3831 40.1079 57.9751C41.9061 57.6752 43.3447 56.3182 43.7489 54.5405L47.9217 36.1752L48.1982 35.7315C51.2158 30.9056 52.8149 25.3282 52.8127 19.6367C52.8132 12.0161 46.6359 5.83812 39.0155 5.83751ZM46.5569 34.7098L46.1935 35.2898C46.1364 35.3817 46.0948 35.4822 46.0697 35.5875L41.8621 54.1094C41.5488 55.4873 40.1778 56.3504 38.8 56.0371C37.7874 55.8069 37.0145 54.9876 36.8436 53.9635L33.9438 36.5715C33.5446 34.1805 31.2826 32.5656 28.8915 32.965C27.0425 33.2737 25.5937 34.7225 25.285 36.5715L22.3852 53.9644C22.1543 55.3579 20.8373 56.3005 19.4438 56.0694C18.418 55.8994 17.5973 55.1254 17.3676 54.1114L13.159 35.5884C13.134 35.4832 13.0923 35.3827 13.0353 35.2907L12.6718 34.7108C9.84563 30.191 8.34776 24.9673 8.34921 19.6367C8.35671 13.0869 13.6644 7.77917 20.2142 7.77168C21.8214 7.76999 23.412 8.09621 24.8887 8.73054C27.9075 10.0185 31.3213 10.0185 34.3401 8.73054C40.3638 6.14948 47.3394 8.94017 49.9204 14.9639C50.5532 16.4405 50.8794 18.0302 50.8795 19.6367C50.8807 24.9671 49.3829 30.1902 46.5569 34.7098Z" fill="#CC9A1B"/>
<path d="M17.0496 12.6045L16.8563 11.6572C14.9231 12.0448 11.25 14.1559 11.25 19.3707H13.1832C13.1832 14.4691 17.0786 13.5866 17.2429 13.5508L17.0496 12.6045Z" fill="#CC9A1B"/>
<path d="M20.9156 11.6377H18.9824V13.5709H20.9156V11.6377Z" fill="#CC9A1B"/>
<path d="M58.5965 45.307C58.5279 44.9014 58.2102 44.5837 57.8046 44.5151C56.2296 44.252 54.9955 43.0175 54.7328 41.4423C54.6437 40.916 54.1448 40.5614 53.6185 40.6504C53.2129 40.719 52.8953 41.0367 52.8266 41.4423C52.564 43.0175 51.3299 44.252 49.7548 44.5151C49.2285 44.6042 48.8739 45.103 48.9629 45.6294C49.0315 46.035 49.3492 46.3526 49.7548 46.4212C51.3299 46.6844 52.564 47.9189 52.8266 49.4941C52.9157 50.0204 53.4146 50.375 53.9409 50.2859C54.3465 50.2173 54.6642 49.8997 54.7328 49.4941C54.9955 47.9189 56.2296 46.6844 57.8046 46.4212C58.3309 46.3323 58.6856 45.8334 58.5965 45.307ZM53.7797 46.8485C53.4029 46.3121 52.9358 45.845 52.3994 45.4682C52.9358 45.0913 53.4029 44.6242 53.7797 44.0879C54.1566 44.6242 54.6237 45.0913 55.16 45.4682C54.6236 45.8452 54.1566 46.3121 53.7797 46.8485Z" fill="#CC9A1B"/>
</g>
<defs>
<clipPath id="clip0">
<rect width="58" height="58" fill="white" transform="translate(0.615234 0.0400391)"/>
</clipPath>
</defs>
</svg>
