<svg width="54" height="55" viewBox="0 0 54 55" fill="none" xmlns="http://www.w3.org/2000/svg">
<g clip-path="url(#clip0)">
<path d="M14.751 14.8132C15.1699 14.6887 15.4085 14.2484 15.2841 13.8295C15.1597 13.4107 14.7195 13.1721 14.3005 13.2964C12.8691 13.7216 11.5959 14.4954 10.6186 15.534C7.89779 18.4255 8.38206 22.3167 8.50685 23.0673C8.57119 23.4544 8.90641 23.7288 9.28626 23.7288C9.7681 23.7288 10.1471 23.2863 10.0677 22.8079C9.9644 22.1863 9.56114 18.9666 11.7709 16.6183C12.7638 15.5631 13.9395 15.0542 14.751 14.8132V14.8132ZM32.3243 10.7816C31.3075 11.7982 31.2954 13.5026 32.3242 14.5215L34.3775 16.575C34.9929 17.1901 35.8121 17.5289 36.6841 17.5289C37.5562 17.5289 38.3755 17.19 38.991 16.5747L44.7786 10.787C45.8362 9.73818 45.7794 7.95309 44.6867 6.95924C43.6414 6.00831 42.0228 6.06295 41.0016 7.08402L36.6841 11.4015L36.0644 10.7819C35.0498 9.75695 33.3419 9.76412 32.3243 10.7816V10.7816ZM36.6841 13.1579C36.9945 13.1579 37.2863 13.037 37.5056 12.8176L42.1203 8.20288C42.5358 7.78728 43.2094 7.75447 43.6218 8.12957C44.0633 8.53114 44.0856 9.24715 43.6598 9.66814L37.8721 15.4559C37.5556 15.7724 37.1336 15.9467 36.684 15.9467C36.2345 15.9467 35.8126 15.7724 35.4961 15.4562L33.443 13.4029C33.0324 12.9962 33.0343 12.3091 33.443 11.9006C33.8521 11.4917 34.5384 11.4895 34.9454 11.9006L35.8626 12.8177C36.082 13.037 36.3736 13.1579 36.6839 13.1579H36.6841ZM39.2988 0.197594C38.8619 0.172911 38.4869 0.501173 38.4594 0.937238C38.4318 1.3733 38.7628 1.74914 39.1989 1.77677C44.5242 2.11358 48.6957 6.56062 48.6957 11.9007C48.6957 17.601 44.0334 22.045 38.5514 22.045C32.9579 22.045 28.4072 17.4943 28.4072 11.9007C28.4072 7.39741 31.4319 3.38602 35.7628 2.14596C36.1828 2.02571 36.4259 1.58775 36.3056 1.16772C36.1854 0.747791 35.7473 0.504232 35.3273 0.624904C30.8621 1.90335 27.6003 5.73121 26.9472 10.2373C26.2755 10.6999 25.5651 11.2218 24.8958 11.5571C23.8029 12.1047 22.8761 12.1541 21.7974 11.723C20.9937 11.4012 20.3285 10.9246 19.6242 10.42C18.4668 9.59092 17.2701 8.73356 15.4618 8.60097C13.2975 8.44348 10.8575 9.15992 8.7676 10.5671C5.97463 12.4474 4.16181 15.8722 3.79399 19.9632C3.62564 21.8297 3.7556 23.6016 4.18037 25.2295C4.48163 26.3856 5.00504 27.457 5.51114 28.4931C5.97432 29.4411 6.41165 30.3366 6.6897 31.2858C7.24264 33.1741 7.1726 35.0496 7.09834 37.035C7.07102 37.7668 7.04275 38.5236 7.04707 39.2871C7.07081 43.6483 7.10034 49.0758 10.5782 52.2116C11.9651 53.4621 14.175 54.7713 15.9805 53.9224C17.3137 53.2956 17.5221 51.8955 17.8107 49.9579C17.9603 48.9535 18.1465 47.7032 18.5205 46.2281C18.6065 45.8888 18.6929 45.5185 18.7843 45.1265C18.91 44.5881 19.1001 43.8204 18.3226 43.6373C17.5609 43.4579 17.3747 44.2047 17.2434 44.767C17.1537 45.1516 17.069 45.5148 16.9867 45.8394C16.5931 47.3917 16.4004 48.6854 16.2457 49.725C15.9876 51.4582 15.8505 52.2352 15.3075 52.4906C14.4283 52.9033 12.7606 52.05 11.6379 51.0368C8.67868 48.3687 8.65136 43.3285 8.62931 39.2784C8.62509 38.5489 8.65283 37.8094 8.67952 37.0942C8.75515 35.0698 8.83342 32.9765 8.20823 30.8413C7.89231 29.763 7.40455 28.7645 6.93284 27.7988C6.43918 26.7882 5.97284 25.8337 5.71135 24.8303C5.33288 23.3795 5.2179 21.7899 5.3699 20.1053C5.69489 16.4907 7.2554 13.4927 9.65133 11.8798C11.4532 10.6667 13.5288 10.0469 15.3467 10.1792C16.7106 10.2792 17.6338 10.9407 18.7029 11.7065C19.4527 12.2436 20.228 12.799 21.2099 13.1922C22.7107 13.7922 24.1072 13.722 25.6048 12.9718C26.0299 12.7587 26.4362 12.5056 26.8304 12.2412C27.0113 18.5503 32.1996 23.6272 38.5516 23.6272C39.4202 23.6272 40.2666 23.5314 41.0819 23.3514C40.85 24.8954 40.3733 26.3467 39.6808 27.6001C37.8223 30.9658 37.861 34.0997 37.9018 37.4176C37.9092 38.0212 37.917 38.6454 37.9135 39.2824C37.8904 43.331 37.8617 48.3696 34.9036 51.0369C33.7811 52.05 32.1133 52.9034 31.2345 52.4906C30.6912 52.2351 30.5542 51.4581 30.2961 49.7248C30.1413 48.6853 29.9486 47.3915 29.5551 45.8395C28.8902 43.2163 27.8076 38.151 24.9741 36.6631C24.028 36.1663 22.9993 36.1234 21.9167 36.5349C20.4415 37.0953 19.3056 38.4237 18.4444 40.5958C18.2834 41.002 18.482 41.4618 18.8882 41.6228C19.2944 41.7842 19.7542 41.5853 19.9153 41.179C20.6036 39.4431 21.4422 38.4078 22.479 38.0138C23.1285 37.7669 23.7041 37.7831 24.2388 38.064C26.3813 39.1892 27.4538 43.9886 28.0215 46.228C28.3955 47.7031 28.5817 48.9533 28.7312 49.9577C29.0198 51.8954 29.2283 53.2955 30.5617 53.9224C32.3905 54.7823 34.588 53.452 35.9635 52.2117C39.44 49.0769 39.4709 43.651 39.4958 39.287C39.4993 38.6398 39.4915 38.0086 39.484 37.3981C39.4441 34.1606 39.4096 31.3644 41.0659 28.3649C41.9584 26.7498 42.532 24.8539 42.7388 22.8537C47.1431 21.1644 50.2784 16.892 50.2784 11.9005C50.2779 5.72762 45.4553 0.587141 39.2988 0.197594V0.197594ZM9.74911 25.1502C9.31358 25.1841 8.98785 25.5648 9.02171 26.0003C9.05725 26.4577 9.13025 26.9152 9.23847 27.36C9.32645 27.7218 9.65007 27.9643 10.0065 27.9643C10.5083 27.9643 10.8955 27.4777 10.7758 26.9859C10.6876 26.6234 10.6282 26.2506 10.5992 25.8779C10.5652 25.442 10.1838 25.1153 9.74911 25.1502V25.1502Z" fill="#DEAC2C"/>
</g>
<defs>
<clipPath id="clip0">
<rect width="54" height="54" fill="white" transform="translate(0 0.196289)"/>
</clipPath>
</defs>
</svg>
