<svg width="52" height="52" viewBox="0 0 52 52" fill="none" xmlns="http://www.w3.org/2000/svg">
<path d="M39.1992 4.77271C38.6386 4.77271 38.1836 5.2277 38.1836 5.78833C38.1836 6.34895 38.6386 6.80395 39.1992 6.80395C39.7598 6.80395 40.2148 6.34895 40.2148 5.78833C40.2148 5.2277 39.76 4.77271 39.1992 4.77271Z" fill="#CC9A1B"/>
<path d="M40.1294 0.812374C33.76 -1.23004 28.437 1.05551 25.9966 2.46388C23.5564 1.05521 18.2342 -1.23045 11.8633 0.812374C3.42631 3.51871 -0.529242 15.8384 6.23552 25.7789C9.44052 30.4865 9.8685 34.1177 10.3216 37.9621C10.6533 40.7763 10.9963 43.6864 12.4289 47.0885C13.3923 49.3757 14.7542 51.9921 16.7691 51.9919C16.7872 51.9919 16.8058 51.9917 16.8241 51.9913C18.4443 51.953 19.75 50.346 21.0573 46.7807C21.7233 44.9632 22.1499 42.8186 22.5626 40.7448C23.3053 37.012 24.0734 33.1522 26.0038 33.1386C26.0073 33.1386 26.0106 33.1386 26.0141 33.1386C27.9233 33.1386 28.6897 36.9998 29.4309 40.7338C29.8438 42.8142 30.2707 44.9656 30.9366 46.7809C32.2455 50.3517 33.5511 51.9612 35.1698 51.9994C35.1882 51.9998 35.2064 52 35.2248 52C37.2356 52 38.5993 49.3795 39.5641 47.0884C40.9332 43.8373 41.2918 40.9345 41.6386 38.1272C42.1269 34.1747 42.5881 30.4415 45.765 25.7682C52.609 15.6993 48.4248 3.47158 40.1294 0.812374ZM44.0849 24.6262C40.6322 29.7053 40.1189 33.8601 39.6225 37.8781C39.2775 40.6708 38.9516 43.3086 37.6919 46.2999C36.1973 49.8484 35.3306 49.9686 35.221 49.9686C35.2198 49.9686 35.2188 49.9686 35.2177 49.9686C35.1786 49.9677 34.2442 49.9021 32.8437 46.0814C32.2323 44.4146 31.8211 42.3423 31.4234 40.3383C30.9769 38.0887 30.5552 35.9637 29.8601 34.3051C28.9708 32.1829 27.6781 31.1072 26.0174 31.1072C26.0082 31.1072 25.9987 31.1072 25.9895 31.1073C24.3219 31.119 23.0244 32.2031 22.1332 34.3296C21.4384 35.9873 21.0168 38.1058 20.5706 40.3485C20.173 42.3464 19.762 44.4125 19.1504 46.0816C17.7525 49.8941 16.8158 49.9597 16.7766 49.9606C16.6856 49.9622 15.8087 49.879 14.3013 46.3002C12.9803 43.163 12.6689 40.5214 12.3393 37.7245C11.8775 33.8063 11.4 29.7548 7.91516 24.6362C1.81685 15.6752 5.49279 4.98943 12.4839 2.74683C18.5635 0.797343 23.5809 3.3298 25.4559 4.50924C25.7863 4.71714 26.2067 4.71724 26.5371 4.50934C28.4128 3.33021 33.4315 0.797952 39.5094 2.74693C46.6389 5.03219 50.06 15.836 44.0849 24.6262Z" fill="#CC9A1B"/>
<path d="M44.3885 10.5145C44.0586 9.55685 43.6214 8.67569 43.0891 7.89539C42.7729 7.43186 42.1411 7.31252 41.6778 7.62869C41.2143 7.94475 41.095 8.57657 41.4112 9.04C41.8415 9.6708 42.1971 10.3896 42.468 11.1761C43.4801 14.1136 43.216 17.5413 41.7435 20.5801C41.4988 21.0849 41.7098 21.6923 42.2145 21.937C42.7194 22.1817 43.3268 21.9707 43.5714 21.4659C45.2764 17.9475 45.5743 13.9558 44.3885 10.5145Z" fill="#CC9A1B"/>
<path d="M22.3057 13.8935L18.2171 12.5306L16.8542 8.44204C16.716 8.02736 16.3278 7.74756 15.8907 7.74756C15.4536 7.74756 15.0655 8.02726 14.9272 8.44204L13.5643 12.5306L9.47573 13.8935C9.06105 14.0317 8.78125 14.4199 8.78125 14.857C8.78125 15.2941 9.06095 15.6822 9.47573 15.8205L13.5643 17.1834L14.9272 21.272C15.0654 21.6867 15.4536 21.9665 15.8907 21.9665C16.3278 21.9665 16.7159 21.6868 16.8542 21.272L18.2171 17.1834L22.3057 15.8205C22.7204 15.6823 23.0002 15.2941 23.0002 14.857C23.0002 14.4199 22.7205 14.0318 22.3057 13.8935ZM17.093 15.4169C16.7897 15.518 16.5517 15.7559 16.4506 16.0593L15.8907 17.7392L15.3308 16.0593C15.2297 15.7561 14.9918 15.518 14.6884 15.4169L13.0086 14.857L14.6884 14.2971C14.9917 14.1961 15.2297 13.9581 15.3308 13.6547L15.8907 11.9749L16.4506 13.6547C16.5517 13.958 16.7896 14.1961 17.093 14.2971L18.7728 14.857L17.093 15.4169Z" fill="#CC9A1B"/>
</svg>
