<svg width="30" height="19" viewBox="0 0 30 19" fill="none" xmlns="http://www.w3.org/2000/svg">
<path d="M29.7326 16.4325C29.652 16.293 29.1532 15.173 26.753 12.8711C24.2403 10.4607 24.5779 10.8521 27.6043 6.68418C29.4476 4.14587 30.1845 2.59575 29.9539 1.93308C29.7345 1.30141 28.3788 1.46804 28.3788 1.46804L23.8709 1.49517C23.8709 1.49517 23.5372 1.44867 23.2878 1.60174C23.0459 1.75288 22.8902 2.10165 22.8902 2.10165C22.8902 2.10165 22.1758 4.06642 21.2232 5.73667C19.215 9.26125 18.4105 9.44726 18.0824 9.22831C17.3192 8.71871 17.5105 7.17828 17.5105 6.08545C17.5105 2.66938 18.0111 1.24521 16.5335 0.877061C16.0422 0.75499 15.6822 0.673609 14.4277 0.660045C12.8189 0.642606 11.4556 0.665858 10.685 1.05532C10.1712 1.31497 9.77552 1.89433 10.0174 1.92727C10.3156 1.96796 10.9906 2.11522 11.3488 2.619C11.8119 3.26811 11.795 4.7291 11.795 4.7291C11.795 4.7291 12.0613 8.74971 11.1744 9.24962C10.5649 9.59259 9.73051 8.8931 7.93975 5.69405C7.02281 4.05674 6.32901 2.24504 6.32901 2.24504C6.32901 2.24504 6.19588 1.90789 5.95773 1.72769C5.66896 1.50873 5.26393 1.43898 5.26393 1.43898L0.977366 1.46611C0.977366 1.46611 0.334193 1.48548 0.0979258 1.77419C-0.11209 2.0319 0.0810496 2.56281 0.0810496 2.56281C0.0810496 2.56281 3.43755 10.6757 7.23658 14.7661C10.7225 18.5154 14.679 18.2694 14.679 18.2694H16.4716C16.4716 18.2694 17.0136 18.2074 17.2892 17.8993C17.5442 17.6164 17.5348 17.0855 17.5348 17.0855C17.5348 17.0855 17.4992 14.5995 18.6168 14.2332C19.7175 13.8728 21.1314 16.6359 22.6296 17.6997C23.7622 18.5038 24.6229 18.3275 24.6229 18.3275L28.63 18.2694C28.63 18.2694 30.7264 18.1357 29.7326 16.4325Z" fill="white"/>
</svg>
