<svg width="45" height="46" viewBox="0 0 45 46" fill="none" xmlns="http://www.w3.org/2000/svg">
<path d="M42.8967 23.1868V16.9264C42.8967 14.8036 41.25 13.0771 39.1696 12.9097L33.3557 2.75484C32.8169 1.81565 31.9469 1.14439 30.9059 0.865648C29.8698 0.588809 28.7864 0.734204 27.8591 1.27393L7.92864 12.8771H4.42824C2.19502 12.8771 0.378906 14.6931 0.378906 16.9264V41.2222C0.378906 43.4554 2.19492 45.2715 4.42824 45.2715H38.8473C41.0805 45.2715 42.8967 43.4555 42.8967 41.2222V34.9618C44.0724 34.5425 44.9213 33.4293 44.9213 32.1113V26.0373C44.9213 24.7193 44.0724 23.6061 42.8967 23.1868ZM36.817 12.8771H27.9935L34.6112 9.02429L36.817 12.8771ZM33.6053 7.26731L23.9697 12.8771H19.9729L32.606 5.5219L33.6053 7.26731ZM28.8783 3.0237C29.336 2.75578 29.8708 2.68461 30.3819 2.82108C30.899 2.95945 31.33 3.29361 31.598 3.76121L31.6001 3.76491L15.9492 12.8771H11.9526L28.8783 3.0237ZM40.8719 41.2222C40.8719 42.3383 39.9634 43.2468 38.8473 43.2468H4.42824C3.31215 43.2468 2.40362 42.3383 2.40362 41.2222V16.9264C2.40362 15.8103 3.31215 14.9018 4.42824 14.9018H38.8473C39.9634 14.9018 40.8719 15.8103 40.8719 16.9264V23.0004H34.798C31.4486 23.0004 28.724 25.7249 28.724 29.0743C28.724 32.4237 31.4486 35.1483 34.798 35.1483H40.8719V41.2222ZM42.8967 32.1113C42.8967 32.6698 42.4429 33.1236 41.8843 33.1236H34.798C32.5648 33.1236 30.7487 31.3076 30.7487 29.0743C30.7487 26.8411 32.5647 25.025 34.798 25.025H41.8843C42.4428 25.025 42.8967 25.4787 42.8967 26.0373V32.1113Z" fill="#CC9A1B"/>
<path d="M34.7971 27.0498C33.681 27.0498 32.7725 27.9583 32.7725 29.0744C32.7725 30.1905 33.681 31.099 34.7971 31.099C35.9132 31.099 36.8217 30.1905 36.8217 29.0744C36.8218 27.9583 35.9133 27.0498 34.7971 27.0498Z" fill="#CC9A1B"/>
</svg>
