<svg width="55" height="55" viewBox="0 0 55 55" fill="none" xmlns="http://www.w3.org/2000/svg">
<g clip-path="url(#clip0)">
<path d="M4.58208 19.5646C5.01895 19.5646 5.37314 19.2105 5.37314 18.7736V3.15589C5.37314 2.31662 6.05588 1.63388 6.89514 1.63388H33.6694C33.4083 2.09597 33.2698 2.62524 33.2698 3.15578L33.2701 24.6211H30.7883C30.3514 24.6211 29.9972 24.9752 29.9972 25.4122V44.9567C29.9972 45.3936 30.3514 45.7477 30.7883 45.7477C31.2252 45.7477 31.5793 45.3936 31.5793 44.9567V26.2032H41.5879C42.0247 26.2032 42.3789 25.8491 42.3789 25.4122C42.3789 24.9752 42.0247 24.6211 41.5879 24.6211H34.8522V11.0743H40.9988C42.7102 11.0743 44.1025 9.68204 44.1025 7.97061V4.11613C44.1025 3.67915 43.7483 3.32507 43.3114 3.32507H39.4771C39.4703 1.59549 38.1651 0.0517578 36.3733 0.0517578H6.89514C5.1835 0.0517578 3.79102 1.44424 3.79102 3.15589V18.7736C3.79102 19.2105 4.1452 19.5646 4.58208 19.5646V19.5646ZM39.4773 4.90719H42.5206V7.97061C42.5206 8.80955 41.8379 9.49219 40.999 9.49219C40.16 9.49219 39.4774 8.80955 39.4774 7.97061V4.90719H39.4773ZM34.8523 3.15589C34.8523 2.71584 35.041 2.3201 35.3403 2.04196C35.612 1.78967 35.9745 1.63409 36.3736 1.63409C37.2126 1.63409 37.8952 2.31673 37.8952 3.15578V7.97061C37.8952 8.52308 38.0403 9.04234 38.2944 9.49219H34.8523V3.15589Z" fill="#CC9A1B"/>
<path d="M12.7559 19.707H11.1348C10.6979 19.707 10.3438 20.0611 10.3438 20.4981C10.3438 20.9351 10.6979 21.2892 11.1348 21.2892H12.7559C13.1927 21.2892 13.5469 20.9351 13.5469 20.4981C13.5469 20.0611 13.1927 19.707 12.7559 19.707Z" fill="#CC9A1B"/>
<path d="M27.5003 19.707H16.0332C15.5964 19.707 15.2422 20.0611 15.2422 20.4981C15.2422 20.9351 15.5964 21.2892 16.0332 21.2892H27.5003C27.9372 21.2892 28.2913 20.9351 28.2913 20.4981C28.2913 20.0611 27.9372 19.707 27.5003 19.707V19.707Z" fill="#CC9A1B"/>
<path d="M12.7559 22.9824H11.1348C10.6979 22.9824 10.3438 23.3365 10.3438 23.7735C10.3438 24.2105 10.6979 24.5645 11.1348 24.5645H12.7559C13.1927 24.5645 13.5469 24.2105 13.5469 23.7735C13.5469 23.3365 13.1927 22.9824 12.7559 22.9824Z" fill="#CC9A1B"/>
<path d="M27.5003 22.9824H16.0332C15.5964 22.9824 15.2422 23.3365 15.2422 23.7735C15.2422 24.2105 15.5964 24.5645 16.0332 24.5645H27.5003C27.9372 24.5645 28.2913 24.2105 28.2913 23.7735C28.2913 23.3365 27.9372 22.9824 27.5003 22.9824V22.9824Z" fill="#CC9A1B"/>
<path d="M12.7559 26.2588H11.1348C10.6979 26.2588 10.3438 26.6129 10.3438 27.0498C10.3438 27.4868 10.6979 27.8409 11.1348 27.8409H12.7559C13.1927 27.8409 13.5469 27.4868 13.5469 27.0498C13.5469 26.6129 13.1927 26.2588 12.7559 26.2588V26.2588Z" fill="#CC9A1B"/>
<path d="M27.5003 26.2588H16.0332C15.5964 26.2588 15.2422 26.6129 15.2422 27.0498C15.2422 27.4868 15.5964 27.8409 16.0332 27.8409H27.5003C27.9372 27.8409 28.2913 27.4868 28.2913 27.0498C28.2913 26.6129 27.9372 26.2588 27.5003 26.2588V26.2588Z" fill="#CC9A1B"/>
<path d="M12.7559 29.5352H11.1348C10.6979 29.5352 10.3438 29.8892 10.3438 30.3262C10.3438 30.7632 10.6979 31.1173 11.1348 31.1173H12.7559C13.1927 31.1173 13.5469 30.7632 13.5469 30.3262C13.5469 29.8892 13.1927 29.5352 12.7559 29.5352Z" fill="#CC9A1B"/>
<path d="M27.5003 29.5352H16.0332C15.5964 29.5352 15.2422 29.8892 15.2422 30.3262C15.2422 30.7632 15.5964 31.1173 16.0332 31.1173H27.5003C27.9372 31.1173 28.2913 30.7632 28.2913 30.3262C28.2913 29.8892 27.9372 29.5352 27.5003 29.5352V29.5352Z" fill="#CC9A1B"/>
<path d="M12.7559 32.8115H11.1348C10.6979 32.8115 10.3438 33.1656 10.3438 33.6026C10.3438 34.0396 10.6979 34.3936 11.1348 34.3936H12.7559C13.1927 34.3936 13.5469 34.0396 13.5469 33.6026C13.5469 33.1656 13.1927 32.8115 12.7559 32.8115Z" fill="#CC9A1B"/>
<path d="M27.5003 32.8115H16.0332C15.5964 32.8115 15.2422 33.1656 15.2422 33.6026C15.2422 34.0396 15.5964 34.3936 16.0332 34.3936H27.5003C27.9372 34.3936 28.2913 34.0396 28.2913 33.6026C28.2913 33.1656 27.9372 32.8115 27.5003 32.8115V32.8115Z" fill="#CC9A1B"/>
<path d="M12.7559 36.0996H11.1348C10.6979 36.0996 10.3438 36.4537 10.3438 36.8907C10.3438 37.3277 10.6979 37.6817 11.1348 37.6817H12.7559C13.1927 37.6817 13.5469 37.3277 13.5469 36.8907C13.5469 36.4537 13.1927 36.0996 12.7559 36.0996Z" fill="#CC9A1B"/>
<path d="M27.5003 36.0996H16.0332C15.5964 36.0996 15.2422 36.4537 15.2422 36.8907C15.2422 37.3277 15.5964 37.6817 16.0332 37.6817H27.5003C27.9372 37.6817 28.2913 37.3277 28.2913 36.8907C28.2913 36.4537 27.9372 36.0996 27.5003 36.0996V36.0996Z" fill="#CC9A1B"/>
<path d="M12.7559 39.3623H11.1348C10.6979 39.3623 10.3438 39.7164 10.3438 40.1534C10.3438 40.5903 10.6979 40.9444 11.1348 40.9444H12.7559C13.1927 40.9444 13.5469 40.5903 13.5469 40.1534C13.5469 39.7164 13.1927 39.3623 12.7559 39.3623Z" fill="#CC9A1B"/>
<path d="M27.5003 39.3623H16.0332C15.5964 39.3623 15.2422 39.7164 15.2422 40.1534C15.2422 40.5903 15.5964 40.9444 16.0332 40.9444H27.5003C27.9372 40.9444 28.2913 40.5903 28.2913 40.1534C28.2913 39.7164 27.9372 39.3623 27.5003 39.3623V39.3623Z" fill="#CC9A1B"/>
<path d="M12.7559 42.626H11.1348C10.6979 42.626 10.3438 42.9801 10.3438 43.417C10.3438 43.854 10.6979 44.2081 11.1348 44.2081H12.7559C13.1927 44.2081 13.5469 43.854 13.5469 43.417C13.5469 42.9801 13.1927 42.626 12.7559 42.626Z" fill="#CC9A1B"/>
<path d="M27.5003 42.626H16.0332C15.5964 42.626 15.2422 42.9801 15.2422 43.417C15.2422 43.854 15.5964 44.2081 16.0332 44.2081H27.5003C27.9372 44.2081 28.2913 43.854 28.2913 43.417C28.2913 42.9801 27.9372 42.626 27.5003 42.626V42.626Z" fill="#CC9A1B"/>
<path d="M12.7559 45.8896H11.1348C10.6979 45.8896 10.3438 46.2437 10.3438 46.6807C10.3438 47.1177 10.6979 47.4718 11.1348 47.4718H12.7559C13.1927 47.4718 13.5469 47.1177 13.5469 46.6807C13.5469 46.2437 13.1927 45.8896 12.7559 45.8896Z" fill="#CC9A1B"/>
<path d="M27.5003 45.8896H16.0332C15.5964 45.8896 15.2422 46.2437 15.2422 46.6807C15.2422 47.1177 15.5964 47.4718 16.0332 47.4718H27.5003C27.9372 47.4718 28.2913 47.1177 28.2913 46.6807C28.2913 46.2437 27.9372 45.8896 27.5003 45.8896V45.8896Z" fill="#CC9A1B"/>
<path d="M50.4542 24.6213H45.0349C44.598 24.6213 44.2438 24.9754 44.2438 25.4123C44.2438 25.8493 44.598 26.2034 45.0349 26.2034H49.6631V52.4698H31.5794V48.4048C31.5794 47.9678 31.2253 47.6138 30.7884 47.6138C30.3515 47.6138 29.9973 47.9678 29.9973 48.4048V52.4667H5.37314V22.2217C5.37314 21.7847 5.01895 21.4307 4.58208 21.4307C4.1452 21.4307 3.79102 21.7847 3.79102 22.2217V53.2577C3.79102 53.6947 4.1452 54.0488 4.58208 54.0488L50.4542 54.0519C50.8911 54.0519 51.2452 53.6979 51.2452 53.2609V25.4123C51.2452 24.9755 50.8911 24.6213 50.4542 24.6213V24.6213Z" fill="#CC9A1B"/>
<path d="M47.9705 28.6885C47.9705 28.2515 47.6163 27.8975 47.1794 27.8975H34.0743C33.6374 27.8975 33.2832 28.2515 33.2832 28.6885V33.6029C33.2832 34.0399 33.6374 34.394 34.0743 34.394H47.1794C47.6163 34.394 47.9705 34.0399 47.9705 33.6029V28.6885ZM46.3884 32.8119H34.8653V29.4796H46.3884V32.8119Z" fill="#CC9A1B"/>
<path d="M34.0743 50.7752H47.1794C47.6163 50.7752 47.9705 50.4211 47.9705 49.9841V36.879C47.9705 36.442 47.6163 36.0879 47.1794 36.0879H34.0743C33.6374 36.0879 33.2832 36.442 33.2832 36.879V49.9841C33.2832 50.4211 33.6374 50.7752 34.0743 50.7752V50.7752ZM44.6942 37.67H46.3884V39.3637L44.6942 39.3628V37.67ZM44.6942 40.945L46.3884 40.946V42.6406H44.6942V40.945ZM44.6942 44.2227H46.3884V49.1931H44.6942V44.2227ZM41.4139 37.67H43.1122V39.3619L41.4139 39.361V37.67ZM41.4139 40.9431L43.1122 40.9441V42.6405H41.4139V40.9431ZM41.4139 44.2227H43.1121V45.9168H41.4139V44.2227ZM41.4139 47.4989H43.1121V49.1932H41.4139V47.4989ZM38.1375 37.67H39.8317V39.3601L38.1375 39.3592V37.67ZM38.1375 40.9413L39.8317 40.9423V42.6405H38.1375V40.9413ZM38.1375 44.2227H39.8317V45.9168H38.1375V44.2227ZM38.1375 47.4989H39.8317V49.1932H38.1375V47.4989ZM34.8653 37.67H36.5554V39.3582L34.8653 39.3573V37.67ZM34.8653 40.9395L36.5554 40.9405V42.6406H34.8653V40.9395ZM34.8653 44.2227H36.5554V45.9168H34.8653V44.2227ZM34.8653 47.4989H36.5554V49.1932H34.8653V47.4989Z" fill="#CC9A1B"/>
<path d="M14.3304 12.5574L18.7669 16.986C19.1395 17.2943 19.512 17.2943 19.8847 16.986L24.3167 12.5618C26.4534 10.4882 24.7895 6.60254 21.8347 6.60254C20.8659 6.60254 19.9703 6.99522 19.3258 7.66024C18.6813 6.99512 17.7856 6.60254 16.817 6.60254C13.8639 6.60254 12.246 10.4893 14.3304 12.5574V12.5574ZM16.8168 8.18466C17.6012 8.18466 18.1881 8.70972 18.5923 9.38254C19.0521 10.148 19.6849 10.148 20.059 9.38254C20.4037 8.67734 21.0502 8.18466 21.8345 8.18466C23.4733 8.18466 24.3917 10.2681 23.2031 11.4378L19.3256 15.3084L15.4589 11.4486C14.2002 9.85802 15.6646 8.18466 16.8168 8.18466V8.18466Z" fill="#CC9A1B"/>
</g>
<defs>
<clipPath id="clip0">
<rect width="54" height="54" fill="white" transform="translate(0.517578 0.0517578)"/>
</clipPath>
</defs>
</svg>
