<svg width="44" height="44" viewBox="0 0 44 44" fill="none" xmlns="http://www.w3.org/2000/svg">
<g clip-path="url(#clip0)">
<path d="M43.7065 21.179C39.7074 16.3068 31.2407 10.6208 22 10.6208C12.7263 10.6208 4.25924 16.3454 0.293635 21.179C-0.0978784 21.6562 -0.0978784 22.3435 0.293635 22.8207C4.38753 27.8108 12.8741 33.3789 22 33.3789C31.4503 33.3789 39.881 27.4815 43.7065 22.8208C44.098 22.3435 44.098 21.6562 43.7065 21.179ZM30.7908 21.9999C30.7908 26.8471 26.8473 30.7907 22 30.7907C17.1525 30.7907 13.2091 26.8468 13.2091 21.9999C13.2091 17.1526 17.1526 13.209 22 13.209C26.8477 13.2091 30.7908 17.1531 30.7908 21.9999ZM3.04226 22.0002C4.49883 20.4863 8.01089 17.2192 12.941 15.1223C9.84707 19.1877 9.84586 24.8086 12.9396 28.8755C9.19104 27.2868 5.70883 24.7767 3.04226 22.0002ZM31.059 28.8774C34.153 24.8119 34.1541 19.1911 31.0605 15.1242C34.8089 16.713 38.2912 19.2231 40.9578 21.9994C39.5013 23.5135 35.9892 26.7804 31.059 28.8774Z" fill="#CC9A1B"/>
<path d="M17.6016 22.0001C17.6016 24.4263 19.5753 26.4001 22.0015 26.4001C24.4277 26.4001 26.4015 24.4263 26.4015 22.0001C26.4015 19.5739 24.4277 17.6001 22.0015 17.6001C19.5753 17.6001 17.6016 19.5739 17.6016 22.0001ZM23.8133 22.0001C23.8133 22.9991 23.0005 23.8118 22.0015 23.8118C21.0025 23.8118 20.1898 22.9991 20.1898 22.0001C20.1898 21.001 21.0025 20.1883 22.0015 20.1883C23.0005 20.1883 23.8133 21.001 23.8133 22.0001Z" fill="#CC9A1B"/>
<path d="M22.0012 5.60784C22.7159 5.60784 23.2953 5.02842 23.2953 4.31373V1.29412C23.2953 0.57942 22.7159 0 22.0012 0C21.2865 0 20.707 0.57942 20.707 1.29412V4.31373C20.707 5.02842 21.2865 5.60784 22.0012 5.60784Z" fill="#CC9A1B"/>
<path d="M29.7235 7.33877C30.344 7.69267 31.1345 7.4769 31.4887 6.85572L33.211 3.83611C33.565 3.21528 33.3489 2.42501 32.728 2.07085C32.107 1.71678 31.3169 1.9329 30.9627 2.5539L29.2405 5.57351C28.8864 6.19425 29.1026 6.98461 29.7235 7.33877Z" fill="#CC9A1B"/>
<path d="M12.5135 6.85571C12.8676 7.47654 13.6579 7.69274 14.2788 7.33867C14.8996 6.9846 15.1158 6.19424 14.7617 5.57341L13.0395 2.5538C12.6855 1.93297 11.895 1.71676 11.2743 2.07084C10.6534 2.42491 10.4372 3.21527 10.7913 3.8361L12.5135 6.85571Z" fill="#CC9A1B"/>
<path d="M22.0012 38.3921C21.2865 38.3921 20.707 38.9715 20.707 39.6862V42.7059C20.707 43.4206 21.2865 44 22.0012 44C22.7159 44 23.2953 43.4206 23.2953 42.7059V39.6862C23.2953 38.9715 22.7159 38.3921 22.0012 38.3921Z" fill="#CC9A1B"/>
<path d="M14.2788 36.6614C13.6579 36.3074 12.8677 36.5235 12.5135 37.1443L10.7913 40.1639C10.4372 40.7848 10.6534 41.5751 11.2743 41.9292C11.8952 42.2833 12.6854 42.067 13.0395 41.4462L14.7617 38.4266C15.1159 37.8058 14.8996 37.0154 14.2788 36.6614V36.6614Z" fill="#CC9A1B"/>
<path d="M31.4887 37.1444C31.1347 36.5235 30.3441 36.3074 29.7235 36.6613C29.1026 37.0154 28.8864 37.8058 29.2405 38.4266L30.9627 41.4462C31.3167 42.067 32.107 42.2833 32.728 41.9293C33.3488 41.5752 33.565 40.7848 33.211 40.164L31.4887 37.1444Z" fill="#CC9A1B"/>
</g>
<defs>
<clipPath id="clip0">
<rect width="44" height="44" fill="white"/>
</clipPath>
</defs>
</svg>
