<svg width="29" height="20" viewBox="0 0 29 20" fill="none" xmlns="http://www.w3.org/2000/svg">
<path d="M27.5179 3.70456C27.2046 2.53983 26.2863 1.62169 25.1217 1.30807C22.9942 0.725952 14.484 0.725952 14.484 0.725952C14.484 0.725952 5.97418 0.725952 3.84667 1.286C2.70451 1.59929 1.7638 2.54 1.4505 3.70456C0.890625 5.83191 0.890625 10.2437 0.890625 10.2437C0.890625 10.2437 0.890625 14.6778 1.4505 16.7829C1.76413 17.9475 2.68211 18.8656 3.84683 19.1792C5.99658 19.7615 14.4844 19.7615 14.4844 19.7615C14.4844 19.7615 22.9942 19.7615 25.1217 19.2015C26.2865 18.888 27.2046 17.9699 27.5182 16.8053C28.078 14.6778 28.078 10.2661 28.078 10.2661C28.078 10.2661 28.1004 5.83191 27.5179 3.70456V3.70456ZM11.7746 14.3195V6.16793L18.8512 10.2437L11.7746 14.3195Z" fill="white"/>
</svg>
